G04 #@! TF.GenerationSoftware,KiCad,Pcbnew,(5.0.2)-1*
G04 #@! TF.CreationDate,2019-06-30T15:53:46+02:00*
G04 #@! TF.ProjectId,PCB_Fujitora_morro,5043425f-4675-46a6-9974-6f72615f6d6f,rev?*
G04 #@! TF.SameCoordinates,PX5aa8f70PY8620d10*
G04 #@! TF.FileFunction,Soldermask,Top*
G04 #@! TF.FilePolarity,Negative*
%FSLAX46Y46*%
G04 Gerber Fmt 4.6, Leading zero omitted, Abs format (unit mm)*
G04 Created by KiCad (PCBNEW (5.0.2)-1) date 30/06/2019 15:53:46*
%MOMM*%
%LPD*%
G01*
G04 APERTURE LIST*
%ADD10C,0.200000*%
%ADD11C,0.100000*%
G04 APERTURE END LIST*
D10*
X56388000Y-3302000D02*
X56388000Y0D01*
X26162000Y-3302000D02*
X56388000Y-3302000D01*
X26162000Y0D02*
X26162000Y-3302000D01*
X26162000Y1397000D02*
X17526000Y1397000D01*
X56388000Y0D02*
X56388000Y1397000D01*
X26162000Y1397000D02*
X26162000Y0D01*
X76616560Y11557000D02*
X75224640Y11557000D01*
X76616560Y13055600D02*
X76616560Y11557000D01*
X76677520Y63581280D02*
X74640440Y63586360D01*
X76682600Y65024000D02*
X76677520Y63581280D01*
X13487400Y5461000D02*
X13487400Y12522200D01*
X22072600Y5461000D02*
X13487400Y5461000D01*
X16484600Y8458200D02*
X16484600Y11480800D01*
X24561800Y8458200D02*
X16484600Y8458200D01*
X74625200Y13055600D02*
X76626720Y13055600D01*
X78232000Y5461000D02*
X78232000Y11557000D01*
X69392800Y5461000D02*
X78232000Y5461000D01*
X75209400Y8483600D02*
X75209400Y11551920D01*
X69392800Y8483600D02*
X75209400Y8483600D01*
X69392800Y8483600D02*
X69392800Y12573000D01*
X60502800Y5461000D02*
X69392800Y5461000D01*
X66446400Y8458200D02*
X66446400Y11633200D01*
X58013600Y8458200D02*
X66446400Y8458200D01*
X51240617Y69577211D02*
X51497287Y69649085D01*
X44366983Y68086404D02*
X44621921Y68047983D01*
X50465078Y69610286D02*
X50720783Y69556957D01*
X45410642Y68100642D02*
X45678696Y68172080D01*
X47048965Y61861837D02*
X46944830Y68544625D01*
X44117244Y62429976D02*
X44087729Y60859651D01*
X47215907Y56375914D02*
X46944965Y55042360D01*
X50980664Y69545922D02*
X51240617Y69577211D01*
X50720783Y69556957D02*
X50980664Y69545922D01*
X49749161Y70002249D02*
X49978281Y69835578D01*
X50216978Y69704070D02*
X50465078Y69610286D01*
X49978281Y69835578D02*
X50216978Y69704070D01*
X43203774Y68689170D02*
X43419034Y68516580D01*
X45678696Y68172080D02*
X45948791Y68269186D01*
X46772982Y68708774D02*
X47019200Y68879791D01*
X47048965Y61861837D02*
X47269791Y58813756D01*
X49690323Y70055651D02*
X49749161Y70002249D01*
X46495650Y68537961D02*
X46772982Y68708774D01*
X45948791Y68269186D02*
X46221026Y68391313D01*
X44881581Y68037858D02*
X45144775Y68055637D01*
X44621921Y68047983D02*
X44881581Y68037858D01*
X46223597Y47543694D02*
X46668877Y53005971D01*
X47520126Y57335999D02*
X47269791Y58813756D01*
X45144775Y68055637D02*
X45410642Y68100642D01*
X43672334Y67335197D02*
X43962991Y64731110D01*
X44348400Y20320000D02*
X44073929Y24393265D01*
X44117244Y62429976D02*
X43962991Y64731110D01*
X44624087Y52940207D02*
X44073929Y24393265D01*
X47215907Y56375914D02*
X47520126Y57335999D01*
X44348400Y20320000D02*
X45259424Y27635178D01*
X44324505Y56301496D02*
X44624087Y52940207D01*
X47019200Y68879791D02*
X46944830Y68544625D01*
X46668877Y53005971D02*
X46944965Y55042360D01*
X49884965Y69332705D02*
X49690323Y70055651D01*
X46221026Y68391313D02*
X46495650Y68537961D01*
X44118111Y68153094D02*
X44366983Y68086404D01*
X43876576Y68247587D02*
X44118111Y68153094D01*
X43419034Y68516580D02*
X43643359Y68369071D01*
X44087729Y60859651D02*
X43739916Y58867383D01*
X43672334Y67335197D02*
X43102839Y68785478D01*
X43643359Y68369071D02*
X43876576Y68247587D01*
X43102839Y68785478D02*
X43203774Y68689170D01*
X46223597Y47543694D02*
X45259424Y27635178D01*
X44324505Y56301496D02*
X43739916Y58867383D01*
X24173981Y25319701D02*
X24082586Y24342793D01*
X19288897Y11848527D02*
X18613472Y10749760D01*
X24082586Y24342793D02*
X23951561Y23357616D01*
X36973222Y52263883D02*
X37787555Y45408935D01*
X14014735Y18768130D02*
X14434425Y19613213D01*
X22951728Y19317647D02*
X22572245Y18280629D01*
X22572245Y18280629D02*
X22140423Y17232691D01*
X35103140Y66210567D02*
X35583223Y60443744D01*
X36252225Y54648948D02*
X36052503Y56889804D01*
X36720995Y54713550D02*
X36514750Y53604941D01*
X36973222Y52263883D02*
X36892580Y53548993D01*
X19253095Y57171265D02*
X19766266Y57273342D01*
X21657851Y16174163D02*
X21127175Y15105599D01*
X16484600Y11480800D02*
X17306318Y11083354D01*
X10497857Y12886666D02*
X11162060Y13928463D01*
X64298480Y56771664D02*
X63829214Y57003080D01*
X19766266Y57273342D02*
X20288371Y57307562D01*
X20288371Y57307562D02*
X20810476Y57273342D01*
X20810476Y57273342D02*
X21323647Y57171265D01*
X21323647Y57171265D02*
X21819105Y57003080D01*
X23461785Y55742608D02*
X23752473Y55307562D01*
X23752473Y55307562D02*
X23983889Y54838296D01*
X20552104Y14027772D02*
X19937403Y12941676D01*
X19937403Y12941676D02*
X19288897Y11848527D01*
X65993999Y54838296D02*
X65762582Y55307562D01*
X13541489Y17881149D02*
X14014735Y18768130D01*
X39344600Y23037800D02*
X38677375Y26566047D01*
X21819105Y57003080D02*
X22288371Y56771664D01*
X22288371Y56771664D02*
X22723417Y56480976D01*
X22723417Y56480976D02*
X23116798Y56135989D01*
X23116798Y56135989D02*
X23461785Y55742608D01*
X24262243Y27253793D02*
X24231572Y26289556D01*
X17306318Y11083354D02*
X18390696Y10395986D01*
X35873884Y58323432D02*
X35583223Y60443744D01*
X23983889Y54838296D02*
X24152075Y54342838D01*
X24152075Y54342838D02*
X24254151Y53829667D01*
X24254151Y53829667D02*
X24288371Y53307562D01*
X23951561Y23357616D02*
X23776140Y22363176D01*
X24288371Y37713898D02*
X24288371Y53307562D01*
X66298480Y53307562D02*
X66264260Y53829667D01*
X24273938Y28214072D02*
X24262243Y27253793D01*
X36514750Y53604941D02*
X36252225Y54648948D01*
X35921240Y57411807D02*
X35873884Y58323432D01*
X36892580Y53548993D02*
X36720995Y54713550D01*
X18613472Y10749760D02*
X18390696Y10395986D01*
X10497857Y12886666D02*
X12252064Y12773025D01*
X24231572Y26289556D02*
X24173981Y25319701D01*
X23776140Y22363176D02*
X23552616Y21358699D01*
X12252064Y12773025D02*
X13487400Y12522200D01*
X23552616Y21358699D02*
X23278342Y20343633D01*
X38677375Y26566047D02*
X37787555Y45408935D01*
X21127175Y15105599D02*
X20552104Y14027772D01*
X14434425Y19613213D02*
X14800720Y20416685D01*
X35921240Y57411807D02*
X36052503Y56889804D01*
X23278342Y20343633D02*
X22951728Y19317647D01*
X22140423Y17232691D02*
X21657851Y16174163D01*
X22207765Y49301362D02*
X22203625Y52401362D01*
X53167900Y59950644D02*
X53755249Y62678045D01*
X50124135Y61205461D02*
X49809105Y62458267D01*
X53167900Y59950644D02*
X52918065Y57809856D01*
X51995393Y69904410D02*
X52237403Y70083708D01*
X35103140Y66210567D02*
X34613202Y68749775D01*
X53466473Y63826445D02*
X53254567Y65633550D01*
X53737776Y71375246D02*
X53556787Y71688736D01*
X37687440Y67455470D02*
X38070484Y67546145D01*
X36891983Y67437476D02*
X37293589Y67417830D01*
X34875748Y68478023D02*
X35273301Y68139376D01*
X53304175Y70761138D02*
X53111994Y70043906D01*
X52947780Y70816993D02*
X53182496Y71125910D01*
X50774600Y25298400D02*
X52549655Y53006282D01*
X36486199Y67517660D02*
X36891983Y67437476D01*
X53089513Y69242774D02*
X53254567Y65633550D01*
X53304175Y70761138D02*
X53737776Y71375246D01*
X34613202Y68749775D02*
X34875748Y68478023D01*
X52712565Y70540313D02*
X52947780Y70816993D01*
X50423714Y57844169D02*
X50295720Y60040904D01*
X50424725Y50607082D02*
X50423714Y57844169D01*
X52476090Y70295836D02*
X52712565Y70540313D01*
X50424725Y50607082D02*
X50266333Y44968313D01*
X39344600Y23037800D02*
X39684254Y31241579D01*
X39684254Y31241579D02*
X39517316Y46727505D01*
X39135208Y52345801D02*
X39517316Y46727505D01*
X39653220Y50526874D02*
X39135208Y52345801D01*
X39829953Y50065145D02*
X39653220Y50526874D01*
X39920896Y50185699D02*
X39829953Y50065145D01*
X39920896Y50185699D02*
X39861360Y50663575D01*
X39861360Y50663575D02*
X39866373Y64868669D01*
X40072608Y68950085D02*
X40297381Y69222823D01*
X35273301Y68139376D02*
X35674816Y67867354D01*
X40157909Y68748857D02*
X39866373Y64868669D01*
X40157909Y68748857D02*
X40297381Y69222823D01*
X36079623Y67660503D02*
X36486199Y67517660D01*
X39776135Y68633875D02*
X40072608Y68950085D01*
X39138020Y68089107D02*
X39464557Y68345761D01*
X49809400Y22580600D02*
X50774600Y25298400D01*
X37293589Y67417830D02*
X37687440Y67455470D01*
X51748941Y69758957D02*
X51995393Y69904410D01*
X50020002Y68075779D02*
X49966116Y65450402D01*
X49966116Y65450402D02*
X49586904Y62859714D01*
X50102291Y42245240D02*
X50266333Y44968313D01*
X49809400Y22580600D02*
X49555771Y25256758D01*
X53755249Y62678045D02*
X53466473Y63826445D01*
X51497287Y69649085D02*
X51748941Y69758957D01*
X53089513Y69242774D02*
X53111994Y70043906D01*
X53182496Y71125910D02*
X53376913Y71403040D01*
X52237403Y70083708D02*
X52476090Y70295836D01*
X50102291Y42245240D02*
X49794802Y29610429D01*
X50295720Y60040904D02*
X50124135Y61205461D01*
X39464557Y68345761D02*
X39776135Y68633875D01*
X38796635Y67867549D02*
X39138020Y68089107D01*
X38440611Y67685088D02*
X38796635Y67867549D01*
X38070484Y67546145D02*
X38440611Y67685088D01*
X35674816Y67867354D02*
X36079623Y67660503D01*
X50020002Y68075779D02*
X49884965Y69332705D01*
X52918065Y57809856D02*
X52549655Y53006282D01*
X49809105Y62458267D02*
X49586904Y62859714D01*
X49794802Y29610429D02*
X49555771Y25256758D01*
X2304782Y81925869D02*
X2048439Y81635260D01*
X496525Y79106363D02*
X364890Y78764748D01*
X1655739Y67018976D02*
X-203200Y64008000D01*
X9916567Y76253155D02*
X8167191Y74669936D01*
X364890Y78764748D02*
X247111Y78417465D01*
X53122Y77705898D02*
X-23089Y77341613D01*
X1577322Y81037040D02*
X1362549Y80729429D01*
X13637657Y79152756D02*
X11741522Y77748630D01*
X642017Y79442311D02*
X496525Y79106363D01*
X-203200Y75438000D02*
X-203200Y64008000D01*
X21780405Y82710024D02*
X21382027Y82685830D01*
X2048439Y81635260D02*
X1805953Y81338984D01*
X1362549Y80729429D02*
X1161631Y80416150D01*
X1161631Y80416150D02*
X974570Y80097204D01*
X1805953Y81338984D02*
X1577322Y81037040D01*
X3361129Y69351413D02*
X1655739Y67018976D01*
X5203596Y71577157D02*
X3361129Y69351413D01*
X22156382Y82709259D02*
X21780405Y82710024D01*
X3987800Y83566000D02*
X2574981Y82210811D01*
X81944183Y79721711D02*
X82089675Y79385763D01*
X60429818Y82709259D02*
X60805795Y82710024D01*
X59414367Y82587404D02*
X59736149Y82645242D01*
X57605878Y81709523D02*
X58527340Y82334599D01*
X82221310Y79044148D02*
X82339089Y78696865D01*
X81784834Y80051991D02*
X81944183Y79721711D01*
X20026549Y82428685D02*
X19511275Y82269210D01*
X76088593Y73002787D02*
X77382604Y71577157D01*
X59106727Y82515324D02*
X59414367Y82587404D01*
X16284017Y80753313D02*
X15473448Y80282912D01*
X60073971Y82686705D02*
X60429818Y82709259D01*
X14593740Y79750107D02*
X13637657Y79152756D01*
X59106727Y82515324D02*
X58527340Y82334599D01*
X59736149Y82645242D02*
X60073971Y82686705D01*
X82775565Y76107202D02*
X82782493Y75714580D01*
X18958464Y82066619D02*
X18364061Y81817219D01*
X-189365Y75827802D02*
X-203200Y75438000D01*
X-23089Y77341613D02*
X-85442Y76971661D01*
X-133939Y76596042D02*
X-168580Y76214755D01*
X974570Y80097204D02*
X801366Y79772591D01*
X6497607Y73002787D02*
X5203596Y71577157D01*
X8167191Y74669936D02*
X6497607Y73002787D01*
X-168580Y76214755D02*
X-189365Y75827802D01*
X2574981Y82210811D02*
X2304782Y81925869D01*
X247111Y78417465D02*
X143188Y78064515D01*
X143188Y78064515D02*
X53122Y77705898D01*
X11741522Y77748630D02*
X9916567Y76253155D01*
X801366Y79772591D02*
X642017Y79442311D01*
X19511275Y82269210D02*
X18958464Y82066619D01*
X-85442Y76971661D02*
X-133939Y76596042D01*
X81223651Y81008829D02*
X81424569Y80695550D01*
X67112752Y80282912D02*
X67992460Y79750107D01*
X68948543Y79152756D02*
X70844678Y77748630D01*
X82720139Y76875442D02*
X82754780Y76494155D01*
X25486187Y10073753D02*
X25737528Y10652727D01*
X65040653Y1426511D02*
X56388000Y1426511D01*
X19807201Y92640043D02*
X17094642Y91518782D01*
X17094642Y91518782D02*
X14440367Y90265773D01*
X62236263Y3791376D02*
X61506301Y4467787D01*
X22289744Y82700807D02*
X22156382Y82709259D01*
X57739712Y8893129D02*
X57392990Y9487395D01*
X58013600Y8458200D02*
X57739712Y8893129D01*
X56482789Y11790623D02*
X56374196Y12350593D01*
X28228636Y95187949D02*
X25380912Y94476839D01*
X56298404Y21455202D02*
X56307948Y78511522D01*
X25674573Y80863879D02*
X24981190Y81709523D01*
X24981190Y81709523D02*
X24059729Y82334599D01*
X26263457Y78511522D02*
X26111484Y79797464D01*
X56313099Y12905278D02*
X56298404Y21455202D01*
X57093979Y10073753D02*
X56842638Y10652727D01*
X56374196Y12350593D02*
X56313099Y12905278D01*
X31107821Y95758471D02*
X28228636Y95187949D01*
X56638922Y11224842D02*
X56482789Y11790623D01*
X19565843Y3102336D02*
X20343903Y3791376D01*
X21755772Y5132095D02*
X22072600Y5461000D01*
X6890404Y85747983D02*
X3987800Y83566000D01*
X39864512Y96614479D02*
X36932776Y96472596D01*
X26277882Y21383416D02*
X26279663Y21455206D01*
X65040653Y1426511D02*
X64714911Y1684273D01*
X22289744Y82700807D02*
X23499121Y82537678D01*
X25187176Y9487395D02*
X25486187Y10073753D01*
X63014323Y3102336D02*
X62236263Y3791376D01*
X26097377Y11790623D02*
X26205971Y12350593D01*
X24840455Y8893129D02*
X25187176Y9487395D01*
X23499121Y82537678D02*
X24059729Y82334599D01*
X26279663Y21455206D02*
X26263457Y78511522D01*
X24561800Y8458200D02*
X24840455Y8893129D01*
X34011533Y96187031D02*
X31107821Y95758471D01*
X17539148Y1426511D02*
X17865255Y1684273D01*
X25941244Y11224842D02*
X26097377Y11790623D01*
X20343903Y3791376D02*
X21073865Y4467787D01*
X25737528Y10652727D02*
X25941244Y11224842D01*
X36932776Y96472596D02*
X34011533Y96187031D01*
X26205971Y12350593D02*
X26267067Y12905278D01*
X28676600Y66040000D02*
X28905569Y65954034D01*
X28905569Y65954034D02*
X29155302Y65913453D01*
X29981933Y50652292D02*
X31267400Y29692600D01*
X32232600Y26797000D02*
X31267400Y29692600D01*
X29410404Y59917105D02*
X28907839Y63844518D01*
X29410404Y59917105D02*
X29981933Y50652292D01*
X81611630Y80376604D02*
X81784834Y80051991D01*
X82609289Y77621013D02*
X82671642Y77251061D01*
X79225071Y69351413D02*
X80930461Y67018976D01*
X82778600Y75717400D02*
X82778600Y64084200D01*
X80537761Y81914660D02*
X80780247Y81618384D01*
X72669633Y76253155D02*
X74419009Y74669936D01*
X80780247Y81618384D02*
X81008878Y81316440D01*
X67992460Y79750107D02*
X68948543Y79152756D01*
X62078251Y82548791D02*
X62559651Y82428685D01*
X63074925Y82269210D02*
X63627736Y82066619D01*
X65554147Y81163857D02*
X66302183Y80753313D01*
X63627736Y82066619D02*
X64222139Y81817219D01*
X82533078Y77985298D02*
X82609289Y77621013D01*
X78114166Y83947539D02*
X80543400Y81915000D01*
X64862622Y81517434D02*
X65554147Y81163857D01*
X74419009Y74669936D02*
X76088593Y73002787D01*
X82443012Y78343915D02*
X82533078Y77985298D01*
X61627421Y82633276D02*
X62078251Y82548791D01*
X61204173Y82685830D02*
X61627421Y82633276D01*
X81008878Y81316440D02*
X81223651Y81008829D01*
X82339089Y78696865D02*
X82443012Y78343915D01*
X60805795Y82710024D02*
X61204173Y82685830D01*
X70844678Y77748630D02*
X72669633Y76253155D01*
X62559651Y82428685D02*
X63074925Y82269210D01*
X80930461Y67018976D02*
X82778600Y64084200D01*
X77382604Y71577157D02*
X79225071Y69351413D01*
X81424569Y80695550D02*
X81611630Y80376604D01*
X82089675Y79385763D02*
X82221310Y79044148D01*
X82671642Y77251061D02*
X82720139Y76875442D01*
X82754780Y76494155D02*
X82775565Y76107202D01*
X66302183Y80753313D02*
X67112752Y80282912D01*
X64222139Y81817219D02*
X64862622Y81517434D01*
X17032053Y81163857D02*
X16284017Y80753313D01*
X15473448Y80282912D02*
X14593740Y79750107D01*
X62851167Y92608637D02*
X60088300Y93599482D01*
X68214531Y90226538D02*
X65562088Y91483419D01*
X73318582Y87330208D02*
X70802107Y88841022D01*
X78055488Y84001227D02*
X78114166Y83947539D01*
X18364061Y81817219D02*
X17723578Y81517434D01*
X51555110Y95743552D02*
X48652026Y96176349D01*
X56912495Y80863879D02*
X57605878Y81709523D01*
X56475585Y79797464D02*
X56912495Y80863879D01*
X21382027Y82685830D02*
X20958779Y82633276D01*
X48652026Y96176349D02*
X45731204Y96466177D01*
X60088300Y93599482D02*
X57280143Y94453565D01*
X54433460Y95168829D02*
X51555110Y95743552D01*
X57280143Y94453565D02*
X54433460Y95168829D01*
X65562088Y91483419D02*
X62851167Y92608637D01*
X75757894Y85697736D02*
X73318582Y87330208D01*
X56307948Y78511522D02*
X56475585Y79797464D01*
X20958779Y82633276D02*
X20507949Y82548791D01*
X78055488Y84001227D02*
X75757894Y85697736D01*
X20507949Y82548791D02*
X20026549Y82428685D01*
X17723578Y81517434D02*
X17032053Y81163857D01*
X45731204Y96466177D02*
X42799678Y96612338D01*
X70802107Y88841022D02*
X68214531Y90226538D01*
X58648512Y91413646D02*
X61567496Y90369836D01*
X65763440Y88531758D02*
X64004348Y85169826D01*
X50425968Y89579318D02*
X53460670Y88946390D01*
X1837061Y77862408D02*
X4439889Y75101561D01*
X72415985Y84701469D02*
X70212511Y81612506D01*
X78130093Y75111207D02*
X80735787Y77868278D01*
X72415985Y84701469D02*
X74941642Y82903952D01*
X78480469Y79995142D02*
X80735787Y77868278D01*
X78480469Y79995142D02*
X75874240Y77237505D01*
X65763440Y88531758D02*
X68511721Y87097546D01*
X75874240Y77237505D02*
X78130093Y75111207D01*
X51205618Y93292690D02*
X54240160Y92659000D01*
X66752990Y83736304D02*
X68511721Y87097546D01*
X51205618Y93292690D02*
X50425968Y89579318D01*
X60286284Y86799181D02*
X61567496Y90369836D01*
X72738620Y79815623D02*
X74941642Y82903952D01*
X53460670Y88946390D02*
X54240160Y92659000D01*
X46405099Y90137365D02*
X46668140Y93921792D01*
X70212511Y81612506D02*
X72738620Y79815623D01*
X57367036Y87842259D02*
X60286284Y86799181D01*
X64004348Y85169826D02*
X66752990Y83736304D01*
X58648512Y91413646D02*
X57367036Y87842259D01*
X31071747Y67126646D02*
X31270771Y67378882D01*
X31456789Y67656468D02*
X31628051Y67958450D01*
X31270771Y67378882D02*
X31456789Y67656468D01*
X30106769Y66191995D02*
X30316407Y66351787D01*
X29649678Y65972495D02*
X29884192Y66064378D01*
X29884192Y66064378D02*
X30106769Y66191995D01*
X30861345Y66900750D02*
X31071747Y67126646D01*
X30669710Y66728088D02*
X30861345Y66900750D01*
X30512523Y66541028D02*
X30669710Y66728088D01*
X30316407Y66351787D02*
X30512523Y66541028D01*
X29405365Y65920695D02*
X29649678Y65972495D01*
X29155302Y65913453D02*
X29405365Y65920695D01*
X31747241Y60509194D02*
X31535334Y62316305D01*
X31498281Y64633588D02*
X31535334Y62316305D01*
X31498281Y64633588D02*
X31664684Y68035529D01*
X31628051Y67958450D02*
X31664684Y68035529D01*
X4439889Y75101561D02*
X6692681Y77231103D01*
X32232600Y26797000D02*
X31763834Y41878332D01*
X31763834Y41878332D02*
X31525173Y47408383D01*
X1837061Y77862408D02*
X4090387Y79991383D01*
X31334741Y58291987D02*
X31525173Y47408383D01*
X31366143Y58890410D02*
X31334741Y58291987D01*
X31366143Y58890410D02*
X31747241Y60509194D01*
X6692681Y77231103D02*
X4090387Y79991383D01*
X22280415Y86793141D02*
X25198159Y87840417D01*
X14059688Y87093013D02*
X16806625Y88529797D01*
X43575368Y94133389D02*
X43312273Y90348185D01*
X28330225Y92656143D02*
X31364173Y93292673D01*
X29105297Y88941813D02*
X32139086Y89579105D01*
X21003342Y90366105D02*
X22280415Y86793141D01*
X25198159Y87840417D02*
X23921349Y91412648D01*
X7630440Y82898701D02*
X9830105Y79807024D01*
X9830105Y79807024D02*
X12353627Y81607540D01*
X32139086Y89579105D02*
X31364173Y93292673D01*
X18561211Y85166389D02*
X16806625Y88529797D01*
X7630440Y82898701D02*
X10154413Y84698582D01*
X21003342Y90366105D02*
X23921349Y91412648D01*
X28330225Y92656143D02*
X29105297Y88941813D01*
X14059688Y87093013D02*
X15814634Y83728915D01*
X12353627Y81607540D02*
X10154413Y84698582D01*
X43312273Y90348185D02*
X46405099Y90137365D01*
X43575368Y94133389D02*
X46668140Y93921792D01*
X15814634Y83728915D02*
X18561211Y85166389D01*
X39252864Y90349606D02*
X38994487Y94134355D01*
X35901915Y93919863D02*
X38994487Y94134355D01*
X35901915Y93919863D02*
X36160345Y90134337D01*
X15115284Y21180065D02*
X15381125Y21906532D01*
X64192778Y49328047D02*
X60398457Y49317269D01*
X59470053Y56135989D02*
X59125067Y55742608D01*
X66984560Y22601279D02*
X66803402Y23271729D01*
X18288371Y56771664D02*
X18757638Y57003080D01*
X60298480Y56771664D02*
X59863435Y56480976D01*
X58602962Y54838296D02*
X58434777Y54342838D01*
X17114958Y55742608D02*
X17459944Y56135989D01*
X67786132Y20416685D02*
X67471567Y21180065D01*
X60767747Y57003080D02*
X60298480Y56771664D01*
X11821489Y14975651D02*
X12441316Y15983971D01*
X16592853Y54838296D02*
X16824270Y55307562D01*
X17853326Y56480976D02*
X18288371Y56771664D01*
X22203625Y30104043D02*
X18410067Y30104043D01*
X18413429Y49301362D02*
X18410067Y52401362D01*
X62820585Y57273342D02*
X62298480Y57307562D01*
X66454186Y25242983D02*
X66389957Y25929519D01*
X61263204Y57171265D02*
X60767747Y57003080D01*
X22203625Y52401362D02*
X18410067Y52401362D01*
X65126908Y56135989D02*
X64733526Y56480976D01*
X18413429Y27004043D02*
X18410067Y30104043D01*
X15381125Y21906532D02*
X15602292Y22601279D01*
X16424668Y54342838D02*
X16592853Y54838296D01*
X66446400Y11658600D02*
X65280534Y11083354D01*
X59635124Y19317647D02*
X60014606Y18280629D01*
X12441316Y15983971D02*
X13016062Y16952789D01*
X16239908Y26653865D02*
X16264585Y27429673D01*
X15602292Y22601279D02*
X15783450Y23271729D01*
X15783450Y23271729D02*
X15929382Y23927525D01*
X58834379Y55307562D02*
X58602962Y54838296D01*
X17459944Y56135989D02*
X17853326Y56480976D01*
X72088995Y12886666D02*
X70334787Y12773025D01*
X63829214Y57003080D02*
X63333757Y57171265D01*
X11821489Y14975651D02*
X11162060Y13928463D01*
X16132666Y25242983D02*
X16196895Y25929519D01*
X63333757Y57171265D02*
X62820585Y57273342D01*
X66264260Y53829667D02*
X66162184Y54342838D01*
X15929382Y23927525D02*
X16044527Y24580264D01*
X18413429Y27004043D02*
X22207765Y27004043D01*
X14800720Y20416685D02*
X15115284Y21180065D01*
X16264585Y27429673D02*
X16274818Y28269963D01*
X16288371Y53307562D02*
X16322592Y53829667D01*
X16196895Y25929519D02*
X16239908Y26653865D01*
X66542325Y24580264D02*
X66454186Y25242983D01*
X13016062Y16952789D02*
X13541489Y17881149D01*
X65762582Y55307562D02*
X65471894Y55742608D01*
X16044527Y24580264D02*
X16132666Y25242983D01*
X18413429Y49301362D02*
X22207765Y49301362D01*
X66803402Y23271729D02*
X66657469Y23927525D01*
X66389957Y25929519D02*
X66346944Y26653865D01*
X66162184Y54342838D02*
X65993999Y54838296D01*
X22207765Y27004043D02*
X22203625Y30104043D01*
X18757638Y57003080D02*
X19253095Y57171265D01*
X60929001Y16174163D02*
X61459677Y15105599D01*
X64733526Y56480976D02*
X64298480Y56771664D01*
X16322592Y53829667D02*
X16424668Y54342838D01*
X16824270Y55307562D02*
X17114958Y55742608D01*
X79941116Y29321649D02*
X79941116Y31321649D01*
X28676600Y66040000D02*
X28907839Y63844518D01*
X73141116Y14548141D02*
X73141116Y62091649D01*
X79941116Y11574941D02*
X78232000Y11557000D01*
X66298480Y53307562D02*
X66312033Y28269963D01*
X24273938Y28214072D02*
X24288371Y37713898D01*
X73580456Y13487481D02*
X73342078Y13798141D01*
X42799678Y96612338D02*
X39864512Y96614479D01*
X73580456Y63152309D02*
X73891116Y63390687D01*
X73891116Y63390687D02*
X74252888Y63540538D01*
X16274818Y28269963D02*
X16288371Y53307562D01*
X79941116Y15048141D02*
X79141116Y15048141D01*
X79941116Y47321649D02*
X79141116Y47321649D01*
X73192228Y14159913D02*
X73141116Y14548141D01*
X39252864Y90349606D02*
X36160345Y90134337D01*
X53376913Y71403040D02*
X53556787Y71688736D01*
X58312914Y28214072D02*
X58298480Y37713898D01*
X79938880Y65024000D02*
X76682600Y65024000D01*
X73192228Y62479878D02*
X73342078Y62841649D01*
X60398457Y27005087D02*
X60393791Y30105086D01*
X60446428Y17232691D02*
X60929001Y16174163D01*
X69570789Y16952789D02*
X69045362Y17881149D01*
X67205727Y21906532D02*
X66984560Y22601279D01*
X62298480Y57307562D02*
X61776376Y57273342D01*
X70334787Y12773025D02*
X69392800Y12573000D01*
X63297955Y11848527D02*
X63973380Y10749760D01*
X66657469Y23927525D02*
X66542325Y24580264D01*
X58312914Y28214072D02*
X58324609Y27253793D01*
X58355280Y26289556D02*
X58412871Y25319701D01*
X79941116Y61591649D02*
X79141116Y61591649D01*
X64192778Y49328047D02*
X64187334Y52428044D01*
X79141116Y15048141D02*
X79141116Y29321649D01*
X66346944Y26653865D02*
X66322267Y27429673D01*
X73141116Y62091649D02*
X73192228Y62479878D01*
X70765363Y14975651D02*
X70145536Y15983971D01*
X61459677Y15105599D02*
X62034748Y14027772D01*
X68572116Y18768130D02*
X68152427Y19613213D01*
X58298480Y37713898D02*
X58298480Y53307562D01*
X70765363Y14975651D02*
X71424791Y13928463D01*
X62649449Y12941676D02*
X63297955Y11848527D01*
X58635291Y23357616D02*
X58810712Y22363176D01*
X79941116Y45321649D02*
X79941116Y47321649D01*
X69045362Y17881149D02*
X68572116Y18768130D01*
X79941116Y31321649D02*
X79141116Y31321649D01*
X73342078Y13798141D02*
X73192228Y14159913D01*
X79941116Y65024000D02*
X79941116Y61591649D01*
X59125067Y55742608D02*
X58834379Y55307562D01*
X58332701Y53829667D02*
X58298480Y53307562D01*
X60393791Y52417268D02*
X64187334Y52428044D01*
X68152427Y19613213D02*
X67786132Y20416685D01*
X72088995Y12886666D02*
X71424791Y13928463D01*
X58412871Y25319701D02*
X58504266Y24342793D01*
X61776376Y57273342D02*
X61263204Y57171265D01*
X59863435Y56480976D02*
X59470053Y56135989D01*
X62034748Y14027772D02*
X62649449Y12941676D01*
X58810712Y22363176D02*
X59034236Y21358699D01*
X74252888Y63540538D02*
X74640440Y63586360D01*
X58504266Y24342793D02*
X58635291Y23357616D01*
X74252888Y13099253D02*
X73891116Y13249103D01*
X60393791Y30105086D02*
X64187334Y30115862D01*
X79941116Y11577320D02*
X79941116Y15048141D01*
X63973380Y10749760D02*
X64196155Y10395986D01*
X73342078Y62841649D02*
X73580456Y63152309D01*
X67471567Y21180065D02*
X67205727Y21906532D01*
X79141116Y47321649D02*
X79141116Y61591649D01*
X79141116Y29321649D02*
X79941116Y29321649D01*
X66322267Y27429673D02*
X66312033Y28269963D01*
X79141116Y31321649D02*
X79141116Y45321649D01*
X79141116Y45321649D02*
X79941116Y45321649D01*
X58324609Y27253793D02*
X58355280Y26289556D01*
X70145536Y15983971D02*
X69570789Y16952789D01*
X60398457Y49317269D02*
X60393791Y52417268D01*
X58434777Y54342838D02*
X58332701Y53829667D01*
X74641116Y13048141D02*
X74252888Y13099253D01*
X64192778Y27015865D02*
X64187334Y30115862D01*
X59308510Y20343633D02*
X59635124Y19317647D01*
X59034236Y21358699D02*
X59308510Y20343633D01*
X65280534Y11083354D02*
X64196155Y10395986D01*
X65471894Y55742608D02*
X65126908Y56135989D01*
X73891116Y13249103D02*
X73580456Y13487481D01*
X60014606Y18280629D02*
X60446428Y17232691D01*
X64192778Y27015865D02*
X60398457Y27005087D01*
X25380912Y94476839D02*
X22571511Y93626855D01*
X26111484Y79797464D02*
X25674573Y80863879D01*
X11850772Y88884034D02*
X9332095Y87376894D01*
X64714911Y1684273D02*
X63840525Y2400143D01*
X63840525Y2400143D02*
X63014323Y3102336D01*
X22571511Y93626855D02*
X19807201Y92640043D01*
X18739641Y2400143D02*
X19565843Y3102336D01*
X56842638Y10652727D02*
X56638922Y11224842D01*
X61506301Y4467787D02*
X60824394Y5132095D01*
X57392990Y9487395D02*
X57093979Y10073753D01*
X14440367Y90265773D02*
X11850772Y88884034D01*
X60824394Y5132095D02*
X60502800Y5461000D01*
X21073865Y4467787D02*
X21755772Y5132095D01*
X9332095Y87376894D02*
X6890404Y85747983D01*
X26267067Y12905278D02*
X26277882Y21383416D01*
X17865255Y1684273D02*
X18739641Y2400143D01*
D11*
G36*
X55783641Y4305879D02*
X55884365Y4275325D01*
X55977180Y4225715D01*
X56058542Y4158942D01*
X56125315Y4077580D01*
X56174925Y3984765D01*
X56205479Y3884041D01*
X56216400Y3773160D01*
X56216400Y760440D01*
X56205479Y649559D01*
X56174925Y548835D01*
X56125315Y456020D01*
X56058542Y374658D01*
X55977180Y307885D01*
X55884365Y258275D01*
X55783641Y227721D01*
X55672760Y216800D01*
X54360040Y216800D01*
X54249159Y227721D01*
X54148435Y258275D01*
X54055620Y307885D01*
X53974258Y374658D01*
X53907485Y456020D01*
X53857875Y548835D01*
X53827321Y649559D01*
X53816400Y760440D01*
X53816400Y3773160D01*
X53827321Y3884041D01*
X53857875Y3984765D01*
X53907485Y4077580D01*
X53974258Y4158942D01*
X54055620Y4225715D01*
X54148435Y4275325D01*
X54249159Y4305879D01*
X54360040Y4316800D01*
X55672760Y4316800D01*
X55783641Y4305879D01*
X55783641Y4305879D01*
G37*
G36*
X28351641Y4305879D02*
X28452365Y4275325D01*
X28545180Y4225715D01*
X28626542Y4158942D01*
X28693315Y4077580D01*
X28742925Y3984765D01*
X28773479Y3884041D01*
X28784400Y3773160D01*
X28784400Y760440D01*
X28773479Y649559D01*
X28742925Y548835D01*
X28693315Y456020D01*
X28626542Y374658D01*
X28545180Y307885D01*
X28452365Y258275D01*
X28351641Y227721D01*
X28240760Y216800D01*
X26928040Y216800D01*
X26817159Y227721D01*
X26716435Y258275D01*
X26623620Y307885D01*
X26542258Y374658D01*
X26475485Y456020D01*
X26425875Y548835D01*
X26395321Y649559D01*
X26384400Y760440D01*
X26384400Y3773160D01*
X26395321Y3884041D01*
X26425875Y3984765D01*
X26475485Y4077580D01*
X26542258Y4158942D01*
X26623620Y4225715D01*
X26716435Y4275325D01*
X26817159Y4305879D01*
X26928040Y4316800D01*
X28240760Y4316800D01*
X28351641Y4305879D01*
X28351641Y4305879D01*
G37*
G36*
X30915314Y3866412D02*
X30952248Y3855208D01*
X30986285Y3837015D01*
X31016126Y3812526D01*
X31043773Y3778837D01*
X31061101Y3761510D01*
X31081475Y3747896D01*
X31104114Y3738519D01*
X31128147Y3733738D01*
X31152652Y3733738D01*
X31176685Y3738518D01*
X31199324Y3747896D01*
X31219699Y3761509D01*
X31237027Y3778837D01*
X31264674Y3812526D01*
X31294515Y3837015D01*
X31328552Y3855208D01*
X31365486Y3866412D01*
X31410041Y3870800D01*
X32902759Y3870800D01*
X32947314Y3866412D01*
X32984248Y3855208D01*
X33018285Y3837015D01*
X33048126Y3812526D01*
X33075773Y3778837D01*
X33093101Y3761510D01*
X33113475Y3747896D01*
X33136114Y3738519D01*
X33160147Y3733738D01*
X33184652Y3733738D01*
X33208685Y3738518D01*
X33231324Y3747896D01*
X33251699Y3761509D01*
X33269027Y3778837D01*
X33296674Y3812526D01*
X33326515Y3837015D01*
X33360552Y3855208D01*
X33397486Y3866412D01*
X33442041Y3870800D01*
X34934759Y3870800D01*
X34979314Y3866412D01*
X35016248Y3855208D01*
X35050285Y3837015D01*
X35080126Y3812526D01*
X35107773Y3778837D01*
X35125101Y3761510D01*
X35145475Y3747896D01*
X35168114Y3738519D01*
X35192147Y3733738D01*
X35216652Y3733738D01*
X35240685Y3738518D01*
X35263324Y3747896D01*
X35283699Y3761509D01*
X35301027Y3778837D01*
X35328674Y3812526D01*
X35358515Y3837015D01*
X35392552Y3855208D01*
X35429486Y3866412D01*
X35474041Y3870800D01*
X36966759Y3870800D01*
X37011314Y3866412D01*
X37048248Y3855208D01*
X37082285Y3837015D01*
X37112126Y3812526D01*
X37139773Y3778837D01*
X37157101Y3761510D01*
X37177475Y3747896D01*
X37200114Y3738519D01*
X37224147Y3733738D01*
X37248652Y3733738D01*
X37272685Y3738518D01*
X37295324Y3747896D01*
X37315699Y3761509D01*
X37333027Y3778837D01*
X37360674Y3812526D01*
X37390515Y3837015D01*
X37424552Y3855208D01*
X37461486Y3866412D01*
X37506041Y3870800D01*
X38998759Y3870800D01*
X39043314Y3866412D01*
X39080248Y3855208D01*
X39114285Y3837015D01*
X39144126Y3812526D01*
X39171773Y3778837D01*
X39189101Y3761510D01*
X39209475Y3747896D01*
X39232114Y3738519D01*
X39256147Y3733738D01*
X39280652Y3733738D01*
X39304685Y3738518D01*
X39327324Y3747896D01*
X39347699Y3761509D01*
X39365027Y3778837D01*
X39392674Y3812526D01*
X39422515Y3837015D01*
X39456552Y3855208D01*
X39493486Y3866412D01*
X39538041Y3870800D01*
X41030759Y3870800D01*
X41075314Y3866412D01*
X41112248Y3855208D01*
X41146285Y3837015D01*
X41176126Y3812526D01*
X41203773Y3778837D01*
X41221101Y3761510D01*
X41241475Y3747896D01*
X41264114Y3738519D01*
X41288147Y3733738D01*
X41312652Y3733738D01*
X41336685Y3738518D01*
X41359324Y3747896D01*
X41379699Y3761509D01*
X41397027Y3778837D01*
X41424674Y3812526D01*
X41454515Y3837015D01*
X41488552Y3855208D01*
X41525486Y3866412D01*
X41570041Y3870800D01*
X43062759Y3870800D01*
X43107314Y3866412D01*
X43144248Y3855208D01*
X43178285Y3837015D01*
X43208126Y3812526D01*
X43235773Y3778837D01*
X43253101Y3761510D01*
X43273475Y3747896D01*
X43296114Y3738519D01*
X43320147Y3733738D01*
X43344652Y3733738D01*
X43368685Y3738518D01*
X43391324Y3747896D01*
X43411699Y3761509D01*
X43429027Y3778837D01*
X43456674Y3812526D01*
X43486515Y3837015D01*
X43520552Y3855208D01*
X43557486Y3866412D01*
X43602041Y3870800D01*
X45094759Y3870800D01*
X45139314Y3866412D01*
X45176248Y3855208D01*
X45210285Y3837015D01*
X45240126Y3812526D01*
X45267773Y3778837D01*
X45285101Y3761510D01*
X45305475Y3747896D01*
X45328114Y3738519D01*
X45352147Y3733738D01*
X45376652Y3733738D01*
X45400685Y3738518D01*
X45423324Y3747896D01*
X45443699Y3761509D01*
X45461027Y3778837D01*
X45488674Y3812526D01*
X45518515Y3837015D01*
X45552552Y3855208D01*
X45589486Y3866412D01*
X45634041Y3870800D01*
X47126759Y3870800D01*
X47171314Y3866412D01*
X47208248Y3855208D01*
X47242285Y3837015D01*
X47272126Y3812526D01*
X47299773Y3778837D01*
X47317101Y3761510D01*
X47337475Y3747896D01*
X47360114Y3738519D01*
X47384147Y3733738D01*
X47408652Y3733738D01*
X47432685Y3738518D01*
X47455324Y3747896D01*
X47475699Y3761509D01*
X47493027Y3778837D01*
X47520674Y3812526D01*
X47550515Y3837015D01*
X47584552Y3855208D01*
X47621486Y3866412D01*
X47666041Y3870800D01*
X49158759Y3870800D01*
X49203314Y3866412D01*
X49240248Y3855208D01*
X49274285Y3837015D01*
X49304126Y3812526D01*
X49331773Y3778837D01*
X49349101Y3761510D01*
X49369475Y3747896D01*
X49392114Y3738519D01*
X49416147Y3733738D01*
X49440652Y3733738D01*
X49464685Y3738518D01*
X49487324Y3747896D01*
X49507699Y3761509D01*
X49525027Y3778837D01*
X49552674Y3812526D01*
X49582515Y3837015D01*
X49616552Y3855208D01*
X49653486Y3866412D01*
X49698041Y3870800D01*
X51190759Y3870800D01*
X51235314Y3866412D01*
X51272248Y3855208D01*
X51306285Y3837015D01*
X51336126Y3812526D01*
X51363773Y3778837D01*
X51381101Y3761510D01*
X51401475Y3747896D01*
X51424114Y3738519D01*
X51448147Y3733738D01*
X51472652Y3733738D01*
X51496685Y3738518D01*
X51519324Y3747896D01*
X51539699Y3761509D01*
X51557027Y3778837D01*
X51584674Y3812526D01*
X51614515Y3837015D01*
X51648552Y3855208D01*
X51685486Y3866412D01*
X51730041Y3870800D01*
X53222759Y3870800D01*
X53267314Y3866412D01*
X53304248Y3855208D01*
X53338285Y3837015D01*
X53368126Y3812526D01*
X53392615Y3782685D01*
X53410808Y3748648D01*
X53422012Y3711714D01*
X53426400Y3667159D01*
X53426400Y974441D01*
X53422012Y929886D01*
X53410808Y892952D01*
X53392615Y858915D01*
X53368126Y829074D01*
X53338285Y804585D01*
X53304248Y786392D01*
X53267314Y775188D01*
X53222759Y770800D01*
X51730041Y770800D01*
X51685486Y775188D01*
X51648552Y786392D01*
X51614515Y804585D01*
X51584674Y829074D01*
X51557027Y862763D01*
X51539699Y880090D01*
X51519325Y893704D01*
X51496686Y903081D01*
X51472653Y907862D01*
X51448148Y907862D01*
X51424115Y903082D01*
X51401476Y893704D01*
X51381101Y880091D01*
X51363773Y862763D01*
X51336126Y829074D01*
X51306285Y804585D01*
X51272248Y786392D01*
X51235314Y775188D01*
X51190759Y770800D01*
X49698041Y770800D01*
X49653486Y775188D01*
X49616552Y786392D01*
X49582515Y804585D01*
X49552674Y829074D01*
X49525027Y862763D01*
X49507699Y880090D01*
X49487325Y893704D01*
X49464686Y903081D01*
X49440653Y907862D01*
X49416148Y907862D01*
X49392115Y903082D01*
X49369476Y893704D01*
X49349101Y880091D01*
X49331773Y862763D01*
X49304126Y829074D01*
X49274285Y804585D01*
X49240248Y786392D01*
X49203314Y775188D01*
X49158759Y770800D01*
X47666041Y770800D01*
X47621486Y775188D01*
X47584552Y786392D01*
X47550515Y804585D01*
X47520674Y829074D01*
X47493027Y862763D01*
X47475699Y880090D01*
X47455325Y893704D01*
X47432686Y903081D01*
X47408653Y907862D01*
X47384148Y907862D01*
X47360115Y903082D01*
X47337476Y893704D01*
X47317101Y880091D01*
X47299773Y862763D01*
X47272126Y829074D01*
X47242285Y804585D01*
X47208248Y786392D01*
X47171314Y775188D01*
X47126759Y770800D01*
X45634041Y770800D01*
X45589486Y775188D01*
X45552552Y786392D01*
X45518515Y804585D01*
X45488674Y829074D01*
X45461027Y862763D01*
X45443699Y880090D01*
X45423325Y893704D01*
X45400686Y903081D01*
X45376653Y907862D01*
X45352148Y907862D01*
X45328115Y903082D01*
X45305476Y893704D01*
X45285101Y880091D01*
X45267773Y862763D01*
X45240126Y829074D01*
X45210285Y804585D01*
X45176248Y786392D01*
X45139314Y775188D01*
X45094759Y770800D01*
X43602041Y770800D01*
X43557486Y775188D01*
X43520552Y786392D01*
X43486515Y804585D01*
X43456674Y829074D01*
X43429027Y862763D01*
X43411699Y880090D01*
X43391325Y893704D01*
X43368686Y903081D01*
X43344653Y907862D01*
X43320148Y907862D01*
X43296115Y903082D01*
X43273476Y893704D01*
X43253101Y880091D01*
X43235773Y862763D01*
X43208126Y829074D01*
X43178285Y804585D01*
X43144248Y786392D01*
X43107314Y775188D01*
X43062759Y770800D01*
X41570041Y770800D01*
X41525486Y775188D01*
X41488552Y786392D01*
X41454515Y804585D01*
X41424674Y829074D01*
X41397027Y862763D01*
X41379699Y880090D01*
X41359325Y893704D01*
X41336686Y903081D01*
X41312653Y907862D01*
X41288148Y907862D01*
X41264115Y903082D01*
X41241476Y893704D01*
X41221101Y880091D01*
X41203773Y862763D01*
X41176126Y829074D01*
X41146285Y804585D01*
X41112248Y786392D01*
X41075314Y775188D01*
X41030759Y770800D01*
X39538041Y770800D01*
X39493486Y775188D01*
X39456552Y786392D01*
X39422515Y804585D01*
X39392674Y829074D01*
X39365027Y862763D01*
X39347699Y880090D01*
X39327325Y893704D01*
X39304686Y903081D01*
X39280653Y907862D01*
X39256148Y907862D01*
X39232115Y903082D01*
X39209476Y893704D01*
X39189101Y880091D01*
X39171773Y862763D01*
X39144126Y829074D01*
X39114285Y804585D01*
X39080248Y786392D01*
X39043314Y775188D01*
X38998759Y770800D01*
X37506041Y770800D01*
X37461486Y775188D01*
X37424552Y786392D01*
X37390515Y804585D01*
X37360674Y829074D01*
X37333027Y862763D01*
X37315699Y880090D01*
X37295325Y893704D01*
X37272686Y903081D01*
X37248653Y907862D01*
X37224148Y907862D01*
X37200115Y903082D01*
X37177476Y893704D01*
X37157101Y880091D01*
X37139773Y862763D01*
X37112126Y829074D01*
X37082285Y804585D01*
X37048248Y786392D01*
X37011314Y775188D01*
X36966759Y770800D01*
X35474041Y770800D01*
X35429486Y775188D01*
X35392552Y786392D01*
X35358515Y804585D01*
X35328674Y829074D01*
X35301027Y862763D01*
X35283699Y880090D01*
X35263325Y893704D01*
X35240686Y903081D01*
X35216653Y907862D01*
X35192148Y907862D01*
X35168115Y903082D01*
X35145476Y893704D01*
X35125101Y880091D01*
X35107773Y862763D01*
X35080126Y829074D01*
X35050285Y804585D01*
X35016248Y786392D01*
X34979314Y775188D01*
X34934759Y770800D01*
X33442041Y770800D01*
X33397486Y775188D01*
X33360552Y786392D01*
X33326515Y804585D01*
X33296674Y829074D01*
X33269027Y862763D01*
X33251699Y880090D01*
X33231325Y893704D01*
X33208686Y903081D01*
X33184653Y907862D01*
X33160148Y907862D01*
X33136115Y903082D01*
X33113476Y893704D01*
X33093101Y880091D01*
X33075773Y862763D01*
X33048126Y829074D01*
X33018285Y804585D01*
X32984248Y786392D01*
X32947314Y775188D01*
X32902759Y770800D01*
X31410041Y770800D01*
X31365486Y775188D01*
X31328552Y786392D01*
X31294515Y804585D01*
X31264674Y829074D01*
X31237027Y862763D01*
X31219699Y880090D01*
X31199325Y893704D01*
X31176686Y903081D01*
X31152653Y907862D01*
X31128148Y907862D01*
X31104115Y903082D01*
X31081476Y893704D01*
X31061101Y880091D01*
X31043773Y862763D01*
X31016126Y829074D01*
X30986285Y804585D01*
X30952248Y786392D01*
X30915314Y775188D01*
X30870759Y770800D01*
X29378041Y770800D01*
X29333486Y775188D01*
X29296552Y786392D01*
X29262515Y804585D01*
X29232674Y829074D01*
X29208185Y858915D01*
X29189992Y892952D01*
X29178788Y929886D01*
X29174400Y974441D01*
X29174400Y3667159D01*
X29178788Y3711714D01*
X29189992Y3748648D01*
X29208185Y3782685D01*
X29232674Y3812526D01*
X29262515Y3837015D01*
X29296552Y3855208D01*
X29333486Y3866412D01*
X29378041Y3870800D01*
X30870759Y3870800D01*
X30915314Y3866412D01*
X30915314Y3866412D01*
G37*
G36*
X30655996Y9682842D02*
X30892580Y9584846D01*
X31105505Y9442574D01*
X31286574Y9261505D01*
X31428846Y9048580D01*
X31526842Y8811996D01*
X31576800Y8560840D01*
X31576800Y8304760D01*
X31526842Y8053604D01*
X31428846Y7817020D01*
X31286574Y7604095D01*
X31105505Y7423026D01*
X30892580Y7280754D01*
X30655996Y7182758D01*
X30404840Y7132800D01*
X30148760Y7132800D01*
X29897604Y7182758D01*
X29661020Y7280754D01*
X29448095Y7423026D01*
X29267026Y7604095D01*
X29124754Y7817020D01*
X29026758Y8053604D01*
X28976800Y8304760D01*
X28976800Y8560840D01*
X29026758Y8811996D01*
X29124754Y9048580D01*
X29267026Y9261505D01*
X29448095Y9442574D01*
X29661020Y9584846D01*
X29897604Y9682842D01*
X30148760Y9732800D01*
X30404840Y9732800D01*
X30655996Y9682842D01*
X30655996Y9682842D01*
G37*
G36*
X52677796Y9682842D02*
X52914380Y9584846D01*
X53127305Y9442574D01*
X53308374Y9261505D01*
X53450646Y9048580D01*
X53548642Y8811996D01*
X53598600Y8560840D01*
X53598600Y8304760D01*
X53548642Y8053604D01*
X53450646Y7817020D01*
X53308374Y7604095D01*
X53127305Y7423026D01*
X52914380Y7280754D01*
X52677796Y7182758D01*
X52426640Y7132800D01*
X52170560Y7132800D01*
X51919404Y7182758D01*
X51682820Y7280754D01*
X51469895Y7423026D01*
X51288826Y7604095D01*
X51146554Y7817020D01*
X51048558Y8053604D01*
X50998600Y8304760D01*
X50998600Y8560840D01*
X51048558Y8811996D01*
X51146554Y9048580D01*
X51288826Y9261505D01*
X51469895Y9442574D01*
X51682820Y9584846D01*
X51919404Y9682842D01*
X52170560Y9732800D01*
X52426640Y9732800D01*
X52677796Y9682842D01*
X52677796Y9682842D01*
G37*
G36*
X67108507Y14377404D02*
X67185636Y14369807D01*
X67299829Y14335167D01*
X67383563Y14309767D01*
X67565972Y14212267D01*
X67725854Y14081054D01*
X67857067Y13921172D01*
X67954567Y13738763D01*
X67954567Y13738762D01*
X68014607Y13540836D01*
X68034880Y13335000D01*
X68014607Y13129164D01*
X68002820Y13090308D01*
X67954567Y12931237D01*
X67857067Y12748828D01*
X67725854Y12588946D01*
X67565972Y12457733D01*
X67383563Y12360233D01*
X67317587Y12340220D01*
X67185636Y12300193D01*
X67108507Y12292596D01*
X67031380Y12285000D01*
X66928220Y12285000D01*
X66851093Y12292596D01*
X66773964Y12300193D01*
X66642013Y12340220D01*
X66576037Y12360233D01*
X66393628Y12457733D01*
X66233746Y12588946D01*
X66102533Y12748828D01*
X66005033Y12931237D01*
X65956780Y13090308D01*
X65944993Y13129164D01*
X65924720Y13335000D01*
X65944993Y13540836D01*
X66005033Y13738762D01*
X66005033Y13738763D01*
X66102533Y13921172D01*
X66233746Y14081054D01*
X66393628Y14212267D01*
X66576037Y14309767D01*
X66659771Y14335167D01*
X66773964Y14369807D01*
X66851093Y14377404D01*
X66928220Y14385000D01*
X67031380Y14385000D01*
X67108507Y14377404D01*
X67108507Y14377404D01*
G37*
G36*
X65489800Y12285000D02*
X63389800Y12285000D01*
X63389800Y14385000D01*
X65489800Y14385000D01*
X65489800Y12285000D01*
X65489800Y12285000D01*
G37*
G36*
X15724307Y14402804D02*
X15801436Y14395207D01*
X15933387Y14355180D01*
X15999363Y14335167D01*
X16181772Y14237667D01*
X16341654Y14106454D01*
X16472867Y13946572D01*
X16570367Y13764163D01*
X16570367Y13764162D01*
X16630407Y13566236D01*
X16650680Y13360400D01*
X16630407Y13154564D01*
X16622702Y13129164D01*
X16570367Y12956637D01*
X16472867Y12774228D01*
X16341654Y12614346D01*
X16181772Y12483133D01*
X15999363Y12385633D01*
X15933387Y12365620D01*
X15801436Y12325593D01*
X15724307Y12317996D01*
X15647180Y12310400D01*
X15544020Y12310400D01*
X15466893Y12317996D01*
X15389764Y12325593D01*
X15257813Y12365620D01*
X15191837Y12385633D01*
X15009428Y12483133D01*
X14849546Y12614346D01*
X14718333Y12774228D01*
X14620833Y12956637D01*
X14568498Y13129164D01*
X14560793Y13154564D01*
X14540520Y13360400D01*
X14560793Y13566236D01*
X14620833Y13764162D01*
X14620833Y13764163D01*
X14718333Y13946572D01*
X14849546Y14106454D01*
X15009428Y14237667D01*
X15191837Y14335167D01*
X15257813Y14355180D01*
X15389764Y14395207D01*
X15466893Y14402804D01*
X15544020Y14410400D01*
X15647180Y14410400D01*
X15724307Y14402804D01*
X15724307Y14402804D01*
G37*
G36*
X19185600Y12310400D02*
X17085600Y12310400D01*
X17085600Y14410400D01*
X19185600Y14410400D01*
X19185600Y12310400D01*
X19185600Y12310400D01*
G37*
G36*
X79826248Y15298780D02*
X79915244Y15271784D01*
X79997261Y15227944D01*
X80069148Y15168948D01*
X80128144Y15097061D01*
X80171984Y15015044D01*
X80198980Y14926048D01*
X80208700Y14827360D01*
X80208700Y13239640D01*
X80198980Y13140952D01*
X80171984Y13051956D01*
X80128144Y12969939D01*
X80069148Y12898052D01*
X79997261Y12839056D01*
X79915244Y12795216D01*
X79826248Y12768220D01*
X79727560Y12758500D01*
X78539840Y12758500D01*
X78441152Y12768220D01*
X78352156Y12795216D01*
X78270139Y12839056D01*
X78198252Y12898052D01*
X78139256Y12969939D01*
X78095416Y13051956D01*
X78068420Y13140952D01*
X78058700Y13239640D01*
X78058700Y14827360D01*
X78068420Y14926048D01*
X78095416Y15015044D01*
X78139256Y15097061D01*
X78198252Y15168948D01*
X78270139Y15227944D01*
X78352156Y15271784D01*
X78441152Y15298780D01*
X78539840Y15308500D01*
X79727560Y15308500D01*
X79826248Y15298780D01*
X79826248Y15298780D01*
G37*
G36*
X41084897Y15771402D02*
X41137553Y15755429D01*
X41186068Y15729498D01*
X41233801Y15690324D01*
X41254175Y15676710D01*
X41276814Y15667333D01*
X41300848Y15662552D01*
X41325352Y15662552D01*
X41349385Y15667332D01*
X41372024Y15676710D01*
X41392399Y15690324D01*
X41440132Y15729498D01*
X41488647Y15755429D01*
X41541303Y15771402D01*
X41602190Y15777399D01*
X42827410Y15777399D01*
X42888297Y15771402D01*
X42940953Y15755429D01*
X42989465Y15729499D01*
X43031996Y15694595D01*
X43066900Y15652064D01*
X43092830Y15603552D01*
X43108803Y15550896D01*
X43114800Y15490009D01*
X43114800Y14689789D01*
X43108803Y14628902D01*
X43092830Y14576246D01*
X43066900Y14527734D01*
X43031996Y14485203D01*
X42989465Y14450299D01*
X42940953Y14424369D01*
X42888297Y14408396D01*
X42827410Y14402399D01*
X41602190Y14402399D01*
X41541303Y14408396D01*
X41488647Y14424369D01*
X41440132Y14450300D01*
X41392399Y14489474D01*
X41372025Y14503088D01*
X41349386Y14512465D01*
X41325352Y14517246D01*
X41300848Y14517246D01*
X41276815Y14512466D01*
X41254176Y14503088D01*
X41233801Y14489474D01*
X41186068Y14450300D01*
X41137553Y14424369D01*
X41084897Y14408396D01*
X41024010Y14402399D01*
X39798790Y14402399D01*
X39737903Y14408396D01*
X39685247Y14424369D01*
X39636735Y14450299D01*
X39594204Y14485203D01*
X39559300Y14527734D01*
X39533370Y14576246D01*
X39517397Y14628902D01*
X39511400Y14689789D01*
X39511400Y15490009D01*
X39517397Y15550896D01*
X39533370Y15603552D01*
X39559300Y15652064D01*
X39594204Y15694595D01*
X39636735Y15729499D01*
X39685247Y15755429D01*
X39737903Y15771402D01*
X39798790Y15777399D01*
X41024010Y15777399D01*
X41084897Y15771402D01*
X41084897Y15771402D01*
G37*
G36*
X14454307Y17044404D02*
X14531436Y17036807D01*
X14663387Y16996780D01*
X14729363Y16976767D01*
X14911772Y16879267D01*
X15071654Y16748054D01*
X15202867Y16588172D01*
X15300367Y16405763D01*
X15305917Y16387467D01*
X15360407Y16207836D01*
X15380680Y16002000D01*
X15360407Y15796164D01*
X15352711Y15770794D01*
X15300367Y15598237D01*
X15202867Y15415828D01*
X15071654Y15255946D01*
X14911772Y15124733D01*
X14729363Y15027233D01*
X14663387Y15007220D01*
X14531436Y14967193D01*
X14454307Y14959597D01*
X14377180Y14952000D01*
X14274020Y14952000D01*
X14196893Y14959597D01*
X14119764Y14967193D01*
X13987813Y15007220D01*
X13921837Y15027233D01*
X13739428Y15124733D01*
X13579546Y15255946D01*
X13448333Y15415828D01*
X13350833Y15598237D01*
X13298489Y15770794D01*
X13290793Y15796164D01*
X13270520Y16002000D01*
X13290793Y16207836D01*
X13345283Y16387467D01*
X13350833Y16405763D01*
X13448333Y16588172D01*
X13579546Y16748054D01*
X13739428Y16879267D01*
X13921837Y16976767D01*
X13987813Y16996780D01*
X14119764Y17036807D01*
X14196893Y17044404D01*
X14274020Y17052000D01*
X14377180Y17052000D01*
X14454307Y17044404D01*
X14454307Y17044404D01*
G37*
G36*
X68378507Y17044404D02*
X68455636Y17036807D01*
X68587587Y16996780D01*
X68653563Y16976767D01*
X68835972Y16879267D01*
X68995854Y16748054D01*
X69127067Y16588172D01*
X69224567Y16405763D01*
X69230117Y16387467D01*
X69284607Y16207836D01*
X69304880Y16002000D01*
X69284607Y15796164D01*
X69276911Y15770794D01*
X69224567Y15598237D01*
X69127067Y15415828D01*
X68995854Y15255946D01*
X68835972Y15124733D01*
X68653563Y15027233D01*
X68587587Y15007220D01*
X68455636Y14967193D01*
X68378507Y14959597D01*
X68301380Y14952000D01*
X68198220Y14952000D01*
X68121093Y14959597D01*
X68043964Y14967193D01*
X67912013Y15007220D01*
X67846037Y15027233D01*
X67663628Y15124733D01*
X67503746Y15255946D01*
X67372533Y15415828D01*
X67275033Y15598237D01*
X67222689Y15770794D01*
X67214993Y15796164D01*
X67194720Y16002000D01*
X67214993Y16207836D01*
X67269483Y16387467D01*
X67275033Y16405763D01*
X67372533Y16588172D01*
X67503746Y16748054D01*
X67663628Y16879267D01*
X67846037Y16976767D01*
X67912013Y16996780D01*
X68043964Y17036807D01*
X68121093Y17044404D01*
X68198220Y17052000D01*
X68301380Y17052000D01*
X68378507Y17044404D01*
X68378507Y17044404D01*
G37*
G36*
X17915600Y14952000D02*
X15815600Y14952000D01*
X15815600Y17052000D01*
X17915600Y17052000D01*
X17915600Y14952000D01*
X17915600Y14952000D01*
G37*
G36*
X66759800Y14952000D02*
X64659800Y14952000D01*
X64659800Y17052000D01*
X66759800Y17052000D01*
X66759800Y14952000D01*
X66759800Y14952000D01*
G37*
G36*
X35242897Y16711202D02*
X35295553Y16695229D01*
X35344068Y16669298D01*
X35391801Y16630124D01*
X35412175Y16616510D01*
X35434814Y16607133D01*
X35458848Y16602352D01*
X35483352Y16602352D01*
X35507385Y16607132D01*
X35530024Y16616510D01*
X35550399Y16630124D01*
X35598132Y16669298D01*
X35646647Y16695229D01*
X35699303Y16711202D01*
X35760190Y16717199D01*
X36985410Y16717199D01*
X37046297Y16711202D01*
X37098953Y16695229D01*
X37147465Y16669299D01*
X37189996Y16634395D01*
X37224900Y16591864D01*
X37250830Y16543352D01*
X37266803Y16490696D01*
X37272800Y16429809D01*
X37272800Y15629589D01*
X37266803Y15568702D01*
X37250830Y15516046D01*
X37224900Y15467534D01*
X37189996Y15425003D01*
X37147465Y15390099D01*
X37098953Y15364169D01*
X37046297Y15348196D01*
X36985410Y15342199D01*
X35760190Y15342199D01*
X35699303Y15348196D01*
X35646647Y15364169D01*
X35598132Y15390100D01*
X35550399Y15429274D01*
X35530025Y15442888D01*
X35507386Y15452265D01*
X35483352Y15457046D01*
X35458848Y15457046D01*
X35434815Y15452266D01*
X35412176Y15442888D01*
X35391801Y15429274D01*
X35344068Y15390100D01*
X35295553Y15364169D01*
X35242897Y15348196D01*
X35182010Y15342199D01*
X33956790Y15342199D01*
X33895903Y15348196D01*
X33843247Y15364169D01*
X33794735Y15390099D01*
X33752204Y15425003D01*
X33717300Y15467534D01*
X33691370Y15516046D01*
X33675397Y15568702D01*
X33669400Y15629589D01*
X33669400Y16429809D01*
X33675397Y16490696D01*
X33691370Y16543352D01*
X33717300Y16591864D01*
X33752204Y16634395D01*
X33794735Y16669299D01*
X33843247Y16695229D01*
X33895903Y16711202D01*
X33956790Y16717199D01*
X35182010Y16717199D01*
X35242897Y16711202D01*
X35242897Y16711202D01*
G37*
G36*
X46672897Y16711202D02*
X46725553Y16695229D01*
X46774065Y16669299D01*
X46816597Y16634394D01*
X46817173Y16633692D01*
X46834500Y16616364D01*
X46854874Y16602750D01*
X46877513Y16593373D01*
X46901547Y16588592D01*
X46926051Y16588592D01*
X46950084Y16593372D01*
X46972724Y16602749D01*
X46993098Y16616363D01*
X47010427Y16633692D01*
X47011003Y16634394D01*
X47053535Y16669299D01*
X47102047Y16695229D01*
X47154703Y16711202D01*
X47215590Y16717199D01*
X48440810Y16717199D01*
X48501697Y16711202D01*
X48554353Y16695229D01*
X48602865Y16669299D01*
X48645396Y16634395D01*
X48680300Y16591864D01*
X48706230Y16543352D01*
X48722203Y16490696D01*
X48728200Y16429809D01*
X48728200Y15629589D01*
X48722203Y15568702D01*
X48706230Y15516046D01*
X48680300Y15467534D01*
X48645396Y15425003D01*
X48602865Y15390099D01*
X48554353Y15364169D01*
X48501697Y15348196D01*
X48440810Y15342199D01*
X47215590Y15342199D01*
X47154703Y15348196D01*
X47102047Y15364169D01*
X47053535Y15390099D01*
X47011003Y15425004D01*
X47010427Y15425706D01*
X46993100Y15443034D01*
X46972726Y15456648D01*
X46950087Y15466025D01*
X46926053Y15470806D01*
X46901549Y15470806D01*
X46877516Y15466026D01*
X46854876Y15456649D01*
X46834502Y15443035D01*
X46817173Y15425706D01*
X46816597Y15425004D01*
X46774065Y15390099D01*
X46725553Y15364169D01*
X46672897Y15348196D01*
X46612010Y15342199D01*
X45386790Y15342199D01*
X45325903Y15348196D01*
X45273247Y15364169D01*
X45224735Y15390099D01*
X45182204Y15425003D01*
X45147300Y15467534D01*
X45121370Y15516046D01*
X45105397Y15568702D01*
X45099400Y15629589D01*
X45099400Y16429809D01*
X45105397Y16490696D01*
X45121370Y16543352D01*
X45147300Y16591864D01*
X45182204Y16634395D01*
X45224735Y16669299D01*
X45273247Y16695229D01*
X45325903Y16711202D01*
X45386790Y16717199D01*
X46612010Y16717199D01*
X46672897Y16711202D01*
X46672897Y16711202D01*
G37*
G36*
X41084897Y17646404D02*
X41137553Y17630431D01*
X41186068Y17604500D01*
X41233801Y17565326D01*
X41254175Y17551712D01*
X41276814Y17542335D01*
X41300848Y17537554D01*
X41325352Y17537554D01*
X41349385Y17542334D01*
X41372024Y17551712D01*
X41392399Y17565326D01*
X41440132Y17604500D01*
X41488647Y17630431D01*
X41541303Y17646404D01*
X41602190Y17652401D01*
X42827410Y17652401D01*
X42888297Y17646404D01*
X42940953Y17630431D01*
X42989465Y17604501D01*
X43031996Y17569597D01*
X43066900Y17527066D01*
X43092830Y17478554D01*
X43108803Y17425898D01*
X43114800Y17365011D01*
X43114800Y16564791D01*
X43108803Y16503904D01*
X43092830Y16451248D01*
X43066900Y16402736D01*
X43031996Y16360205D01*
X42989465Y16325301D01*
X42940953Y16299371D01*
X42888297Y16283398D01*
X42827410Y16277401D01*
X41602190Y16277401D01*
X41541303Y16283398D01*
X41488647Y16299371D01*
X41440132Y16325302D01*
X41392399Y16364476D01*
X41372025Y16378090D01*
X41349386Y16387467D01*
X41325352Y16392248D01*
X41300848Y16392248D01*
X41276815Y16387468D01*
X41254176Y16378090D01*
X41233801Y16364476D01*
X41186068Y16325302D01*
X41137553Y16299371D01*
X41084897Y16283398D01*
X41024010Y16277401D01*
X39798790Y16277401D01*
X39737903Y16283398D01*
X39685247Y16299371D01*
X39636735Y16325301D01*
X39594204Y16360205D01*
X39559300Y16402736D01*
X39533370Y16451248D01*
X39517397Y16503904D01*
X39511400Y16564791D01*
X39511400Y17365011D01*
X39517397Y17425898D01*
X39533370Y17478554D01*
X39559300Y17527066D01*
X39594204Y17569597D01*
X39636735Y17604501D01*
X39685247Y17630431D01*
X39737903Y17646404D01*
X39798790Y17652401D01*
X41024010Y17652401D01*
X41084897Y17646404D01*
X41084897Y17646404D01*
G37*
G36*
X46672897Y18586204D02*
X46725553Y18570231D01*
X46774065Y18544301D01*
X46816597Y18509396D01*
X46817173Y18508694D01*
X46834500Y18491366D01*
X46854874Y18477752D01*
X46877513Y18468375D01*
X46901547Y18463594D01*
X46926051Y18463594D01*
X46950084Y18468374D01*
X46972724Y18477751D01*
X46993098Y18491365D01*
X47010427Y18508694D01*
X47011003Y18509396D01*
X47053535Y18544301D01*
X47102047Y18570231D01*
X47154703Y18586204D01*
X47215590Y18592201D01*
X48440810Y18592201D01*
X48501697Y18586204D01*
X48554353Y18570231D01*
X48602865Y18544301D01*
X48645396Y18509397D01*
X48680300Y18466866D01*
X48706230Y18418354D01*
X48722203Y18365698D01*
X48728200Y18304811D01*
X48728200Y17504591D01*
X48722203Y17443704D01*
X48706230Y17391048D01*
X48680300Y17342536D01*
X48645396Y17300005D01*
X48602865Y17265101D01*
X48554353Y17239171D01*
X48501697Y17223198D01*
X48440810Y17217201D01*
X47215590Y17217201D01*
X47154703Y17223198D01*
X47102047Y17239171D01*
X47053535Y17265101D01*
X47011003Y17300006D01*
X47010427Y17300708D01*
X46993100Y17318036D01*
X46972726Y17331650D01*
X46950087Y17341027D01*
X46926053Y17345808D01*
X46901549Y17345808D01*
X46877516Y17341028D01*
X46854876Y17331651D01*
X46834502Y17318037D01*
X46817173Y17300708D01*
X46816597Y17300006D01*
X46774065Y17265101D01*
X46725553Y17239171D01*
X46672897Y17223198D01*
X46612010Y17217201D01*
X45386790Y17217201D01*
X45325903Y17223198D01*
X45273247Y17239171D01*
X45224735Y17265101D01*
X45182204Y17300005D01*
X45147300Y17342536D01*
X45121370Y17391048D01*
X45105397Y17443704D01*
X45099400Y17504591D01*
X45099400Y18304811D01*
X45105397Y18365698D01*
X45121370Y18418354D01*
X45147300Y18466866D01*
X45182204Y18509397D01*
X45224735Y18544301D01*
X45273247Y18570231D01*
X45325903Y18586204D01*
X45386790Y18592201D01*
X46612010Y18592201D01*
X46672897Y18586204D01*
X46672897Y18586204D01*
G37*
G36*
X35242897Y18586204D02*
X35295553Y18570231D01*
X35344068Y18544300D01*
X35391801Y18505126D01*
X35412175Y18491512D01*
X35434814Y18482135D01*
X35458848Y18477354D01*
X35483352Y18477354D01*
X35507385Y18482134D01*
X35530024Y18491512D01*
X35550399Y18505126D01*
X35598132Y18544300D01*
X35646647Y18570231D01*
X35699303Y18586204D01*
X35760190Y18592201D01*
X36985410Y18592201D01*
X37046297Y18586204D01*
X37098953Y18570231D01*
X37147465Y18544301D01*
X37189996Y18509397D01*
X37224900Y18466866D01*
X37250830Y18418354D01*
X37266803Y18365698D01*
X37272800Y18304811D01*
X37272800Y17504591D01*
X37266803Y17443704D01*
X37250830Y17391048D01*
X37224900Y17342536D01*
X37189996Y17300005D01*
X37147465Y17265101D01*
X37098953Y17239171D01*
X37046297Y17223198D01*
X36985410Y17217201D01*
X35760190Y17217201D01*
X35699303Y17223198D01*
X35646647Y17239171D01*
X35598132Y17265102D01*
X35550399Y17304276D01*
X35530025Y17317890D01*
X35507386Y17327267D01*
X35483352Y17332048D01*
X35458848Y17332048D01*
X35434815Y17327268D01*
X35412176Y17317890D01*
X35391801Y17304276D01*
X35344068Y17265102D01*
X35295553Y17239171D01*
X35242897Y17223198D01*
X35182010Y17217201D01*
X33956790Y17217201D01*
X33895903Y17223198D01*
X33843247Y17239171D01*
X33794735Y17265101D01*
X33752204Y17300005D01*
X33717300Y17342536D01*
X33691370Y17391048D01*
X33675397Y17443704D01*
X33669400Y17504591D01*
X33669400Y18304811D01*
X33675397Y18365698D01*
X33691370Y18418354D01*
X33717300Y18466866D01*
X33752204Y18509397D01*
X33794735Y18544301D01*
X33843247Y18570231D01*
X33895903Y18586204D01*
X33956790Y18592201D01*
X35182010Y18592201D01*
X35242897Y18586204D01*
X35242897Y18586204D01*
G37*
G36*
X20120374Y20022124D02*
X20173030Y20006151D01*
X20221542Y19980221D01*
X20268849Y19941397D01*
X21135197Y19075049D01*
X21174021Y19027742D01*
X21199951Y18979230D01*
X21215924Y18926574D01*
X21221316Y18871827D01*
X21215924Y18817080D01*
X21199951Y18764424D01*
X21174021Y18715912D01*
X21135197Y18668605D01*
X20569369Y18102777D01*
X20522062Y18063953D01*
X20473550Y18038023D01*
X20420894Y18022050D01*
X20366147Y18016658D01*
X20311400Y18022050D01*
X20258744Y18038023D01*
X20210232Y18063953D01*
X20162925Y18102777D01*
X19296577Y18969125D01*
X19257753Y19016432D01*
X19231823Y19064944D01*
X19215850Y19117600D01*
X19210458Y19172347D01*
X19215850Y19227094D01*
X19231823Y19279750D01*
X19257753Y19328262D01*
X19296577Y19375569D01*
X19862405Y19941397D01*
X19909712Y19980221D01*
X19958224Y20006151D01*
X20010880Y20022124D01*
X20065627Y20027516D01*
X20120374Y20022124D01*
X20120374Y20022124D01*
G37*
G36*
X63351920Y20047524D02*
X63404576Y20031551D01*
X63453088Y20005621D01*
X63500395Y19966797D01*
X64066223Y19400969D01*
X64105047Y19353662D01*
X64130977Y19305150D01*
X64146950Y19252494D01*
X64152342Y19197747D01*
X64146950Y19143000D01*
X64130977Y19090344D01*
X64105047Y19041832D01*
X64066223Y18994525D01*
X63199875Y18128177D01*
X63152568Y18089353D01*
X63104056Y18063423D01*
X63051400Y18047450D01*
X62996653Y18042058D01*
X62941906Y18047450D01*
X62889250Y18063423D01*
X62840738Y18089353D01*
X62793431Y18128177D01*
X62227603Y18694005D01*
X62188779Y18741312D01*
X62162849Y18789824D01*
X62146876Y18842480D01*
X62141484Y18897227D01*
X62146876Y18951974D01*
X62162849Y19004630D01*
X62188779Y19053142D01*
X62227603Y19100449D01*
X63093951Y19966797D01*
X63141258Y20005621D01*
X63189770Y20031551D01*
X63242426Y20047524D01*
X63297173Y20052916D01*
X63351920Y20047524D01*
X63351920Y20047524D01*
G37*
G36*
X16030974Y20047524D02*
X16083630Y20031551D01*
X16132142Y20005621D01*
X16179449Y19966797D01*
X17045797Y19100449D01*
X17084621Y19053142D01*
X17110551Y19004630D01*
X17126524Y18951974D01*
X17131916Y18897227D01*
X17126524Y18842480D01*
X17110551Y18789824D01*
X17084621Y18741312D01*
X17045797Y18694005D01*
X16479969Y18128177D01*
X16432662Y18089353D01*
X16384150Y18063423D01*
X16331494Y18047450D01*
X16276747Y18042058D01*
X16222000Y18047450D01*
X16169344Y18063423D01*
X16120832Y18089353D01*
X16073525Y18128177D01*
X15207177Y18994525D01*
X15168353Y19041832D01*
X15142423Y19090344D01*
X15126450Y19143000D01*
X15121058Y19197747D01*
X15126450Y19252494D01*
X15142423Y19305150D01*
X15168353Y19353662D01*
X15207177Y19400969D01*
X15773005Y19966797D01*
X15820312Y20005621D01*
X15868824Y20031551D01*
X15921480Y20047524D01*
X15976227Y20052916D01*
X16030974Y20047524D01*
X16030974Y20047524D01*
G37*
G36*
X67085720Y20072924D02*
X67138376Y20056951D01*
X67186888Y20031021D01*
X67234195Y19992197D01*
X67800023Y19426369D01*
X67838847Y19379062D01*
X67864777Y19330550D01*
X67880750Y19277894D01*
X67886142Y19223147D01*
X67880750Y19168400D01*
X67864777Y19115744D01*
X67838847Y19067232D01*
X67800023Y19019925D01*
X66933675Y18153577D01*
X66886368Y18114753D01*
X66837856Y18088823D01*
X66785200Y18072850D01*
X66730453Y18067458D01*
X66675706Y18072850D01*
X66623050Y18088823D01*
X66574538Y18114753D01*
X66527231Y18153577D01*
X65961403Y18719405D01*
X65922579Y18766712D01*
X65896649Y18815224D01*
X65880676Y18867880D01*
X65875284Y18922627D01*
X65880676Y18977374D01*
X65896649Y19030030D01*
X65922579Y19078542D01*
X65961403Y19125849D01*
X66827751Y19992197D01*
X66875058Y20031021D01*
X66923570Y20056951D01*
X66976226Y20072924D01*
X67030973Y20078316D01*
X67085720Y20072924D01*
X67085720Y20072924D01*
G37*
G36*
X28943697Y19962402D02*
X28996353Y19946429D01*
X29044865Y19920500D01*
X29067200Y19902169D01*
X29087575Y19888555D01*
X29110214Y19879178D01*
X29134247Y19874397D01*
X29158751Y19874397D01*
X29182785Y19879177D01*
X29205424Y19888554D01*
X29225800Y19902169D01*
X29248135Y19920500D01*
X29296647Y19946429D01*
X29349303Y19962402D01*
X29410190Y19968399D01*
X30635410Y19968399D01*
X30696297Y19962402D01*
X30748953Y19946429D01*
X30797464Y19920500D01*
X30847975Y19879046D01*
X30868350Y19865432D01*
X30890989Y19856055D01*
X30915022Y19851274D01*
X30939526Y19851274D01*
X30963560Y19856054D01*
X30986199Y19865431D01*
X31006576Y19879047D01*
X31026135Y19895099D01*
X31074647Y19921029D01*
X31127303Y19937002D01*
X31188190Y19942999D01*
X32413410Y19942999D01*
X32474297Y19937002D01*
X32526953Y19921029D01*
X32575465Y19895099D01*
X32617996Y19860195D01*
X32652900Y19817664D01*
X32678830Y19769152D01*
X32694803Y19716496D01*
X32700800Y19655609D01*
X32700800Y18855389D01*
X32694803Y18794502D01*
X32678830Y18741846D01*
X32652900Y18693334D01*
X32617996Y18650803D01*
X32575465Y18615899D01*
X32526953Y18589969D01*
X32474297Y18573996D01*
X32413410Y18567999D01*
X31188190Y18567999D01*
X31127303Y18573996D01*
X31074647Y18589969D01*
X31026136Y18615898D01*
X30975625Y18657352D01*
X30955250Y18670966D01*
X30932611Y18680343D01*
X30908578Y18685124D01*
X30884074Y18685124D01*
X30860040Y18680344D01*
X30837401Y18670967D01*
X30817024Y18657351D01*
X30797465Y18641299D01*
X30748953Y18615369D01*
X30696297Y18599396D01*
X30635410Y18593399D01*
X29410190Y18593399D01*
X29349303Y18599396D01*
X29296647Y18615369D01*
X29248135Y18641298D01*
X29225800Y18659629D01*
X29205425Y18673243D01*
X29182786Y18682620D01*
X29158753Y18687401D01*
X29134249Y18687401D01*
X29110215Y18682621D01*
X29087576Y18673244D01*
X29067200Y18659629D01*
X29044865Y18641298D01*
X28996353Y18615369D01*
X28943697Y18599396D01*
X28882810Y18593399D01*
X27657590Y18593399D01*
X27596703Y18599396D01*
X27544047Y18615369D01*
X27495535Y18641299D01*
X27453004Y18676203D01*
X27418100Y18718734D01*
X27392170Y18767246D01*
X27376197Y18819902D01*
X27370200Y18880789D01*
X27370200Y19681009D01*
X27376197Y19741896D01*
X27392170Y19794552D01*
X27418100Y19843064D01*
X27453004Y19885595D01*
X27495535Y19920499D01*
X27544047Y19946429D01*
X27596703Y19962402D01*
X27657590Y19968399D01*
X28882810Y19968399D01*
X28943697Y19962402D01*
X28943697Y19962402D01*
G37*
G36*
X41084897Y19937003D02*
X41137553Y19921030D01*
X41186065Y19895100D01*
X41228596Y19860196D01*
X41263500Y19817665D01*
X41289430Y19769153D01*
X41305403Y19716497D01*
X41311400Y19655610D01*
X41311400Y18855390D01*
X41305403Y18794503D01*
X41289430Y18741847D01*
X41263500Y18693335D01*
X41228596Y18650804D01*
X41186065Y18615900D01*
X41137553Y18589970D01*
X41084897Y18573997D01*
X41024010Y18568000D01*
X39798790Y18568000D01*
X39737903Y18573997D01*
X39685247Y18589970D01*
X39636735Y18615900D01*
X39594204Y18650804D01*
X39559300Y18693335D01*
X39533370Y18741847D01*
X39517397Y18794503D01*
X39511400Y18855390D01*
X39511400Y19655610D01*
X39517397Y19716497D01*
X39533370Y19769153D01*
X39559300Y19817665D01*
X39594204Y19860196D01*
X39636735Y19895100D01*
X39685247Y19921030D01*
X39737903Y19937003D01*
X39798790Y19943000D01*
X41024010Y19943000D01*
X41084897Y19937003D01*
X41084897Y19937003D01*
G37*
G36*
X43193097Y19937003D02*
X43245753Y19921030D01*
X43294265Y19895100D01*
X43336796Y19860196D01*
X43371700Y19817665D01*
X43397630Y19769153D01*
X43413603Y19716497D01*
X43419600Y19655610D01*
X43419600Y18855390D01*
X43413603Y18794503D01*
X43397630Y18741847D01*
X43371700Y18693335D01*
X43336796Y18650804D01*
X43294265Y18615900D01*
X43245753Y18589970D01*
X43193097Y18573997D01*
X43132210Y18568000D01*
X41906990Y18568000D01*
X41846103Y18573997D01*
X41793447Y18589970D01*
X41744935Y18615900D01*
X41702404Y18650804D01*
X41667500Y18693335D01*
X41641570Y18741847D01*
X41625597Y18794503D01*
X41619600Y18855390D01*
X41619600Y19655610D01*
X41625597Y19716497D01*
X41641570Y19769153D01*
X41667500Y19817665D01*
X41702404Y19860196D01*
X41744935Y19895100D01*
X41793447Y19921030D01*
X41846103Y19937003D01*
X41906990Y19943000D01*
X43132210Y19943000D01*
X43193097Y19937003D01*
X43193097Y19937003D01*
G37*
G36*
X51371897Y19987802D02*
X51424553Y19971829D01*
X51473065Y19945899D01*
X51515597Y19910994D01*
X51516173Y19910292D01*
X51533500Y19892964D01*
X51553874Y19879350D01*
X51576513Y19869973D01*
X51600547Y19865192D01*
X51625051Y19865192D01*
X51649084Y19869972D01*
X51671724Y19879349D01*
X51692098Y19892963D01*
X51709427Y19910292D01*
X51710003Y19910994D01*
X51752535Y19945899D01*
X51801047Y19971829D01*
X51853703Y19987802D01*
X51914590Y19993799D01*
X53139810Y19993799D01*
X53200697Y19987802D01*
X53253353Y19971829D01*
X53301865Y19945899D01*
X53344397Y19910994D01*
X53344973Y19910292D01*
X53362300Y19892964D01*
X53382674Y19879350D01*
X53405313Y19869973D01*
X53429347Y19865192D01*
X53453851Y19865192D01*
X53477884Y19869972D01*
X53500524Y19879349D01*
X53520898Y19892963D01*
X53538227Y19910292D01*
X53538803Y19910994D01*
X53581335Y19945899D01*
X53629847Y19971829D01*
X53682503Y19987802D01*
X53743390Y19993799D01*
X54968610Y19993799D01*
X55029497Y19987802D01*
X55082153Y19971829D01*
X55130665Y19945899D01*
X55173196Y19910995D01*
X55208100Y19868464D01*
X55234030Y19819952D01*
X55250003Y19767296D01*
X55256000Y19706409D01*
X55256000Y18906189D01*
X55250003Y18845302D01*
X55234030Y18792646D01*
X55208100Y18744134D01*
X55173196Y18701603D01*
X55130665Y18666699D01*
X55082153Y18640769D01*
X55029497Y18624796D01*
X54968610Y18618799D01*
X53743390Y18618799D01*
X53682503Y18624796D01*
X53629847Y18640769D01*
X53581335Y18666699D01*
X53538803Y18701604D01*
X53538227Y18702306D01*
X53520900Y18719634D01*
X53500526Y18733248D01*
X53477887Y18742625D01*
X53453853Y18747406D01*
X53429349Y18747406D01*
X53405316Y18742626D01*
X53382676Y18733249D01*
X53362302Y18719635D01*
X53344973Y18702306D01*
X53344397Y18701604D01*
X53301865Y18666699D01*
X53253353Y18640769D01*
X53200697Y18624796D01*
X53139810Y18618799D01*
X51914590Y18618799D01*
X51853703Y18624796D01*
X51801047Y18640769D01*
X51752535Y18666699D01*
X51710003Y18701604D01*
X51709427Y18702306D01*
X51692100Y18719634D01*
X51671726Y18733248D01*
X51649087Y18742625D01*
X51625053Y18747406D01*
X51600549Y18747406D01*
X51576516Y18742626D01*
X51553876Y18733249D01*
X51533502Y18719635D01*
X51516173Y18702306D01*
X51515597Y18701604D01*
X51473065Y18666699D01*
X51424553Y18640769D01*
X51371897Y18624796D01*
X51311010Y18618799D01*
X50085790Y18618799D01*
X50024903Y18624796D01*
X49972247Y18640769D01*
X49923735Y18666699D01*
X49881204Y18701603D01*
X49846300Y18744134D01*
X49820370Y18792646D01*
X49804397Y18845302D01*
X49798400Y18906189D01*
X49798400Y19706409D01*
X49804397Y19767296D01*
X49820370Y19819952D01*
X49846300Y19868464D01*
X49881204Y19910995D01*
X49923735Y19945899D01*
X49972247Y19971829D01*
X50024903Y19987802D01*
X50085790Y19993799D01*
X51311010Y19993799D01*
X51371897Y19987802D01*
X51371897Y19987802D01*
G37*
G36*
X21446200Y21347950D02*
X21498856Y21331977D01*
X21547368Y21306047D01*
X21594675Y21267223D01*
X22461023Y20400875D01*
X22499847Y20353568D01*
X22525777Y20305056D01*
X22541750Y20252400D01*
X22547142Y20197653D01*
X22541750Y20142906D01*
X22525777Y20090250D01*
X22499847Y20041738D01*
X22461023Y19994431D01*
X21895195Y19428603D01*
X21847888Y19389779D01*
X21799376Y19363849D01*
X21746720Y19347876D01*
X21691973Y19342484D01*
X21637226Y19347876D01*
X21584570Y19363849D01*
X21536058Y19389779D01*
X21488751Y19428603D01*
X20622403Y20294951D01*
X20583579Y20342258D01*
X20557649Y20390770D01*
X20541676Y20443426D01*
X20536284Y20498173D01*
X20541676Y20552920D01*
X20557649Y20605576D01*
X20583579Y20654088D01*
X20622403Y20701395D01*
X21188231Y21267223D01*
X21235538Y21306047D01*
X21284050Y21331977D01*
X21336706Y21347950D01*
X21391453Y21353342D01*
X21446200Y21347950D01*
X21446200Y21347950D01*
G37*
G36*
X62026094Y21373350D02*
X62078750Y21357377D01*
X62127262Y21331447D01*
X62174569Y21292623D01*
X62740397Y20726795D01*
X62779221Y20679488D01*
X62805151Y20630976D01*
X62821124Y20578320D01*
X62826516Y20523573D01*
X62821124Y20468826D01*
X62805151Y20416170D01*
X62779221Y20367658D01*
X62740397Y20320351D01*
X61874049Y19454003D01*
X61826742Y19415179D01*
X61778230Y19389249D01*
X61725574Y19373276D01*
X61670827Y19367884D01*
X61616080Y19373276D01*
X61563424Y19389249D01*
X61514912Y19415179D01*
X61467605Y19454003D01*
X60901777Y20019831D01*
X60862953Y20067138D01*
X60837023Y20115650D01*
X60821050Y20168306D01*
X60815658Y20223053D01*
X60821050Y20277800D01*
X60837023Y20330456D01*
X60862953Y20378968D01*
X60901777Y20426275D01*
X61768125Y21292623D01*
X61815432Y21331447D01*
X61863944Y21357377D01*
X61916600Y21373350D01*
X61971347Y21378742D01*
X62026094Y21373350D01*
X62026094Y21373350D01*
G37*
G36*
X17356800Y21373350D02*
X17409456Y21357377D01*
X17457968Y21331447D01*
X17505275Y21292623D01*
X18371623Y20426275D01*
X18410447Y20378968D01*
X18436377Y20330456D01*
X18452350Y20277800D01*
X18457742Y20223053D01*
X18452350Y20168306D01*
X18436377Y20115650D01*
X18410447Y20067138D01*
X18371623Y20019831D01*
X17805795Y19454003D01*
X17758488Y19415179D01*
X17709976Y19389249D01*
X17657320Y19373276D01*
X17602573Y19367884D01*
X17547826Y19373276D01*
X17495170Y19389249D01*
X17446658Y19415179D01*
X17399351Y19454003D01*
X16533003Y20320351D01*
X16494179Y20367658D01*
X16468249Y20416170D01*
X16452276Y20468826D01*
X16446884Y20523573D01*
X16452276Y20578320D01*
X16468249Y20630976D01*
X16494179Y20679488D01*
X16533003Y20726795D01*
X17098831Y21292623D01*
X17146138Y21331447D01*
X17194650Y21357377D01*
X17247306Y21373350D01*
X17302053Y21378742D01*
X17356800Y21373350D01*
X17356800Y21373350D01*
G37*
G36*
X65759894Y21398750D02*
X65812550Y21382777D01*
X65861062Y21356847D01*
X65908369Y21318023D01*
X66474197Y20752195D01*
X66513021Y20704888D01*
X66538951Y20656376D01*
X66554924Y20603720D01*
X66560316Y20548973D01*
X66554924Y20494226D01*
X66538951Y20441570D01*
X66513021Y20393058D01*
X66474197Y20345751D01*
X65607849Y19479403D01*
X65560542Y19440579D01*
X65512030Y19414649D01*
X65459374Y19398676D01*
X65404627Y19393284D01*
X65349880Y19398676D01*
X65297224Y19414649D01*
X65248712Y19440579D01*
X65201405Y19479403D01*
X64635577Y20045231D01*
X64596753Y20092538D01*
X64570823Y20141050D01*
X64554850Y20193706D01*
X64549458Y20248453D01*
X64554850Y20303200D01*
X64570823Y20355856D01*
X64596753Y20404368D01*
X64635577Y20451675D01*
X65501925Y21318023D01*
X65549232Y21356847D01*
X65597744Y21382777D01*
X65650400Y21398750D01*
X65705147Y21404142D01*
X65759894Y21398750D01*
X65759894Y21398750D01*
G37*
G36*
X43193097Y21812003D02*
X43245753Y21796030D01*
X43294265Y21770100D01*
X43336796Y21735196D01*
X43371700Y21692665D01*
X43397630Y21644153D01*
X43413603Y21591497D01*
X43419600Y21530610D01*
X43419600Y20730390D01*
X43413603Y20669503D01*
X43397630Y20616847D01*
X43371700Y20568335D01*
X43336796Y20525804D01*
X43294265Y20490900D01*
X43245753Y20464970D01*
X43193097Y20448997D01*
X43132210Y20443000D01*
X41906990Y20443000D01*
X41846103Y20448997D01*
X41793447Y20464970D01*
X41744935Y20490900D01*
X41702404Y20525804D01*
X41667500Y20568335D01*
X41641570Y20616847D01*
X41625597Y20669503D01*
X41619600Y20730390D01*
X41619600Y21530610D01*
X41625597Y21591497D01*
X41641570Y21644153D01*
X41667500Y21692665D01*
X41702404Y21735196D01*
X41744935Y21770100D01*
X41793447Y21796030D01*
X41846103Y21812003D01*
X41906990Y21818000D01*
X43132210Y21818000D01*
X43193097Y21812003D01*
X43193097Y21812003D01*
G37*
G36*
X41084897Y21812003D02*
X41137553Y21796030D01*
X41186065Y21770100D01*
X41228596Y21735196D01*
X41263500Y21692665D01*
X41289430Y21644153D01*
X41305403Y21591497D01*
X41311400Y21530610D01*
X41311400Y20730390D01*
X41305403Y20669503D01*
X41289430Y20616847D01*
X41263500Y20568335D01*
X41228596Y20525804D01*
X41186065Y20490900D01*
X41137553Y20464970D01*
X41084897Y20448997D01*
X41024010Y20443000D01*
X39798790Y20443000D01*
X39737903Y20448997D01*
X39685247Y20464970D01*
X39636735Y20490900D01*
X39594204Y20525804D01*
X39559300Y20568335D01*
X39533370Y20616847D01*
X39517397Y20669503D01*
X39511400Y20730390D01*
X39511400Y21530610D01*
X39517397Y21591497D01*
X39533370Y21644153D01*
X39559300Y21692665D01*
X39594204Y21735196D01*
X39636735Y21770100D01*
X39685247Y21796030D01*
X39737903Y21812003D01*
X39798790Y21818000D01*
X41024010Y21818000D01*
X41084897Y21812003D01*
X41084897Y21812003D01*
G37*
G36*
X28943697Y21837404D02*
X28996353Y21821431D01*
X29044865Y21795502D01*
X29067200Y21777171D01*
X29087575Y21763557D01*
X29110214Y21754180D01*
X29134247Y21749399D01*
X29158751Y21749399D01*
X29182785Y21754179D01*
X29205424Y21763556D01*
X29225800Y21777171D01*
X29248135Y21795502D01*
X29296647Y21821431D01*
X29349303Y21837404D01*
X29410190Y21843401D01*
X30635410Y21843401D01*
X30696297Y21837404D01*
X30748953Y21821431D01*
X30797464Y21795502D01*
X30847975Y21754048D01*
X30868350Y21740434D01*
X30890989Y21731057D01*
X30915022Y21726276D01*
X30939526Y21726276D01*
X30963560Y21731056D01*
X30986199Y21740433D01*
X31006576Y21754049D01*
X31026135Y21770101D01*
X31074647Y21796031D01*
X31127303Y21812004D01*
X31188190Y21818001D01*
X32413410Y21818001D01*
X32474297Y21812004D01*
X32526953Y21796031D01*
X32575465Y21770101D01*
X32617996Y21735197D01*
X32652900Y21692666D01*
X32678830Y21644154D01*
X32694803Y21591498D01*
X32700800Y21530611D01*
X32700800Y20730391D01*
X32694803Y20669504D01*
X32678830Y20616848D01*
X32652900Y20568336D01*
X32617996Y20525805D01*
X32575465Y20490901D01*
X32526953Y20464971D01*
X32474297Y20448998D01*
X32413410Y20443001D01*
X31188190Y20443001D01*
X31127303Y20448998D01*
X31074647Y20464971D01*
X31026136Y20490900D01*
X30975625Y20532354D01*
X30955250Y20545968D01*
X30932611Y20555345D01*
X30908578Y20560126D01*
X30884074Y20560126D01*
X30860040Y20555346D01*
X30837401Y20545969D01*
X30817024Y20532353D01*
X30797465Y20516301D01*
X30748953Y20490371D01*
X30696297Y20474398D01*
X30635410Y20468401D01*
X29410190Y20468401D01*
X29349303Y20474398D01*
X29296647Y20490371D01*
X29248135Y20516300D01*
X29225800Y20534631D01*
X29205425Y20548245D01*
X29182786Y20557622D01*
X29158753Y20562403D01*
X29134249Y20562403D01*
X29110215Y20557623D01*
X29087576Y20548246D01*
X29067200Y20534631D01*
X29044865Y20516300D01*
X28996353Y20490371D01*
X28943697Y20474398D01*
X28882810Y20468401D01*
X27657590Y20468401D01*
X27596703Y20474398D01*
X27544047Y20490371D01*
X27495535Y20516301D01*
X27453004Y20551205D01*
X27418100Y20593736D01*
X27392170Y20642248D01*
X27376197Y20694904D01*
X27370200Y20755791D01*
X27370200Y21556011D01*
X27376197Y21616898D01*
X27392170Y21669554D01*
X27418100Y21718066D01*
X27453004Y21760597D01*
X27495535Y21795501D01*
X27544047Y21821431D01*
X27596703Y21837404D01*
X27657590Y21843401D01*
X28882810Y21843401D01*
X28943697Y21837404D01*
X28943697Y21837404D01*
G37*
G36*
X51371897Y21862804D02*
X51424553Y21846831D01*
X51473065Y21820901D01*
X51515597Y21785996D01*
X51516173Y21785294D01*
X51533500Y21767966D01*
X51553874Y21754352D01*
X51576513Y21744975D01*
X51600547Y21740194D01*
X51625051Y21740194D01*
X51649084Y21744974D01*
X51671724Y21754351D01*
X51692098Y21767965D01*
X51709427Y21785294D01*
X51710003Y21785996D01*
X51752535Y21820901D01*
X51801047Y21846831D01*
X51853703Y21862804D01*
X51914590Y21868801D01*
X53139810Y21868801D01*
X53200697Y21862804D01*
X53253353Y21846831D01*
X53301865Y21820901D01*
X53344397Y21785996D01*
X53344973Y21785294D01*
X53362300Y21767966D01*
X53382674Y21754352D01*
X53405313Y21744975D01*
X53429347Y21740194D01*
X53453851Y21740194D01*
X53477884Y21744974D01*
X53500524Y21754351D01*
X53520898Y21767965D01*
X53538227Y21785294D01*
X53538803Y21785996D01*
X53581335Y21820901D01*
X53629847Y21846831D01*
X53682503Y21862804D01*
X53743390Y21868801D01*
X54968610Y21868801D01*
X55029497Y21862804D01*
X55082153Y21846831D01*
X55130665Y21820901D01*
X55173196Y21785997D01*
X55208100Y21743466D01*
X55234030Y21694954D01*
X55250003Y21642298D01*
X55256000Y21581411D01*
X55256000Y20781191D01*
X55250003Y20720304D01*
X55234030Y20667648D01*
X55208100Y20619136D01*
X55173196Y20576605D01*
X55130665Y20541701D01*
X55082153Y20515771D01*
X55029497Y20499798D01*
X54968610Y20493801D01*
X53743390Y20493801D01*
X53682503Y20499798D01*
X53629847Y20515771D01*
X53581335Y20541701D01*
X53538803Y20576606D01*
X53538227Y20577308D01*
X53520900Y20594636D01*
X53500526Y20608250D01*
X53477887Y20617627D01*
X53453853Y20622408D01*
X53429349Y20622408D01*
X53405316Y20617628D01*
X53382676Y20608251D01*
X53362302Y20594637D01*
X53344973Y20577308D01*
X53344397Y20576606D01*
X53301865Y20541701D01*
X53253353Y20515771D01*
X53200697Y20499798D01*
X53139810Y20493801D01*
X51914590Y20493801D01*
X51853703Y20499798D01*
X51801047Y20515771D01*
X51752535Y20541701D01*
X51710003Y20576606D01*
X51709427Y20577308D01*
X51692100Y20594636D01*
X51671726Y20608250D01*
X51649087Y20617627D01*
X51625053Y20622408D01*
X51600549Y20622408D01*
X51576516Y20617628D01*
X51553876Y20608251D01*
X51533502Y20594637D01*
X51516173Y20577308D01*
X51515597Y20576606D01*
X51473065Y20541701D01*
X51424553Y20515771D01*
X51371897Y20499798D01*
X51311010Y20493801D01*
X50085790Y20493801D01*
X50024903Y20499798D01*
X49972247Y20515771D01*
X49923735Y20541701D01*
X49881204Y20576605D01*
X49846300Y20619136D01*
X49820370Y20667648D01*
X49804397Y20720304D01*
X49798400Y20781191D01*
X49798400Y21581411D01*
X49804397Y21642298D01*
X49820370Y21694954D01*
X49846300Y21743466D01*
X49881204Y21785997D01*
X49923735Y21820901D01*
X49972247Y21846831D01*
X50024903Y21862804D01*
X50085790Y21868801D01*
X51311010Y21868801D01*
X51371897Y21862804D01*
X51371897Y21862804D01*
G37*
G36*
X21894600Y25806450D02*
X21878892Y25798054D01*
X21859950Y25782508D01*
X21844404Y25763566D01*
X21832853Y25741955D01*
X21825740Y25718506D01*
X21823338Y25694120D01*
X21825740Y25669734D01*
X21832853Y25646285D01*
X21844404Y25624674D01*
X21851713Y25614820D01*
X21871699Y25590468D01*
X21897630Y25541953D01*
X21913603Y25489297D01*
X21919600Y25428410D01*
X21919600Y24203190D01*
X21913603Y24142303D01*
X21897630Y24089647D01*
X21871700Y24041135D01*
X21836793Y23998601D01*
X21792442Y23962202D01*
X21775115Y23944875D01*
X21761501Y23924500D01*
X21752124Y23901861D01*
X21747344Y23877828D01*
X21747344Y23853323D01*
X21752125Y23829290D01*
X21761503Y23806651D01*
X21775117Y23786277D01*
X21792442Y23768951D01*
X21811396Y23753396D01*
X21846300Y23710865D01*
X21872230Y23662353D01*
X21888203Y23609697D01*
X21894200Y23548810D01*
X21894200Y22323590D01*
X21888203Y22262703D01*
X21872230Y22210047D01*
X21846300Y22161535D01*
X21811396Y22119004D01*
X21768865Y22084100D01*
X21720353Y22058170D01*
X21667697Y22042197D01*
X21606810Y22036200D01*
X20806590Y22036200D01*
X20745703Y22042197D01*
X20693047Y22058170D01*
X20644535Y22084100D01*
X20602004Y22119004D01*
X20567100Y22161535D01*
X20541170Y22210047D01*
X20525197Y22262703D01*
X20519200Y22323590D01*
X20519200Y23548810D01*
X20525197Y23609697D01*
X20541170Y23662353D01*
X20567100Y23710865D01*
X20602007Y23753399D01*
X20646358Y23789798D01*
X20663685Y23807125D01*
X20677299Y23827500D01*
X20686676Y23850139D01*
X20691456Y23874172D01*
X20691456Y23898677D01*
X20686675Y23922710D01*
X20677297Y23945349D01*
X20663683Y23965723D01*
X20646358Y23983049D01*
X20627404Y23998604D01*
X20592500Y24041135D01*
X20566570Y24089647D01*
X20550597Y24142303D01*
X20544600Y24203190D01*
X20544600Y25428410D01*
X20550597Y25489297D01*
X20566570Y25541953D01*
X20592501Y25590468D01*
X20612487Y25614820D01*
X20626102Y25635194D01*
X20635479Y25657833D01*
X20640260Y25681867D01*
X20640260Y25706371D01*
X20635480Y25730404D01*
X20626103Y25753043D01*
X20612489Y25773418D01*
X20595162Y25790745D01*
X20574788Y25804360D01*
X20552149Y25813737D01*
X20528115Y25818518D01*
X20515862Y25819120D01*
X20494600Y25819120D01*
X20494600Y27319120D01*
X21894600Y27319120D01*
X21894600Y25806450D01*
X21894600Y25806450D01*
G37*
G36*
X20094600Y25819120D02*
X20073338Y25819120D01*
X20048952Y25816718D01*
X20025503Y25809605D01*
X20003892Y25798054D01*
X19984950Y25782508D01*
X19969404Y25763566D01*
X19957853Y25741955D01*
X19950740Y25718506D01*
X19948338Y25694120D01*
X19950740Y25669734D01*
X19957853Y25646285D01*
X19969404Y25624674D01*
X19976713Y25614820D01*
X19996699Y25590468D01*
X20022630Y25541953D01*
X20038603Y25489297D01*
X20044600Y25428410D01*
X20044600Y24203190D01*
X20038603Y24142303D01*
X20022630Y24089647D01*
X19996700Y24041135D01*
X19961793Y23998601D01*
X19917442Y23962202D01*
X19900115Y23944875D01*
X19886501Y23924500D01*
X19877124Y23901861D01*
X19872344Y23877828D01*
X19872344Y23853323D01*
X19877125Y23829290D01*
X19886503Y23806651D01*
X19900117Y23786277D01*
X19917442Y23768951D01*
X19936396Y23753396D01*
X19971300Y23710865D01*
X19997230Y23662353D01*
X20013203Y23609697D01*
X20019200Y23548810D01*
X20019200Y22323590D01*
X20013203Y22262703D01*
X19997230Y22210047D01*
X19971300Y22161535D01*
X19936396Y22119004D01*
X19893865Y22084100D01*
X19845353Y22058170D01*
X19792697Y22042197D01*
X19731810Y22036200D01*
X18931590Y22036200D01*
X18870703Y22042197D01*
X18818047Y22058170D01*
X18769535Y22084100D01*
X18727004Y22119004D01*
X18692100Y22161535D01*
X18666170Y22210047D01*
X18650197Y22262703D01*
X18644200Y22323590D01*
X18644200Y23548810D01*
X18650197Y23609697D01*
X18666170Y23662353D01*
X18692100Y23710865D01*
X18727007Y23753399D01*
X18771358Y23789798D01*
X18788685Y23807125D01*
X18802299Y23827500D01*
X18811676Y23850139D01*
X18816456Y23874172D01*
X18816456Y23898677D01*
X18811675Y23922710D01*
X18802297Y23945349D01*
X18788683Y23965723D01*
X18771358Y23983049D01*
X18752404Y23998604D01*
X18717500Y24041135D01*
X18691570Y24089647D01*
X18675597Y24142303D01*
X18669600Y24203190D01*
X18669600Y25428410D01*
X18675597Y25489297D01*
X18691570Y25541953D01*
X18717501Y25590468D01*
X18737487Y25614820D01*
X18751102Y25635194D01*
X18760479Y25657833D01*
X18765260Y25681867D01*
X18765260Y25706371D01*
X18760480Y25730404D01*
X18751103Y25753043D01*
X18737489Y25773418D01*
X18720162Y25790745D01*
X18699788Y25804360D01*
X18694600Y25806509D01*
X18694600Y27319120D01*
X20094600Y27319120D01*
X20094600Y25819120D01*
X20094600Y25819120D01*
G37*
G36*
X63880800Y25839537D02*
X63865858Y25835005D01*
X63844247Y25823454D01*
X63825305Y25807908D01*
X63809759Y25788966D01*
X63798208Y25767355D01*
X63791095Y25743906D01*
X63788693Y25719520D01*
X63791095Y25695134D01*
X63798208Y25671685D01*
X63809759Y25650074D01*
X63817067Y25640220D01*
X63857900Y25590465D01*
X63883830Y25541953D01*
X63899803Y25489297D01*
X63905800Y25428410D01*
X63905800Y24203190D01*
X63899803Y24142303D01*
X63883830Y24089647D01*
X63857900Y24041135D01*
X63822995Y23998603D01*
X63809107Y23987205D01*
X63791780Y23969877D01*
X63778167Y23949502D01*
X63768790Y23926863D01*
X63764010Y23902829D01*
X63764010Y23878325D01*
X63768791Y23854292D01*
X63778169Y23831653D01*
X63791782Y23811281D01*
X63832499Y23761668D01*
X63858430Y23713153D01*
X63874403Y23660497D01*
X63880400Y23599610D01*
X63880400Y22374390D01*
X63874403Y22313503D01*
X63858430Y22260847D01*
X63832500Y22212335D01*
X63797596Y22169804D01*
X63755065Y22134900D01*
X63706553Y22108970D01*
X63653897Y22092997D01*
X63593010Y22087000D01*
X62792790Y22087000D01*
X62731903Y22092997D01*
X62679247Y22108970D01*
X62630735Y22134900D01*
X62588204Y22169804D01*
X62553300Y22212335D01*
X62527370Y22260847D01*
X62511397Y22313503D01*
X62505400Y22374390D01*
X62505400Y23599610D01*
X62511397Y23660497D01*
X62527370Y23713153D01*
X62553300Y23761665D01*
X62588205Y23804197D01*
X62602093Y23815595D01*
X62619420Y23832923D01*
X62633033Y23853298D01*
X62642410Y23875937D01*
X62647190Y23899971D01*
X62647190Y23924475D01*
X62642409Y23948508D01*
X62633031Y23971147D01*
X62619418Y23991519D01*
X62578701Y24041132D01*
X62552770Y24089647D01*
X62536797Y24142303D01*
X62530800Y24203190D01*
X62530800Y25428410D01*
X62536797Y25489297D01*
X62552770Y25541953D01*
X62578700Y25590465D01*
X62619533Y25640220D01*
X62633147Y25660595D01*
X62642524Y25683234D01*
X62647305Y25707267D01*
X62647305Y25731772D01*
X62642525Y25755805D01*
X62633147Y25778444D01*
X62619534Y25798819D01*
X62602207Y25816146D01*
X62581832Y25829760D01*
X62559193Y25839137D01*
X62535160Y25843918D01*
X62522907Y25844520D01*
X62480800Y25844520D01*
X62480800Y27344520D01*
X63880800Y27344520D01*
X63880800Y25839537D01*
X63880800Y25839537D01*
G37*
G36*
X62080800Y25844520D02*
X62038693Y25844520D01*
X62014307Y25842118D01*
X61990858Y25835005D01*
X61969247Y25823454D01*
X61950305Y25807908D01*
X61934759Y25788966D01*
X61923208Y25767355D01*
X61916095Y25743906D01*
X61913693Y25719520D01*
X61916095Y25695134D01*
X61923208Y25671685D01*
X61934759Y25650074D01*
X61942067Y25640220D01*
X61982900Y25590465D01*
X62008830Y25541953D01*
X62024803Y25489297D01*
X62030800Y25428410D01*
X62030800Y24203190D01*
X62024803Y24142303D01*
X62008830Y24089647D01*
X61982900Y24041135D01*
X61947995Y23998603D01*
X61934107Y23987205D01*
X61916780Y23969877D01*
X61903167Y23949502D01*
X61893790Y23926863D01*
X61889010Y23902829D01*
X61889010Y23878325D01*
X61893791Y23854292D01*
X61903169Y23831653D01*
X61916782Y23811281D01*
X61957499Y23761668D01*
X61983430Y23713153D01*
X61999403Y23660497D01*
X62005400Y23599610D01*
X62005400Y22374390D01*
X61999403Y22313503D01*
X61983430Y22260847D01*
X61957500Y22212335D01*
X61922596Y22169804D01*
X61880065Y22134900D01*
X61831553Y22108970D01*
X61778897Y22092997D01*
X61718010Y22087000D01*
X60917790Y22087000D01*
X60856903Y22092997D01*
X60804247Y22108970D01*
X60755735Y22134900D01*
X60713204Y22169804D01*
X60678300Y22212335D01*
X60652370Y22260847D01*
X60636397Y22313503D01*
X60630400Y22374390D01*
X60630400Y23599610D01*
X60636397Y23660497D01*
X60652370Y23713153D01*
X60678300Y23761665D01*
X60713205Y23804197D01*
X60727093Y23815595D01*
X60744420Y23832923D01*
X60758033Y23853298D01*
X60767410Y23875937D01*
X60772190Y23899971D01*
X60772190Y23924475D01*
X60767409Y23948508D01*
X60758031Y23971147D01*
X60744418Y23991519D01*
X60703701Y24041132D01*
X60677770Y24089647D01*
X60661797Y24142303D01*
X60655800Y24203190D01*
X60655800Y25428410D01*
X60661797Y25489297D01*
X60677770Y25541953D01*
X60703700Y25590465D01*
X60744533Y25640220D01*
X60758147Y25660595D01*
X60767524Y25683234D01*
X60772305Y25707267D01*
X60772305Y25731772D01*
X60767525Y25755805D01*
X60758147Y25778444D01*
X60744534Y25798819D01*
X60727207Y25816146D01*
X60706832Y25829760D01*
X60684193Y25839137D01*
X60680800Y25839812D01*
X60680800Y27344520D01*
X62080800Y27344520D01*
X62080800Y25844520D01*
X62080800Y25844520D01*
G37*
G36*
X28708097Y24592203D02*
X28760753Y24576230D01*
X28809265Y24550300D01*
X28851796Y24515396D01*
X28886700Y24472865D01*
X28912630Y24424353D01*
X28928603Y24371697D01*
X28934600Y24310810D01*
X28934600Y23085590D01*
X28928603Y23024703D01*
X28912630Y22972047D01*
X28886700Y22923535D01*
X28851796Y22881004D01*
X28809265Y22846100D01*
X28760753Y22820170D01*
X28708097Y22804197D01*
X28647210Y22798200D01*
X27846990Y22798200D01*
X27786103Y22804197D01*
X27733447Y22820170D01*
X27684935Y22846100D01*
X27642404Y22881004D01*
X27607500Y22923535D01*
X27581570Y22972047D01*
X27565597Y23024703D01*
X27559600Y23085590D01*
X27559600Y24310810D01*
X27565597Y24371697D01*
X27581570Y24424353D01*
X27607500Y24472865D01*
X27642404Y24515396D01*
X27684935Y24550300D01*
X27733447Y24576230D01*
X27786103Y24592203D01*
X27846990Y24598200D01*
X28647210Y24598200D01*
X28708097Y24592203D01*
X28708097Y24592203D01*
G37*
G36*
X30583097Y24592203D02*
X30635753Y24576230D01*
X30684265Y24550300D01*
X30726796Y24515396D01*
X30761700Y24472865D01*
X30787630Y24424353D01*
X30803603Y24371697D01*
X30809600Y24310810D01*
X30809600Y23085590D01*
X30803603Y23024703D01*
X30787630Y22972047D01*
X30761700Y22923535D01*
X30726796Y22881004D01*
X30684265Y22846100D01*
X30635753Y22820170D01*
X30583097Y22804197D01*
X30522210Y22798200D01*
X29721990Y22798200D01*
X29661103Y22804197D01*
X29608447Y22820170D01*
X29559935Y22846100D01*
X29517404Y22881004D01*
X29482500Y22923535D01*
X29456570Y22972047D01*
X29440597Y23024703D01*
X29434600Y23085590D01*
X29434600Y24310810D01*
X29440597Y24371697D01*
X29456570Y24424353D01*
X29482500Y24472865D01*
X29517404Y24515396D01*
X29559935Y24550300D01*
X29608447Y24576230D01*
X29661103Y24592203D01*
X29721990Y24598200D01*
X30522210Y24598200D01*
X30583097Y24592203D01*
X30583097Y24592203D01*
G37*
G36*
X53549297Y26903603D02*
X53601953Y26887630D01*
X53650465Y26861700D01*
X53692996Y26826796D01*
X53727900Y26784265D01*
X53753830Y26735753D01*
X53769803Y26683097D01*
X53775800Y26622210D01*
X53775800Y25396990D01*
X53769803Y25336103D01*
X53753830Y25283447D01*
X53727900Y25234935D01*
X53692996Y25192404D01*
X53650465Y25157500D01*
X53601953Y25131570D01*
X53549298Y25115597D01*
X53548323Y25115501D01*
X53524290Y25110721D01*
X53501650Y25101344D01*
X53481276Y25087731D01*
X53463948Y25070404D01*
X53450334Y25050030D01*
X53440956Y25027391D01*
X53436175Y25003357D01*
X53436175Y24978853D01*
X53440955Y24954820D01*
X53450332Y24932180D01*
X53463945Y24911806D01*
X53481272Y24894478D01*
X53501646Y24880864D01*
X53524287Y24871485D01*
X53576553Y24855630D01*
X53625065Y24829700D01*
X53667596Y24794796D01*
X53702500Y24752265D01*
X53728430Y24703753D01*
X53744403Y24651097D01*
X53750400Y24590210D01*
X53750400Y23364990D01*
X53744403Y23304103D01*
X53728430Y23251447D01*
X53702500Y23202935D01*
X53667596Y23160404D01*
X53625065Y23125500D01*
X53576553Y23099570D01*
X53523897Y23083597D01*
X53463010Y23077600D01*
X52662790Y23077600D01*
X52601903Y23083597D01*
X52549247Y23099570D01*
X52500735Y23125500D01*
X52458204Y23160404D01*
X52423300Y23202935D01*
X52397370Y23251447D01*
X52381397Y23304103D01*
X52375400Y23364990D01*
X52375400Y24590210D01*
X52381397Y24651097D01*
X52397370Y24703753D01*
X52423300Y24752265D01*
X52458204Y24794796D01*
X52500735Y24829700D01*
X52549247Y24855630D01*
X52601902Y24871603D01*
X52602877Y24871699D01*
X52626910Y24876479D01*
X52649550Y24885856D01*
X52669924Y24899469D01*
X52687252Y24916796D01*
X52700866Y24937170D01*
X52710244Y24959809D01*
X52715025Y24983843D01*
X52715025Y25008347D01*
X52710245Y25032380D01*
X52700868Y25055020D01*
X52687255Y25075394D01*
X52669928Y25092722D01*
X52649554Y25106336D01*
X52626913Y25115715D01*
X52574647Y25131570D01*
X52526135Y25157500D01*
X52483604Y25192404D01*
X52448700Y25234935D01*
X52422770Y25283447D01*
X52406797Y25336103D01*
X52400800Y25396990D01*
X52400800Y26622210D01*
X52406797Y26683097D01*
X52422770Y26735753D01*
X52448700Y26784265D01*
X52483604Y26826796D01*
X52526135Y26861700D01*
X52574647Y26887630D01*
X52627303Y26903603D01*
X52688190Y26909600D01*
X53488410Y26909600D01*
X53549297Y26903603D01*
X53549297Y26903603D01*
G37*
G36*
X55424297Y26903603D02*
X55476953Y26887630D01*
X55525465Y26861700D01*
X55567996Y26826796D01*
X55602900Y26784265D01*
X55628830Y26735753D01*
X55644803Y26683097D01*
X55650800Y26622210D01*
X55650800Y25396990D01*
X55644803Y25336103D01*
X55628830Y25283447D01*
X55602900Y25234935D01*
X55567996Y25192404D01*
X55525465Y25157500D01*
X55476953Y25131570D01*
X55424298Y25115597D01*
X55423323Y25115501D01*
X55399290Y25110721D01*
X55376650Y25101344D01*
X55356276Y25087731D01*
X55338948Y25070404D01*
X55325334Y25050030D01*
X55315956Y25027391D01*
X55311175Y25003357D01*
X55311175Y24978853D01*
X55315955Y24954820D01*
X55325332Y24932180D01*
X55338945Y24911806D01*
X55356272Y24894478D01*
X55376646Y24880864D01*
X55399287Y24871485D01*
X55451553Y24855630D01*
X55500065Y24829700D01*
X55542596Y24794796D01*
X55577500Y24752265D01*
X55603430Y24703753D01*
X55619403Y24651097D01*
X55625400Y24590210D01*
X55625400Y23364990D01*
X55619403Y23304103D01*
X55603430Y23251447D01*
X55577500Y23202935D01*
X55542596Y23160404D01*
X55500065Y23125500D01*
X55451553Y23099570D01*
X55398897Y23083597D01*
X55338010Y23077600D01*
X54537790Y23077600D01*
X54476903Y23083597D01*
X54424247Y23099570D01*
X54375735Y23125500D01*
X54333204Y23160404D01*
X54298300Y23202935D01*
X54272370Y23251447D01*
X54256397Y23304103D01*
X54250400Y23364990D01*
X54250400Y24590210D01*
X54256397Y24651097D01*
X54272370Y24703753D01*
X54298300Y24752265D01*
X54333204Y24794796D01*
X54375735Y24829700D01*
X54424247Y24855630D01*
X54476902Y24871603D01*
X54477877Y24871699D01*
X54501910Y24876479D01*
X54524550Y24885856D01*
X54544924Y24899469D01*
X54562252Y24916796D01*
X54575866Y24937170D01*
X54585244Y24959809D01*
X54590025Y24983843D01*
X54590025Y25008347D01*
X54585245Y25032380D01*
X54575868Y25055020D01*
X54562255Y25075394D01*
X54544928Y25092722D01*
X54524554Y25106336D01*
X54501913Y25115715D01*
X54449647Y25131570D01*
X54401135Y25157500D01*
X54358604Y25192404D01*
X54323700Y25234935D01*
X54297770Y25283447D01*
X54281797Y25336103D01*
X54275800Y25396990D01*
X54275800Y26622210D01*
X54281797Y26683097D01*
X54297770Y26735753D01*
X54323700Y26784265D01*
X54358604Y26826796D01*
X54401135Y26861700D01*
X54449647Y26887630D01*
X54502303Y26903603D01*
X54563190Y26909600D01*
X55363410Y26909600D01*
X55424297Y26903603D01*
X55424297Y26903603D01*
G37*
G36*
X30583097Y26700403D02*
X30635753Y26684430D01*
X30684265Y26658500D01*
X30726796Y26623596D01*
X30761700Y26581065D01*
X30787630Y26532553D01*
X30803603Y26479897D01*
X30809600Y26419010D01*
X30809600Y25193790D01*
X30803603Y25132903D01*
X30787630Y25080247D01*
X30761700Y25031735D01*
X30726796Y24989204D01*
X30684265Y24954300D01*
X30635753Y24928370D01*
X30583097Y24912397D01*
X30522210Y24906400D01*
X29721990Y24906400D01*
X29661103Y24912397D01*
X29608447Y24928370D01*
X29559935Y24954300D01*
X29517404Y24989204D01*
X29482500Y25031735D01*
X29456570Y25080247D01*
X29440597Y25132903D01*
X29434600Y25193790D01*
X29434600Y26419010D01*
X29440597Y26479897D01*
X29456570Y26532553D01*
X29482500Y26581065D01*
X29517404Y26623596D01*
X29559935Y26658500D01*
X29608447Y26684430D01*
X29661103Y26700403D01*
X29721990Y26706400D01*
X30522210Y26706400D01*
X30583097Y26700403D01*
X30583097Y26700403D01*
G37*
G36*
X28708097Y26700403D02*
X28760753Y26684430D01*
X28809265Y26658500D01*
X28851796Y26623596D01*
X28886700Y26581065D01*
X28912630Y26532553D01*
X28928603Y26479897D01*
X28934600Y26419010D01*
X28934600Y25193790D01*
X28928603Y25132903D01*
X28912630Y25080247D01*
X28886700Y25031735D01*
X28851796Y24989204D01*
X28809265Y24954300D01*
X28760753Y24928370D01*
X28708097Y24912397D01*
X28647210Y24906400D01*
X27846990Y24906400D01*
X27786103Y24912397D01*
X27733447Y24928370D01*
X27684935Y24954300D01*
X27642404Y24989204D01*
X27607500Y25031735D01*
X27581570Y25080247D01*
X27565597Y25132903D01*
X27559600Y25193790D01*
X27559600Y26419010D01*
X27565597Y26479897D01*
X27581570Y26532553D01*
X27607500Y26581065D01*
X27642404Y26623596D01*
X27684935Y26658500D01*
X27733447Y26684430D01*
X27786103Y26700403D01*
X27846990Y26706400D01*
X28647210Y26706400D01*
X28708097Y26700403D01*
X28708097Y26700403D01*
G37*
G36*
X28708097Y28783203D02*
X28760753Y28767230D01*
X28809265Y28741300D01*
X28851796Y28706396D01*
X28886700Y28663865D01*
X28912630Y28615353D01*
X28928603Y28562697D01*
X28934600Y28501810D01*
X28934600Y27276590D01*
X28928603Y27215703D01*
X28912630Y27163047D01*
X28886700Y27114535D01*
X28851796Y27072004D01*
X28809265Y27037100D01*
X28760753Y27011170D01*
X28708097Y26995197D01*
X28647210Y26989200D01*
X27846990Y26989200D01*
X27786103Y26995197D01*
X27733447Y27011170D01*
X27684935Y27037100D01*
X27642404Y27072004D01*
X27607500Y27114535D01*
X27581570Y27163047D01*
X27565597Y27215703D01*
X27559600Y27276590D01*
X27559600Y28501810D01*
X27565597Y28562697D01*
X27581570Y28615353D01*
X27607500Y28663865D01*
X27642404Y28706396D01*
X27684935Y28741300D01*
X27733447Y28767230D01*
X27786103Y28783203D01*
X27846990Y28789200D01*
X28647210Y28789200D01*
X28708097Y28783203D01*
X28708097Y28783203D01*
G37*
G36*
X30583097Y28783203D02*
X30635753Y28767230D01*
X30684265Y28741300D01*
X30726796Y28706396D01*
X30761700Y28663865D01*
X30787630Y28615353D01*
X30803603Y28562697D01*
X30809600Y28501810D01*
X30809600Y27276590D01*
X30803603Y27215703D01*
X30787630Y27163047D01*
X30761700Y27114535D01*
X30726796Y27072004D01*
X30684265Y27037100D01*
X30635753Y27011170D01*
X30583097Y26995197D01*
X30522210Y26989200D01*
X29721990Y26989200D01*
X29661103Y26995197D01*
X29608447Y27011170D01*
X29559935Y27037100D01*
X29517404Y27072004D01*
X29482500Y27114535D01*
X29456570Y27163047D01*
X29440597Y27215703D01*
X29434600Y27276590D01*
X29434600Y28501810D01*
X29440597Y28562697D01*
X29456570Y28615353D01*
X29482500Y28663865D01*
X29517404Y28706396D01*
X29559935Y28741300D01*
X29608447Y28767230D01*
X29661103Y28783203D01*
X29721990Y28789200D01*
X30522210Y28789200D01*
X30583097Y28783203D01*
X30583097Y28783203D01*
G37*
G36*
X53549297Y28986403D02*
X53601953Y28970430D01*
X53650465Y28944500D01*
X53692996Y28909596D01*
X53727900Y28867065D01*
X53753830Y28818553D01*
X53769803Y28765897D01*
X53775800Y28705010D01*
X53775800Y27479790D01*
X53769803Y27418903D01*
X53753830Y27366247D01*
X53727900Y27317735D01*
X53692996Y27275204D01*
X53650465Y27240300D01*
X53601953Y27214370D01*
X53549297Y27198397D01*
X53488410Y27192400D01*
X52688190Y27192400D01*
X52627303Y27198397D01*
X52574647Y27214370D01*
X52526135Y27240300D01*
X52483604Y27275204D01*
X52448700Y27317735D01*
X52422770Y27366247D01*
X52406797Y27418903D01*
X52400800Y27479790D01*
X52400800Y28705010D01*
X52406797Y28765897D01*
X52422770Y28818553D01*
X52448700Y28867065D01*
X52483604Y28909596D01*
X52526135Y28944500D01*
X52574647Y28970430D01*
X52627303Y28986403D01*
X52688190Y28992400D01*
X53488410Y28992400D01*
X53549297Y28986403D01*
X53549297Y28986403D01*
G37*
G36*
X55424297Y28986403D02*
X55476953Y28970430D01*
X55525465Y28944500D01*
X55567996Y28909596D01*
X55602900Y28867065D01*
X55628830Y28818553D01*
X55644803Y28765897D01*
X55650800Y28705010D01*
X55650800Y27479790D01*
X55644803Y27418903D01*
X55628830Y27366247D01*
X55602900Y27317735D01*
X55567996Y27275204D01*
X55525465Y27240300D01*
X55476953Y27214370D01*
X55424297Y27198397D01*
X55363410Y27192400D01*
X54563190Y27192400D01*
X54502303Y27198397D01*
X54449647Y27214370D01*
X54401135Y27240300D01*
X54358604Y27275204D01*
X54323700Y27317735D01*
X54297770Y27366247D01*
X54281797Y27418903D01*
X54275800Y27479790D01*
X54275800Y28705010D01*
X54281797Y28765897D01*
X54297770Y28818553D01*
X54323700Y28867065D01*
X54358604Y28909596D01*
X54401135Y28944500D01*
X54449647Y28970430D01*
X54502303Y28986403D01*
X54563190Y28992400D01*
X55363410Y28992400D01*
X55424297Y28986403D01*
X55424297Y28986403D01*
G37*
G36*
X79826248Y31567480D02*
X79915244Y31540484D01*
X79997261Y31496644D01*
X80069148Y31437648D01*
X80128144Y31365761D01*
X80171984Y31283744D01*
X80198980Y31194748D01*
X80208700Y31096060D01*
X80208700Y29508340D01*
X80198980Y29409652D01*
X80171984Y29320656D01*
X80128144Y29238639D01*
X80069148Y29166752D01*
X79997261Y29107756D01*
X79915244Y29063916D01*
X79826248Y29036920D01*
X79727560Y29027200D01*
X78539840Y29027200D01*
X78441152Y29036920D01*
X78352156Y29063916D01*
X78270139Y29107756D01*
X78198252Y29166752D01*
X78139256Y29238639D01*
X78095416Y29320656D01*
X78068420Y29409652D01*
X78058700Y29508340D01*
X78058700Y31096060D01*
X78068420Y31194748D01*
X78095416Y31283744D01*
X78139256Y31365761D01*
X78198252Y31437648D01*
X78270139Y31496644D01*
X78352156Y31540484D01*
X78441152Y31567480D01*
X78539840Y31577200D01*
X79727560Y31577200D01*
X79826248Y31567480D01*
X79826248Y31567480D01*
G37*
G36*
X20094600Y29719120D02*
X18694600Y29719120D01*
X18694600Y31219120D01*
X20094600Y31219120D01*
X20094600Y29719120D01*
X20094600Y29719120D01*
G37*
G36*
X21894600Y29719120D02*
X20494600Y29719120D01*
X20494600Y31219120D01*
X21894600Y31219120D01*
X21894600Y29719120D01*
X21894600Y29719120D01*
G37*
G36*
X63880800Y29744520D02*
X62480800Y29744520D01*
X62480800Y31244520D01*
X63880800Y31244520D01*
X63880800Y29744520D01*
X63880800Y29744520D01*
G37*
G36*
X62080800Y29744520D02*
X60680800Y29744520D01*
X60680800Y31244520D01*
X62080800Y31244520D01*
X62080800Y29744520D01*
X62080800Y29744520D01*
G37*
G36*
X62903497Y39266403D02*
X62956153Y39250430D01*
X63004665Y39224500D01*
X63047196Y39189596D01*
X63082100Y39147065D01*
X63108030Y39098553D01*
X63124003Y39045897D01*
X63130000Y38985010D01*
X63130000Y38184790D01*
X63124003Y38123903D01*
X63108030Y38071247D01*
X63082100Y38022735D01*
X63047196Y37980204D01*
X63004665Y37945300D01*
X62956153Y37919370D01*
X62903497Y37903397D01*
X62842610Y37897400D01*
X61617390Y37897400D01*
X61556503Y37903397D01*
X61503847Y37919370D01*
X61455335Y37945300D01*
X61412804Y37980204D01*
X61377900Y38022735D01*
X61351970Y38071247D01*
X61335997Y38123903D01*
X61330000Y38184790D01*
X61330000Y38985010D01*
X61335997Y39045897D01*
X61351970Y39098553D01*
X61377900Y39147065D01*
X61412804Y39189596D01*
X61455335Y39224500D01*
X61503847Y39250430D01*
X61556503Y39266403D01*
X61617390Y39272400D01*
X62842610Y39272400D01*
X62903497Y39266403D01*
X62903497Y39266403D01*
G37*
G36*
X20968097Y39444203D02*
X21020753Y39428230D01*
X21069265Y39402300D01*
X21111796Y39367396D01*
X21146700Y39324865D01*
X21172630Y39276353D01*
X21188603Y39223697D01*
X21194600Y39162810D01*
X21194600Y38362590D01*
X21188603Y38301703D01*
X21172630Y38249047D01*
X21146700Y38200535D01*
X21111796Y38158004D01*
X21069265Y38123100D01*
X21020753Y38097170D01*
X20968097Y38081197D01*
X20907210Y38075200D01*
X19681990Y38075200D01*
X19621103Y38081197D01*
X19568447Y38097170D01*
X19519935Y38123100D01*
X19477404Y38158004D01*
X19442500Y38200535D01*
X19416570Y38249047D01*
X19400597Y38301703D01*
X19394600Y38362590D01*
X19394600Y39162810D01*
X19400597Y39223697D01*
X19416570Y39276353D01*
X19442500Y39324865D01*
X19477404Y39367396D01*
X19519935Y39402300D01*
X19568447Y39428230D01*
X19621103Y39444203D01*
X19681990Y39450200D01*
X20907210Y39450200D01*
X20968097Y39444203D01*
X20968097Y39444203D01*
G37*
G36*
X62903497Y41141403D02*
X62956153Y41125430D01*
X63004665Y41099500D01*
X63047196Y41064596D01*
X63082100Y41022065D01*
X63108030Y40973553D01*
X63124003Y40920897D01*
X63130000Y40860010D01*
X63130000Y40059790D01*
X63124003Y39998903D01*
X63108030Y39946247D01*
X63082100Y39897735D01*
X63047196Y39855204D01*
X63004665Y39820300D01*
X62956153Y39794370D01*
X62903497Y39778397D01*
X62842610Y39772400D01*
X61617390Y39772400D01*
X61556503Y39778397D01*
X61503847Y39794370D01*
X61455335Y39820300D01*
X61412804Y39855204D01*
X61377900Y39897735D01*
X61351970Y39946247D01*
X61335997Y39998903D01*
X61330000Y40059790D01*
X61330000Y40860010D01*
X61335997Y40920897D01*
X61351970Y40973553D01*
X61377900Y41022065D01*
X61412804Y41064596D01*
X61455335Y41099500D01*
X61503847Y41125430D01*
X61556503Y41141403D01*
X61617390Y41147400D01*
X62842610Y41147400D01*
X62903497Y41141403D01*
X62903497Y41141403D01*
G37*
G36*
X20968097Y41319203D02*
X21020753Y41303230D01*
X21069265Y41277300D01*
X21111796Y41242396D01*
X21146700Y41199865D01*
X21172630Y41151353D01*
X21188603Y41098697D01*
X21194600Y41037810D01*
X21194600Y40237590D01*
X21188603Y40176703D01*
X21172630Y40124047D01*
X21146700Y40075535D01*
X21111796Y40033004D01*
X21069265Y39998100D01*
X21020753Y39972170D01*
X20968097Y39956197D01*
X20907210Y39950200D01*
X19681990Y39950200D01*
X19621103Y39956197D01*
X19568447Y39972170D01*
X19519935Y39998100D01*
X19477404Y40033004D01*
X19442500Y40075535D01*
X19416570Y40124047D01*
X19400597Y40176703D01*
X19394600Y40237590D01*
X19394600Y41037810D01*
X19400597Y41098697D01*
X19416570Y41151353D01*
X19442500Y41199865D01*
X19477404Y41242396D01*
X19519935Y41277300D01*
X19568447Y41303230D01*
X19621103Y41319203D01*
X19681990Y41325200D01*
X20907210Y41325200D01*
X20968097Y41319203D01*
X20968097Y41319203D01*
G37*
G36*
X79826248Y47569480D02*
X79915244Y47542484D01*
X79997261Y47498644D01*
X80069148Y47439648D01*
X80128144Y47367761D01*
X80171984Y47285744D01*
X80198980Y47196748D01*
X80208700Y47098060D01*
X80208700Y45510340D01*
X80198980Y45411652D01*
X80171984Y45322656D01*
X80128144Y45240639D01*
X80069148Y45168752D01*
X79997261Y45109756D01*
X79915244Y45065916D01*
X79826248Y45038920D01*
X79727560Y45029200D01*
X78539840Y45029200D01*
X78441152Y45038920D01*
X78352156Y45065916D01*
X78270139Y45109756D01*
X78198252Y45168752D01*
X78139256Y45240639D01*
X78095416Y45322656D01*
X78068420Y45411652D01*
X78058700Y45510340D01*
X78058700Y47098060D01*
X78068420Y47196748D01*
X78095416Y47285744D01*
X78139256Y47367761D01*
X78198252Y47439648D01*
X78270139Y47498644D01*
X78352156Y47542484D01*
X78441152Y47569480D01*
X78539840Y47579200D01*
X79727560Y47579200D01*
X79826248Y47569480D01*
X79826248Y47569480D01*
G37*
G36*
X21894600Y48145720D02*
X20494600Y48145720D01*
X20494600Y49645720D01*
X21894600Y49645720D01*
X21894600Y48145720D01*
X21894600Y48145720D01*
G37*
G36*
X20094600Y48145720D02*
X18694600Y48145720D01*
X18694600Y49645720D01*
X20094600Y49645720D01*
X20094600Y48145720D01*
X20094600Y48145720D01*
G37*
G36*
X63880800Y48171120D02*
X62480800Y48171120D01*
X62480800Y49671120D01*
X63880800Y49671120D01*
X63880800Y48171120D01*
X63880800Y48171120D01*
G37*
G36*
X62080800Y48171120D02*
X60680800Y48171120D01*
X60680800Y49671120D01*
X62080800Y49671120D01*
X62080800Y48171120D01*
X62080800Y48171120D01*
G37*
G36*
X21894600Y52045720D02*
X20494600Y52045720D01*
X20494600Y53545720D01*
X21894600Y53545720D01*
X21894600Y52045720D01*
X21894600Y52045720D01*
G37*
G36*
X20094600Y52045720D02*
X18694600Y52045720D01*
X18694600Y53545720D01*
X20094600Y53545720D01*
X20094600Y52045720D01*
X20094600Y52045720D01*
G37*
G36*
X62080800Y52071120D02*
X60680800Y52071120D01*
X60680800Y53571120D01*
X62080800Y53571120D01*
X62080800Y52071120D01*
X62080800Y52071120D01*
G37*
G36*
X63880800Y52071120D02*
X62480800Y52071120D01*
X62480800Y53571120D01*
X63880800Y53571120D01*
X63880800Y52071120D01*
X63880800Y52071120D01*
G37*
G36*
X79826248Y63838180D02*
X79915244Y63811184D01*
X79997261Y63767344D01*
X80069148Y63708348D01*
X80128144Y63636461D01*
X80171984Y63554444D01*
X80198980Y63465448D01*
X80208700Y63366760D01*
X80208700Y61779040D01*
X80198980Y61680352D01*
X80171984Y61591356D01*
X80128144Y61509339D01*
X80069148Y61437452D01*
X79997261Y61378456D01*
X79915244Y61334616D01*
X79826248Y61307620D01*
X79727560Y61297900D01*
X78539840Y61297900D01*
X78441152Y61307620D01*
X78352156Y61334616D01*
X78270139Y61378456D01*
X78198252Y61437452D01*
X78139256Y61509339D01*
X78095416Y61591356D01*
X78068420Y61680352D01*
X78058700Y61779040D01*
X78058700Y63366760D01*
X78068420Y63465448D01*
X78095416Y63554444D01*
X78139256Y63636461D01*
X78198252Y63708348D01*
X78270139Y63767344D01*
X78352156Y63811184D01*
X78441152Y63838180D01*
X78539840Y63847900D01*
X79727560Y63847900D01*
X79826248Y63838180D01*
X79826248Y63838180D01*
G37*
G36*
X4436685Y75555298D02*
X3345026Y74526570D01*
X2384881Y75545452D01*
X3476540Y76574180D01*
X4436685Y75555298D01*
X4436685Y75555298D01*
G37*
G36*
X80132325Y75552420D02*
X79172180Y74533538D01*
X78080521Y75562266D01*
X79040666Y76581148D01*
X80132325Y75552420D01*
X80132325Y75552420D01*
G37*
G36*
X3202212Y76865289D02*
X2110553Y75836561D01*
X1150408Y76855443D01*
X2242067Y77884171D01*
X3202212Y76865289D01*
X3202212Y76865289D01*
G37*
G36*
X81366798Y76862411D02*
X80406653Y75843529D01*
X79314994Y76872257D01*
X80275139Y77891139D01*
X81366798Y76862411D01*
X81366798Y76862411D01*
G37*
G36*
X8316247Y77948142D02*
X8367304Y77927643D01*
X8413376Y77897581D01*
X8457110Y77854790D01*
X8603498Y77680331D01*
X9169856Y77005373D01*
X9244666Y76916217D01*
X9279212Y76865716D01*
X9300820Y76815121D01*
X9312139Y76761285D01*
X9312740Y76706268D01*
X9302596Y76652196D01*
X9282097Y76601139D01*
X9252035Y76555067D01*
X9209244Y76511333D01*
X9166069Y76475105D01*
X8639414Y76033189D01*
X8639410Y76033187D01*
X8596242Y75996964D01*
X8545737Y75962415D01*
X8495142Y75940808D01*
X8441308Y75929489D01*
X8386291Y75928888D01*
X8332219Y75939032D01*
X8281162Y75959531D01*
X8235090Y75989593D01*
X8191356Y76032384D01*
X7736735Y76574180D01*
X7440027Y76927783D01*
X7440026Y76927785D01*
X7403800Y76970957D01*
X7369254Y77021458D01*
X7347646Y77072053D01*
X7336327Y77125889D01*
X7335726Y77180906D01*
X7345870Y77234978D01*
X7366369Y77286035D01*
X7396431Y77332107D01*
X7439222Y77375841D01*
X7603479Y77513669D01*
X8009052Y77853985D01*
X8009056Y77853987D01*
X8052224Y77890210D01*
X8102729Y77924759D01*
X8153324Y77946366D01*
X8207158Y77957685D01*
X8262175Y77958286D01*
X8316247Y77948142D01*
X8316247Y77948142D01*
G37*
G36*
X74368242Y78059285D02*
X74422078Y78047966D01*
X74472673Y78026358D01*
X74523174Y77991812D01*
X74566346Y77955586D01*
X74566348Y77955585D01*
X74730126Y77818159D01*
X75136178Y77477441D01*
X75178969Y77433707D01*
X75209031Y77387635D01*
X75229530Y77336578D01*
X75239674Y77282506D01*
X75239073Y77227489D01*
X75227754Y77173655D01*
X75206147Y77123060D01*
X75171598Y77072555D01*
X75135376Y77029387D01*
X75135373Y77029383D01*
X74710695Y76523272D01*
X74384044Y76133984D01*
X74340310Y76091193D01*
X74294238Y76061131D01*
X74243181Y76040632D01*
X74189109Y76030488D01*
X74134092Y76031089D01*
X74080256Y76042408D01*
X74029661Y76064016D01*
X73979160Y76098562D01*
X73885492Y76177159D01*
X73409331Y76576705D01*
X73366156Y76612933D01*
X73323365Y76656667D01*
X73293303Y76702739D01*
X73272804Y76753796D01*
X73262660Y76807868D01*
X73263261Y76862885D01*
X73274580Y76916719D01*
X73296187Y76967314D01*
X73330736Y77017819D01*
X73366958Y77060987D01*
X73366961Y77060991D01*
X74059673Y77886533D01*
X74118290Y77956390D01*
X74162024Y77999181D01*
X74208096Y78029243D01*
X74259153Y78049742D01*
X74313225Y78059886D01*
X74368242Y78059285D01*
X74368242Y78059285D01*
G37*
G36*
X9752581Y79153368D02*
X9803638Y79132869D01*
X9849710Y79102807D01*
X9893444Y79060016D01*
X9929672Y79016841D01*
X10606190Y78210599D01*
X10681000Y78121443D01*
X10715546Y78070942D01*
X10737154Y78020347D01*
X10748473Y77966511D01*
X10749074Y77911494D01*
X10738930Y77857422D01*
X10718431Y77806365D01*
X10688369Y77760293D01*
X10645578Y77716559D01*
X10602403Y77680331D01*
X10075748Y77238415D01*
X10075744Y77238413D01*
X10032576Y77202190D01*
X9982071Y77167641D01*
X9931476Y77146034D01*
X9877642Y77134715D01*
X9822625Y77134114D01*
X9768553Y77144258D01*
X9717496Y77164757D01*
X9671424Y77194819D01*
X9627690Y77237610D01*
X9189107Y77760293D01*
X8876361Y78133009D01*
X8876360Y78133011D01*
X8840134Y78176183D01*
X8805588Y78226684D01*
X8783980Y78277279D01*
X8772661Y78331115D01*
X8772060Y78386132D01*
X8782204Y78440204D01*
X8802703Y78491261D01*
X8832765Y78537333D01*
X8875556Y78581067D01*
X9039813Y78718895D01*
X9445386Y79059211D01*
X9445390Y79059213D01*
X9488558Y79095436D01*
X9539063Y79129985D01*
X9589658Y79151592D01*
X9643492Y79162911D01*
X9698509Y79163512D01*
X9752581Y79153368D01*
X9752581Y79153368D01*
G37*
G36*
X7274998Y78229989D02*
X6183339Y77201261D01*
X5223194Y78220143D01*
X6314853Y79248871D01*
X7274998Y78229989D01*
X7274998Y78229989D01*
G37*
G36*
X77294012Y78227111D02*
X76333867Y77208229D01*
X75242208Y78236957D01*
X76202353Y79255839D01*
X77294012Y78227111D01*
X77294012Y78227111D01*
G37*
G36*
X72931908Y79264511D02*
X72985744Y79253192D01*
X73036339Y79231584D01*
X73086840Y79197038D01*
X73130012Y79160812D01*
X73130014Y79160811D01*
X73207925Y79095436D01*
X73699844Y78682667D01*
X73742635Y78638933D01*
X73772697Y78592861D01*
X73793196Y78541804D01*
X73803340Y78487732D01*
X73802739Y78432715D01*
X73791420Y78378881D01*
X73769813Y78328286D01*
X73735264Y78277781D01*
X73699042Y78234613D01*
X73699039Y78234609D01*
X73274361Y77728498D01*
X72947710Y77339210D01*
X72903976Y77296419D01*
X72857904Y77266357D01*
X72806847Y77245858D01*
X72752775Y77235714D01*
X72697758Y77236315D01*
X72643922Y77247634D01*
X72593327Y77269242D01*
X72542826Y77303788D01*
X72491886Y77346532D01*
X71972997Y77781931D01*
X71929822Y77818159D01*
X71887031Y77861893D01*
X71856969Y77907965D01*
X71836470Y77959022D01*
X71826326Y78013094D01*
X71826927Y78068111D01*
X71838246Y78121945D01*
X71859853Y78172540D01*
X71894402Y78223045D01*
X71930624Y78266213D01*
X71930627Y78266217D01*
X72600020Y79063968D01*
X72681956Y79161616D01*
X72725690Y79204407D01*
X72771762Y79234469D01*
X72822819Y79254968D01*
X72876891Y79265112D01*
X72931908Y79264511D01*
X72931908Y79264511D01*
G37*
G36*
X6040525Y79539980D02*
X4948866Y78511252D01*
X3988721Y79530134D01*
X5080380Y80558862D01*
X6040525Y79539980D01*
X6040525Y79539980D01*
G37*
G36*
X78528485Y79537102D02*
X77568340Y78518220D01*
X76476681Y79546948D01*
X77436826Y80565830D01*
X78528485Y79537102D01*
X78528485Y79537102D01*
G37*
G36*
X9926756Y80217516D02*
X9926756Y80217515D01*
X8704064Y79348594D01*
X7893070Y80489772D01*
X7893070Y80489773D01*
X9115762Y81358694D01*
X9926756Y80217516D01*
X9926756Y80217516D01*
G37*
G36*
X74674048Y80546458D02*
X74674048Y80546457D01*
X73863054Y79405279D01*
X72640362Y80274200D01*
X72640362Y80274201D01*
X73451356Y81415379D01*
X74674048Y80546458D01*
X74674048Y80546458D01*
G37*
G36*
X8884050Y81684746D02*
X8884050Y81684745D01*
X7661358Y80815824D01*
X6850364Y81957002D01*
X6850364Y81957003D01*
X8073056Y82825924D01*
X8884050Y81684746D01*
X8884050Y81684746D01*
G37*
G36*
X75716754Y82013688D02*
X75716754Y82013687D01*
X74905760Y80872509D01*
X73683068Y81741430D01*
X73683068Y81741431D01*
X74494062Y82882609D01*
X75716754Y82013688D01*
X75716754Y82013688D01*
G37*
G36*
X13105754Y82476713D02*
X13105754Y82476712D01*
X11883062Y81607791D01*
X11072068Y82748969D01*
X11072068Y82748970D01*
X12294760Y83617891D01*
X13105754Y82476713D01*
X13105754Y82476713D01*
G37*
G36*
X71495050Y82805655D02*
X71495050Y82805654D01*
X70684056Y81664476D01*
X69461364Y82533397D01*
X69461364Y82533398D01*
X70272358Y83674576D01*
X71495050Y82805655D01*
X71495050Y82805655D01*
G37*
G36*
X12063048Y83943943D02*
X12063048Y83943942D01*
X10840356Y83075021D01*
X10029362Y84216199D01*
X10029362Y84216200D01*
X11252054Y85085121D01*
X12063048Y83943943D01*
X12063048Y83943943D01*
G37*
G36*
X72537756Y84272885D02*
X72537756Y84272884D01*
X71726762Y83131706D01*
X70504070Y84000627D01*
X70504070Y84000628D01*
X71315064Y85141806D01*
X72537756Y84272885D01*
X72537756Y84272885D01*
G37*
G36*
X15976679Y84155739D02*
X14646163Y83463116D01*
X13999715Y84704931D01*
X15330231Y85397554D01*
X15976679Y84155739D01*
X15976679Y84155739D01*
G37*
G36*
X68541273Y84709622D02*
X67894825Y83467807D01*
X66564309Y84160430D01*
X67210757Y85402245D01*
X68541273Y84709622D01*
X68541273Y84709622D01*
G37*
G36*
X20287796Y85485450D02*
X20340301Y85469021D01*
X20388594Y85442663D01*
X20430815Y85407392D01*
X20465346Y85364559D01*
X20493718Y85310348D01*
X20952691Y84174349D01*
X20969942Y84115639D01*
X20974856Y84060846D01*
X20968986Y84006144D01*
X20952557Y83953639D01*
X20926199Y83905346D01*
X20890929Y83863126D01*
X20848094Y83828594D01*
X20793889Y83800226D01*
X20051938Y83500458D01*
X19993228Y83483207D01*
X19938434Y83478292D01*
X19883734Y83484162D01*
X19831229Y83500591D01*
X19782936Y83526949D01*
X19740715Y83562220D01*
X19706184Y83605053D01*
X19677812Y83659264D01*
X19218839Y84795263D01*
X19201588Y84853973D01*
X19196674Y84908766D01*
X19202544Y84963468D01*
X19218973Y85015973D01*
X19245331Y85064266D01*
X19280601Y85106486D01*
X19323436Y85141018D01*
X19377641Y85169386D01*
X20119592Y85469154D01*
X20178302Y85486405D01*
X20233096Y85491320D01*
X20287796Y85485450D01*
X20287796Y85485450D01*
G37*
G36*
X62475531Y85513115D02*
X62534796Y85497926D01*
X62810565Y85397554D01*
X63233799Y85243510D01*
X63233806Y85243507D01*
X63286757Y85224234D01*
X63341929Y85197771D01*
X63385939Y85164757D01*
X63422662Y85123793D01*
X63450686Y85076453D01*
X63468941Y85024546D01*
X63476715Y84970088D01*
X63473716Y84915151D01*
X63458528Y84855889D01*
X63340271Y84530982D01*
X63058752Y83757514D01*
X63058749Y83757508D01*
X63039475Y83704553D01*
X63013012Y83649381D01*
X62980000Y83605374D01*
X62939035Y83568651D01*
X62891694Y83540625D01*
X62839792Y83522373D01*
X62785329Y83514598D01*
X62730393Y83517597D01*
X62671128Y83532786D01*
X62281564Y83674576D01*
X61972125Y83787202D01*
X61972118Y83787205D01*
X61919167Y83806478D01*
X61863995Y83832941D01*
X61819985Y83865955D01*
X61783262Y83906919D01*
X61755238Y83954259D01*
X61736983Y84006166D01*
X61729209Y84060624D01*
X61732208Y84115561D01*
X61747396Y84174823D01*
X61959237Y84756849D01*
X62147172Y85273198D01*
X62147175Y85273204D01*
X62166449Y85326159D01*
X62192912Y85381331D01*
X62225924Y85425338D01*
X62266889Y85462061D01*
X62314230Y85490087D01*
X62366132Y85508339D01*
X62420595Y85516114D01*
X62475531Y85513115D01*
X62475531Y85513115D01*
G37*
G36*
X60713607Y86154403D02*
X60772872Y86139214D01*
X60972305Y86066626D01*
X61471875Y85884798D01*
X61471882Y85884795D01*
X61524833Y85865522D01*
X61580005Y85839059D01*
X61624015Y85806045D01*
X61660738Y85765081D01*
X61688762Y85717741D01*
X61707017Y85665834D01*
X61714791Y85611376D01*
X61711792Y85556439D01*
X61696604Y85497177D01*
X61539037Y85064266D01*
X61296828Y84398802D01*
X61296825Y84398796D01*
X61277551Y84345841D01*
X61251088Y84290669D01*
X61218076Y84246662D01*
X61177111Y84209939D01*
X61129770Y84181913D01*
X61077868Y84163661D01*
X61023405Y84155886D01*
X60968469Y84158885D01*
X60909204Y84174074D01*
X60542782Y84307441D01*
X60210201Y84428490D01*
X60210194Y84428493D01*
X60157243Y84447766D01*
X60102071Y84474229D01*
X60058061Y84507243D01*
X60021338Y84548207D01*
X59993314Y84595547D01*
X59975059Y84647454D01*
X59967285Y84701912D01*
X59970284Y84756849D01*
X59985472Y84816111D01*
X60214641Y85445747D01*
X60385248Y85914486D01*
X60385251Y85914492D01*
X60404525Y85967447D01*
X60430988Y86022619D01*
X60464000Y86066626D01*
X60504965Y86103349D01*
X60552306Y86131375D01*
X60604208Y86149627D01*
X60658671Y86157402D01*
X60713607Y86154403D01*
X60713607Y86154403D01*
G37*
G36*
X22026266Y86187838D02*
X22078771Y86171409D01*
X22127064Y86145051D01*
X22169285Y86109780D01*
X22203816Y86066947D01*
X22232188Y86012736D01*
X22691161Y84876737D01*
X22708412Y84818027D01*
X22713326Y84763234D01*
X22707456Y84708532D01*
X22691027Y84656027D01*
X22664669Y84607734D01*
X22629399Y84565514D01*
X22586564Y84530982D01*
X22532359Y84502614D01*
X21790408Y84202846D01*
X21731698Y84185595D01*
X21676904Y84180680D01*
X21622204Y84186550D01*
X21569699Y84202979D01*
X21521406Y84229337D01*
X21479185Y84264608D01*
X21444654Y84307441D01*
X21416282Y84361652D01*
X20957309Y85497651D01*
X20940058Y85556361D01*
X20935144Y85611154D01*
X20941014Y85665856D01*
X20957443Y85718361D01*
X20983801Y85766654D01*
X21019071Y85808874D01*
X21061906Y85843406D01*
X21116111Y85871774D01*
X21858062Y86171542D01*
X21916772Y86188793D01*
X21971566Y86193708D01*
X22026266Y86187838D01*
X22026266Y86187838D01*
G37*
G36*
X15145531Y85752358D02*
X13815015Y85059735D01*
X13168567Y86301550D01*
X14499083Y86994173D01*
X15145531Y85752358D01*
X15145531Y85752358D01*
G37*
G36*
X69372421Y86306242D02*
X68725973Y85064427D01*
X67395457Y85757050D01*
X68041905Y86998865D01*
X69372421Y86306242D01*
X69372421Y86306242D01*
G37*
G36*
X19436021Y85956558D02*
X18105505Y85263935D01*
X17459057Y86505750D01*
X18789573Y87198373D01*
X19436021Y85956558D01*
X19436021Y85956558D01*
G37*
G36*
X65081931Y86510442D02*
X64435483Y85268627D01*
X63104967Y85961250D01*
X63751415Y87203065D01*
X65081931Y86510442D01*
X65081931Y86510442D01*
G37*
G36*
X22493405Y87190620D02*
X21081199Y86684977D01*
X20609265Y88003036D01*
X22021471Y88508679D01*
X22493405Y87190620D01*
X22493405Y87190620D01*
G37*
G36*
X61931169Y88031861D02*
X61459235Y86713802D01*
X60047029Y87219445D01*
X60518963Y88537504D01*
X61931169Y88031861D01*
X61931169Y88031861D01*
G37*
G36*
X18604873Y87553178D02*
X17274357Y86860555D01*
X16627909Y88102370D01*
X17958425Y88794993D01*
X18604873Y87553178D01*
X18604873Y87553178D01*
G37*
G36*
X65913079Y88107061D02*
X65266631Y86865246D01*
X63936115Y87557869D01*
X64582563Y88799684D01*
X65913079Y88107061D01*
X65913079Y88107061D01*
G37*
G36*
X33863901Y89491233D02*
X33915221Y89471404D01*
X33961689Y89441943D01*
X34001510Y89403988D01*
X34033164Y89358992D01*
X34055432Y89308680D01*
X34068805Y89248977D01*
X34075673Y89193039D01*
X34075674Y89193036D01*
X34210641Y88093823D01*
X34218122Y88032892D01*
X34219591Y87971720D01*
X34210156Y87917521D01*
X34190326Y87866198D01*
X34160870Y87819738D01*
X34122912Y87779912D01*
X34077913Y87748257D01*
X34027606Y87725991D01*
X33967890Y87712615D01*
X33310537Y87631903D01*
X33238525Y87623061D01*
X33173646Y87615095D01*
X33112474Y87613626D01*
X33058275Y87623061D01*
X33006955Y87642890D01*
X32960487Y87672351D01*
X32920666Y87710306D01*
X32889012Y87755302D01*
X32866744Y87805614D01*
X32853371Y87865317D01*
X32844907Y87934254D01*
X32710922Y89025465D01*
X32710922Y89025467D01*
X32704054Y89081402D01*
X32702585Y89142574D01*
X32712020Y89196773D01*
X32731850Y89248096D01*
X32761306Y89294556D01*
X32799264Y89334382D01*
X32844263Y89366037D01*
X32894570Y89388303D01*
X32954286Y89401679D01*
X33675090Y89490182D01*
X33692594Y89492331D01*
X33748530Y89499199D01*
X33809702Y89500668D01*
X33863901Y89491233D01*
X33863901Y89491233D01*
G37*
G36*
X48953870Y89524599D02*
X49009806Y89517731D01*
X49027310Y89515582D01*
X49748114Y89427079D01*
X49807831Y89413703D01*
X49858139Y89391437D01*
X49903135Y89359783D01*
X49941090Y89319962D01*
X49970551Y89273494D01*
X49990380Y89222174D01*
X49999815Y89167975D01*
X49998346Y89106802D01*
X49991478Y89050867D01*
X49991478Y89050865D01*
X49856861Y87954497D01*
X49849030Y87890726D01*
X49835655Y87831011D01*
X49813388Y87780704D01*
X49781733Y87735705D01*
X49741907Y87697747D01*
X49695447Y87668291D01*
X49644124Y87648461D01*
X49589925Y87639026D01*
X49528754Y87640495D01*
X49463876Y87648461D01*
X49455314Y87649512D01*
X48734510Y87738015D01*
X48674793Y87751391D01*
X48624485Y87773657D01*
X48579489Y87805311D01*
X48541534Y87845132D01*
X48512073Y87891600D01*
X48492244Y87942920D01*
X48482809Y87997119D01*
X48484278Y88058292D01*
X48491146Y88114229D01*
X48626726Y89218436D01*
X48626727Y89218440D01*
X48633594Y89274368D01*
X48646969Y89334083D01*
X48669236Y89384390D01*
X48700891Y89429389D01*
X48740717Y89467347D01*
X48787177Y89496803D01*
X48838500Y89516633D01*
X48892699Y89526068D01*
X48953870Y89524599D01*
X48953870Y89524599D01*
G37*
G36*
X35724925Y89719739D02*
X35776245Y89699910D01*
X35822713Y89670449D01*
X35862534Y89632494D01*
X35894188Y89587498D01*
X35916456Y89537186D01*
X35929829Y89477483D01*
X35936697Y89421545D01*
X35936698Y89421542D01*
X36064630Y88379624D01*
X36079146Y88261398D01*
X36080615Y88200226D01*
X36071180Y88146027D01*
X36051350Y88094704D01*
X36021894Y88048244D01*
X35983936Y88008418D01*
X35938937Y87976763D01*
X35888630Y87954497D01*
X35828914Y87941121D01*
X35108110Y87852618D01*
X35099549Y87851567D01*
X35034670Y87843601D01*
X34973498Y87842132D01*
X34919299Y87851567D01*
X34867979Y87871396D01*
X34821511Y87900857D01*
X34781690Y87938812D01*
X34750036Y87983808D01*
X34727768Y88034120D01*
X34714395Y88093823D01*
X34704867Y88171426D01*
X34571946Y89253971D01*
X34571946Y89253973D01*
X34565078Y89309908D01*
X34563609Y89371080D01*
X34573044Y89425279D01*
X34592874Y89476602D01*
X34622330Y89523062D01*
X34660288Y89562888D01*
X34705287Y89594543D01*
X34755594Y89616809D01*
X34815310Y89630185D01*
X35536114Y89718688D01*
X35553618Y89720837D01*
X35609554Y89727705D01*
X35670726Y89729174D01*
X35724925Y89719739D01*
X35724925Y89719739D01*
G37*
G36*
X47092846Y89753105D02*
X47148782Y89746237D01*
X47166286Y89744088D01*
X47887090Y89655585D01*
X47946807Y89642209D01*
X47997115Y89619943D01*
X48042111Y89588289D01*
X48080066Y89548468D01*
X48109527Y89502000D01*
X48129356Y89450680D01*
X48138791Y89396481D01*
X48137322Y89335308D01*
X48130454Y89279373D01*
X48130454Y89279371D01*
X48001070Y88225625D01*
X47988006Y88119232D01*
X47974631Y88059517D01*
X47952364Y88009210D01*
X47920709Y87964211D01*
X47880883Y87926253D01*
X47834423Y87896797D01*
X47783100Y87876967D01*
X47728901Y87867532D01*
X47667730Y87869001D01*
X47602852Y87876967D01*
X47594290Y87878018D01*
X46873486Y87966521D01*
X46813769Y87979897D01*
X46763461Y88002163D01*
X46718465Y88033817D01*
X46680510Y88073638D01*
X46651049Y88120106D01*
X46631220Y88171426D01*
X46621785Y88225625D01*
X46623254Y88286798D01*
X46630122Y88342735D01*
X46765702Y89446942D01*
X46765703Y89446946D01*
X46772570Y89502874D01*
X46785945Y89562589D01*
X46808212Y89612896D01*
X46839867Y89657895D01*
X46879693Y89695853D01*
X46926153Y89725309D01*
X46977476Y89745139D01*
X47031675Y89754574D01*
X47092846Y89753105D01*
X47092846Y89753105D01*
G37*
G36*
X26165141Y88505292D02*
X24752935Y87999649D01*
X24281001Y89317708D01*
X25693207Y89823351D01*
X26165141Y88505292D01*
X26165141Y88505292D01*
G37*
G36*
X58259434Y89346533D02*
X57787500Y88028474D01*
X56375294Y88534117D01*
X56847228Y89852176D01*
X58259434Y89346533D01*
X58259434Y89346533D01*
G37*
G36*
X21886634Y88885267D02*
X20474428Y88379624D01*
X20002494Y89697683D01*
X21414700Y90203326D01*
X21886634Y88885267D01*
X21886634Y88885267D01*
G37*
G36*
X62537941Y89726508D02*
X62066007Y88408449D01*
X60653801Y88914092D01*
X61125735Y90232151D01*
X62537941Y89726508D01*
X62537941Y89726508D01*
G37*
G36*
X29295683Y89548468D02*
X29345521Y89309908D01*
X29348180Y89297177D01*
X27879878Y88990433D01*
X27593584Y90360849D01*
X29061886Y90667593D01*
X29295683Y89548468D01*
X29295683Y89548468D01*
G37*
G36*
X54921070Y90362927D02*
X54921070Y90362926D01*
X54920271Y90359103D01*
X54634776Y88992511D01*
X53166474Y89299255D01*
X53168700Y89309908D01*
X53228163Y89594543D01*
X53452768Y90669671D01*
X54921070Y90362927D01*
X54921070Y90362927D01*
G37*
G36*
X25558369Y90199939D02*
X24146163Y89694296D01*
X23674229Y91012355D01*
X25086435Y91517998D01*
X25558369Y90199939D01*
X25558369Y90199939D01*
G37*
G36*
X58866205Y91041180D02*
X58394271Y89723121D01*
X56982065Y90228764D01*
X57453999Y91546823D01*
X58866205Y91041180D01*
X58866205Y91041180D01*
G37*
G36*
X33109730Y90362927D02*
X33143073Y90203326D01*
X33165763Y90094712D01*
X31697461Y89787968D01*
X31411167Y91158384D01*
X32879469Y91465128D01*
X33109730Y90362927D01*
X33109730Y90362927D01*
G37*
G36*
X51103487Y91160461D02*
X50817193Y89790045D01*
X49348891Y90096789D01*
X49377170Y90232151D01*
X49468572Y90669671D01*
X49635185Y91467205D01*
X51103487Y91160461D01*
X51103487Y91160461D01*
G37*
G36*
X36464363Y90453289D02*
X34967322Y90359103D01*
X34879415Y91756341D01*
X36376456Y91850527D01*
X36464363Y90453289D01*
X36464363Y90453289D01*
G37*
G36*
X47660445Y91756979D02*
X47572538Y90359741D01*
X46075497Y90453927D01*
X46163404Y91851165D01*
X47660445Y91756979D01*
X47660445Y91756979D01*
G37*
G36*
X40356668Y90698169D02*
X38859627Y90603983D01*
X38771720Y92001221D01*
X40268761Y92095407D01*
X40356668Y90698169D01*
X40356668Y90698169D01*
G37*
G36*
X43768140Y92001862D02*
X43680233Y90604624D01*
X42183192Y90698810D01*
X42271099Y92096048D01*
X43768140Y92001862D01*
X43768140Y92001862D01*
G37*
G36*
X28980087Y91059139D02*
X27511785Y90752395D01*
X27225491Y92122811D01*
X28693793Y92429555D01*
X28980087Y91059139D01*
X28980087Y91059139D01*
G37*
G36*
X55289163Y92124888D02*
X55002869Y90754472D01*
X53534567Y91061216D01*
X53820861Y92431632D01*
X55289163Y92124888D01*
X55289163Y92124888D01*
G37*
G36*
X32797670Y91856673D02*
X31329368Y91549929D01*
X31043074Y92920345D01*
X32511376Y93227089D01*
X32797670Y91856673D01*
X32797670Y91856673D01*
G37*
G36*
X51471580Y92922423D02*
X51185286Y91552007D01*
X49716984Y91858751D01*
X50003278Y93229167D01*
X51471580Y92922423D01*
X51471580Y92922423D01*
G37*
G36*
X36351340Y92249738D02*
X34854299Y92155552D01*
X34766392Y93552790D01*
X36263433Y93646976D01*
X36351340Y92249738D01*
X36351340Y92249738D01*
G37*
G36*
X47773468Y93553431D02*
X47685561Y92156193D01*
X46188520Y92250379D01*
X46276427Y93647617D01*
X47773468Y93553431D01*
X47773468Y93553431D01*
G37*
G36*
X40243645Y92494621D02*
X38746604Y92400435D01*
X38658697Y93797673D01*
X40155738Y93891859D01*
X40243645Y92494621D01*
X40243645Y92494621D01*
G37*
G36*
X43881163Y93798311D02*
X43793256Y92401073D01*
X42296215Y92495259D01*
X42384122Y93892497D01*
X43881163Y93798311D01*
X43881163Y93798311D01*
G37*
M02*
