M48
;DRILL file {KiCad (5.0.2)-1} date 30/06/2019 15:53:54
;FORMAT={-:-/ absolute / inch / decimal}
FMAT,2
INCH,TZ
T1C0.0157
T2C0.0197
T3C0.0295
T4C0.0394
%
G90
G05
T1
X0.2529Y3.0862
X0.528Y3.214
X0.541Y3.285
X0.7336Y3.3987
X0.7636Y1.2088
X0.767Y1.321
X0.8359Y0.977
X0.93Y3.374
X0.994Y3.579
X1.027Y3.404
X1.113Y0.7591
X1.1506Y3.4284
X1.182Y0.7591
X1.233Y3.476
X1.252Y0.7581
X1.361Y0.6311
X1.432Y0.6311
X1.575Y3.501
X1.591Y0.5941
X1.662Y0.5941
X1.705Y3.492
X1.811Y0.6311
X1.883Y0.6311
X1.996Y0.7601
X2.068Y0.7601
X2.101Y3.446
X2.14Y0.7601
X2.198Y3.628
X2.242Y3.421
X2.343Y3.392
X2.426Y2.134
X2.4889Y0.977
X2.491Y1.837
X2.646Y3.266
X2.9062Y3.1612
X3.024Y3.214
X3.067Y2.912
T3
X0.766Y0.693
X1.517Y0.596
X1.738Y0.631
X2.516Y0.827
T4
X2.587Y0.63
X2.687Y0.63
X0.614Y0.526
X0.714Y0.526
X0.564Y0.63
X0.664Y0.63
X2.537Y0.525
X2.637Y0.525
T2
X1.1663Y0.052G85X1.2057Y0.052
G05
X1.2463Y0.052G85X1.2857Y0.052
G05
X1.3263Y0.052G85X1.3657Y0.052
G05
X1.4063Y0.052G85X1.4457Y0.052
G05
X1.4863Y0.052G85X1.5257Y0.052
G05
X1.5663Y0.052G85X1.6057Y0.052
G05
X1.6463Y0.052G85X1.6857Y0.052
G05
X1.7263Y0.052G85X1.7657Y0.052
G05
X1.8063Y0.052G85X1.8457Y0.052
G05
X1.8863Y0.052G85X1.9257Y0.052
G05
X1.9663Y0.052G85X2.0057Y0.052
G05
X2.0463Y0.052G85X2.0857Y0.052
G05
T4
X1.0663Y0.042G85X1.1057Y0.042
G05
X2.1463Y0.042G85X2.1857Y0.042
G05
T0
M30
