G04 #@! TF.GenerationSoftware,KiCad,Pcbnew,(5.0.2)-1*
G04 #@! TF.CreationDate,2019-06-30T15:53:46+02:00*
G04 #@! TF.ProjectId,PCB_Fujitora_morro,5043425f-4675-46a6-9974-6f72615f6d6f,rev?*
G04 #@! TF.SameCoordinates,PX5aa8f70PY8620d10*
G04 #@! TF.FileFunction,Soldermask,Bot*
G04 #@! TF.FilePolarity,Negative*
%FSLAX46Y46*%
G04 Gerber Fmt 4.6, Leading zero omitted, Abs format (unit mm)*
G04 Created by KiCad (PCBNEW (5.0.2)-1) date 30/06/2019 15:53:46*
%MOMM*%
%LPD*%
G01*
G04 APERTURE LIST*
%ADD10C,0.200000*%
%ADD11C,0.100000*%
G04 APERTURE END LIST*
D10*
X56388000Y-3302000D02*
X56388000Y0D01*
X26162000Y-3302000D02*
X56388000Y-3302000D01*
X26162000Y0D02*
X26162000Y-3302000D01*
X26162000Y1397000D02*
X17526000Y1397000D01*
X56388000Y0D02*
X56388000Y1397000D01*
X26162000Y1397000D02*
X26162000Y0D01*
X76616560Y11557000D02*
X75224640Y11557000D01*
X76616560Y13055600D02*
X76616560Y11557000D01*
X76677520Y63581280D02*
X74640440Y63586360D01*
X76682600Y65024000D02*
X76677520Y63581280D01*
X13487400Y5461000D02*
X13487400Y12522200D01*
X22072600Y5461000D02*
X13487400Y5461000D01*
X16484600Y8458200D02*
X16484600Y11480800D01*
X24561800Y8458200D02*
X16484600Y8458200D01*
X74625200Y13055600D02*
X76626720Y13055600D01*
X78232000Y5461000D02*
X78232000Y11557000D01*
X69392800Y5461000D02*
X78232000Y5461000D01*
X75209400Y8483600D02*
X75209400Y11551920D01*
X69392800Y8483600D02*
X75209400Y8483600D01*
X69392800Y8483600D02*
X69392800Y12573000D01*
X60502800Y5461000D02*
X69392800Y5461000D01*
X66446400Y8458200D02*
X66446400Y11633200D01*
X58013600Y8458200D02*
X66446400Y8458200D01*
X51240617Y69577211D02*
X51497287Y69649085D01*
X44366983Y68086404D02*
X44621921Y68047983D01*
X50465078Y69610286D02*
X50720783Y69556957D01*
X45410642Y68100642D02*
X45678696Y68172080D01*
X47048965Y61861837D02*
X46944830Y68544625D01*
X44117244Y62429976D02*
X44087729Y60859651D01*
X47215907Y56375914D02*
X46944965Y55042360D01*
X50980664Y69545922D02*
X51240617Y69577211D01*
X50720783Y69556957D02*
X50980664Y69545922D01*
X49749161Y70002249D02*
X49978281Y69835578D01*
X50216978Y69704070D02*
X50465078Y69610286D01*
X49978281Y69835578D02*
X50216978Y69704070D01*
X43203774Y68689170D02*
X43419034Y68516580D01*
X45678696Y68172080D02*
X45948791Y68269186D01*
X46772982Y68708774D02*
X47019200Y68879791D01*
X47048965Y61861837D02*
X47269791Y58813756D01*
X49690323Y70055651D02*
X49749161Y70002249D01*
X46495650Y68537961D02*
X46772982Y68708774D01*
X45948791Y68269186D02*
X46221026Y68391313D01*
X44881581Y68037858D02*
X45144775Y68055637D01*
X44621921Y68047983D02*
X44881581Y68037858D01*
X46223597Y47543694D02*
X46668877Y53005971D01*
X47520126Y57335999D02*
X47269791Y58813756D01*
X45144775Y68055637D02*
X45410642Y68100642D01*
X43672334Y67335197D02*
X43962991Y64731110D01*
X44348400Y20320000D02*
X44073929Y24393265D01*
X44117244Y62429976D02*
X43962991Y64731110D01*
X44624087Y52940207D02*
X44073929Y24393265D01*
X47215907Y56375914D02*
X47520126Y57335999D01*
X44348400Y20320000D02*
X45259424Y27635178D01*
X44324505Y56301496D02*
X44624087Y52940207D01*
X47019200Y68879791D02*
X46944830Y68544625D01*
X46668877Y53005971D02*
X46944965Y55042360D01*
X49884965Y69332705D02*
X49690323Y70055651D01*
X46221026Y68391313D02*
X46495650Y68537961D01*
X44118111Y68153094D02*
X44366983Y68086404D01*
X43876576Y68247587D02*
X44118111Y68153094D01*
X43419034Y68516580D02*
X43643359Y68369071D01*
X44087729Y60859651D02*
X43739916Y58867383D01*
X43672334Y67335197D02*
X43102839Y68785478D01*
X43643359Y68369071D02*
X43876576Y68247587D01*
X43102839Y68785478D02*
X43203774Y68689170D01*
X46223597Y47543694D02*
X45259424Y27635178D01*
X44324505Y56301496D02*
X43739916Y58867383D01*
X24173981Y25319701D02*
X24082586Y24342793D01*
X19288897Y11848527D02*
X18613472Y10749760D01*
X24082586Y24342793D02*
X23951561Y23357616D01*
X36973222Y52263883D02*
X37787555Y45408935D01*
X14014735Y18768130D02*
X14434425Y19613213D01*
X22951728Y19317647D02*
X22572245Y18280629D01*
X22572245Y18280629D02*
X22140423Y17232691D01*
X35103140Y66210567D02*
X35583223Y60443744D01*
X36252225Y54648948D02*
X36052503Y56889804D01*
X36720995Y54713550D02*
X36514750Y53604941D01*
X36973222Y52263883D02*
X36892580Y53548993D01*
X19253095Y57171265D02*
X19766266Y57273342D01*
X21657851Y16174163D02*
X21127175Y15105599D01*
X16484600Y11480800D02*
X17306318Y11083354D01*
X10497857Y12886666D02*
X11162060Y13928463D01*
X64298480Y56771664D02*
X63829214Y57003080D01*
X19766266Y57273342D02*
X20288371Y57307562D01*
X20288371Y57307562D02*
X20810476Y57273342D01*
X20810476Y57273342D02*
X21323647Y57171265D01*
X21323647Y57171265D02*
X21819105Y57003080D01*
X23461785Y55742608D02*
X23752473Y55307562D01*
X23752473Y55307562D02*
X23983889Y54838296D01*
X20552104Y14027772D02*
X19937403Y12941676D01*
X19937403Y12941676D02*
X19288897Y11848527D01*
X65993999Y54838296D02*
X65762582Y55307562D01*
X13541489Y17881149D02*
X14014735Y18768130D01*
X39344600Y23037800D02*
X38677375Y26566047D01*
X21819105Y57003080D02*
X22288371Y56771664D01*
X22288371Y56771664D02*
X22723417Y56480976D01*
X22723417Y56480976D02*
X23116798Y56135989D01*
X23116798Y56135989D02*
X23461785Y55742608D01*
X24262243Y27253793D02*
X24231572Y26289556D01*
X17306318Y11083354D02*
X18390696Y10395986D01*
X35873884Y58323432D02*
X35583223Y60443744D01*
X23983889Y54838296D02*
X24152075Y54342838D01*
X24152075Y54342838D02*
X24254151Y53829667D01*
X24254151Y53829667D02*
X24288371Y53307562D01*
X23951561Y23357616D02*
X23776140Y22363176D01*
X24288371Y37713898D02*
X24288371Y53307562D01*
X66298480Y53307562D02*
X66264260Y53829667D01*
X24273938Y28214072D02*
X24262243Y27253793D01*
X36514750Y53604941D02*
X36252225Y54648948D01*
X35921240Y57411807D02*
X35873884Y58323432D01*
X36892580Y53548993D02*
X36720995Y54713550D01*
X18613472Y10749760D02*
X18390696Y10395986D01*
X10497857Y12886666D02*
X12252064Y12773025D01*
X24231572Y26289556D02*
X24173981Y25319701D01*
X23776140Y22363176D02*
X23552616Y21358699D01*
X12252064Y12773025D02*
X13487400Y12522200D01*
X23552616Y21358699D02*
X23278342Y20343633D01*
X38677375Y26566047D02*
X37787555Y45408935D01*
X21127175Y15105599D02*
X20552104Y14027772D01*
X14434425Y19613213D02*
X14800720Y20416685D01*
X35921240Y57411807D02*
X36052503Y56889804D01*
X23278342Y20343633D02*
X22951728Y19317647D01*
X22140423Y17232691D02*
X21657851Y16174163D01*
X22207765Y49301362D02*
X22203625Y52401362D01*
X53167900Y59950644D02*
X53755249Y62678045D01*
X50124135Y61205461D02*
X49809105Y62458267D01*
X53167900Y59950644D02*
X52918065Y57809856D01*
X51995393Y69904410D02*
X52237403Y70083708D01*
X35103140Y66210567D02*
X34613202Y68749775D01*
X53466473Y63826445D02*
X53254567Y65633550D01*
X53737776Y71375246D02*
X53556787Y71688736D01*
X37687440Y67455470D02*
X38070484Y67546145D01*
X36891983Y67437476D02*
X37293589Y67417830D01*
X34875748Y68478023D02*
X35273301Y68139376D01*
X53304175Y70761138D02*
X53111994Y70043906D01*
X52947780Y70816993D02*
X53182496Y71125910D01*
X50774600Y25298400D02*
X52549655Y53006282D01*
X36486199Y67517660D02*
X36891983Y67437476D01*
X53089513Y69242774D02*
X53254567Y65633550D01*
X53304175Y70761138D02*
X53737776Y71375246D01*
X34613202Y68749775D02*
X34875748Y68478023D01*
X52712565Y70540313D02*
X52947780Y70816993D01*
X50423714Y57844169D02*
X50295720Y60040904D01*
X50424725Y50607082D02*
X50423714Y57844169D01*
X52476090Y70295836D02*
X52712565Y70540313D01*
X50424725Y50607082D02*
X50266333Y44968313D01*
X39344600Y23037800D02*
X39684254Y31241579D01*
X39684254Y31241579D02*
X39517316Y46727505D01*
X39135208Y52345801D02*
X39517316Y46727505D01*
X39653220Y50526874D02*
X39135208Y52345801D01*
X39829953Y50065145D02*
X39653220Y50526874D01*
X39920896Y50185699D02*
X39829953Y50065145D01*
X39920896Y50185699D02*
X39861360Y50663575D01*
X39861360Y50663575D02*
X39866373Y64868669D01*
X40072608Y68950085D02*
X40297381Y69222823D01*
X35273301Y68139376D02*
X35674816Y67867354D01*
X40157909Y68748857D02*
X39866373Y64868669D01*
X40157909Y68748857D02*
X40297381Y69222823D01*
X36079623Y67660503D02*
X36486199Y67517660D01*
X39776135Y68633875D02*
X40072608Y68950085D01*
X39138020Y68089107D02*
X39464557Y68345761D01*
X49809400Y22580600D02*
X50774600Y25298400D01*
X37293589Y67417830D02*
X37687440Y67455470D01*
X51748941Y69758957D02*
X51995393Y69904410D01*
X50020002Y68075779D02*
X49966116Y65450402D01*
X49966116Y65450402D02*
X49586904Y62859714D01*
X50102291Y42245240D02*
X50266333Y44968313D01*
X49809400Y22580600D02*
X49555771Y25256758D01*
X53755249Y62678045D02*
X53466473Y63826445D01*
X51497287Y69649085D02*
X51748941Y69758957D01*
X53089513Y69242774D02*
X53111994Y70043906D01*
X53182496Y71125910D02*
X53376913Y71403040D01*
X52237403Y70083708D02*
X52476090Y70295836D01*
X50102291Y42245240D02*
X49794802Y29610429D01*
X50295720Y60040904D02*
X50124135Y61205461D01*
X39464557Y68345761D02*
X39776135Y68633875D01*
X38796635Y67867549D02*
X39138020Y68089107D01*
X38440611Y67685088D02*
X38796635Y67867549D01*
X38070484Y67546145D02*
X38440611Y67685088D01*
X35674816Y67867354D02*
X36079623Y67660503D01*
X50020002Y68075779D02*
X49884965Y69332705D01*
X52918065Y57809856D02*
X52549655Y53006282D01*
X49809105Y62458267D02*
X49586904Y62859714D01*
X49794802Y29610429D02*
X49555771Y25256758D01*
X2304782Y81925869D02*
X2048439Y81635260D01*
X496525Y79106363D02*
X364890Y78764748D01*
X1655739Y67018976D02*
X-203200Y64008000D01*
X9916567Y76253155D02*
X8167191Y74669936D01*
X364890Y78764748D02*
X247111Y78417465D01*
X53122Y77705898D02*
X-23089Y77341613D01*
X1577322Y81037040D02*
X1362549Y80729429D01*
X13637657Y79152756D02*
X11741522Y77748630D01*
X642017Y79442311D02*
X496525Y79106363D01*
X-203200Y75438000D02*
X-203200Y64008000D01*
X21780405Y82710024D02*
X21382027Y82685830D01*
X2048439Y81635260D02*
X1805953Y81338984D01*
X1362549Y80729429D02*
X1161631Y80416150D01*
X1161631Y80416150D02*
X974570Y80097204D01*
X1805953Y81338984D02*
X1577322Y81037040D01*
X3361129Y69351413D02*
X1655739Y67018976D01*
X5203596Y71577157D02*
X3361129Y69351413D01*
X22156382Y82709259D02*
X21780405Y82710024D01*
X3987800Y83566000D02*
X2574981Y82210811D01*
X81944183Y79721711D02*
X82089675Y79385763D01*
X60429818Y82709259D02*
X60805795Y82710024D01*
X59414367Y82587404D02*
X59736149Y82645242D01*
X57605878Y81709523D02*
X58527340Y82334599D01*
X82221310Y79044148D02*
X82339089Y78696865D01*
X81784834Y80051991D02*
X81944183Y79721711D01*
X20026549Y82428685D02*
X19511275Y82269210D01*
X76088593Y73002787D02*
X77382604Y71577157D01*
X59106727Y82515324D02*
X59414367Y82587404D01*
X16284017Y80753313D02*
X15473448Y80282912D01*
X60073971Y82686705D02*
X60429818Y82709259D01*
X14593740Y79750107D02*
X13637657Y79152756D01*
X59106727Y82515324D02*
X58527340Y82334599D01*
X59736149Y82645242D02*
X60073971Y82686705D01*
X82775565Y76107202D02*
X82782493Y75714580D01*
X18958464Y82066619D02*
X18364061Y81817219D01*
X-189365Y75827802D02*
X-203200Y75438000D01*
X-23089Y77341613D02*
X-85442Y76971661D01*
X-133939Y76596042D02*
X-168580Y76214755D01*
X974570Y80097204D02*
X801366Y79772591D01*
X6497607Y73002787D02*
X5203596Y71577157D01*
X8167191Y74669936D02*
X6497607Y73002787D01*
X-168580Y76214755D02*
X-189365Y75827802D01*
X2574981Y82210811D02*
X2304782Y81925869D01*
X247111Y78417465D02*
X143188Y78064515D01*
X143188Y78064515D02*
X53122Y77705898D01*
X11741522Y77748630D02*
X9916567Y76253155D01*
X801366Y79772591D02*
X642017Y79442311D01*
X19511275Y82269210D02*
X18958464Y82066619D01*
X-85442Y76971661D02*
X-133939Y76596042D01*
X81223651Y81008829D02*
X81424569Y80695550D01*
X67112752Y80282912D02*
X67992460Y79750107D01*
X68948543Y79152756D02*
X70844678Y77748630D01*
X82720139Y76875442D02*
X82754780Y76494155D01*
X25486187Y10073753D02*
X25737528Y10652727D01*
X65040653Y1426511D02*
X56388000Y1426511D01*
X19807201Y92640043D02*
X17094642Y91518782D01*
X17094642Y91518782D02*
X14440367Y90265773D01*
X62236263Y3791376D02*
X61506301Y4467787D01*
X22289744Y82700807D02*
X22156382Y82709259D01*
X57739712Y8893129D02*
X57392990Y9487395D01*
X58013600Y8458200D02*
X57739712Y8893129D01*
X56482789Y11790623D02*
X56374196Y12350593D01*
X28228636Y95187949D02*
X25380912Y94476839D01*
X56298404Y21455202D02*
X56307948Y78511522D01*
X25674573Y80863879D02*
X24981190Y81709523D01*
X24981190Y81709523D02*
X24059729Y82334599D01*
X26263457Y78511522D02*
X26111484Y79797464D01*
X56313099Y12905278D02*
X56298404Y21455202D01*
X57093979Y10073753D02*
X56842638Y10652727D01*
X56374196Y12350593D02*
X56313099Y12905278D01*
X31107821Y95758471D02*
X28228636Y95187949D01*
X56638922Y11224842D02*
X56482789Y11790623D01*
X19565843Y3102336D02*
X20343903Y3791376D01*
X21755772Y5132095D02*
X22072600Y5461000D01*
X6890404Y85747983D02*
X3987800Y83566000D01*
X39864512Y96614479D02*
X36932776Y96472596D01*
X26277882Y21383416D02*
X26279663Y21455206D01*
X65040653Y1426511D02*
X64714911Y1684273D01*
X22289744Y82700807D02*
X23499121Y82537678D01*
X25187176Y9487395D02*
X25486187Y10073753D01*
X63014323Y3102336D02*
X62236263Y3791376D01*
X26097377Y11790623D02*
X26205971Y12350593D01*
X24840455Y8893129D02*
X25187176Y9487395D01*
X23499121Y82537678D02*
X24059729Y82334599D01*
X26279663Y21455206D02*
X26263457Y78511522D01*
X24561800Y8458200D02*
X24840455Y8893129D01*
X34011533Y96187031D02*
X31107821Y95758471D01*
X17539148Y1426511D02*
X17865255Y1684273D01*
X25941244Y11224842D02*
X26097377Y11790623D01*
X20343903Y3791376D02*
X21073865Y4467787D01*
X25737528Y10652727D02*
X25941244Y11224842D01*
X36932776Y96472596D02*
X34011533Y96187031D01*
X26205971Y12350593D02*
X26267067Y12905278D01*
X28676600Y66040000D02*
X28905569Y65954034D01*
X28905569Y65954034D02*
X29155302Y65913453D01*
X29981933Y50652292D02*
X31267400Y29692600D01*
X32232600Y26797000D02*
X31267400Y29692600D01*
X29410404Y59917105D02*
X28907839Y63844518D01*
X29410404Y59917105D02*
X29981933Y50652292D01*
X81611630Y80376604D02*
X81784834Y80051991D01*
X82609289Y77621013D02*
X82671642Y77251061D01*
X79225071Y69351413D02*
X80930461Y67018976D01*
X82778600Y75717400D02*
X82778600Y64084200D01*
X80537761Y81914660D02*
X80780247Y81618384D01*
X72669633Y76253155D02*
X74419009Y74669936D01*
X80780247Y81618384D02*
X81008878Y81316440D01*
X67992460Y79750107D02*
X68948543Y79152756D01*
X62078251Y82548791D02*
X62559651Y82428685D01*
X63074925Y82269210D02*
X63627736Y82066619D01*
X65554147Y81163857D02*
X66302183Y80753313D01*
X63627736Y82066619D02*
X64222139Y81817219D01*
X82533078Y77985298D02*
X82609289Y77621013D01*
X78114166Y83947539D02*
X80543400Y81915000D01*
X64862622Y81517434D02*
X65554147Y81163857D01*
X74419009Y74669936D02*
X76088593Y73002787D01*
X82443012Y78343915D02*
X82533078Y77985298D01*
X61627421Y82633276D02*
X62078251Y82548791D01*
X61204173Y82685830D02*
X61627421Y82633276D01*
X81008878Y81316440D02*
X81223651Y81008829D01*
X82339089Y78696865D02*
X82443012Y78343915D01*
X60805795Y82710024D02*
X61204173Y82685830D01*
X70844678Y77748630D02*
X72669633Y76253155D01*
X62559651Y82428685D02*
X63074925Y82269210D01*
X80930461Y67018976D02*
X82778600Y64084200D01*
X77382604Y71577157D02*
X79225071Y69351413D01*
X81424569Y80695550D02*
X81611630Y80376604D01*
X82089675Y79385763D02*
X82221310Y79044148D01*
X82671642Y77251061D02*
X82720139Y76875442D01*
X82754780Y76494155D02*
X82775565Y76107202D01*
X66302183Y80753313D02*
X67112752Y80282912D01*
X64222139Y81817219D02*
X64862622Y81517434D01*
X17032053Y81163857D02*
X16284017Y80753313D01*
X15473448Y80282912D02*
X14593740Y79750107D01*
X62851167Y92608637D02*
X60088300Y93599482D01*
X68214531Y90226538D02*
X65562088Y91483419D01*
X73318582Y87330208D02*
X70802107Y88841022D01*
X78055488Y84001227D02*
X78114166Y83947539D01*
X18364061Y81817219D02*
X17723578Y81517434D01*
X51555110Y95743552D02*
X48652026Y96176349D01*
X56912495Y80863879D02*
X57605878Y81709523D01*
X56475585Y79797464D02*
X56912495Y80863879D01*
X21382027Y82685830D02*
X20958779Y82633276D01*
X48652026Y96176349D02*
X45731204Y96466177D01*
X60088300Y93599482D02*
X57280143Y94453565D01*
X54433460Y95168829D02*
X51555110Y95743552D01*
X57280143Y94453565D02*
X54433460Y95168829D01*
X65562088Y91483419D02*
X62851167Y92608637D01*
X75757894Y85697736D02*
X73318582Y87330208D01*
X56307948Y78511522D02*
X56475585Y79797464D01*
X20958779Y82633276D02*
X20507949Y82548791D01*
X78055488Y84001227D02*
X75757894Y85697736D01*
X20507949Y82548791D02*
X20026549Y82428685D01*
X17723578Y81517434D02*
X17032053Y81163857D01*
X45731204Y96466177D02*
X42799678Y96612338D01*
X70802107Y88841022D02*
X68214531Y90226538D01*
X58648512Y91413646D02*
X61567496Y90369836D01*
X65763440Y88531758D02*
X64004348Y85169826D01*
X50425968Y89579318D02*
X53460670Y88946390D01*
X1837061Y77862408D02*
X4439889Y75101561D01*
X72415985Y84701469D02*
X70212511Y81612506D01*
X78130093Y75111207D02*
X80735787Y77868278D01*
X72415985Y84701469D02*
X74941642Y82903952D01*
X78480469Y79995142D02*
X80735787Y77868278D01*
X78480469Y79995142D02*
X75874240Y77237505D01*
X65763440Y88531758D02*
X68511721Y87097546D01*
X75874240Y77237505D02*
X78130093Y75111207D01*
X51205618Y93292690D02*
X54240160Y92659000D01*
X66752990Y83736304D02*
X68511721Y87097546D01*
X51205618Y93292690D02*
X50425968Y89579318D01*
X60286284Y86799181D02*
X61567496Y90369836D01*
X72738620Y79815623D02*
X74941642Y82903952D01*
X53460670Y88946390D02*
X54240160Y92659000D01*
X46405099Y90137365D02*
X46668140Y93921792D01*
X70212511Y81612506D02*
X72738620Y79815623D01*
X57367036Y87842259D02*
X60286284Y86799181D01*
X64004348Y85169826D02*
X66752990Y83736304D01*
X58648512Y91413646D02*
X57367036Y87842259D01*
X31071747Y67126646D02*
X31270771Y67378882D01*
X31456789Y67656468D02*
X31628051Y67958450D01*
X31270771Y67378882D02*
X31456789Y67656468D01*
X30106769Y66191995D02*
X30316407Y66351787D01*
X29649678Y65972495D02*
X29884192Y66064378D01*
X29884192Y66064378D02*
X30106769Y66191995D01*
X30861345Y66900750D02*
X31071747Y67126646D01*
X30669710Y66728088D02*
X30861345Y66900750D01*
X30512523Y66541028D02*
X30669710Y66728088D01*
X30316407Y66351787D02*
X30512523Y66541028D01*
X29405365Y65920695D02*
X29649678Y65972495D01*
X29155302Y65913453D02*
X29405365Y65920695D01*
X31747241Y60509194D02*
X31535334Y62316305D01*
X31498281Y64633588D02*
X31535334Y62316305D01*
X31498281Y64633588D02*
X31664684Y68035529D01*
X31628051Y67958450D02*
X31664684Y68035529D01*
X4439889Y75101561D02*
X6692681Y77231103D01*
X32232600Y26797000D02*
X31763834Y41878332D01*
X31763834Y41878332D02*
X31525173Y47408383D01*
X1837061Y77862408D02*
X4090387Y79991383D01*
X31334741Y58291987D02*
X31525173Y47408383D01*
X31366143Y58890410D02*
X31334741Y58291987D01*
X31366143Y58890410D02*
X31747241Y60509194D01*
X6692681Y77231103D02*
X4090387Y79991383D01*
X22280415Y86793141D02*
X25198159Y87840417D01*
X14059688Y87093013D02*
X16806625Y88529797D01*
X43575368Y94133389D02*
X43312273Y90348185D01*
X28330225Y92656143D02*
X31364173Y93292673D01*
X29105297Y88941813D02*
X32139086Y89579105D01*
X21003342Y90366105D02*
X22280415Y86793141D01*
X25198159Y87840417D02*
X23921349Y91412648D01*
X7630440Y82898701D02*
X9830105Y79807024D01*
X9830105Y79807024D02*
X12353627Y81607540D01*
X32139086Y89579105D02*
X31364173Y93292673D01*
X18561211Y85166389D02*
X16806625Y88529797D01*
X7630440Y82898701D02*
X10154413Y84698582D01*
X21003342Y90366105D02*
X23921349Y91412648D01*
X28330225Y92656143D02*
X29105297Y88941813D01*
X14059688Y87093013D02*
X15814634Y83728915D01*
X12353627Y81607540D02*
X10154413Y84698582D01*
X43312273Y90348185D02*
X46405099Y90137365D01*
X43575368Y94133389D02*
X46668140Y93921792D01*
X15814634Y83728915D02*
X18561211Y85166389D01*
X39252864Y90349606D02*
X38994487Y94134355D01*
X35901915Y93919863D02*
X38994487Y94134355D01*
X35901915Y93919863D02*
X36160345Y90134337D01*
X15115284Y21180065D02*
X15381125Y21906532D01*
X64192778Y49328047D02*
X60398457Y49317269D01*
X59470053Y56135989D02*
X59125067Y55742608D01*
X66984560Y22601279D02*
X66803402Y23271729D01*
X18288371Y56771664D02*
X18757638Y57003080D01*
X60298480Y56771664D02*
X59863435Y56480976D01*
X58602962Y54838296D02*
X58434777Y54342838D01*
X17114958Y55742608D02*
X17459944Y56135989D01*
X67786132Y20416685D02*
X67471567Y21180065D01*
X60767747Y57003080D02*
X60298480Y56771664D01*
X11821489Y14975651D02*
X12441316Y15983971D01*
X16592853Y54838296D02*
X16824270Y55307562D01*
X17853326Y56480976D02*
X18288371Y56771664D01*
X22203625Y30104043D02*
X18410067Y30104043D01*
X18413429Y49301362D02*
X18410067Y52401362D01*
X62820585Y57273342D02*
X62298480Y57307562D01*
X66454186Y25242983D02*
X66389957Y25929519D01*
X61263204Y57171265D02*
X60767747Y57003080D01*
X22203625Y52401362D02*
X18410067Y52401362D01*
X65126908Y56135989D02*
X64733526Y56480976D01*
X18413429Y27004043D02*
X18410067Y30104043D01*
X15381125Y21906532D02*
X15602292Y22601279D01*
X16424668Y54342838D02*
X16592853Y54838296D01*
X66446400Y11658600D02*
X65280534Y11083354D01*
X59635124Y19317647D02*
X60014606Y18280629D01*
X12441316Y15983971D02*
X13016062Y16952789D01*
X16239908Y26653865D02*
X16264585Y27429673D01*
X15602292Y22601279D02*
X15783450Y23271729D01*
X15783450Y23271729D02*
X15929382Y23927525D01*
X58834379Y55307562D02*
X58602962Y54838296D01*
X17459944Y56135989D02*
X17853326Y56480976D01*
X72088995Y12886666D02*
X70334787Y12773025D01*
X63829214Y57003080D02*
X63333757Y57171265D01*
X11821489Y14975651D02*
X11162060Y13928463D01*
X16132666Y25242983D02*
X16196895Y25929519D01*
X63333757Y57171265D02*
X62820585Y57273342D01*
X66264260Y53829667D02*
X66162184Y54342838D01*
X15929382Y23927525D02*
X16044527Y24580264D01*
X18413429Y27004043D02*
X22207765Y27004043D01*
X14800720Y20416685D02*
X15115284Y21180065D01*
X16264585Y27429673D02*
X16274818Y28269963D01*
X16288371Y53307562D02*
X16322592Y53829667D01*
X16196895Y25929519D02*
X16239908Y26653865D01*
X66542325Y24580264D02*
X66454186Y25242983D01*
X13016062Y16952789D02*
X13541489Y17881149D01*
X65762582Y55307562D02*
X65471894Y55742608D01*
X16044527Y24580264D02*
X16132666Y25242983D01*
X18413429Y49301362D02*
X22207765Y49301362D01*
X66803402Y23271729D02*
X66657469Y23927525D01*
X66389957Y25929519D02*
X66346944Y26653865D01*
X66162184Y54342838D02*
X65993999Y54838296D01*
X22207765Y27004043D02*
X22203625Y30104043D01*
X18757638Y57003080D02*
X19253095Y57171265D01*
X60929001Y16174163D02*
X61459677Y15105599D01*
X64733526Y56480976D02*
X64298480Y56771664D01*
X16322592Y53829667D02*
X16424668Y54342838D01*
X16824270Y55307562D02*
X17114958Y55742608D01*
X79941116Y29321649D02*
X79941116Y31321649D01*
X28676600Y66040000D02*
X28907839Y63844518D01*
X73141116Y14548141D02*
X73141116Y62091649D01*
X79941116Y11574941D02*
X78232000Y11557000D01*
X66298480Y53307562D02*
X66312033Y28269963D01*
X24273938Y28214072D02*
X24288371Y37713898D01*
X73580456Y13487481D02*
X73342078Y13798141D01*
X42799678Y96612338D02*
X39864512Y96614479D01*
X73580456Y63152309D02*
X73891116Y63390687D01*
X73891116Y63390687D02*
X74252888Y63540538D01*
X16274818Y28269963D02*
X16288371Y53307562D01*
X79941116Y15048141D02*
X79141116Y15048141D01*
X79941116Y47321649D02*
X79141116Y47321649D01*
X73192228Y14159913D02*
X73141116Y14548141D01*
X39252864Y90349606D02*
X36160345Y90134337D01*
X53376913Y71403040D02*
X53556787Y71688736D01*
X58312914Y28214072D02*
X58298480Y37713898D01*
X79938880Y65024000D02*
X76682600Y65024000D01*
X73192228Y62479878D02*
X73342078Y62841649D01*
X60398457Y27005087D02*
X60393791Y30105086D01*
X60446428Y17232691D02*
X60929001Y16174163D01*
X69570789Y16952789D02*
X69045362Y17881149D01*
X67205727Y21906532D02*
X66984560Y22601279D01*
X62298480Y57307562D02*
X61776376Y57273342D01*
X70334787Y12773025D02*
X69392800Y12573000D01*
X63297955Y11848527D02*
X63973380Y10749760D01*
X66657469Y23927525D02*
X66542325Y24580264D01*
X58312914Y28214072D02*
X58324609Y27253793D01*
X58355280Y26289556D02*
X58412871Y25319701D01*
X79941116Y61591649D02*
X79141116Y61591649D01*
X64192778Y49328047D02*
X64187334Y52428044D01*
X79141116Y15048141D02*
X79141116Y29321649D01*
X66346944Y26653865D02*
X66322267Y27429673D01*
X73141116Y62091649D02*
X73192228Y62479878D01*
X70765363Y14975651D02*
X70145536Y15983971D01*
X61459677Y15105599D02*
X62034748Y14027772D01*
X68572116Y18768130D02*
X68152427Y19613213D01*
X58298480Y37713898D02*
X58298480Y53307562D01*
X70765363Y14975651D02*
X71424791Y13928463D01*
X62649449Y12941676D02*
X63297955Y11848527D01*
X58635291Y23357616D02*
X58810712Y22363176D01*
X79941116Y45321649D02*
X79941116Y47321649D01*
X69045362Y17881149D02*
X68572116Y18768130D01*
X79941116Y31321649D02*
X79141116Y31321649D01*
X73342078Y13798141D02*
X73192228Y14159913D01*
X79941116Y65024000D02*
X79941116Y61591649D01*
X59125067Y55742608D02*
X58834379Y55307562D01*
X58332701Y53829667D02*
X58298480Y53307562D01*
X60393791Y52417268D02*
X64187334Y52428044D01*
X68152427Y19613213D02*
X67786132Y20416685D01*
X72088995Y12886666D02*
X71424791Y13928463D01*
X58412871Y25319701D02*
X58504266Y24342793D01*
X61776376Y57273342D02*
X61263204Y57171265D01*
X59863435Y56480976D02*
X59470053Y56135989D01*
X62034748Y14027772D02*
X62649449Y12941676D01*
X58810712Y22363176D02*
X59034236Y21358699D01*
X74252888Y63540538D02*
X74640440Y63586360D01*
X58504266Y24342793D02*
X58635291Y23357616D01*
X74252888Y13099253D02*
X73891116Y13249103D01*
X60393791Y30105086D02*
X64187334Y30115862D01*
X79941116Y11577320D02*
X79941116Y15048141D01*
X63973380Y10749760D02*
X64196155Y10395986D01*
X73342078Y62841649D02*
X73580456Y63152309D01*
X67471567Y21180065D02*
X67205727Y21906532D01*
X79141116Y47321649D02*
X79141116Y61591649D01*
X79141116Y29321649D02*
X79941116Y29321649D01*
X66322267Y27429673D02*
X66312033Y28269963D01*
X79141116Y31321649D02*
X79141116Y45321649D01*
X79141116Y45321649D02*
X79941116Y45321649D01*
X58324609Y27253793D02*
X58355280Y26289556D01*
X70145536Y15983971D02*
X69570789Y16952789D01*
X60398457Y49317269D02*
X60393791Y52417268D01*
X58434777Y54342838D02*
X58332701Y53829667D01*
X74641116Y13048141D02*
X74252888Y13099253D01*
X64192778Y27015865D02*
X64187334Y30115862D01*
X59308510Y20343633D02*
X59635124Y19317647D01*
X59034236Y21358699D02*
X59308510Y20343633D01*
X65280534Y11083354D02*
X64196155Y10395986D01*
X65471894Y55742608D02*
X65126908Y56135989D01*
X73891116Y13249103D02*
X73580456Y13487481D01*
X60014606Y18280629D02*
X60446428Y17232691D01*
X64192778Y27015865D02*
X60398457Y27005087D01*
X25380912Y94476839D02*
X22571511Y93626855D01*
X26111484Y79797464D02*
X25674573Y80863879D01*
X11850772Y88884034D02*
X9332095Y87376894D01*
X64714911Y1684273D02*
X63840525Y2400143D01*
X63840525Y2400143D02*
X63014323Y3102336D01*
X22571511Y93626855D02*
X19807201Y92640043D01*
X18739641Y2400143D02*
X19565843Y3102336D01*
X56842638Y10652727D02*
X56638922Y11224842D01*
X61506301Y4467787D02*
X60824394Y5132095D01*
X57392990Y9487395D02*
X57093979Y10073753D01*
X14440367Y90265773D02*
X11850772Y88884034D01*
X60824394Y5132095D02*
X60502800Y5461000D01*
X21073865Y4467787D02*
X21755772Y5132095D01*
X9332095Y87376894D02*
X6890404Y85747983D01*
X26267067Y12905278D02*
X26277882Y21383416D01*
X17865255Y1684273D02*
X18739641Y2400143D01*
D11*
G36*
X55783641Y4305879D02*
X55884365Y4275325D01*
X55977180Y4225715D01*
X56058542Y4158942D01*
X56125315Y4077580D01*
X56174925Y3984765D01*
X56205479Y3884041D01*
X56216400Y3773160D01*
X56216400Y760440D01*
X56205479Y649559D01*
X56174925Y548835D01*
X56125315Y456020D01*
X56058542Y374658D01*
X55977180Y307885D01*
X55884365Y258275D01*
X55783641Y227721D01*
X55672760Y216800D01*
X54360040Y216800D01*
X54249159Y227721D01*
X54148435Y258275D01*
X54055620Y307885D01*
X53974258Y374658D01*
X53907485Y456020D01*
X53857875Y548835D01*
X53827321Y649559D01*
X53816400Y760440D01*
X53816400Y3773160D01*
X53827321Y3884041D01*
X53857875Y3984765D01*
X53907485Y4077580D01*
X53974258Y4158942D01*
X54055620Y4225715D01*
X54148435Y4275325D01*
X54249159Y4305879D01*
X54360040Y4316800D01*
X55672760Y4316800D01*
X55783641Y4305879D01*
X55783641Y4305879D01*
G37*
G36*
X28351641Y4305879D02*
X28452365Y4275325D01*
X28545180Y4225715D01*
X28626542Y4158942D01*
X28693315Y4077580D01*
X28742925Y3984765D01*
X28773479Y3884041D01*
X28784400Y3773160D01*
X28784400Y760440D01*
X28773479Y649559D01*
X28742925Y548835D01*
X28693315Y456020D01*
X28626542Y374658D01*
X28545180Y307885D01*
X28452365Y258275D01*
X28351641Y227721D01*
X28240760Y216800D01*
X26928040Y216800D01*
X26817159Y227721D01*
X26716435Y258275D01*
X26623620Y307885D01*
X26542258Y374658D01*
X26475485Y456020D01*
X26425875Y548835D01*
X26395321Y649559D01*
X26384400Y760440D01*
X26384400Y3773160D01*
X26395321Y3884041D01*
X26425875Y3984765D01*
X26475485Y4077580D01*
X26542258Y4158942D01*
X26623620Y4225715D01*
X26716435Y4275325D01*
X26817159Y4305879D01*
X26928040Y4316800D01*
X28240760Y4316800D01*
X28351641Y4305879D01*
X28351641Y4305879D01*
G37*
G36*
X30915314Y3866412D02*
X30952248Y3855208D01*
X30986285Y3837015D01*
X31016126Y3812526D01*
X31043773Y3778837D01*
X31061101Y3761510D01*
X31081475Y3747896D01*
X31104114Y3738519D01*
X31128147Y3733738D01*
X31152652Y3733738D01*
X31176685Y3738518D01*
X31199324Y3747896D01*
X31219699Y3761509D01*
X31237027Y3778837D01*
X31264674Y3812526D01*
X31294515Y3837015D01*
X31328552Y3855208D01*
X31365486Y3866412D01*
X31410041Y3870800D01*
X32902759Y3870800D01*
X32947314Y3866412D01*
X32984248Y3855208D01*
X33018285Y3837015D01*
X33048126Y3812526D01*
X33075773Y3778837D01*
X33093101Y3761510D01*
X33113475Y3747896D01*
X33136114Y3738519D01*
X33160147Y3733738D01*
X33184652Y3733738D01*
X33208685Y3738518D01*
X33231324Y3747896D01*
X33251699Y3761509D01*
X33269027Y3778837D01*
X33296674Y3812526D01*
X33326515Y3837015D01*
X33360552Y3855208D01*
X33397486Y3866412D01*
X33442041Y3870800D01*
X34934759Y3870800D01*
X34979314Y3866412D01*
X35016248Y3855208D01*
X35050285Y3837015D01*
X35080126Y3812526D01*
X35107773Y3778837D01*
X35125101Y3761510D01*
X35145475Y3747896D01*
X35168114Y3738519D01*
X35192147Y3733738D01*
X35216652Y3733738D01*
X35240685Y3738518D01*
X35263324Y3747896D01*
X35283699Y3761509D01*
X35301027Y3778837D01*
X35328674Y3812526D01*
X35358515Y3837015D01*
X35392552Y3855208D01*
X35429486Y3866412D01*
X35474041Y3870800D01*
X36966759Y3870800D01*
X37011314Y3866412D01*
X37048248Y3855208D01*
X37082285Y3837015D01*
X37112126Y3812526D01*
X37139773Y3778837D01*
X37157101Y3761510D01*
X37177475Y3747896D01*
X37200114Y3738519D01*
X37224147Y3733738D01*
X37248652Y3733738D01*
X37272685Y3738518D01*
X37295324Y3747896D01*
X37315699Y3761509D01*
X37333027Y3778837D01*
X37360674Y3812526D01*
X37390515Y3837015D01*
X37424552Y3855208D01*
X37461486Y3866412D01*
X37506041Y3870800D01*
X38998759Y3870800D01*
X39043314Y3866412D01*
X39080248Y3855208D01*
X39114285Y3837015D01*
X39144126Y3812526D01*
X39171773Y3778837D01*
X39189101Y3761510D01*
X39209475Y3747896D01*
X39232114Y3738519D01*
X39256147Y3733738D01*
X39280652Y3733738D01*
X39304685Y3738518D01*
X39327324Y3747896D01*
X39347699Y3761509D01*
X39365027Y3778837D01*
X39392674Y3812526D01*
X39422515Y3837015D01*
X39456552Y3855208D01*
X39493486Y3866412D01*
X39538041Y3870800D01*
X41030759Y3870800D01*
X41075314Y3866412D01*
X41112248Y3855208D01*
X41146285Y3837015D01*
X41176126Y3812526D01*
X41203773Y3778837D01*
X41221101Y3761510D01*
X41241475Y3747896D01*
X41264114Y3738519D01*
X41288147Y3733738D01*
X41312652Y3733738D01*
X41336685Y3738518D01*
X41359324Y3747896D01*
X41379699Y3761509D01*
X41397027Y3778837D01*
X41424674Y3812526D01*
X41454515Y3837015D01*
X41488552Y3855208D01*
X41525486Y3866412D01*
X41570041Y3870800D01*
X43062759Y3870800D01*
X43107314Y3866412D01*
X43144248Y3855208D01*
X43178285Y3837015D01*
X43208126Y3812526D01*
X43235773Y3778837D01*
X43253101Y3761510D01*
X43273475Y3747896D01*
X43296114Y3738519D01*
X43320147Y3733738D01*
X43344652Y3733738D01*
X43368685Y3738518D01*
X43391324Y3747896D01*
X43411699Y3761509D01*
X43429027Y3778837D01*
X43456674Y3812526D01*
X43486515Y3837015D01*
X43520552Y3855208D01*
X43557486Y3866412D01*
X43602041Y3870800D01*
X45094759Y3870800D01*
X45139314Y3866412D01*
X45176248Y3855208D01*
X45210285Y3837015D01*
X45240126Y3812526D01*
X45267773Y3778837D01*
X45285101Y3761510D01*
X45305475Y3747896D01*
X45328114Y3738519D01*
X45352147Y3733738D01*
X45376652Y3733738D01*
X45400685Y3738518D01*
X45423324Y3747896D01*
X45443699Y3761509D01*
X45461027Y3778837D01*
X45488674Y3812526D01*
X45518515Y3837015D01*
X45552552Y3855208D01*
X45589486Y3866412D01*
X45634041Y3870800D01*
X47126759Y3870800D01*
X47171314Y3866412D01*
X47208248Y3855208D01*
X47242285Y3837015D01*
X47272126Y3812526D01*
X47299773Y3778837D01*
X47317101Y3761510D01*
X47337475Y3747896D01*
X47360114Y3738519D01*
X47384147Y3733738D01*
X47408652Y3733738D01*
X47432685Y3738518D01*
X47455324Y3747896D01*
X47475699Y3761509D01*
X47493027Y3778837D01*
X47520674Y3812526D01*
X47550515Y3837015D01*
X47584552Y3855208D01*
X47621486Y3866412D01*
X47666041Y3870800D01*
X49158759Y3870800D01*
X49203314Y3866412D01*
X49240248Y3855208D01*
X49274285Y3837015D01*
X49304126Y3812526D01*
X49331773Y3778837D01*
X49349101Y3761510D01*
X49369475Y3747896D01*
X49392114Y3738519D01*
X49416147Y3733738D01*
X49440652Y3733738D01*
X49464685Y3738518D01*
X49487324Y3747896D01*
X49507699Y3761509D01*
X49525027Y3778837D01*
X49552674Y3812526D01*
X49582515Y3837015D01*
X49616552Y3855208D01*
X49653486Y3866412D01*
X49698041Y3870800D01*
X51190759Y3870800D01*
X51235314Y3866412D01*
X51272248Y3855208D01*
X51306285Y3837015D01*
X51336126Y3812526D01*
X51363773Y3778837D01*
X51381101Y3761510D01*
X51401475Y3747896D01*
X51424114Y3738519D01*
X51448147Y3733738D01*
X51472652Y3733738D01*
X51496685Y3738518D01*
X51519324Y3747896D01*
X51539699Y3761509D01*
X51557027Y3778837D01*
X51584674Y3812526D01*
X51614515Y3837015D01*
X51648552Y3855208D01*
X51685486Y3866412D01*
X51730041Y3870800D01*
X53222759Y3870800D01*
X53267314Y3866412D01*
X53304248Y3855208D01*
X53338285Y3837015D01*
X53368126Y3812526D01*
X53392615Y3782685D01*
X53410808Y3748648D01*
X53422012Y3711714D01*
X53426400Y3667159D01*
X53426400Y974441D01*
X53422012Y929886D01*
X53410808Y892952D01*
X53392615Y858915D01*
X53368126Y829074D01*
X53338285Y804585D01*
X53304248Y786392D01*
X53267314Y775188D01*
X53222759Y770800D01*
X51730041Y770800D01*
X51685486Y775188D01*
X51648552Y786392D01*
X51614515Y804585D01*
X51584674Y829074D01*
X51557027Y862763D01*
X51539699Y880090D01*
X51519325Y893704D01*
X51496686Y903081D01*
X51472653Y907862D01*
X51448148Y907862D01*
X51424115Y903082D01*
X51401476Y893704D01*
X51381101Y880091D01*
X51363773Y862763D01*
X51336126Y829074D01*
X51306285Y804585D01*
X51272248Y786392D01*
X51235314Y775188D01*
X51190759Y770800D01*
X49698041Y770800D01*
X49653486Y775188D01*
X49616552Y786392D01*
X49582515Y804585D01*
X49552674Y829074D01*
X49525027Y862763D01*
X49507699Y880090D01*
X49487325Y893704D01*
X49464686Y903081D01*
X49440653Y907862D01*
X49416148Y907862D01*
X49392115Y903082D01*
X49369476Y893704D01*
X49349101Y880091D01*
X49331773Y862763D01*
X49304126Y829074D01*
X49274285Y804585D01*
X49240248Y786392D01*
X49203314Y775188D01*
X49158759Y770800D01*
X47666041Y770800D01*
X47621486Y775188D01*
X47584552Y786392D01*
X47550515Y804585D01*
X47520674Y829074D01*
X47493027Y862763D01*
X47475699Y880090D01*
X47455325Y893704D01*
X47432686Y903081D01*
X47408653Y907862D01*
X47384148Y907862D01*
X47360115Y903082D01*
X47337476Y893704D01*
X47317101Y880091D01*
X47299773Y862763D01*
X47272126Y829074D01*
X47242285Y804585D01*
X47208248Y786392D01*
X47171314Y775188D01*
X47126759Y770800D01*
X45634041Y770800D01*
X45589486Y775188D01*
X45552552Y786392D01*
X45518515Y804585D01*
X45488674Y829074D01*
X45461027Y862763D01*
X45443699Y880090D01*
X45423325Y893704D01*
X45400686Y903081D01*
X45376653Y907862D01*
X45352148Y907862D01*
X45328115Y903082D01*
X45305476Y893704D01*
X45285101Y880091D01*
X45267773Y862763D01*
X45240126Y829074D01*
X45210285Y804585D01*
X45176248Y786392D01*
X45139314Y775188D01*
X45094759Y770800D01*
X43602041Y770800D01*
X43557486Y775188D01*
X43520552Y786392D01*
X43486515Y804585D01*
X43456674Y829074D01*
X43429027Y862763D01*
X43411699Y880090D01*
X43391325Y893704D01*
X43368686Y903081D01*
X43344653Y907862D01*
X43320148Y907862D01*
X43296115Y903082D01*
X43273476Y893704D01*
X43253101Y880091D01*
X43235773Y862763D01*
X43208126Y829074D01*
X43178285Y804585D01*
X43144248Y786392D01*
X43107314Y775188D01*
X43062759Y770800D01*
X41570041Y770800D01*
X41525486Y775188D01*
X41488552Y786392D01*
X41454515Y804585D01*
X41424674Y829074D01*
X41397027Y862763D01*
X41379699Y880090D01*
X41359325Y893704D01*
X41336686Y903081D01*
X41312653Y907862D01*
X41288148Y907862D01*
X41264115Y903082D01*
X41241476Y893704D01*
X41221101Y880091D01*
X41203773Y862763D01*
X41176126Y829074D01*
X41146285Y804585D01*
X41112248Y786392D01*
X41075314Y775188D01*
X41030759Y770800D01*
X39538041Y770800D01*
X39493486Y775188D01*
X39456552Y786392D01*
X39422515Y804585D01*
X39392674Y829074D01*
X39365027Y862763D01*
X39347699Y880090D01*
X39327325Y893704D01*
X39304686Y903081D01*
X39280653Y907862D01*
X39256148Y907862D01*
X39232115Y903082D01*
X39209476Y893704D01*
X39189101Y880091D01*
X39171773Y862763D01*
X39144126Y829074D01*
X39114285Y804585D01*
X39080248Y786392D01*
X39043314Y775188D01*
X38998759Y770800D01*
X37506041Y770800D01*
X37461486Y775188D01*
X37424552Y786392D01*
X37390515Y804585D01*
X37360674Y829074D01*
X37333027Y862763D01*
X37315699Y880090D01*
X37295325Y893704D01*
X37272686Y903081D01*
X37248653Y907862D01*
X37224148Y907862D01*
X37200115Y903082D01*
X37177476Y893704D01*
X37157101Y880091D01*
X37139773Y862763D01*
X37112126Y829074D01*
X37082285Y804585D01*
X37048248Y786392D01*
X37011314Y775188D01*
X36966759Y770800D01*
X35474041Y770800D01*
X35429486Y775188D01*
X35392552Y786392D01*
X35358515Y804585D01*
X35328674Y829074D01*
X35301027Y862763D01*
X35283699Y880090D01*
X35263325Y893704D01*
X35240686Y903081D01*
X35216653Y907862D01*
X35192148Y907862D01*
X35168115Y903082D01*
X35145476Y893704D01*
X35125101Y880091D01*
X35107773Y862763D01*
X35080126Y829074D01*
X35050285Y804585D01*
X35016248Y786392D01*
X34979314Y775188D01*
X34934759Y770800D01*
X33442041Y770800D01*
X33397486Y775188D01*
X33360552Y786392D01*
X33326515Y804585D01*
X33296674Y829074D01*
X33269027Y862763D01*
X33251699Y880090D01*
X33231325Y893704D01*
X33208686Y903081D01*
X33184653Y907862D01*
X33160148Y907862D01*
X33136115Y903082D01*
X33113476Y893704D01*
X33093101Y880091D01*
X33075773Y862763D01*
X33048126Y829074D01*
X33018285Y804585D01*
X32984248Y786392D01*
X32947314Y775188D01*
X32902759Y770800D01*
X31410041Y770800D01*
X31365486Y775188D01*
X31328552Y786392D01*
X31294515Y804585D01*
X31264674Y829074D01*
X31237027Y862763D01*
X31219699Y880090D01*
X31199325Y893704D01*
X31176686Y903081D01*
X31152653Y907862D01*
X31128148Y907862D01*
X31104115Y903082D01*
X31081476Y893704D01*
X31061101Y880091D01*
X31043773Y862763D01*
X31016126Y829074D01*
X30986285Y804585D01*
X30952248Y786392D01*
X30915314Y775188D01*
X30870759Y770800D01*
X29378041Y770800D01*
X29333486Y775188D01*
X29296552Y786392D01*
X29262515Y804585D01*
X29232674Y829074D01*
X29208185Y858915D01*
X29189992Y892952D01*
X29178788Y929886D01*
X29174400Y974441D01*
X29174400Y3667159D01*
X29178788Y3711714D01*
X29189992Y3748648D01*
X29208185Y3782685D01*
X29232674Y3812526D01*
X29262515Y3837015D01*
X29296552Y3855208D01*
X29333486Y3866412D01*
X29378041Y3870800D01*
X30870759Y3870800D01*
X30915314Y3866412D01*
X30915314Y3866412D01*
G37*
G36*
X30655996Y9682842D02*
X30892580Y9584846D01*
X31105505Y9442574D01*
X31286574Y9261505D01*
X31428846Y9048580D01*
X31526842Y8811996D01*
X31576800Y8560840D01*
X31576800Y8304760D01*
X31526842Y8053604D01*
X31428846Y7817020D01*
X31286574Y7604095D01*
X31105505Y7423026D01*
X30892580Y7280754D01*
X30655996Y7182758D01*
X30404840Y7132800D01*
X30148760Y7132800D01*
X29897604Y7182758D01*
X29661020Y7280754D01*
X29448095Y7423026D01*
X29267026Y7604095D01*
X29124754Y7817020D01*
X29026758Y8053604D01*
X28976800Y8304760D01*
X28976800Y8560840D01*
X29026758Y8811996D01*
X29124754Y9048580D01*
X29267026Y9261505D01*
X29448095Y9442574D01*
X29661020Y9584846D01*
X29897604Y9682842D01*
X30148760Y9732800D01*
X30404840Y9732800D01*
X30655996Y9682842D01*
X30655996Y9682842D01*
G37*
G36*
X52677796Y9682842D02*
X52914380Y9584846D01*
X53127305Y9442574D01*
X53308374Y9261505D01*
X53450646Y9048580D01*
X53548642Y8811996D01*
X53598600Y8560840D01*
X53598600Y8304760D01*
X53548642Y8053604D01*
X53450646Y7817020D01*
X53308374Y7604095D01*
X53127305Y7423026D01*
X52914380Y7280754D01*
X52677796Y7182758D01*
X52426640Y7132800D01*
X52170560Y7132800D01*
X51919404Y7182758D01*
X51682820Y7280754D01*
X51469895Y7423026D01*
X51288826Y7604095D01*
X51146554Y7817020D01*
X51048558Y8053604D01*
X50998600Y8304760D01*
X50998600Y8560840D01*
X51048558Y8811996D01*
X51146554Y9048580D01*
X51288826Y9261505D01*
X51469895Y9442574D01*
X51682820Y9584846D01*
X51919404Y9682842D01*
X52170560Y9732800D01*
X52426640Y9732800D01*
X52677796Y9682842D01*
X52677796Y9682842D01*
G37*
G36*
X65489800Y12285000D02*
X63389800Y12285000D01*
X63389800Y14385000D01*
X65489800Y14385000D01*
X65489800Y12285000D01*
X65489800Y12285000D01*
G37*
G36*
X67108507Y14377404D02*
X67185636Y14369807D01*
X67299829Y14335167D01*
X67383563Y14309767D01*
X67565972Y14212267D01*
X67725854Y14081054D01*
X67857067Y13921172D01*
X67954567Y13738763D01*
X67954567Y13738762D01*
X68014607Y13540836D01*
X68034880Y13335000D01*
X68014607Y13129164D01*
X68002820Y13090308D01*
X67954567Y12931237D01*
X67857067Y12748828D01*
X67725854Y12588946D01*
X67565972Y12457733D01*
X67383563Y12360233D01*
X67317587Y12340220D01*
X67185636Y12300193D01*
X67108507Y12292596D01*
X67031380Y12285000D01*
X66928220Y12285000D01*
X66851093Y12292596D01*
X66773964Y12300193D01*
X66642013Y12340220D01*
X66576037Y12360233D01*
X66393628Y12457733D01*
X66233746Y12588946D01*
X66102533Y12748828D01*
X66005033Y12931237D01*
X65956780Y13090308D01*
X65944993Y13129164D01*
X65924720Y13335000D01*
X65944993Y13540836D01*
X66005033Y13738762D01*
X66005033Y13738763D01*
X66102533Y13921172D01*
X66233746Y14081054D01*
X66393628Y14212267D01*
X66576037Y14309767D01*
X66659771Y14335167D01*
X66773964Y14369807D01*
X66851093Y14377404D01*
X66928220Y14385000D01*
X67031380Y14385000D01*
X67108507Y14377404D01*
X67108507Y14377404D01*
G37*
G36*
X19185600Y12310400D02*
X17085600Y12310400D01*
X17085600Y14410400D01*
X19185600Y14410400D01*
X19185600Y12310400D01*
X19185600Y12310400D01*
G37*
G36*
X15724307Y14402804D02*
X15801436Y14395207D01*
X15933387Y14355180D01*
X15999363Y14335167D01*
X16181772Y14237667D01*
X16341654Y14106454D01*
X16472867Y13946572D01*
X16570367Y13764163D01*
X16570367Y13764162D01*
X16630407Y13566236D01*
X16650680Y13360400D01*
X16630407Y13154564D01*
X16622702Y13129164D01*
X16570367Y12956637D01*
X16472867Y12774228D01*
X16341654Y12614346D01*
X16181772Y12483133D01*
X15999363Y12385633D01*
X15933387Y12365620D01*
X15801436Y12325593D01*
X15724307Y12317996D01*
X15647180Y12310400D01*
X15544020Y12310400D01*
X15466893Y12317996D01*
X15389764Y12325593D01*
X15257813Y12365620D01*
X15191837Y12385633D01*
X15009428Y12483133D01*
X14849546Y12614346D01*
X14718333Y12774228D01*
X14620833Y12956637D01*
X14568498Y13129164D01*
X14560793Y13154564D01*
X14540520Y13360400D01*
X14560793Y13566236D01*
X14620833Y13764162D01*
X14620833Y13764163D01*
X14718333Y13946572D01*
X14849546Y14106454D01*
X15009428Y14237667D01*
X15191837Y14335167D01*
X15257813Y14355180D01*
X15389764Y14395207D01*
X15466893Y14402804D01*
X15544020Y14410400D01*
X15647180Y14410400D01*
X15724307Y14402804D01*
X15724307Y14402804D01*
G37*
G36*
X79826248Y15298780D02*
X79915244Y15271784D01*
X79997261Y15227944D01*
X80069148Y15168948D01*
X80128144Y15097061D01*
X80171984Y15015044D01*
X80198980Y14926048D01*
X80208700Y14827360D01*
X80208700Y13239640D01*
X80198980Y13140952D01*
X80171984Y13051956D01*
X80128144Y12969939D01*
X80069148Y12898052D01*
X79997261Y12839056D01*
X79915244Y12795216D01*
X79826248Y12768220D01*
X79727560Y12758500D01*
X78539840Y12758500D01*
X78441152Y12768220D01*
X78352156Y12795216D01*
X78270139Y12839056D01*
X78198252Y12898052D01*
X78139256Y12969939D01*
X78095416Y13051956D01*
X78068420Y13140952D01*
X78058700Y13239640D01*
X78058700Y14827360D01*
X78068420Y14926048D01*
X78095416Y15015044D01*
X78139256Y15097061D01*
X78198252Y15168948D01*
X78270139Y15227944D01*
X78352156Y15271784D01*
X78441152Y15298780D01*
X78539840Y15308500D01*
X79727560Y15308500D01*
X79826248Y15298780D01*
X79826248Y15298780D01*
G37*
G36*
X68378507Y17044404D02*
X68455636Y17036807D01*
X68587587Y16996780D01*
X68653563Y16976767D01*
X68835972Y16879267D01*
X68995854Y16748054D01*
X69127067Y16588172D01*
X69224567Y16405763D01*
X69224567Y16405762D01*
X69284607Y16207836D01*
X69304880Y16002000D01*
X69284607Y15796164D01*
X69244580Y15664213D01*
X69224567Y15598237D01*
X69127067Y15415828D01*
X68995854Y15255946D01*
X68835972Y15124733D01*
X68653563Y15027233D01*
X68587587Y15007220D01*
X68455636Y14967193D01*
X68378507Y14959597D01*
X68301380Y14952000D01*
X68198220Y14952000D01*
X68121093Y14959597D01*
X68043964Y14967193D01*
X67912013Y15007220D01*
X67846037Y15027233D01*
X67663628Y15124733D01*
X67503746Y15255946D01*
X67372533Y15415828D01*
X67275033Y15598237D01*
X67255020Y15664213D01*
X67214993Y15796164D01*
X67194720Y16002000D01*
X67214993Y16207836D01*
X67275033Y16405762D01*
X67275033Y16405763D01*
X67372533Y16588172D01*
X67503746Y16748054D01*
X67663628Y16879267D01*
X67846037Y16976767D01*
X67912013Y16996780D01*
X68043964Y17036807D01*
X68121093Y17044404D01*
X68198220Y17052000D01*
X68301380Y17052000D01*
X68378507Y17044404D01*
X68378507Y17044404D01*
G37*
G36*
X14454307Y17044404D02*
X14531436Y17036807D01*
X14663387Y16996780D01*
X14729363Y16976767D01*
X14911772Y16879267D01*
X15071654Y16748054D01*
X15202867Y16588172D01*
X15300367Y16405763D01*
X15300367Y16405762D01*
X15360407Y16207836D01*
X15380680Y16002000D01*
X15360407Y15796164D01*
X15320380Y15664213D01*
X15300367Y15598237D01*
X15202867Y15415828D01*
X15071654Y15255946D01*
X14911772Y15124733D01*
X14729363Y15027233D01*
X14663387Y15007220D01*
X14531436Y14967193D01*
X14454307Y14959597D01*
X14377180Y14952000D01*
X14274020Y14952000D01*
X14196893Y14959597D01*
X14119764Y14967193D01*
X13987813Y15007220D01*
X13921837Y15027233D01*
X13739428Y15124733D01*
X13579546Y15255946D01*
X13448333Y15415828D01*
X13350833Y15598237D01*
X13330820Y15664213D01*
X13290793Y15796164D01*
X13270520Y16002000D01*
X13290793Y16207836D01*
X13350833Y16405762D01*
X13350833Y16405763D01*
X13448333Y16588172D01*
X13579546Y16748054D01*
X13739428Y16879267D01*
X13921837Y16976767D01*
X13987813Y16996780D01*
X14119764Y17036807D01*
X14196893Y17044404D01*
X14274020Y17052000D01*
X14377180Y17052000D01*
X14454307Y17044404D01*
X14454307Y17044404D01*
G37*
G36*
X17915600Y14952000D02*
X15815600Y14952000D01*
X15815600Y17052000D01*
X17915600Y17052000D01*
X17915600Y14952000D01*
X17915600Y14952000D01*
G37*
G36*
X66759800Y14952000D02*
X64659800Y14952000D01*
X64659800Y17052000D01*
X66759800Y17052000D01*
X66759800Y14952000D01*
X66759800Y14952000D01*
G37*
G36*
X79826248Y31567480D02*
X79915244Y31540484D01*
X79997261Y31496644D01*
X80069148Y31437648D01*
X80128144Y31365761D01*
X80171984Y31283744D01*
X80198980Y31194748D01*
X80208700Y31096060D01*
X80208700Y29508340D01*
X80198980Y29409652D01*
X80171984Y29320656D01*
X80128144Y29238639D01*
X80069148Y29166752D01*
X79997261Y29107756D01*
X79915244Y29063916D01*
X79826248Y29036920D01*
X79727560Y29027200D01*
X78539840Y29027200D01*
X78441152Y29036920D01*
X78352156Y29063916D01*
X78270139Y29107756D01*
X78198252Y29166752D01*
X78139256Y29238639D01*
X78095416Y29320656D01*
X78068420Y29409652D01*
X78058700Y29508340D01*
X78058700Y31096060D01*
X78068420Y31194748D01*
X78095416Y31283744D01*
X78139256Y31365761D01*
X78198252Y31437648D01*
X78270139Y31496644D01*
X78352156Y31540484D01*
X78441152Y31567480D01*
X78539840Y31577200D01*
X79727560Y31577200D01*
X79826248Y31567480D01*
X79826248Y31567480D01*
G37*
G36*
X79826248Y47569480D02*
X79915244Y47542484D01*
X79997261Y47498644D01*
X80069148Y47439648D01*
X80128144Y47367761D01*
X80171984Y47285744D01*
X80198980Y47196748D01*
X80208700Y47098060D01*
X80208700Y45510340D01*
X80198980Y45411652D01*
X80171984Y45322656D01*
X80128144Y45240639D01*
X80069148Y45168752D01*
X79997261Y45109756D01*
X79915244Y45065916D01*
X79826248Y45038920D01*
X79727560Y45029200D01*
X78539840Y45029200D01*
X78441152Y45038920D01*
X78352156Y45065916D01*
X78270139Y45109756D01*
X78198252Y45168752D01*
X78139256Y45240639D01*
X78095416Y45322656D01*
X78068420Y45411652D01*
X78058700Y45510340D01*
X78058700Y47098060D01*
X78068420Y47196748D01*
X78095416Y47285744D01*
X78139256Y47367761D01*
X78198252Y47439648D01*
X78270139Y47498644D01*
X78352156Y47542484D01*
X78441152Y47569480D01*
X78539840Y47579200D01*
X79727560Y47579200D01*
X79826248Y47569480D01*
X79826248Y47569480D01*
G37*
G36*
X79826248Y63838180D02*
X79915244Y63811184D01*
X79997261Y63767344D01*
X80069148Y63708348D01*
X80128144Y63636461D01*
X80171984Y63554444D01*
X80198980Y63465448D01*
X80208700Y63366760D01*
X80208700Y61779040D01*
X80198980Y61680352D01*
X80171984Y61591356D01*
X80128144Y61509339D01*
X80069148Y61437452D01*
X79997261Y61378456D01*
X79915244Y61334616D01*
X79826248Y61307620D01*
X79727560Y61297900D01*
X78539840Y61297900D01*
X78441152Y61307620D01*
X78352156Y61334616D01*
X78270139Y61378456D01*
X78198252Y61437452D01*
X78139256Y61509339D01*
X78095416Y61591356D01*
X78068420Y61680352D01*
X78058700Y61779040D01*
X78058700Y63366760D01*
X78068420Y63465448D01*
X78095416Y63554444D01*
X78139256Y63636461D01*
X78198252Y63708348D01*
X78270139Y63767344D01*
X78352156Y63811184D01*
X78441152Y63838180D01*
X78539840Y63847900D01*
X79727560Y63847900D01*
X79826248Y63838180D01*
X79826248Y63838180D01*
G37*
M02*
