G04 #@! TF.GenerationSoftware,KiCad,Pcbnew,7.0.1*
G04 #@! TF.CreationDate,2023-04-30T23:13:50+02:00*
G04 #@! TF.ProjectId,Solo_morro2,536f6c6f-5f6d-46f7-9272-6f322e6b6963,rev?*
G04 #@! TF.SameCoordinates,PX4afdbbcPY7f05f82*
G04 #@! TF.FileFunction,Profile,NP*
%FSLAX46Y46*%
G04 Gerber Fmt 4.6, Leading zero omitted, Abs format (unit mm)*
G04 Created by KiCad (PCBNEW 7.0.1) date 2023-04-30 23:13:50*
%MOMM*%
%LPD*%
G01*
G04 APERTURE LIST*
G04 #@! TA.AperFunction,Profile*
%ADD10C,0.100000*%
G04 #@! TD*
G04 #@! TA.AperFunction,Profile*
%ADD11C,0.200000*%
G04 #@! TD*
G04 APERTURE END LIST*
D10*
X97758414Y18350914D02*
X97551308Y18191996D01*
X30422110Y78668178D02*
X29304462Y79936502D01*
D11*
X60749845Y18534947D02*
X75117576Y4196264D01*
X27720899Y51595295D02*
X60749845Y18534947D01*
D10*
X41417943Y45276012D02*
X43492351Y43254007D01*
X100050041Y19056481D02*
X100050379Y19714942D01*
X51252725Y95525482D02*
X46672117Y93648021D01*
X47829615Y82074179D02*
X46893318Y80329468D01*
X47411009Y57886587D02*
X47227367Y57761166D01*
X25509781Y53149430D02*
X24237279Y53619032D01*
X8706764Y40692669D02*
X6667008Y41204775D01*
X88939324Y93652634D02*
X89193491Y95740277D01*
X1728801Y37974337D02*
X859584Y33100804D01*
X45415761Y88576346D02*
X44633125Y90074765D01*
X46670922Y78991436D02*
X46893318Y80329468D01*
X47725352Y58212862D02*
X47577005Y58037152D01*
X97917334Y19558020D02*
X98017232Y19316838D01*
X48202366Y59468575D02*
X48142259Y59167143D01*
X51421012Y66111151D02*
X50652440Y66329393D01*
X42757123Y52121801D02*
X42491750Y51887012D01*
X66935797Y40582911D02*
X74903750Y31999782D01*
D11*
X82102097Y21421466D02*
X83707231Y20283024D01*
D10*
X83735515Y29630974D02*
X75686297Y38903495D01*
X75686297Y38903495D02*
X66580710Y49884402D01*
X48269632Y60146871D02*
X48244825Y59795153D01*
X98051306Y19058020D02*
X98017232Y18799202D01*
X81505286Y2489791D02*
X81763276Y2529664D01*
X53754719Y59056715D02*
X55776442Y56498706D01*
X46541Y23238267D02*
X105928Y18288183D01*
X46570549Y57535769D02*
X46316312Y57510923D01*
X50200031Y92592488D02*
X50804187Y90991480D01*
D11*
X71686414Y15149430D02*
X72932529Y15394757D01*
D10*
X9337441Y29886531D02*
X8961047Y25506710D01*
X36257770Y80582441D02*
X38810755Y82340932D01*
X96185282Y18558021D02*
X96085383Y18799202D01*
X89193491Y95740277D02*
X89397800Y97418384D01*
X39982318Y51116818D02*
X40897649Y51418061D01*
X59335720Y93858378D02*
X59831572Y91835123D01*
X56643520Y88072054D02*
X53835984Y87054811D01*
X86572773Y100098881D02*
X87207055Y99998518D01*
X11206997Y3729066D02*
X11958914Y494865D01*
X50928671Y42020314D02*
X51482877Y41651739D01*
X53673110Y86973965D02*
X52062388Y86174457D01*
X15613799Y50210515D02*
X16883925Y51521684D01*
X83605082Y1370142D02*
X99170643Y16936508D01*
X69989358Y16549499D02*
X63512261Y22107357D01*
X43143114Y52709052D02*
X42973530Y52396928D01*
X38664838Y46293440D02*
X38689605Y46028415D01*
X9486883Y12346663D02*
X10211530Y8010836D01*
X38591723Y46873897D02*
X38609389Y46576337D01*
X77120350Y98137987D02*
X80220352Y98139317D01*
X8445568Y46835469D02*
X10390370Y46089024D01*
X97551308Y18191996D02*
X97310127Y18092095D01*
X98017232Y18799202D02*
X97917333Y18558021D01*
X37909248Y89049883D02*
X33761576Y86347352D01*
X96792489Y18092095D02*
X96551308Y18191995D01*
X6524747Y14663975D02*
X4435705Y14421582D01*
X1304661Y11333690D02*
X1679885Y10815346D01*
X82002155Y2634951D02*
X82205645Y2798476D01*
X38810755Y82340932D02*
X37620098Y84074483D01*
X8860406Y21111898D02*
X9035914Y16719436D01*
X74361666Y38642347D02*
X76473107Y36096053D01*
X57852057Y46980927D02*
X55170747Y48835504D01*
X81719931Y4461028D02*
X81460413Y4489289D01*
X46907539Y39555137D02*
X56662034Y30069955D01*
X15506242Y50099483D02*
X15613799Y50210515D01*
X56222701Y38214011D02*
X62857496Y32730857D01*
X50804187Y90991480D02*
X51539653Y89042500D01*
X11958914Y494865D02*
X2111159Y10342617D01*
X62841484Y92577047D02*
X62340887Y94619660D01*
X47638401Y56272277D02*
X50145634Y54176095D01*
X43583519Y55554258D02*
X43199560Y55649190D01*
X54863850Y53822104D02*
X48883408Y59655276D01*
X85861547Y94023179D02*
X88939324Y93652634D01*
X50754875Y65909414D02*
X50828871Y65520765D01*
X80483099Y3467102D02*
X80522974Y3209113D01*
X44110413Y39630841D02*
X40283668Y42746848D01*
X7955913Y37684971D02*
X8706764Y40692669D01*
X52611281Y64617304D02*
X55918125Y61543884D01*
X77119227Y96426783D02*
X77117864Y94343652D01*
X82984228Y893083D02*
X83605082Y1370142D01*
X10529120Y61004821D02*
X8196439Y56638420D01*
X26980858Y77884463D02*
X29304462Y79936502D01*
X87011799Y91203964D02*
X82631980Y91580358D01*
X47969100Y58639715D02*
X47856051Y58413716D01*
X41886912Y88636600D02*
X42679137Y87119827D01*
X96085382Y19316840D02*
X96185283Y19558020D01*
X51472295Y61415346D02*
X50265833Y62430837D01*
X4482574Y29309927D02*
X6549325Y29049220D01*
X12100897Y42763900D02*
X10910473Y38532187D01*
X9533912Y49738239D02*
X7955672Y50343992D01*
X77411035Y1902691D02*
X75117576Y4196264D01*
D11*
X59015061Y38540520D02*
X58378665Y39912308D01*
D10*
X46672117Y93648021D02*
X42218431Y91486643D01*
X38579780Y45365426D02*
X38481778Y45196746D01*
X100046541Y88385362D02*
X99889171Y88440509D01*
X38545444Y47190768D02*
X38591723Y46873897D01*
X50297466Y84888687D02*
X49023056Y83654166D01*
X6142529Y52134165D02*
X4375499Y47509832D01*
X58887783Y50320920D02*
X57714148Y51284104D01*
X47227367Y57761166D02*
X47026074Y57660889D01*
X67882120Y30388569D02*
X62915159Y35119444D01*
X38193645Y44952775D02*
X38003503Y44882459D01*
X24237279Y53619032D02*
X22902996Y53862913D01*
X4846665Y32388568D02*
X3169460Y32600137D01*
X42573107Y49218907D02*
X48009777Y44461179D01*
X59830812Y49091235D02*
X60817932Y47720943D01*
X100046541Y88385362D02*
X89974081Y98457822D01*
X15071778Y63885437D02*
X16838476Y66432747D01*
X21881557Y70105578D02*
X23436670Y68719559D01*
X46681828Y77635094D02*
X46670922Y78991436D01*
X52703561Y31845957D02*
X63512261Y22107357D01*
X38528705Y48400592D02*
X38229060Y48234152D01*
X89500783Y98891843D02*
X89974081Y98457822D01*
X50772338Y64047458D02*
X50675723Y63846785D01*
X50215271Y63432746D02*
X50004912Y63357393D01*
X74361666Y38642347D02*
X72070783Y41165222D01*
X15992909Y69255741D02*
X13131366Y65216134D01*
X82261059Y592971D02*
X82984228Y893083D01*
X43392415Y53833996D02*
X43350413Y53430928D01*
X4275788Y38608913D02*
X5935486Y38192227D01*
X82337440Y4008845D02*
X82173912Y4212333D01*
X50550674Y63677442D02*
X50397188Y63539432D01*
X65136105Y90329876D02*
X60854336Y89334411D01*
X66935797Y40582911D02*
X62422639Y45725790D01*
X57618487Y55416419D02*
X56288393Y56300994D01*
X42218431Y91486643D02*
X37909248Y89049883D01*
X6191010Y20307006D02*
X6202317Y23406989D01*
X70476866Y100065391D02*
X65573258Y99386066D01*
X81002405Y2612513D02*
X81245765Y2518050D01*
X4375499Y47509832D02*
X2902316Y42783672D01*
X100009460Y20345143D02*
X100050379Y19714942D01*
X82454337Y3252458D02*
X82482598Y3511976D01*
X52288641Y52251234D02*
X53655757Y50842379D01*
X14363633Y48482351D02*
X15506242Y50099483D01*
X77885869Y1486322D02*
X78411023Y1135552D01*
X51421012Y66111151D02*
X51919071Y65341309D01*
X38353068Y45058366D02*
X38193645Y44952775D01*
X60801314Y52657262D02*
X58769149Y54508416D01*
X13817391Y54139503D02*
X15264391Y56881074D01*
X48244825Y59795153D02*
X48202366Y59468575D01*
X14363633Y48482351D02*
X13483281Y46708754D01*
X35078395Y82299566D02*
X36257770Y80582441D01*
X86320117Y97789702D02*
X89397800Y97418384D01*
X37620098Y84074483D02*
X36663018Y85467960D01*
X38469966Y47524642D02*
X38545444Y47190768D01*
X67945422Y97377878D02*
X71022787Y97751839D01*
X80791787Y2766745D02*
X81002405Y2612513D01*
X23926185Y72435829D02*
X22664185Y73560610D01*
X50874437Y65163444D02*
X50891566Y64837453D01*
X78237165Y91681002D02*
X73844706Y91505491D01*
X78538280Y18734460D02*
X75865415Y20827496D01*
X81245765Y2518050D02*
X81505286Y2489791D01*
X42491750Y51887012D02*
X42175264Y51695903D01*
X105928Y18288183D02*
X448091Y13724068D01*
X82173912Y4212333D02*
X81963294Y4366566D01*
X53655757Y50842379D02*
X55170747Y48835504D01*
X8196439Y56638420D02*
X6142529Y52134165D01*
X97310127Y20023946D02*
X97551308Y19924046D01*
X50445256Y85031849D02*
X50297466Y84888687D01*
X47856051Y58413716D02*
X47725352Y58212862D01*
X42973530Y52396928D02*
X42757123Y52121801D01*
X2396721Y20325916D02*
X4107905Y20317387D01*
X99053869Y22654324D02*
X99404639Y22129170D01*
X85307580Y100243314D02*
X80363537Y100494866D01*
X59830812Y49091235D02*
X58887783Y50320920D01*
X97551308Y19924046D02*
X97758415Y19765127D01*
X13131366Y65216134D02*
X10529120Y61004821D01*
X10464138Y55915075D02*
X11976419Y55114310D01*
X38003503Y44882459D02*
X37782637Y44849901D01*
X80963543Y4344129D02*
X80760054Y4180603D01*
X69471933Y91054523D02*
X65136105Y90329876D01*
X3117110Y11147787D02*
X4816911Y11345015D01*
X26682624Y52468092D02*
X25509781Y53149430D01*
X57852057Y46980927D02*
X61034882Y44221776D01*
X8961047Y25506710D02*
X8860406Y21111898D01*
X49766122Y63313367D02*
X49498894Y63300674D01*
X47395310Y75028311D02*
X46925708Y76300812D01*
X34109590Y83710111D02*
X35078395Y82299566D01*
X44110413Y39630841D02*
X52703561Y31845957D01*
X4275788Y38608913D02*
X5027394Y41616419D01*
X26980858Y77884463D02*
X28112197Y76600601D01*
X25496181Y71036547D02*
X23926185Y72435829D01*
X15071778Y63885437D02*
X16476838Y62908694D01*
X77117864Y94343652D02*
X80217866Y94345761D01*
D11*
X84633537Y28577385D02*
X84612325Y27198528D01*
D10*
X43268027Y53054833D02*
X43143114Y52709052D01*
X73844706Y91505491D02*
X69471933Y91054523D01*
X97917333Y18558021D02*
X97758414Y18350914D01*
X81484853Y490255D02*
X80825250Y489813D01*
X18463913Y52715125D02*
X20208626Y53651421D01*
X38689605Y46028415D02*
X38683687Y45783748D01*
X86572773Y100098881D02*
X85307580Y100243314D01*
X56288393Y56300994D02*
X55776442Y56498706D01*
X2784820Y29524089D02*
X3169460Y32600137D01*
X87091439Y91192045D02*
X87011799Y91203964D01*
X75865415Y20827496D02*
X71219724Y24949927D01*
X990278Y11891036D02*
X1304661Y11333690D01*
X97051305Y20058021D02*
X97310127Y20023946D01*
X4107905Y20317387D02*
X6191010Y20307006D01*
X22902996Y53862913D02*
X21546656Y53873818D01*
X43363870Y54707692D02*
X43396187Y54260698D01*
X22447726Y76756809D02*
X19102453Y73107700D01*
X50397188Y63539432D02*
X50215271Y63432746D01*
X50840515Y64279458D02*
X50772338Y64047458D01*
X4099283Y23417469D02*
X2408809Y23425894D01*
X11976419Y55114310D02*
X13817391Y54139503D01*
X52288641Y52251234D02*
X50145634Y54176095D01*
X2396721Y20325916D02*
X2408809Y23425894D01*
X80628261Y2970234D02*
X80791787Y2766745D01*
X72932529Y15394757D02*
X61718711Y25350794D01*
X81202423Y4449416D02*
X80963543Y4344129D01*
X13405805Y57865208D02*
X11911822Y58656283D01*
X60854336Y89334411D02*
X56643520Y88072054D01*
X45953834Y57151456D02*
X45899665Y57523948D01*
X54828990Y38597090D02*
X51482877Y41651739D01*
X10910473Y38532187D02*
X9988108Y34234075D01*
X68399059Y93610757D02*
X71401051Y93976322D01*
X50200031Y92592488D02*
X53099210Y93690110D01*
X448091Y13724068D02*
X559245Y13093896D01*
X31812515Y77090319D02*
X30422110Y78668178D01*
D11*
X96343984Y25422671D02*
X82012547Y39755221D01*
D10*
X6202317Y23406989D02*
X4099283Y23417469D01*
X26015531Y80188664D02*
X22447726Y76756809D01*
X5935486Y38192227D02*
X7955913Y37684971D01*
D11*
X76911933Y21803302D02*
X78538280Y18734460D01*
D10*
X71219724Y24949927D02*
X62857496Y32730857D01*
X50828871Y65520765D02*
X50874437Y65163444D01*
X62595415Y54390706D02*
X66580710Y49884402D01*
X55942184Y97111623D02*
X51252725Y95525482D01*
X50265833Y62430837D02*
X49489202Y62932199D01*
X77120350Y98137987D02*
X77119227Y96426783D01*
X58378665Y39912308D02*
X47127305Y51400940D01*
X96792487Y20023947D02*
X97051305Y20058021D01*
X41380360Y51458086D02*
X40897649Y51418061D01*
X80760054Y4180603D02*
X80605825Y3969983D01*
X99404639Y22129170D02*
X99683801Y21562691D01*
X43199560Y55649190D02*
X43297611Y55171637D01*
X99886565Y20964599D02*
X100009460Y20345143D01*
X56222701Y38214011D02*
X54828990Y38597090D01*
X46400807Y40106278D02*
X46907539Y39555137D01*
X10464138Y55915075D02*
X11911822Y58656283D01*
X80605825Y3969983D02*
X80511359Y3726622D01*
X69989358Y16549499D02*
X71686414Y15149430D01*
X80219241Y96448822D02*
X80220352Y98139317D01*
X41805515Y51551813D02*
X41380360Y51458086D01*
X57665233Y60096454D02*
X55918125Y61543884D01*
X38683687Y45783748D02*
X38647078Y45561923D01*
X98637501Y23129154D02*
X99053869Y22654324D01*
X68150007Y95678946D02*
X68399059Y93610757D01*
X49023056Y83654166D02*
X47829615Y82074179D01*
X99647514Y17557321D02*
X99947462Y18280404D01*
X50928671Y42020314D02*
X50089414Y42792598D01*
X83473885Y28280400D02*
X84612325Y27198528D01*
X99170643Y16936508D02*
X99647514Y17557321D01*
X65573258Y99386066D02*
X60721984Y98400178D01*
X87825274Y99824774D02*
X88418979Y99580028D01*
X96551308Y19924046D02*
X96792487Y20023947D01*
X62422639Y45725790D02*
X60817932Y47720943D01*
X91359345Y90553298D02*
X87091439Y91192045D01*
X50089414Y42792598D02*
X48009777Y44461179D01*
X78977501Y856391D02*
X79575594Y653626D01*
X4816911Y11345015D02*
X6886156Y11585110D01*
X59015061Y38540520D02*
X62915159Y35119444D01*
X67198770Y46261236D02*
X72070783Y41165222D01*
X38229060Y48234152D02*
X38364699Y47873206D01*
X50880259Y64542793D02*
X50840515Y64279458D01*
X88980041Y99267624D02*
X89500783Y98891843D01*
D11*
X84018357Y21244689D02*
X80772736Y25084278D01*
D10*
X19953343Y64267410D02*
X18226532Y65467821D01*
X28112197Y76600601D02*
X29489425Y75037696D01*
X43643550Y85273386D02*
X46389404Y86712241D01*
X3117110Y11147787D02*
X2756472Y14226740D01*
X6667008Y41204775D02*
X5027394Y41616419D01*
X83473885Y28280400D02*
X80152223Y32078895D01*
X53835984Y87054811D02*
X53673110Y86973965D01*
X71401051Y93976322D02*
X71022787Y97751839D01*
X80195046Y530732D02*
X80825250Y489813D01*
X76911933Y21803302D02*
X67882120Y30388569D01*
X50004912Y63357393D02*
X49766122Y63313367D01*
X62340887Y94619660D02*
X61938494Y96261565D01*
X80217866Y94345761D02*
X80219241Y96448822D01*
X26682624Y52468092D02*
X27720899Y51595295D01*
X49489202Y62932199D02*
X49498894Y63300674D01*
X38647078Y45561923D02*
X38579780Y45365426D01*
X2902316Y42783672D02*
X1728801Y37974337D01*
X50891566Y64837453D02*
X50880259Y64542793D01*
X81484853Y490255D02*
X82261059Y592971D01*
X61718711Y25350794D02*
X56662034Y30069955D01*
X88418979Y99580028D02*
X88980041Y99267624D01*
X77411035Y1902691D02*
X77885869Y1486322D01*
X99947462Y18280404D02*
X100050041Y19056481D01*
X60721984Y98400178D02*
X55942184Y97111623D01*
X21546656Y53873818D02*
X20208626Y53651421D01*
X96344201Y19765126D02*
X96551308Y19924046D01*
X6549325Y29049220D02*
X6933191Y32125364D01*
X559245Y13093896D02*
X740743Y12480278D01*
X48639759Y60004103D02*
X48883408Y59655276D01*
X34109590Y83710111D02*
X36663018Y85467960D01*
X43903821Y55036720D02*
X43583519Y55554258D01*
X97758415Y19765127D02*
X97917334Y19558020D01*
X38481778Y45196746D02*
X38353068Y45058366D01*
X87207055Y99998518D02*
X87825274Y99824774D01*
X47026074Y57660889D02*
X46807137Y57585756D01*
X80772736Y25084278D02*
X74903750Y31999782D01*
X16476838Y62908694D02*
X18187284Y61719658D01*
X1679885Y10815346D02*
X2111159Y10342617D01*
X11497322Y48984655D02*
X9533912Y49738239D01*
X41417943Y45276012D02*
X38528705Y48400592D01*
X76473107Y36096053D02*
X80152223Y32078895D01*
X15264391Y56881074D02*
X13405805Y57865208D01*
X96085383Y18799202D02*
X96051306Y19058022D01*
X48142259Y59167143D02*
X48064506Y58890857D01*
X740743Y12480278D02*
X990278Y11891036D01*
X61034882Y44221776D02*
X77039197Y27439420D01*
X43396187Y54260698D02*
X43392415Y53833996D01*
X6847993Y47448640D02*
X8445568Y46835469D01*
X58928397Y95520400D02*
X61938494Y96261565D01*
X10390370Y46089024D02*
X11497322Y48984655D01*
X54863850Y53822104D02*
X57714148Y51284104D01*
X96551308Y18191995D02*
X96344201Y18350914D01*
X20604095Y71244138D02*
X22664185Y73560610D01*
X82205645Y2798476D02*
X82359874Y3009096D01*
X9988108Y34234075D02*
X9337441Y29886531D01*
X38609389Y46576337D02*
X38664838Y46293440D01*
X58769149Y54508416D02*
X57618487Y55416419D01*
X96185283Y19558020D02*
X96344201Y19765126D01*
X97310127Y18092095D02*
X97051307Y18058021D01*
X79575594Y653626D02*
X80195046Y530732D01*
X81460413Y4489289D02*
X81202423Y4449416D01*
X98637501Y23129154D02*
X96343984Y25422671D01*
X45239468Y41806571D02*
X43492351Y43254007D01*
X29791781Y83389723D02*
X26015531Y80188664D01*
X20604095Y71244138D02*
X21881557Y70105578D01*
X6847993Y47448640D02*
X7955672Y50343992D01*
X46316312Y57510923D02*
X45899665Y57523948D01*
X67198770Y46261236D02*
X60801314Y52657262D01*
X47638401Y56272277D02*
X45953834Y57151456D01*
X18187284Y61719658D02*
X19953343Y64267410D01*
X96051306Y19058022D02*
X96085382Y19316840D01*
X859584Y33100804D02*
X298092Y28182311D01*
X4435705Y14421582D02*
X2756472Y14226740D01*
X99683801Y21562691D02*
X99886565Y20964599D01*
X80522974Y3209113D02*
X80628261Y2970234D01*
X48949444Y72817194D02*
X48076648Y73855467D01*
X52062388Y86174457D02*
X50445256Y85031849D01*
X48639759Y60004103D02*
X48269632Y60146871D01*
X80511359Y3726622D02*
X80483099Y3467102D01*
X82442725Y3769967D02*
X82337440Y4008845D01*
X82482598Y3511976D02*
X82442725Y3769967D01*
X33761576Y86347352D02*
X29791781Y83389723D01*
X42679137Y87119827D02*
X43643550Y85273386D01*
X50652440Y66329393D02*
X50754875Y65909414D01*
X2784820Y29524089D02*
X4482574Y29309927D01*
X9035914Y16719436D02*
X9486883Y12346663D01*
X38364699Y47873206D02*
X38469966Y47524642D01*
X59831572Y91835123D02*
X62841484Y92577047D01*
X81963294Y4366566D02*
X81719931Y4461028D01*
X50675723Y63846785D02*
X50550674Y63677442D01*
X60879867Y56459574D02*
X57665233Y60096454D01*
X43297611Y55171637D02*
X43363870Y54707692D01*
D11*
X48949444Y72817194D02*
X82012547Y39755221D01*
D10*
X29489425Y75037696D02*
X31812515Y77090319D01*
X16883925Y51521684D02*
X18463913Y52715125D01*
X96344201Y18350914D02*
X96185282Y18558021D01*
X19102453Y73107700D02*
X15992909Y69255741D01*
X52611281Y64617304D02*
X51919071Y65341309D01*
X53696055Y92108479D02*
X53099210Y93690110D01*
X86113305Y96091041D02*
X85861547Y94023179D01*
D11*
X83707231Y20283024D02*
X84018357Y21244689D01*
D10*
X99889171Y88440509D02*
X95657457Y89630935D01*
X37782637Y44849901D02*
X37854700Y44476498D01*
X81763276Y2529664D02*
X82002155Y2634951D01*
X47577005Y58037152D02*
X47411009Y57886587D01*
X67945422Y97377878D02*
X68150007Y95678946D01*
X82359874Y3009096D02*
X82454337Y3252458D01*
X18226532Y65467821D02*
X16838476Y66432747D01*
X86320117Y97789702D02*
X86113305Y96091041D01*
X43903821Y55036720D02*
X47127305Y51400940D01*
X13483281Y46708754D02*
X12100897Y42763900D01*
X80363537Y100494866D02*
X75413452Y100435478D01*
X46807137Y57585756D02*
X46570549Y57535769D01*
X97051307Y18058021D02*
X96792489Y18092095D01*
X23436670Y68719559D02*
X25496181Y71036547D01*
X51472295Y61415346D02*
X53754719Y59056715D01*
X46400807Y40106278D02*
X45239468Y41806571D01*
X95657457Y89630935D02*
X91359345Y90553298D01*
X54438555Y90140852D02*
X53696055Y92108479D01*
X84633537Y28577385D02*
X83735515Y29630974D01*
X46389404Y86712241D02*
X45415761Y88576346D01*
X48064506Y58890857D02*
X47969100Y58639715D01*
X298092Y28182311D02*
X46541Y23238267D01*
X6933191Y32125364D02*
X4846665Y32388568D01*
X82631980Y91580358D02*
X78237165Y91681002D01*
X51539653Y89042500D02*
X54438555Y90140852D01*
X42175264Y51695903D02*
X41805515Y51551813D01*
X48076648Y73855467D02*
X47395310Y75028311D01*
X42573107Y49218907D02*
X39982318Y51116818D01*
X10211530Y8010836D02*
X11206997Y3729066D01*
X98017232Y19316838D02*
X98051306Y19058020D01*
X46925708Y76300812D02*
X46681828Y77635094D01*
X43350413Y53430928D02*
X43268027Y53054833D01*
X75413452Y100435478D02*
X70476866Y100065391D01*
X6886156Y11585110D02*
X6524747Y14663975D01*
X37854700Y44476498D02*
X40283668Y42746848D01*
X41886912Y88636600D02*
X44633125Y90074765D01*
X58928397Y95520400D02*
X59335720Y93858378D01*
X82102097Y21421466D02*
X77039197Y27439420D01*
X78411023Y1135552D02*
X78977501Y856391D01*
X60879867Y56459574D02*
X62595415Y54390706D01*
M02*
