M48
; DRILL file {KiCad 7.0.1} date Sun Apr 30 23:13:55 2023
; FORMAT={-:-/ absolute / inch / decimal}
; #@! TF.CreationDate,2023-04-30T23:13:55+02:00
; #@! TF.GenerationSoftware,Kicad,Pcbnew,7.0.1
; #@! TF.FileFunction,Plated,1,2,PTH
FMAT,2
INCH
; #@! TA.AperFunction,Plated,PTH,ViaDrill
T1C0.0118
; #@! TA.AperFunction,Plated,PTH,ComponentDrill
T2C0.0118
; #@! TA.AperFunction,Plated,PTH,ViaDrill
T3C0.0157
; #@! TA.AperFunction,Plated,PTH,ComponentDrill
T4C0.0197
; #@! TA.AperFunction,Plated,PTH,ComponentDrill
T5C0.0236
; #@! TA.AperFunction,Plated,PTH,ViaDrill
T6C0.0295
; #@! TA.AperFunction,Plated,PTH,ComponentDrill
T7C0.0394
%
G90
G05
T1
X1.1984Y2.2126
X1.3661Y2.498
X2.1796Y1.0415
X2.9335Y0.7709
X3.0109Y1.6156
X3.0547Y0.611
T2
X0.1066Y0.7582
X0.1081Y0.9669
X0.1162Y0.6059
X0.1166Y1.1185
X0.1398Y0.3985
X0.1431Y1.3255
X0.1479Y0.7579
X0.1494Y0.9666
X0.1573Y0.6105
X0.1576Y1.1133
X0.1701Y1.4755
X0.1809Y0.4032
X0.1841Y1.3202
X0.1893Y0.7576
X0.1907Y0.9663
X0.1984Y0.6152
X0.1986Y1.108
X0.2102Y1.4653
X0.2213Y1.6778
X0.222Y0.4079
X0.2251Y1.315
X0.2345Y0.7573
X0.236Y0.966
X0.2434Y0.6203
X0.2435Y1.1023
X0.2502Y1.4552
X0.2614Y1.6676
X0.2665Y1.8232
X0.267Y0.413
X0.27Y1.3092
X0.2941Y1.4441
X0.3014Y1.6575
X0.305Y1.8084
X0.3416Y2.0179
X0.3436Y1.7935
X0.3453Y1.6464
X0.3801Y2.003
X0.3858Y1.7772
X0.4029Y2.1576
X0.4187Y1.9882
X0.4394Y2.1382
X0.4609Y1.9719
X0.4759Y2.1188
X0.5009Y2.3418
X0.5159Y2.0975
X0.5374Y2.3224
X0.5739Y2.303
X0.5792Y2.473
X0.6131Y2.4494
X0.6138Y2.2818
X0.647Y2.4257
X0.6841Y2.3998
X0.6986Y2.6442
X0.7325Y2.6205
X0.7664Y2.5969
X0.7917Y2.7651
X0.8035Y2.5709
X0.8225Y2.7376
X0.8534Y2.71
X0.8871Y2.6799
X0.9308Y2.9207
X0.9616Y2.8931
X0.9924Y2.8656
X1.0262Y2.8354
X1.0381Y3.029
X1.0654Y2.998
X1.0927Y2.9669
X1.1226Y2.9329
X1.1949Y3.1668
X1.2222Y3.1357
X1.2495Y3.1047
X1.2794Y3.0706
X1.3146Y3.2621
X1.338Y3.228
X1.3613Y3.1938
X1.3869Y3.1565
X1.4868Y3.38
X1.5101Y3.3458
X1.5335Y3.3117
X1.5591Y3.2744
X1.617Y3.4601
X1.6361Y3.4235
X1.6552Y3.3868
X1.6761Y3.3466
X1.8021Y3.5565
X1.8212Y3.5198
X1.8403Y3.4831
X1.8612Y3.443
X1.9411Y3.62
X1.9556Y3.5813
X1.9702Y3.5426
X1.9861Y3.5002
X2.1364Y3.6934
X2.1509Y3.6547
X2.1655Y3.616
X2.1814Y3.5737
X2.2809Y3.7394
X2.2907Y3.6992
X2.3005Y3.6591
X2.3112Y3.6151
X2.4836Y3.7888
X2.4934Y3.7486
X2.5032Y3.7085
X2.5139Y3.6645
X2.6346Y3.818
X2.6395Y3.777
X2.6444Y3.7359
X2.6497Y3.691
X2.8418Y3.8427
X2.8467Y3.8017
X2.8516Y3.7606
X2.8569Y3.7157
X2.9936Y3.7246
X2.9937Y3.7699
X2.9938Y3.8112
X2.9939Y3.8526
X3.2023Y3.7243
X3.2024Y3.7695
X3.2025Y3.8109
X3.2025Y3.8522
X3.3392Y3.717
X3.3448Y3.762
X3.3498Y3.803
X3.3548Y3.844
X3.5463Y3.6916
X3.5519Y3.7365
X3.5569Y3.7776
X3.5619Y3.8186
T3
X0.1261Y0.718
X0.1323Y0.6464
X0.1652Y1.3635
X0.1777Y1.4343
X0.3752Y2.0458
X0.4033Y2.1119
X0.431Y1.9588
X0.4582Y2.011
X0.5146Y2.0103
X0.5939Y2.1445
X0.6086Y2.1052
X0.637Y2.311
X0.7377Y2.6647
X0.7449Y2.3312
X0.7819Y2.7213
X0.811Y2.613
X0.8458Y2.2595
X0.8827Y2.1947
X1.0233Y2.1251
X1.0351Y2.8789
X1.1053Y2.1529
X1.1318Y2.1264
X1.2196Y2.5845
X1.2388Y3.1763
X1.253Y2.5761
X1.2913Y3.1141
X1.2955Y3.2205
X1.3476Y2.7919
X1.3532Y2.8587
X1.4743Y2.8893
X1.4903Y2.9777
X1.6051Y2.9046
X1.624Y2.9298
X1.6539Y3.0452
X1.6736Y2.9544
X1.6914Y2.8587
X1.7729Y3.3619
X1.7896Y2.9638
X1.8146Y3.3535
X1.8465Y3.5552
X1.8773Y3.4746
X1.9117Y3.5855
X2.1298Y1.1387
X2.2113Y3.6097
X2.2804Y1.0059
X2.4811Y0.8185
X2.5274Y3.778
X2.5426Y3.696
X2.5982Y3.7905
X2.6559Y0.6415
X2.8878Y3.7419
X2.8947Y0.4408
X2.9589Y0.2186
X2.9772Y0.4071
X3.0121Y0.2715
X3.0234Y0.4686
X3.0663Y0.318
X3.0721Y0.5126
X3.0966Y1.4908
X3.1094Y0.5499
X3.1194Y0.3725
X3.1651Y0.4213
X3.1996Y0.2651
X3.2184Y0.4759
X3.2344Y3.7461
X3.2416Y3.8301
X3.2575Y0.6874
X3.2686Y0.5262
X3.2745Y0.7161
X3.2831Y1.3054
X3.3132Y3.8238
X3.3135Y0.7461
X3.3237Y0.5807
X3.3739Y0.6309
X3.4012Y0.8411
X3.4059Y1.0596
X3.428Y0.6839
X3.4393Y0.8753
X3.4627Y0.9789
X3.4789Y0.7348
X3.5235Y1.059
X3.533Y0.7887
X3.5465Y0.973
X3.5831Y3.7106
X3.5839Y0.8396
X3.6349Y0.8906
X3.6886Y0.9426
X3.7408Y0.9965
T6
X0.055Y1.0749
X0.0792Y0.482
X0.1359Y1.0735
X0.1861Y0.3567
X0.1922Y1.7966
X0.2814Y1.7702
X0.5049Y2.4723
X0.573Y2.4293
X0.6897Y2.0816
X0.9602Y3.0429
X1.0163Y2.9854
X1.5465Y3.4936
X1.5863Y3.4231
X1.7151Y3.041
X1.8056Y3.0814
X1.8536Y3.2839
X2.2329Y3.7343
X2.9546Y3.8546
X3.0393Y0.4006
X3.1404Y0.5017
T4
G00X0.7976Y2.3572
M15
G01X0.8032Y2.3516
M16
G05
G00X0.8344Y2.4051
M15
G01X0.8399Y2.3995
M16
G05
G00X0.8711Y2.4529
M15
G01X0.8767Y2.4474
M16
G05
G00X0.9078Y2.5008
M15
G01X0.9134Y2.4953
M16
G05
G00X0.946Y2.5473
M15
G01X0.9516Y2.5417
M16
G05
G00X0.9841Y2.5938
M15
G01X0.9897Y2.5882
M16
G05
G00X1.0223Y2.6403
M15
G01X1.0278Y2.6347
M16
G05
G00X1.0618Y2.6854
M15
G01X1.0674Y2.6798
M16
G05
G00X1.1027Y2.7291
M15
G01X1.1083Y2.7235
M16
G05
G00X1.1436Y2.7728
M15
G01X1.1492Y2.7672
M16
G05
G00X1.186Y2.8151
M15
G01X1.1915Y2.8096
M16
G05
G00X1.2297Y2.856
M15
G01X1.2352Y2.8505
M16
G05
G00X1.2734Y2.897
M15
G01X1.2789Y2.8914
M16
G05
G00X1.3171Y2.9379
M15
G01X1.3226Y2.9323
M16
G05
G00X1.3622Y2.9774
M15
G01X1.3677Y2.9719
M16
G05
G00X1.4087Y3.0156
M15
G01X1.4142Y3.01
M16
G05
G00X1.4552Y3.0537
M15
G01X1.4607Y3.0481
M16
G05
G00X1.503Y3.0904
M15
G01X1.5086Y3.0849
M16
G05
G00X1.5509Y3.1272
M15
G01X1.5565Y3.1216
M16
G05
G00X1.6002Y3.1626
M15
G01X1.6058Y3.157
M16
G05
G00X3.0137Y0.1666
M15
G01X3.0555Y0.2084
M16
G05
G00X3.0555Y0.1249
M15
G01X3.0972Y0.1666
M16
G05
G00X3.7479Y0.904
M15
G01X3.7896Y0.9458
M16
G05
G00X3.7896Y0.8623
M15
G01X3.8314Y0.904
M16
G05
T5
G00X3.3297Y0.246
M15
G01X3.3686Y0.207
M16
G05
G00X3.3645Y0.2808
M15
G01X3.4034Y0.2418
M16
G05
G00X3.3993Y0.3156
M15
G01X3.4382Y0.2766
M16
G05
G00X3.4341Y0.3504
M15
G01X3.473Y0.3114
M16
G05
G00X3.4689Y0.3852
M15
G01X3.5078Y0.3462
M16
G05
G00X3.5037Y0.42
M15
G01X3.5426Y0.381
M16
G05
G00X3.5385Y0.4548
M15
G01X3.5774Y0.4158
M16
G05
G00X3.5733Y0.4896
M15
G01X3.6122Y0.4506
M16
G05
G00X3.6081Y0.5244
M15
G01X3.647Y0.4854
M16
G05
G00X3.6429Y0.5592
M15
G01X3.6818Y0.5202
M16
G05
G00X3.6777Y0.594
M15
G01X3.7166Y0.555
M16
G05
G00X3.7125Y0.6288
M15
G01X3.7514Y0.5898
M16
G05
T7
G00X3.3229Y0.1708
M15
G01X3.295Y0.1986
M16
G05
G00X3.7898Y0.6381
M15
G01X3.7619Y0.6659
M16
G05
T0
M30
