G04 #@! TF.GenerationSoftware,KiCad,Pcbnew,(5.0.2)-1*
G04 #@! TF.CreationDate,2019-06-28T15:12:06+02:00*
G04 #@! TF.ProjectId,PCB_Fujitora,5043425f-4675-46a6-9974-6f72612e6b69,rev?*
G04 #@! TF.SameCoordinates,PX5b263a8PY821ca98*
G04 #@! TF.FileFunction,Profile,NP*
%FSLAX46Y46*%
G04 Gerber Fmt 4.6, Leading zero omitted, Abs format (unit mm)*
G04 Created by KiCad (PCBNEW (5.0.2)-1) date 28/06/2019 15:12:06*
%MOMM*%
%LPD*%
G01*
G04 APERTURE LIST*
%ADD10C,0.200000*%
G04 APERTURE END LIST*
D10*
X4318000Y25527000D02*
G75*
G02X5588000Y26797000I1270000J0D01*
G01*
X5715000Y42799000D02*
G75*
G02X4318000Y44196000I0J1397000D01*
G01*
X93599000Y26797000D02*
G75*
G02X94869000Y25527000I0J-1270000D01*
G01*
X94869000Y44069000D02*
G75*
G02X93599000Y42799000I-1270000J0D01*
G01*
X17043194Y33832800D02*
X17043194Y26787835D01*
X17045734Y42766975D02*
X17043194Y35712400D01*
X5588000Y26797000D02*
X17043194Y26787835D01*
X17045734Y42766975D02*
X5715000Y42799000D01*
X52244673Y52735480D02*
G75*
G03X52244673Y52735480I-2643553J0D01*
G01*
X46460800Y57898634D02*
X42285920Y62082680D01*
X57017705Y43286523D02*
G75*
G02X56763920Y41813480I-840554J-613567D01*
G01*
X60629841Y45772751D02*
G75*
G02X58948320Y45572680I-919522J561928D01*
G01*
X59053357Y59996443D02*
G75*
G02X60573920Y59847480I699091J-699092D01*
G01*
X56866366Y63556755D02*
G75*
G02X56916320Y62082680I-737446J-762875D01*
G01*
X42279927Y62075439D02*
G75*
G02X42336720Y63606680I615592J743842D01*
G01*
X38531076Y59642043D02*
G75*
G02X40304720Y59796680I935444J-480363D01*
G01*
X39999206Y45370510D02*
G75*
G02X38628320Y45623480I-560043J806047D01*
G01*
X42236912Y41967401D02*
G75*
G02X42336720Y43489880I836408J709679D01*
G01*
X8605520Y35712400D02*
X8605520Y41635680D01*
X82138520Y35763200D02*
X82138520Y42768520D01*
X90520520Y41457880D02*
X90520520Y35763200D01*
X90520520Y33832800D02*
X90520520Y27678380D01*
X97505520Y27678380D02*
X90520520Y27678380D01*
X97505520Y41457880D02*
X97505520Y27678380D01*
X90520520Y41457880D02*
X97505520Y41457880D01*
X82143600Y33832800D02*
X90525600Y33832800D01*
X82138520Y35763200D02*
X90525600Y35763200D01*
X17051020Y35712400D02*
X8585200Y35712400D01*
X17051020Y33832800D02*
X8585200Y33832800D01*
X1620520Y27856180D02*
X1620520Y41635680D01*
X8605520Y27856180D02*
X1620520Y27856180D01*
X8605520Y33832800D02*
X8605520Y27856180D01*
X1620520Y41635680D02*
X8605520Y41635680D01*
X44339480Y49693103D02*
X44588714Y50271119D01*
X62126337Y56508909D02*
X62436321Y55271383D01*
X61151089Y58863366D02*
X60573920Y59847480D01*
X62126337Y56508909D02*
X61696546Y57710093D01*
X45011017Y53364025D02*
X45039480Y52735208D01*
X54404310Y50869288D02*
X54263157Y51482718D01*
X61696546Y57710093D02*
X61151089Y58863366D01*
X35844508Y6800630D02*
X35844508Y28300630D01*
X63344508Y6800630D02*
X63344508Y28300630D01*
X43374748Y64200185D02*
X42336720Y63606680D01*
X45729205Y65175433D02*
X44528021Y64745642D01*
X48228683Y65672610D02*
X49079542Y65712441D01*
X49079542Y65712441D02*
X49502905Y65735208D01*
X55814270Y64200185D02*
X54756518Y64678135D01*
X43374748Y64200185D02*
X44528021Y64745642D01*
X52728218Y57898634D02*
X52150202Y57649400D01*
X49686113Y57198634D02*
X49594604Y57202785D01*
X52150202Y57649400D02*
X51552033Y57453406D01*
X51552033Y57453406D02*
X50938603Y57312253D01*
X50938603Y57312253D02*
X50314929Y57227097D01*
X50314929Y57227097D02*
X49686113Y57198634D01*
X56865520Y63555880D02*
X55814270Y64200185D01*
X52222287Y65485417D02*
X50960335Y65672610D01*
X53459813Y65175433D02*
X52222287Y65485417D01*
X49686113Y65735208D02*
X49594587Y65730704D01*
X54660997Y64745642D02*
X53459813Y65175433D01*
X49686113Y39735208D02*
X50960335Y39797807D01*
X53459813Y40294984D02*
X54660997Y40724775D01*
X44925861Y53987699D02*
X44784708Y54601128D01*
X37062681Y48961508D02*
X36752697Y50199034D01*
X44925861Y51482718D02*
X45011017Y52106392D01*
X36565504Y51460986D02*
X36518298Y52525904D01*
X50960335Y39797807D02*
X52222287Y39985000D01*
X48874089Y48243320D02*
X48250415Y48158164D01*
X49502905Y39735208D02*
X48228683Y39797807D01*
X38628320Y45623480D02*
X38037929Y46607051D01*
X37492472Y47760324D02*
X37320787Y48232934D01*
X36642935Y50907296D02*
X36565504Y51460986D01*
X37062681Y56508909D02*
X37492472Y57710093D01*
X44588714Y55199298D02*
X44339480Y55777314D01*
X44528021Y40724775D02*
X43374748Y41270232D01*
X54660997Y40724775D02*
X55814270Y41270232D01*
X55814270Y41270232D02*
X56763920Y41813480D01*
X47038816Y47821017D02*
X46460800Y47571783D01*
X36752697Y50199034D02*
X36642935Y50907296D01*
X38037929Y58863366D02*
X38312123Y59306955D01*
X38312123Y59306955D02*
X38526720Y59644280D01*
X47636986Y48017011D02*
X47038816Y47821017D01*
X45011017Y52106392D02*
X45039480Y52735208D01*
X44784708Y50869288D02*
X44925861Y51482718D01*
X43374748Y41270232D02*
X42235120Y41965880D01*
X44588714Y50271119D02*
X44784708Y50869288D01*
X36502905Y52735208D02*
X36565504Y54009431D01*
X36565504Y54009431D02*
X36752697Y55271383D01*
X45011017Y53364025D02*
X44925861Y53987699D01*
X37320787Y48232934D02*
X37062681Y48961508D01*
X49594641Y39739715D02*
X49686113Y39735208D01*
X44784708Y54601128D02*
X44588714Y55199298D01*
X44339480Y49693103D02*
X39999920Y45369480D01*
X44339480Y55777314D02*
X40304720Y59796680D01*
X37492472Y57710093D02*
X38037929Y58863366D01*
X38037929Y46607051D02*
X37492472Y47760324D01*
X36518298Y52525904D02*
X36502905Y52735208D01*
X36752697Y55271383D02*
X37062681Y56508909D01*
X49686113Y48271783D02*
X50314929Y48243320D01*
X50314929Y48243320D02*
X50938603Y48158164D01*
X51552033Y48017011D02*
X52150202Y47821017D01*
X52728218Y47571783D02*
X57017920Y43286680D01*
X49594623Y48267631D02*
X49502905Y48271783D01*
X7817429Y310422D02*
X91371589Y310422D01*
X4394008Y6063944D02*
X4455297Y5407008D01*
X4315208Y8273622D02*
X4323963Y7497251D01*
X4350230Y6760692D02*
X4394008Y6063944D01*
X4323963Y7497251D02*
X4350230Y6760692D01*
X5576008Y1584741D02*
X5794896Y1286110D01*
X4455297Y5407008D02*
X4534097Y4789884D01*
X5794896Y1286110D02*
X6031296Y1027291D01*
X4534097Y4789884D02*
X4630408Y4212571D01*
X4744230Y3675070D02*
X4875563Y3177381D01*
X4630408Y4212571D02*
X4744230Y3675070D01*
X6556629Y629088D02*
X6845563Y489704D01*
X4875563Y3177381D02*
X5024408Y2719504D01*
X6285207Y808284D02*
X6556629Y629088D01*
X5024408Y2719504D02*
X5190763Y2301438D01*
X6031296Y1027291D02*
X6285207Y808284D01*
X6845563Y489704D02*
X7152007Y390131D01*
X93157722Y1027291D02*
X92903811Y808284D01*
X93394122Y1286110D02*
X93157722Y1027291D01*
X93814388Y1923184D02*
X93613010Y1584741D01*
X94313455Y3177381D02*
X94164610Y2719504D01*
X93613010Y1584741D02*
X93394122Y1286110D01*
X93998255Y2301438D02*
X93814388Y1923184D01*
X94164610Y2719504D02*
X93998255Y2301438D01*
X94444788Y3675070D02*
X94313455Y3177381D01*
X94733721Y5407008D02*
X94654921Y4789884D01*
X94558610Y4212571D02*
X94444788Y3675070D01*
X94654921Y4789884D02*
X94558610Y4212571D01*
X94795010Y6063944D02*
X94733721Y5407008D01*
X94838788Y6760692D02*
X94795010Y6063944D01*
X94873810Y8273622D02*
X94865055Y7497251D01*
X94865055Y7497251D02*
X94838788Y6760692D01*
X94869000Y25527000D02*
X94873810Y8273622D01*
X82135980Y26789380D02*
X93599000Y26797000D01*
X82135980Y26789380D02*
X82138520Y33832800D01*
X4318000Y25527000D02*
X4315208Y8273622D01*
X93599000Y42799000D02*
X82138520Y42768520D01*
X54756518Y64678135D02*
X54660997Y64745642D01*
X46966731Y65485417D02*
X48228683Y65672610D01*
X50960335Y65672610D02*
X49686113Y65735208D01*
X91713056Y330371D02*
X91371589Y310422D01*
X52150202Y47821017D02*
X52728218Y47571783D01*
X52728218Y57898634D02*
X56916320Y62082680D01*
X92037011Y390131D02*
X91713056Y330371D01*
X45729205Y65175433D02*
X46966731Y65485417D01*
X62251045Y49558755D02*
X62436321Y50199034D01*
X49502905Y65735208D02*
X49594587Y65730704D01*
X45993997Y27800630D02*
X47993997Y27800630D01*
X35946731Y29077088D02*
X35844508Y28300630D01*
X45993997Y27800630D02*
X45993997Y31242000D01*
X35946731Y6024173D02*
X35844508Y6800630D01*
X63242286Y6024173D02*
X63344508Y6800630D01*
X36246432Y5300630D02*
X35946731Y6024173D01*
X38844508Y3800630D02*
X38068051Y3902853D01*
X38068051Y3902853D02*
X37344508Y4202554D01*
X60344508Y3800630D02*
X61120965Y3902853D01*
X45993997Y31242000D02*
X38844508Y31242000D01*
X62465828Y4679310D02*
X62942584Y5300630D01*
X1212712Y67086175D02*
X243894Y67660921D01*
X-190082Y67906499D02*
X-190130Y73355172D01*
X96204834Y75263597D02*
X96614481Y75375290D01*
X37344508Y4202554D02*
X36723188Y4679310D01*
X62942584Y29800630D02*
X62465828Y30421951D01*
X62465828Y30421951D02*
X61844508Y30898707D01*
X92742200Y73258277D02*
X92388426Y73035502D01*
X51489186Y31300630D02*
X47993997Y31300630D01*
X51489186Y27800630D02*
X53489186Y27800630D01*
X61844508Y30898707D02*
X61120965Y31198408D01*
X47993997Y27800630D02*
X47993997Y31300630D01*
X38068051Y31198408D02*
X37344508Y30898707D01*
X53489186Y27800630D02*
X53489186Y31242000D01*
X69811281Y91322921D02*
X69129374Y91987228D01*
X72145505Y89255277D02*
X71319303Y89957470D01*
X99119789Y74160308D02*
X99285730Y73769477D01*
X2151640Y75411946D02*
X1728863Y75372651D01*
X71319303Y89957470D02*
X70541243Y90646509D01*
X6446922Y73258331D02*
X6800697Y73035555D01*
X94869000Y44069000D02*
X94879277Y65142766D01*
X98886760Y74515248D02*
X99119789Y74160308D01*
X2574643Y75375157D02*
X2151640Y75411946D01*
X96020212Y75196909D02*
X94934116Y74582208D01*
X302364Y74515116D02*
X69335Y74160175D01*
X1728863Y75372651D02*
X1319886Y75258532D01*
X37344508Y30898707D02*
X36723188Y30421951D01*
X36723188Y30421951D02*
X36246432Y29800630D01*
X61844508Y4202554D02*
X62465828Y4679310D01*
X2984290Y75263465D02*
X2574643Y75375157D01*
X98251282Y75073387D02*
X98594126Y74822901D01*
X38811200Y31242000D02*
X38068051Y31198408D01*
X61120965Y31198408D02*
X60350400Y31242000D01*
X594998Y74822768D02*
X302364Y74515116D01*
X63242286Y29077088D02*
X62942584Y29800630D01*
X1319886Y75258532D02*
X937842Y75073255D01*
X69335Y74160175D02*
X-96606Y73769344D01*
X937842Y75073255D02*
X594998Y74822768D01*
X96968091Y66466294D02*
X95920903Y65806866D01*
X36246432Y29800630D02*
X35946731Y29077088D01*
X97460261Y75372783D02*
X97869238Y75258665D01*
X-96606Y73769344D02*
X-190130Y73355172D01*
X63344508Y28300630D02*
X63242286Y29077088D01*
X60344508Y31242000D02*
X53489186Y31242000D01*
X38844508Y3800630D02*
X60344508Y3800630D01*
X96020212Y75196909D02*
X96204834Y75263597D01*
X96968091Y66466294D02*
X97976411Y67086121D01*
X61120965Y3902853D02*
X61844508Y4202554D01*
X36723188Y4679310D02*
X36246432Y5300630D01*
X62942584Y5300630D02*
X63242286Y6024173D01*
X94934116Y74582208D02*
X93840967Y73933703D01*
X51489186Y27800630D02*
X51489186Y31300630D01*
X243894Y67660921D02*
X-190082Y67906499D01*
X66439168Y95145565D02*
X66044691Y95748263D01*
X68495480Y92639957D02*
X67909555Y93281630D01*
X30060751Y91987229D02*
X30694646Y92639957D01*
X33492156Y96342529D02*
X33791167Y96928887D01*
X33145434Y95748263D02*
X33492156Y96342529D01*
X87934587Y77859309D02*
X86217560Y79205571D01*
X78228900Y84621388D02*
X76084245Y86141290D01*
X2221032Y66466348D02*
X3268220Y65806919D01*
X69129374Y91987228D02*
X68495480Y92639957D01*
X4318000Y44196000D02*
X4309817Y65142766D01*
X4255007Y74582262D02*
X5348156Y73933756D01*
X67371557Y93912773D02*
X66881442Y94533910D01*
X4309817Y65142766D02*
X3268220Y65806919D01*
X64679175Y99205727D02*
X64618079Y99760412D01*
X94879277Y65142766D02*
X95920903Y65806866D01*
X34042508Y97507861D02*
X34246224Y98079976D01*
X8306908Y75028337D02*
X9693736Y76471310D01*
X5348156Y73933756D02*
X6446922Y73258331D01*
X32750958Y95145565D02*
X33145434Y95748263D01*
X14824611Y80528558D02*
X16791013Y81851960D01*
X20960188Y84621412D02*
X23104844Y86141314D01*
X18845470Y83204816D02*
X20960188Y84621412D01*
X93840967Y73933703D02*
X92742200Y73258277D01*
X89495352Y76471286D02*
X87934587Y77859309D01*
X32308684Y94533910D02*
X32750958Y95145565D01*
X9693736Y76471310D02*
X11254502Y77859333D01*
X27870822Y89957470D02*
X28648883Y90646510D01*
X97037484Y75412079D02*
X97460261Y75372783D01*
X65398959Y96928887D02*
X65147618Y97507861D01*
X3168699Y75197010D02*
X4255007Y74582262D01*
X65697969Y96342529D02*
X65398959Y96928887D01*
X73019891Y88539407D02*
X72145505Y89255277D01*
X84364478Y80528534D02*
X82398076Y81851936D01*
X2221032Y66466348D02*
X1212712Y67086175D01*
X27044621Y89255277D02*
X27870822Y89957470D01*
X65147618Y97507861D02*
X64943902Y98079976D01*
X30694646Y92639957D02*
X31280570Y93281630D01*
X97976411Y67086121D02*
X98945229Y67660868D01*
X80343619Y83204792D02*
X78228900Y84621388D01*
X64943902Y98079976D02*
X64787769Y98645757D01*
X76084245Y86141290D02*
X73942504Y87809335D01*
X25246584Y87809359D02*
X26170235Y88539407D01*
X34246224Y98079976D02*
X34402357Y98645757D01*
X73942504Y87809335D02*
X73019891Y88539407D01*
X2984290Y75263465D02*
X3168699Y75197010D01*
X28648883Y90646510D02*
X29378845Y91322921D01*
X29378845Y91322921D02*
X30060751Y91987229D01*
X96614481Y75375290D02*
X97037484Y75412079D01*
X98594126Y74822901D02*
X98886760Y74515248D01*
X99285730Y73769477D02*
X99379254Y73355305D01*
X33791167Y96928887D02*
X34042508Y97507861D01*
X97869238Y75258665D02*
X98251282Y75073387D01*
X64787769Y98645757D02*
X64679175Y99205727D01*
X70541243Y90646509D02*
X69811281Y91322921D01*
X66044691Y95748263D02*
X65697969Y96342529D01*
X99378989Y67906364D02*
X99379254Y73355305D01*
X98945229Y67660868D02*
X99378989Y67906364D01*
X48874089Y57227097D02*
X49502905Y57198634D01*
X92388426Y73035502D02*
X92079924Y73522478D01*
X54600304Y50271119D02*
X54404310Y50869288D01*
X34572047Y99760412D02*
X34585695Y100310406D01*
X62686113Y52735208D02*
X62623514Y54009431D01*
X6800697Y73035555D02*
X7109164Y73522502D01*
X16791013Y81851960D02*
X18845470Y83204816D01*
X31280570Y93281630D02*
X31818569Y93912773D01*
X54849538Y49693103D02*
X58948320Y45572680D01*
X67909555Y93281630D02*
X67371557Y93912773D01*
X64618079Y99760412D02*
X64604437Y100310336D01*
X66881442Y94533910D02*
X66439168Y95145565D01*
X86217560Y79205571D02*
X84364478Y80528534D01*
X92079924Y73522478D02*
X90882180Y75028313D01*
X62623514Y51460986D02*
X62686113Y52735208D01*
X61752970Y47885469D02*
X62126337Y48961508D01*
X54263157Y53987699D02*
X54404310Y54601128D01*
X46460800Y57898634D02*
X47038816Y57649400D01*
X54849538Y49693103D02*
X54600304Y50271119D01*
X47038816Y57649400D02*
X47636986Y57453406D01*
X34585695Y100310406D02*
X64604437Y100310336D01*
X34402357Y98645757D02*
X34510950Y99205727D01*
X61151089Y46607051D02*
X61696546Y47760324D01*
X54600304Y55199298D02*
X54849538Y55777314D01*
X60624720Y45775880D02*
X61151089Y46607051D01*
X12971529Y79205595D02*
X14824611Y80528558D01*
X34510950Y99205727D02*
X34572047Y99760412D01*
X54149538Y52735208D02*
X54178001Y53364025D01*
X23104844Y86141314D02*
X25246584Y87809359D01*
X26170235Y88539407D02*
X27044621Y89255277D01*
X7109164Y73522502D02*
X8306908Y75028337D01*
X11254502Y77859333D02*
X12971529Y79205595D01*
X90882180Y75028313D02*
X89495352Y76471286D01*
X82398076Y81851936D02*
X80343619Y83204792D01*
X31818569Y93912773D02*
X32308684Y94533910D01*
X48250415Y57312253D02*
X48874089Y57227097D01*
X47636986Y57453406D02*
X48250415Y57312253D01*
X54178001Y52106392D02*
X54149538Y52735208D01*
X92632389Y629088D02*
X92343455Y489704D01*
X49594623Y48267631D02*
X49686113Y48271783D01*
X45729205Y40294984D02*
X44528021Y40724775D01*
X5374630Y1923184D02*
X5576008Y1584741D01*
X54404310Y54601128D02*
X54600304Y55199298D01*
X49502905Y57198634D02*
X49594604Y57202785D01*
X48250415Y48158164D02*
X47636986Y48017011D01*
X46966731Y39985000D02*
X45729205Y40294984D01*
X49594641Y39739715D02*
X49502905Y39735208D01*
X50938603Y48158164D02*
X51552033Y48017011D01*
X54263157Y51482718D02*
X54178001Y52106392D01*
X62126337Y48961508D02*
X62251045Y49558755D01*
X62623514Y54009431D02*
X62436321Y55271383D01*
X49502905Y48271783D02*
X48874089Y48243320D01*
X52222287Y39985000D02*
X53459813Y40294984D01*
X62436321Y50199034D02*
X62623514Y51460986D01*
X54849538Y55777314D02*
X59049920Y59999880D01*
X7475963Y330371D02*
X7817429Y310422D01*
X92343455Y489704D02*
X92037011Y390131D01*
X61696546Y47760324D02*
X61752970Y47885469D01*
X46460800Y47571783D02*
X42336720Y43489880D01*
X54178001Y53364025D02*
X54263157Y53987699D01*
X48228683Y39797807D02*
X46966731Y39985000D01*
X5190763Y2301438D02*
X5374630Y1923184D01*
X92903811Y808284D02*
X92632389Y629088D01*
X7152007Y390131D02*
X7475963Y330371D01*
M02*
