G04 #@! TF.GenerationSoftware,KiCad,Pcbnew,(5.0.2)-1*
G04 #@! TF.CreationDate,2019-06-28T15:12:05+02:00*
G04 #@! TF.ProjectId,PCB_Fujitora,5043425f-4675-46a6-9974-6f72612e6b69,rev?*
G04 #@! TF.SameCoordinates,PX5b263a8PY821ca98*
G04 #@! TF.FileFunction,Soldermask,Top*
G04 #@! TF.FilePolarity,Negative*
%FSLAX46Y46*%
G04 Gerber Fmt 4.6, Leading zero omitted, Abs format (unit mm)*
G04 Created by KiCad (PCBNEW (5.0.2)-1) date 28/06/2019 15:12:05*
%MOMM*%
%LPD*%
G01*
G04 APERTURE LIST*
%ADD10C,0.200000*%
%ADD11C,0.100000*%
G04 APERTURE END LIST*
D10*
X4318000Y25527000D02*
G75*
G02X5588000Y26797000I1270000J0D01*
G01*
X5715000Y42799000D02*
G75*
G02X4318000Y44196000I0J1397000D01*
G01*
X93599000Y26797000D02*
G75*
G02X94869000Y25527000I0J-1270000D01*
G01*
X94869000Y44069000D02*
G75*
G02X93599000Y42799000I-1270000J0D01*
G01*
X17043194Y33832800D02*
X17043194Y26787835D01*
X17045734Y42766975D02*
X17043194Y35712400D01*
X5588000Y26797000D02*
X17043194Y26787835D01*
X17045734Y42766975D02*
X5715000Y42799000D01*
X52244673Y52735480D02*
G75*
G03X52244673Y52735480I-2643553J0D01*
G01*
X46460800Y57898634D02*
X42285920Y62082680D01*
X57017705Y43286523D02*
G75*
G02X56763920Y41813480I-840554J-613567D01*
G01*
X60629841Y45772751D02*
G75*
G02X58948320Y45572680I-919522J561928D01*
G01*
X59053357Y59996443D02*
G75*
G02X60573920Y59847480I699091J-699092D01*
G01*
X56866366Y63556755D02*
G75*
G02X56916320Y62082680I-737446J-762875D01*
G01*
X42279927Y62075439D02*
G75*
G02X42336720Y63606680I615592J743842D01*
G01*
X38531076Y59642043D02*
G75*
G02X40304720Y59796680I935444J-480363D01*
G01*
X39999206Y45370510D02*
G75*
G02X38628320Y45623480I-560043J806047D01*
G01*
X42236912Y41967401D02*
G75*
G02X42336720Y43489880I836408J709679D01*
G01*
X8605520Y35712400D02*
X8605520Y41635680D01*
X82138520Y35763200D02*
X82138520Y42768520D01*
X90520520Y41457880D02*
X90520520Y35763200D01*
X90520520Y33832800D02*
X90520520Y27678380D01*
X97505520Y27678380D02*
X90520520Y27678380D01*
X97505520Y41457880D02*
X97505520Y27678380D01*
X90520520Y41457880D02*
X97505520Y41457880D01*
X82143600Y33832800D02*
X90525600Y33832800D01*
X82138520Y35763200D02*
X90525600Y35763200D01*
X17051020Y35712400D02*
X8585200Y35712400D01*
X17051020Y33832800D02*
X8585200Y33832800D01*
X1620520Y27856180D02*
X1620520Y41635680D01*
X8605520Y27856180D02*
X1620520Y27856180D01*
X8605520Y33832800D02*
X8605520Y27856180D01*
X1620520Y41635680D02*
X8605520Y41635680D01*
X44339480Y49693103D02*
X44588714Y50271119D01*
X62126337Y56508909D02*
X62436321Y55271383D01*
X61151089Y58863366D02*
X60573920Y59847480D01*
X62126337Y56508909D02*
X61696546Y57710093D01*
X45011017Y53364025D02*
X45039480Y52735208D01*
X54404310Y50869288D02*
X54263157Y51482718D01*
X61696546Y57710093D02*
X61151089Y58863366D01*
X35844508Y6800630D02*
X35844508Y28300630D01*
X63344508Y6800630D02*
X63344508Y28300630D01*
X43374748Y64200185D02*
X42336720Y63606680D01*
X45729205Y65175433D02*
X44528021Y64745642D01*
X48228683Y65672610D02*
X49079542Y65712441D01*
X49079542Y65712441D02*
X49502905Y65735208D01*
X55814270Y64200185D02*
X54756518Y64678135D01*
X43374748Y64200185D02*
X44528021Y64745642D01*
X52728218Y57898634D02*
X52150202Y57649400D01*
X49686113Y57198634D02*
X49594604Y57202785D01*
X52150202Y57649400D02*
X51552033Y57453406D01*
X51552033Y57453406D02*
X50938603Y57312253D01*
X50938603Y57312253D02*
X50314929Y57227097D01*
X50314929Y57227097D02*
X49686113Y57198634D01*
X56865520Y63555880D02*
X55814270Y64200185D01*
X52222287Y65485417D02*
X50960335Y65672610D01*
X53459813Y65175433D02*
X52222287Y65485417D01*
X49686113Y65735208D02*
X49594587Y65730704D01*
X54660997Y64745642D02*
X53459813Y65175433D01*
X49686113Y39735208D02*
X50960335Y39797807D01*
X53459813Y40294984D02*
X54660997Y40724775D01*
X44925861Y53987699D02*
X44784708Y54601128D01*
X37062681Y48961508D02*
X36752697Y50199034D01*
X44925861Y51482718D02*
X45011017Y52106392D01*
X36565504Y51460986D02*
X36518298Y52525904D01*
X50960335Y39797807D02*
X52222287Y39985000D01*
X48874089Y48243320D02*
X48250415Y48158164D01*
X49502905Y39735208D02*
X48228683Y39797807D01*
X38628320Y45623480D02*
X38037929Y46607051D01*
X37492472Y47760324D02*
X37320787Y48232934D01*
X36642935Y50907296D02*
X36565504Y51460986D01*
X37062681Y56508909D02*
X37492472Y57710093D01*
X44588714Y55199298D02*
X44339480Y55777314D01*
X44528021Y40724775D02*
X43374748Y41270232D01*
X54660997Y40724775D02*
X55814270Y41270232D01*
X55814270Y41270232D02*
X56763920Y41813480D01*
X47038816Y47821017D02*
X46460800Y47571783D01*
X36752697Y50199034D02*
X36642935Y50907296D01*
X38037929Y58863366D02*
X38312123Y59306955D01*
X38312123Y59306955D02*
X38526720Y59644280D01*
X47636986Y48017011D02*
X47038816Y47821017D01*
X45011017Y52106392D02*
X45039480Y52735208D01*
X44784708Y50869288D02*
X44925861Y51482718D01*
X43374748Y41270232D02*
X42235120Y41965880D01*
X44588714Y50271119D02*
X44784708Y50869288D01*
X36502905Y52735208D02*
X36565504Y54009431D01*
X36565504Y54009431D02*
X36752697Y55271383D01*
X45011017Y53364025D02*
X44925861Y53987699D01*
X37320787Y48232934D02*
X37062681Y48961508D01*
X49594641Y39739715D02*
X49686113Y39735208D01*
X44784708Y54601128D02*
X44588714Y55199298D01*
X44339480Y49693103D02*
X39999920Y45369480D01*
X44339480Y55777314D02*
X40304720Y59796680D01*
X37492472Y57710093D02*
X38037929Y58863366D01*
X38037929Y46607051D02*
X37492472Y47760324D01*
X36518298Y52525904D02*
X36502905Y52735208D01*
X36752697Y55271383D02*
X37062681Y56508909D01*
X49686113Y48271783D02*
X50314929Y48243320D01*
X50314929Y48243320D02*
X50938603Y48158164D01*
X51552033Y48017011D02*
X52150202Y47821017D01*
X52728218Y47571783D02*
X57017920Y43286680D01*
X49594623Y48267631D02*
X49502905Y48271783D01*
X7817429Y310422D02*
X91371589Y310422D01*
X4394008Y6063944D02*
X4455297Y5407008D01*
X4315208Y8273622D02*
X4323963Y7497251D01*
X4350230Y6760692D02*
X4394008Y6063944D01*
X4323963Y7497251D02*
X4350230Y6760692D01*
X5576008Y1584741D02*
X5794896Y1286110D01*
X4455297Y5407008D02*
X4534097Y4789884D01*
X5794896Y1286110D02*
X6031296Y1027291D01*
X4534097Y4789884D02*
X4630408Y4212571D01*
X4744230Y3675070D02*
X4875563Y3177381D01*
X4630408Y4212571D02*
X4744230Y3675070D01*
X6556629Y629088D02*
X6845563Y489704D01*
X4875563Y3177381D02*
X5024408Y2719504D01*
X6285207Y808284D02*
X6556629Y629088D01*
X5024408Y2719504D02*
X5190763Y2301438D01*
X6031296Y1027291D02*
X6285207Y808284D01*
X6845563Y489704D02*
X7152007Y390131D01*
X93157722Y1027291D02*
X92903811Y808284D01*
X93394122Y1286110D02*
X93157722Y1027291D01*
X93814388Y1923184D02*
X93613010Y1584741D01*
X94313455Y3177381D02*
X94164610Y2719504D01*
X93613010Y1584741D02*
X93394122Y1286110D01*
X93998255Y2301438D02*
X93814388Y1923184D01*
X94164610Y2719504D02*
X93998255Y2301438D01*
X94444788Y3675070D02*
X94313455Y3177381D01*
X94733721Y5407008D02*
X94654921Y4789884D01*
X94558610Y4212571D02*
X94444788Y3675070D01*
X94654921Y4789884D02*
X94558610Y4212571D01*
X94795010Y6063944D02*
X94733721Y5407008D01*
X94838788Y6760692D02*
X94795010Y6063944D01*
X94873810Y8273622D02*
X94865055Y7497251D01*
X94865055Y7497251D02*
X94838788Y6760692D01*
X94869000Y25527000D02*
X94873810Y8273622D01*
X82135980Y26789380D02*
X93599000Y26797000D01*
X82135980Y26789380D02*
X82138520Y33832800D01*
X4318000Y25527000D02*
X4315208Y8273622D01*
X93599000Y42799000D02*
X82138520Y42768520D01*
X54756518Y64678135D02*
X54660997Y64745642D01*
X46966731Y65485417D02*
X48228683Y65672610D01*
X50960335Y65672610D02*
X49686113Y65735208D01*
X91713056Y330371D02*
X91371589Y310422D01*
X52150202Y47821017D02*
X52728218Y47571783D01*
X52728218Y57898634D02*
X56916320Y62082680D01*
X92037011Y390131D02*
X91713056Y330371D01*
X45729205Y65175433D02*
X46966731Y65485417D01*
X62251045Y49558755D02*
X62436321Y50199034D01*
X49502905Y65735208D02*
X49594587Y65730704D01*
X45993997Y27800630D02*
X47993997Y27800630D01*
X35946731Y29077088D02*
X35844508Y28300630D01*
X45993997Y27800630D02*
X45993997Y31242000D01*
X35946731Y6024173D02*
X35844508Y6800630D01*
X63242286Y6024173D02*
X63344508Y6800630D01*
X36246432Y5300630D02*
X35946731Y6024173D01*
X38844508Y3800630D02*
X38068051Y3902853D01*
X38068051Y3902853D02*
X37344508Y4202554D01*
X60344508Y3800630D02*
X61120965Y3902853D01*
X45993997Y31242000D02*
X38844508Y31242000D01*
X62465828Y4679310D02*
X62942584Y5300630D01*
X1212712Y67086175D02*
X243894Y67660921D01*
X-190082Y67906499D02*
X-190130Y73355172D01*
X96204834Y75263597D02*
X96614481Y75375290D01*
X37344508Y4202554D02*
X36723188Y4679310D01*
X62942584Y29800630D02*
X62465828Y30421951D01*
X62465828Y30421951D02*
X61844508Y30898707D01*
X92742200Y73258277D02*
X92388426Y73035502D01*
X51489186Y31300630D02*
X47993997Y31300630D01*
X51489186Y27800630D02*
X53489186Y27800630D01*
X61844508Y30898707D02*
X61120965Y31198408D01*
X47993997Y27800630D02*
X47993997Y31300630D01*
X38068051Y31198408D02*
X37344508Y30898707D01*
X53489186Y27800630D02*
X53489186Y31242000D01*
X69811281Y91322921D02*
X69129374Y91987228D01*
X72145505Y89255277D02*
X71319303Y89957470D01*
X99119789Y74160308D02*
X99285730Y73769477D01*
X2151640Y75411946D02*
X1728863Y75372651D01*
X71319303Y89957470D02*
X70541243Y90646509D01*
X6446922Y73258331D02*
X6800697Y73035555D01*
X94869000Y44069000D02*
X94879277Y65142766D01*
X98886760Y74515248D02*
X99119789Y74160308D01*
X2574643Y75375157D02*
X2151640Y75411946D01*
X96020212Y75196909D02*
X94934116Y74582208D01*
X302364Y74515116D02*
X69335Y74160175D01*
X1728863Y75372651D02*
X1319886Y75258532D01*
X37344508Y30898707D02*
X36723188Y30421951D01*
X36723188Y30421951D02*
X36246432Y29800630D01*
X61844508Y4202554D02*
X62465828Y4679310D01*
X2984290Y75263465D02*
X2574643Y75375157D01*
X98251282Y75073387D02*
X98594126Y74822901D01*
X38811200Y31242000D02*
X38068051Y31198408D01*
X61120965Y31198408D02*
X60350400Y31242000D01*
X594998Y74822768D02*
X302364Y74515116D01*
X63242286Y29077088D02*
X62942584Y29800630D01*
X1319886Y75258532D02*
X937842Y75073255D01*
X69335Y74160175D02*
X-96606Y73769344D01*
X937842Y75073255D02*
X594998Y74822768D01*
X96968091Y66466294D02*
X95920903Y65806866D01*
X36246432Y29800630D02*
X35946731Y29077088D01*
X97460261Y75372783D02*
X97869238Y75258665D01*
X-96606Y73769344D02*
X-190130Y73355172D01*
X63344508Y28300630D02*
X63242286Y29077088D01*
X60344508Y31242000D02*
X53489186Y31242000D01*
X38844508Y3800630D02*
X60344508Y3800630D01*
X96020212Y75196909D02*
X96204834Y75263597D01*
X96968091Y66466294D02*
X97976411Y67086121D01*
X61120965Y3902853D02*
X61844508Y4202554D01*
X36723188Y4679310D02*
X36246432Y5300630D01*
X62942584Y5300630D02*
X63242286Y6024173D01*
X94934116Y74582208D02*
X93840967Y73933703D01*
X51489186Y27800630D02*
X51489186Y31300630D01*
X243894Y67660921D02*
X-190082Y67906499D01*
X66439168Y95145565D02*
X66044691Y95748263D01*
X68495480Y92639957D02*
X67909555Y93281630D01*
X30060751Y91987229D02*
X30694646Y92639957D01*
X33492156Y96342529D02*
X33791167Y96928887D01*
X33145434Y95748263D02*
X33492156Y96342529D01*
X87934587Y77859309D02*
X86217560Y79205571D01*
X78228900Y84621388D02*
X76084245Y86141290D01*
X2221032Y66466348D02*
X3268220Y65806919D01*
X69129374Y91987228D02*
X68495480Y92639957D01*
X4318000Y44196000D02*
X4309817Y65142766D01*
X4255007Y74582262D02*
X5348156Y73933756D01*
X67371557Y93912773D02*
X66881442Y94533910D01*
X4309817Y65142766D02*
X3268220Y65806919D01*
X64679175Y99205727D02*
X64618079Y99760412D01*
X94879277Y65142766D02*
X95920903Y65806866D01*
X34042508Y97507861D02*
X34246224Y98079976D01*
X8306908Y75028337D02*
X9693736Y76471310D01*
X5348156Y73933756D02*
X6446922Y73258331D01*
X32750958Y95145565D02*
X33145434Y95748263D01*
X14824611Y80528558D02*
X16791013Y81851960D01*
X20960188Y84621412D02*
X23104844Y86141314D01*
X18845470Y83204816D02*
X20960188Y84621412D01*
X93840967Y73933703D02*
X92742200Y73258277D01*
X89495352Y76471286D02*
X87934587Y77859309D01*
X32308684Y94533910D02*
X32750958Y95145565D01*
X9693736Y76471310D02*
X11254502Y77859333D01*
X27870822Y89957470D02*
X28648883Y90646510D01*
X97037484Y75412079D02*
X97460261Y75372783D01*
X65398959Y96928887D02*
X65147618Y97507861D01*
X3168699Y75197010D02*
X4255007Y74582262D01*
X65697969Y96342529D02*
X65398959Y96928887D01*
X73019891Y88539407D02*
X72145505Y89255277D01*
X84364478Y80528534D02*
X82398076Y81851936D01*
X2221032Y66466348D02*
X1212712Y67086175D01*
X27044621Y89255277D02*
X27870822Y89957470D01*
X65147618Y97507861D02*
X64943902Y98079976D01*
X30694646Y92639957D02*
X31280570Y93281630D01*
X97976411Y67086121D02*
X98945229Y67660868D01*
X80343619Y83204792D02*
X78228900Y84621388D01*
X64943902Y98079976D02*
X64787769Y98645757D01*
X76084245Y86141290D02*
X73942504Y87809335D01*
X25246584Y87809359D02*
X26170235Y88539407D01*
X34246224Y98079976D02*
X34402357Y98645757D01*
X73942504Y87809335D02*
X73019891Y88539407D01*
X2984290Y75263465D02*
X3168699Y75197010D01*
X28648883Y90646510D02*
X29378845Y91322921D01*
X29378845Y91322921D02*
X30060751Y91987229D01*
X96614481Y75375290D02*
X97037484Y75412079D01*
X98594126Y74822901D02*
X98886760Y74515248D01*
X99285730Y73769477D02*
X99379254Y73355305D01*
X33791167Y96928887D02*
X34042508Y97507861D01*
X97869238Y75258665D02*
X98251282Y75073387D01*
X64787769Y98645757D02*
X64679175Y99205727D01*
X70541243Y90646509D02*
X69811281Y91322921D01*
X66044691Y95748263D02*
X65697969Y96342529D01*
X99378989Y67906364D02*
X99379254Y73355305D01*
X98945229Y67660868D02*
X99378989Y67906364D01*
X48874089Y57227097D02*
X49502905Y57198634D01*
X92388426Y73035502D02*
X92079924Y73522478D01*
X54600304Y50271119D02*
X54404310Y50869288D01*
X34572047Y99760412D02*
X34585695Y100310406D01*
X62686113Y52735208D02*
X62623514Y54009431D01*
X6800697Y73035555D02*
X7109164Y73522502D01*
X16791013Y81851960D02*
X18845470Y83204816D01*
X31280570Y93281630D02*
X31818569Y93912773D01*
X54849538Y49693103D02*
X58948320Y45572680D01*
X67909555Y93281630D02*
X67371557Y93912773D01*
X64618079Y99760412D02*
X64604437Y100310336D01*
X66881442Y94533910D02*
X66439168Y95145565D01*
X86217560Y79205571D02*
X84364478Y80528534D01*
X92079924Y73522478D02*
X90882180Y75028313D01*
X62623514Y51460986D02*
X62686113Y52735208D01*
X61752970Y47885469D02*
X62126337Y48961508D01*
X54263157Y53987699D02*
X54404310Y54601128D01*
X46460800Y57898634D02*
X47038816Y57649400D01*
X54849538Y49693103D02*
X54600304Y50271119D01*
X47038816Y57649400D02*
X47636986Y57453406D01*
X34585695Y100310406D02*
X64604437Y100310336D01*
X34402357Y98645757D02*
X34510950Y99205727D01*
X61151089Y46607051D02*
X61696546Y47760324D01*
X54600304Y55199298D02*
X54849538Y55777314D01*
X60624720Y45775880D02*
X61151089Y46607051D01*
X12971529Y79205595D02*
X14824611Y80528558D01*
X34510950Y99205727D02*
X34572047Y99760412D01*
X54149538Y52735208D02*
X54178001Y53364025D01*
X23104844Y86141314D02*
X25246584Y87809359D01*
X26170235Y88539407D02*
X27044621Y89255277D01*
X7109164Y73522502D02*
X8306908Y75028337D01*
X11254502Y77859333D02*
X12971529Y79205595D01*
X90882180Y75028313D02*
X89495352Y76471286D01*
X82398076Y81851936D02*
X80343619Y83204792D01*
X31818569Y93912773D02*
X32308684Y94533910D01*
X48250415Y57312253D02*
X48874089Y57227097D01*
X47636986Y57453406D02*
X48250415Y57312253D01*
X54178001Y52106392D02*
X54149538Y52735208D01*
X92632389Y629088D02*
X92343455Y489704D01*
X49594623Y48267631D02*
X49686113Y48271783D01*
X45729205Y40294984D02*
X44528021Y40724775D01*
X5374630Y1923184D02*
X5576008Y1584741D01*
X54404310Y54601128D02*
X54600304Y55199298D01*
X49502905Y57198634D02*
X49594604Y57202785D01*
X48250415Y48158164D02*
X47636986Y48017011D01*
X46966731Y39985000D02*
X45729205Y40294984D01*
X49594641Y39739715D02*
X49502905Y39735208D01*
X50938603Y48158164D02*
X51552033Y48017011D01*
X54263157Y51482718D02*
X54178001Y52106392D01*
X62126337Y48961508D02*
X62251045Y49558755D01*
X62623514Y54009431D02*
X62436321Y55271383D01*
X49502905Y48271783D02*
X48874089Y48243320D01*
X52222287Y39985000D02*
X53459813Y40294984D01*
X62436321Y50199034D02*
X62623514Y51460986D01*
X54849538Y55777314D02*
X59049920Y59999880D01*
X7475963Y330371D02*
X7817429Y310422D01*
X92343455Y489704D02*
X92037011Y390131D01*
X61696546Y47760324D02*
X61752970Y47885469D01*
X46460800Y47571783D02*
X42336720Y43489880D01*
X54178001Y53364025D02*
X54263157Y53987699D01*
X48228683Y39797807D02*
X46966731Y39985000D01*
X5190763Y2301438D02*
X5374630Y1923184D01*
X92903811Y808284D02*
X92632389Y629088D01*
X7152007Y390131D02*
X7475963Y330371D01*
D11*
G36*
X14219520Y781680D02*
X12699520Y781680D01*
X12699520Y3621680D01*
X14219520Y3621680D01*
X14219520Y781680D01*
X14219520Y781680D01*
G37*
G36*
X9139520Y781680D02*
X7619520Y781680D01*
X7619520Y3621680D01*
X9139520Y3621680D01*
X9139520Y781680D01*
X9139520Y781680D01*
G37*
G36*
X11679520Y781680D02*
X10159520Y781680D01*
X10159520Y3621680D01*
X11679520Y3621680D01*
X11679520Y781680D01*
X11679520Y781680D01*
G37*
G36*
X17303017Y9400683D02*
X17355673Y9384710D01*
X17404185Y9358780D01*
X17446716Y9323876D01*
X17481620Y9281345D01*
X17507550Y9232833D01*
X17523523Y9180177D01*
X17529520Y9119290D01*
X17529520Y7894070D01*
X17523523Y7833183D01*
X17507550Y7780527D01*
X17481620Y7732015D01*
X17446716Y7689484D01*
X17404188Y7654583D01*
X17346356Y7623671D01*
X17325981Y7610057D01*
X17308654Y7592730D01*
X17295040Y7572355D01*
X17285663Y7549716D01*
X17280882Y7525683D01*
X17280882Y7501179D01*
X17285662Y7477145D01*
X17295039Y7454506D01*
X17308653Y7434131D01*
X17325980Y7416804D01*
X17346356Y7403189D01*
X17404188Y7372277D01*
X17446716Y7337376D01*
X17481620Y7294845D01*
X17507550Y7246333D01*
X17523523Y7193677D01*
X17529520Y7132790D01*
X17529520Y5907570D01*
X17523523Y5846683D01*
X17507550Y5794027D01*
X17481620Y5745515D01*
X17446716Y5702984D01*
X17404185Y5668080D01*
X17355672Y5642149D01*
X17345669Y5639115D01*
X17323030Y5629738D01*
X17302656Y5616124D01*
X17285328Y5598797D01*
X17271714Y5578422D01*
X17262337Y5555784D01*
X17257556Y5531750D01*
X17257556Y5507246D01*
X17262336Y5483212D01*
X17271713Y5460573D01*
X17285327Y5440199D01*
X17302654Y5422871D01*
X17323029Y5409257D01*
X17345669Y5399879D01*
X17395672Y5384711D01*
X17444185Y5358780D01*
X17486716Y5323876D01*
X17521620Y5281345D01*
X17547550Y5232833D01*
X17563523Y5180177D01*
X17569520Y5119290D01*
X17569520Y3894070D01*
X17563523Y3833183D01*
X17547550Y3780527D01*
X17521620Y3732015D01*
X17486716Y3689484D01*
X17444185Y3654580D01*
X17395673Y3628650D01*
X17343017Y3612677D01*
X17282130Y3606680D01*
X16481910Y3606680D01*
X16421023Y3612677D01*
X16368367Y3628650D01*
X16319855Y3654580D01*
X16277324Y3689484D01*
X16242420Y3732015D01*
X16216490Y3780527D01*
X16200517Y3833183D01*
X16194520Y3894070D01*
X16194520Y5119290D01*
X16200517Y5180177D01*
X16216490Y5232833D01*
X16242420Y5281345D01*
X16277324Y5323876D01*
X16319855Y5358780D01*
X16368368Y5384711D01*
X16378371Y5387745D01*
X16401010Y5397122D01*
X16421384Y5410736D01*
X16438712Y5428063D01*
X16452326Y5448438D01*
X16461703Y5471076D01*
X16466484Y5495110D01*
X16466484Y5519614D01*
X16461704Y5543648D01*
X16452327Y5566287D01*
X16438713Y5586661D01*
X16421386Y5603989D01*
X16401011Y5617603D01*
X16378371Y5626981D01*
X16328368Y5642149D01*
X16279855Y5668080D01*
X16237324Y5702984D01*
X16202420Y5745515D01*
X16176490Y5794027D01*
X16160517Y5846683D01*
X16154520Y5907570D01*
X16154520Y7132790D01*
X16160517Y7193677D01*
X16176490Y7246333D01*
X16202420Y7294845D01*
X16237324Y7337376D01*
X16279852Y7372277D01*
X16337684Y7403189D01*
X16358059Y7416803D01*
X16375386Y7434130D01*
X16389000Y7454505D01*
X16398377Y7477144D01*
X16403158Y7501177D01*
X16403158Y7525681D01*
X16398378Y7549715D01*
X16389001Y7572354D01*
X16375387Y7592729D01*
X16358060Y7610056D01*
X16337684Y7623671D01*
X16279852Y7654583D01*
X16237324Y7689484D01*
X16202420Y7732015D01*
X16176490Y7780527D01*
X16160517Y7833183D01*
X16154520Y7894070D01*
X16154520Y9119290D01*
X16160517Y9180177D01*
X16176490Y9232833D01*
X16202420Y9281345D01*
X16237324Y9323876D01*
X16279855Y9358780D01*
X16328367Y9384710D01*
X16381023Y9400683D01*
X16441910Y9406680D01*
X17242130Y9406680D01*
X17303017Y9400683D01*
X17303017Y9400683D01*
G37*
G36*
X19178017Y9400683D02*
X19230673Y9384710D01*
X19279185Y9358780D01*
X19321716Y9323876D01*
X19356620Y9281345D01*
X19382550Y9232833D01*
X19398523Y9180177D01*
X19404520Y9119290D01*
X19404520Y7894070D01*
X19398523Y7833183D01*
X19382550Y7780527D01*
X19356620Y7732015D01*
X19321716Y7689484D01*
X19279188Y7654583D01*
X19221356Y7623671D01*
X19200981Y7610057D01*
X19183654Y7592730D01*
X19170040Y7572355D01*
X19160663Y7549716D01*
X19155882Y7525683D01*
X19155882Y7501179D01*
X19160662Y7477145D01*
X19170039Y7454506D01*
X19183653Y7434131D01*
X19200980Y7416804D01*
X19221356Y7403189D01*
X19279188Y7372277D01*
X19321716Y7337376D01*
X19356620Y7294845D01*
X19382550Y7246333D01*
X19398523Y7193677D01*
X19404520Y7132790D01*
X19404520Y5907570D01*
X19398523Y5846683D01*
X19382550Y5794027D01*
X19356620Y5745515D01*
X19321716Y5702984D01*
X19279185Y5668080D01*
X19230672Y5642149D01*
X19220669Y5639115D01*
X19198030Y5629738D01*
X19177656Y5616124D01*
X19160328Y5598797D01*
X19146714Y5578422D01*
X19137337Y5555784D01*
X19132556Y5531750D01*
X19132556Y5507246D01*
X19137336Y5483212D01*
X19146713Y5460573D01*
X19160327Y5440199D01*
X19177654Y5422871D01*
X19198029Y5409257D01*
X19220669Y5399879D01*
X19270672Y5384711D01*
X19319185Y5358780D01*
X19361716Y5323876D01*
X19396620Y5281345D01*
X19422550Y5232833D01*
X19438523Y5180177D01*
X19444520Y5119290D01*
X19444520Y3894070D01*
X19438523Y3833183D01*
X19422550Y3780527D01*
X19396620Y3732015D01*
X19361716Y3689484D01*
X19319185Y3654580D01*
X19270673Y3628650D01*
X19218017Y3612677D01*
X19157130Y3606680D01*
X18356910Y3606680D01*
X18296023Y3612677D01*
X18243367Y3628650D01*
X18194855Y3654580D01*
X18152324Y3689484D01*
X18117420Y3732015D01*
X18091490Y3780527D01*
X18075517Y3833183D01*
X18069520Y3894070D01*
X18069520Y5119290D01*
X18075517Y5180177D01*
X18091490Y5232833D01*
X18117420Y5281345D01*
X18152324Y5323876D01*
X18194855Y5358780D01*
X18243368Y5384711D01*
X18253371Y5387745D01*
X18276010Y5397122D01*
X18296384Y5410736D01*
X18313712Y5428063D01*
X18327326Y5448438D01*
X18336703Y5471076D01*
X18341484Y5495110D01*
X18341484Y5519614D01*
X18336704Y5543648D01*
X18327327Y5566287D01*
X18313713Y5586661D01*
X18296386Y5603989D01*
X18276011Y5617603D01*
X18253371Y5626981D01*
X18203368Y5642149D01*
X18154855Y5668080D01*
X18112324Y5702984D01*
X18077420Y5745515D01*
X18051490Y5794027D01*
X18035517Y5846683D01*
X18029520Y5907570D01*
X18029520Y7132790D01*
X18035517Y7193677D01*
X18051490Y7246333D01*
X18077420Y7294845D01*
X18112324Y7337376D01*
X18154852Y7372277D01*
X18212684Y7403189D01*
X18233059Y7416803D01*
X18250386Y7434130D01*
X18264000Y7454505D01*
X18273377Y7477144D01*
X18278158Y7501177D01*
X18278158Y7525681D01*
X18273378Y7549715D01*
X18264001Y7572354D01*
X18250387Y7592729D01*
X18233060Y7610056D01*
X18212684Y7623671D01*
X18154852Y7654583D01*
X18112324Y7689484D01*
X18077420Y7732015D01*
X18051490Y7780527D01*
X18035517Y7833183D01*
X18029520Y7894070D01*
X18029520Y9119290D01*
X18035517Y9180177D01*
X18051490Y9232833D01*
X18077420Y9281345D01*
X18112324Y9323876D01*
X18154855Y9358780D01*
X18203367Y9384710D01*
X18256023Y9400683D01*
X18316910Y9406680D01*
X19117130Y9406680D01*
X19178017Y9400683D01*
X19178017Y9400683D01*
G37*
G36*
X90105320Y6902080D02*
X89788138Y6902080D01*
X89763752Y6899678D01*
X89740303Y6892565D01*
X89718692Y6881014D01*
X89699750Y6865468D01*
X89684204Y6846526D01*
X89672653Y6824915D01*
X89665540Y6801466D01*
X89663138Y6777080D01*
X89665540Y6752694D01*
X89672653Y6729245D01*
X89684204Y6707635D01*
X89735567Y6630764D01*
X89735569Y6630761D01*
X89775144Y6535217D01*
X89795320Y6433788D01*
X89795320Y6330372D01*
X89775144Y6228943D01*
X89735569Y6133399D01*
X89678372Y6047798D01*
X89678112Y6047409D01*
X89604991Y5974288D01*
X89604988Y5974286D01*
X89519001Y5916831D01*
X89423457Y5877256D01*
X89423456Y5877256D01*
X89423454Y5877255D01*
X89322029Y5857080D01*
X89218611Y5857080D01*
X89117186Y5877255D01*
X89117184Y5877256D01*
X89117183Y5877256D01*
X89021639Y5916831D01*
X88935652Y5974286D01*
X88935649Y5974288D01*
X88862528Y6047409D01*
X88862268Y6047798D01*
X88805071Y6133399D01*
X88765496Y6228943D01*
X88745320Y6330372D01*
X88745320Y6433788D01*
X88765496Y6535217D01*
X88805071Y6630761D01*
X88805073Y6630764D01*
X88856436Y6707635D01*
X88867987Y6729246D01*
X88875100Y6752695D01*
X88877502Y6777081D01*
X88875100Y6801467D01*
X88867987Y6824916D01*
X88856435Y6846527D01*
X88840890Y6865469D01*
X88821947Y6881014D01*
X88800336Y6892565D01*
X88776887Y6899678D01*
X88752502Y6902080D01*
X84008138Y6902080D01*
X83983752Y6899678D01*
X83960303Y6892565D01*
X83938692Y6881014D01*
X83919750Y6865468D01*
X83904204Y6846526D01*
X83892653Y6824915D01*
X83885540Y6801466D01*
X83883138Y6777080D01*
X83885540Y6752694D01*
X83892653Y6729245D01*
X83904204Y6707635D01*
X83955567Y6630764D01*
X83955569Y6630761D01*
X83995144Y6535217D01*
X84015320Y6433788D01*
X84015320Y6330372D01*
X83995144Y6228943D01*
X83955569Y6133399D01*
X83898372Y6047798D01*
X83898112Y6047409D01*
X83824991Y5974288D01*
X83824988Y5974286D01*
X83739001Y5916831D01*
X83643457Y5877256D01*
X83643456Y5877256D01*
X83643454Y5877255D01*
X83542029Y5857080D01*
X83438611Y5857080D01*
X83337186Y5877255D01*
X83337184Y5877256D01*
X83337183Y5877256D01*
X83241639Y5916831D01*
X83155652Y5974286D01*
X83155649Y5974288D01*
X83082528Y6047409D01*
X83082268Y6047798D01*
X83025071Y6133399D01*
X82985496Y6228943D01*
X82965320Y6330372D01*
X82965320Y6433788D01*
X82985496Y6535217D01*
X83025071Y6630761D01*
X83025073Y6630764D01*
X83076436Y6707635D01*
X83087987Y6729246D01*
X83095100Y6752695D01*
X83097502Y6777081D01*
X83095100Y6801467D01*
X83087987Y6824916D01*
X83076435Y6846527D01*
X83060890Y6865469D01*
X83041947Y6881014D01*
X83020336Y6892565D01*
X82996887Y6899678D01*
X82972502Y6902080D01*
X82655320Y6902080D01*
X82655320Y8752080D01*
X90105320Y8752080D01*
X90105320Y6902080D01*
X90105320Y6902080D01*
G37*
G36*
X35725261Y9944459D02*
X35825985Y9913905D01*
X35918800Y9864295D01*
X36000162Y9797522D01*
X36066935Y9716160D01*
X36116545Y9623345D01*
X36147099Y9522621D01*
X36158020Y9411740D01*
X36158020Y8099020D01*
X36147099Y7988139D01*
X36116545Y7887415D01*
X36066935Y7794600D01*
X36000162Y7713238D01*
X35918800Y7646465D01*
X35825985Y7596855D01*
X35725261Y7566301D01*
X35614380Y7555380D01*
X34301660Y7555380D01*
X34190779Y7566301D01*
X34090055Y7596855D01*
X33997240Y7646465D01*
X33915878Y7713238D01*
X33849105Y7794600D01*
X33799495Y7887415D01*
X33768941Y7988139D01*
X33758020Y8099020D01*
X33758020Y9411740D01*
X33768941Y9522621D01*
X33799495Y9623345D01*
X33849105Y9716160D01*
X33915878Y9797522D01*
X33997240Y9864295D01*
X34090055Y9913905D01*
X34190779Y9944459D01*
X34301660Y9955380D01*
X35614380Y9955380D01*
X35725261Y9944459D01*
X35725261Y9944459D01*
G37*
G36*
X64998761Y9969859D02*
X65099485Y9939305D01*
X65192300Y9889695D01*
X65273662Y9822922D01*
X65340435Y9741560D01*
X65390045Y9648745D01*
X65420599Y9548021D01*
X65431520Y9437140D01*
X65431520Y8124420D01*
X65420599Y8013539D01*
X65390045Y7912815D01*
X65340435Y7820000D01*
X65273662Y7738638D01*
X65192300Y7671865D01*
X65099485Y7622255D01*
X64998761Y7591701D01*
X64887880Y7580780D01*
X63575160Y7580780D01*
X63464279Y7591701D01*
X63363555Y7622255D01*
X63270740Y7671865D01*
X63189378Y7738638D01*
X63122605Y7820000D01*
X63072995Y7912815D01*
X63042441Y8013539D01*
X63031520Y8124420D01*
X63031520Y9437140D01*
X63042441Y9548021D01*
X63072995Y9648745D01*
X63122605Y9741560D01*
X63189378Y9822922D01*
X63270740Y9889695D01*
X63363555Y9939305D01*
X63464279Y9969859D01*
X63575160Y9980780D01*
X64887880Y9980780D01*
X64998761Y9969859D01*
X64998761Y9969859D01*
G37*
G36*
X9139520Y9391680D02*
X7619520Y9391680D01*
X7619520Y12231680D01*
X9139520Y12231680D01*
X9139520Y9391680D01*
X9139520Y9391680D01*
G37*
G36*
X14219520Y9391680D02*
X12699520Y9391680D01*
X12699520Y12231680D01*
X14219520Y12231680D01*
X14219520Y9391680D01*
X14219520Y9391680D01*
G37*
G36*
X11679520Y9391680D02*
X10159520Y9391680D01*
X10159520Y12231680D01*
X11679520Y12231680D01*
X11679520Y9391680D01*
X11679520Y9391680D01*
G37*
G36*
X35725261Y13462359D02*
X35825985Y13431805D01*
X35918800Y13382195D01*
X36000162Y13315422D01*
X36066935Y13234060D01*
X36116545Y13141245D01*
X36147099Y13040521D01*
X36158020Y12929640D01*
X36158020Y11616920D01*
X36147099Y11506039D01*
X36116545Y11405315D01*
X36066935Y11312500D01*
X36000162Y11231138D01*
X35918800Y11164365D01*
X35825985Y11114755D01*
X35725261Y11084201D01*
X35614380Y11073280D01*
X34301660Y11073280D01*
X34190779Y11084201D01*
X34090055Y11114755D01*
X33997240Y11164365D01*
X33915878Y11231138D01*
X33849105Y11312500D01*
X33799495Y11405315D01*
X33768941Y11506039D01*
X33758020Y11616920D01*
X33758020Y12929640D01*
X33768941Y13040521D01*
X33799495Y13141245D01*
X33849105Y13234060D01*
X33915878Y13315422D01*
X33997240Y13382195D01*
X34090055Y13431805D01*
X34190779Y13462359D01*
X34301660Y13473280D01*
X35614380Y13473280D01*
X35725261Y13462359D01*
X35725261Y13462359D01*
G37*
G36*
X64998761Y13462359D02*
X65099485Y13431805D01*
X65192300Y13382195D01*
X65273662Y13315422D01*
X65340435Y13234060D01*
X65390045Y13141245D01*
X65420599Y13040521D01*
X65431520Y12929640D01*
X65431520Y11616920D01*
X65420599Y11506039D01*
X65390045Y11405315D01*
X65340435Y11312500D01*
X65273662Y11231138D01*
X65192300Y11164365D01*
X65099485Y11114755D01*
X64998761Y11084201D01*
X64887880Y11073280D01*
X63575160Y11073280D01*
X63464279Y11084201D01*
X63363555Y11114755D01*
X63270740Y11164365D01*
X63189378Y11231138D01*
X63122605Y11312500D01*
X63072995Y11405315D01*
X63042441Y11506039D01*
X63031520Y11616920D01*
X63031520Y12929640D01*
X63042441Y13040521D01*
X63072995Y13141245D01*
X63122605Y13234060D01*
X63189378Y13315422D01*
X63270740Y13382195D01*
X63363555Y13431805D01*
X63464279Y13462359D01*
X63575160Y13473280D01*
X64887880Y13473280D01*
X64998761Y13462359D01*
X64998761Y13462359D01*
G37*
G36*
X64998761Y16942159D02*
X65099485Y16911605D01*
X65192300Y16861995D01*
X65273662Y16795222D01*
X65340435Y16713860D01*
X65390045Y16621045D01*
X65420599Y16520321D01*
X65431520Y16409440D01*
X65431520Y15096720D01*
X65420599Y14985839D01*
X65390045Y14885115D01*
X65340435Y14792300D01*
X65273662Y14710938D01*
X65192300Y14644165D01*
X65099485Y14594555D01*
X64998761Y14564001D01*
X64887880Y14553080D01*
X63575160Y14553080D01*
X63464279Y14564001D01*
X63363555Y14594555D01*
X63270740Y14644165D01*
X63189378Y14710938D01*
X63122605Y14792300D01*
X63072995Y14885115D01*
X63042441Y14985839D01*
X63031520Y15096720D01*
X63031520Y16409440D01*
X63042441Y16520321D01*
X63072995Y16621045D01*
X63122605Y16713860D01*
X63189378Y16795222D01*
X63270740Y16861995D01*
X63363555Y16911605D01*
X63464279Y16942159D01*
X63575160Y16953080D01*
X64887880Y16953080D01*
X64998761Y16942159D01*
X64998761Y16942159D01*
G37*
G36*
X35725261Y16954859D02*
X35825985Y16924305D01*
X35918800Y16874695D01*
X36000162Y16807922D01*
X36066935Y16726560D01*
X36116545Y16633745D01*
X36147099Y16533021D01*
X36158020Y16422140D01*
X36158020Y15109420D01*
X36147099Y14998539D01*
X36116545Y14897815D01*
X36066935Y14805000D01*
X36000162Y14723638D01*
X35918800Y14656865D01*
X35825985Y14607255D01*
X35725261Y14576701D01*
X35614380Y14565780D01*
X34301660Y14565780D01*
X34190779Y14576701D01*
X34090055Y14607255D01*
X33997240Y14656865D01*
X33915878Y14723638D01*
X33849105Y14805000D01*
X33799495Y14897815D01*
X33768941Y14998539D01*
X33758020Y15109420D01*
X33758020Y16422140D01*
X33768941Y16533021D01*
X33799495Y16633745D01*
X33849105Y16726560D01*
X33915878Y16807922D01*
X33997240Y16874695D01*
X34090055Y16924305D01*
X34190779Y16954859D01*
X34301660Y16965780D01*
X35614380Y16965780D01*
X35725261Y16954859D01*
X35725261Y16954859D01*
G37*
G36*
X35725261Y20447359D02*
X35825985Y20416805D01*
X35918800Y20367195D01*
X36000162Y20300422D01*
X36066935Y20219060D01*
X36116545Y20126245D01*
X36147099Y20025521D01*
X36158020Y19914640D01*
X36158020Y18601920D01*
X36147099Y18491039D01*
X36116545Y18390315D01*
X36066935Y18297500D01*
X36000162Y18216138D01*
X35918800Y18149365D01*
X35825985Y18099755D01*
X35725261Y18069201D01*
X35614380Y18058280D01*
X34301660Y18058280D01*
X34190779Y18069201D01*
X34090055Y18099755D01*
X33997240Y18149365D01*
X33915878Y18216138D01*
X33849105Y18297500D01*
X33799495Y18390315D01*
X33768941Y18491039D01*
X33758020Y18601920D01*
X33758020Y19914640D01*
X33768941Y20025521D01*
X33799495Y20126245D01*
X33849105Y20219060D01*
X33915878Y20300422D01*
X33997240Y20367195D01*
X34090055Y20416805D01*
X34190779Y20447359D01*
X34301660Y20458280D01*
X35614380Y20458280D01*
X35725261Y20447359D01*
X35725261Y20447359D01*
G37*
G36*
X65011461Y20447359D02*
X65112185Y20416805D01*
X65205000Y20367195D01*
X65286362Y20300422D01*
X65353135Y20219060D01*
X65402745Y20126245D01*
X65433299Y20025521D01*
X65444220Y19914640D01*
X65444220Y18601920D01*
X65433299Y18491039D01*
X65402745Y18390315D01*
X65353135Y18297500D01*
X65286362Y18216138D01*
X65205000Y18149365D01*
X65112185Y18099755D01*
X65011461Y18069201D01*
X64900580Y18058280D01*
X63587860Y18058280D01*
X63476979Y18069201D01*
X63376255Y18099755D01*
X63283440Y18149365D01*
X63202078Y18216138D01*
X63135305Y18297500D01*
X63085695Y18390315D01*
X63055141Y18491039D01*
X63044220Y18601920D01*
X63044220Y19914640D01*
X63055141Y20025521D01*
X63085695Y20126245D01*
X63135305Y20219060D01*
X63202078Y20300422D01*
X63283440Y20367195D01*
X63376255Y20416805D01*
X63476979Y20447359D01*
X63587860Y20458280D01*
X64900580Y20458280D01*
X65011461Y20447359D01*
X65011461Y20447359D01*
G37*
G36*
X83983296Y20660722D02*
X84219880Y20562726D01*
X84432805Y20420454D01*
X84613874Y20239385D01*
X84756146Y20026460D01*
X84854142Y19789876D01*
X84904100Y19538720D01*
X84904100Y19282640D01*
X84854142Y19031484D01*
X84756146Y18794900D01*
X84613874Y18581975D01*
X84432805Y18400906D01*
X84219880Y18258634D01*
X83983296Y18160638D01*
X83732140Y18110680D01*
X83476060Y18110680D01*
X83224904Y18160638D01*
X82988320Y18258634D01*
X82775395Y18400906D01*
X82594326Y18581975D01*
X82452054Y18794900D01*
X82354058Y19031484D01*
X82304100Y19282640D01*
X82304100Y19538720D01*
X82354058Y19789876D01*
X82452054Y20026460D01*
X82594326Y20239385D01*
X82775395Y20420454D01*
X82988320Y20562726D01*
X83224904Y20660722D01*
X83476060Y20710680D01*
X83732140Y20710680D01*
X83983296Y20660722D01*
X83983296Y20660722D01*
G37*
G36*
X15964636Y20660722D02*
X16201220Y20562726D01*
X16414145Y20420454D01*
X16595214Y20239385D01*
X16737486Y20026460D01*
X16835482Y19789876D01*
X16885440Y19538720D01*
X16885440Y19282640D01*
X16835482Y19031484D01*
X16737486Y18794900D01*
X16595214Y18581975D01*
X16414145Y18400906D01*
X16201220Y18258634D01*
X15964636Y18160638D01*
X15713480Y18110680D01*
X15457400Y18110680D01*
X15206244Y18160638D01*
X14969660Y18258634D01*
X14756735Y18400906D01*
X14575666Y18581975D01*
X14433394Y18794900D01*
X14335398Y19031484D01*
X14285440Y19282640D01*
X14285440Y19538720D01*
X14335398Y19789876D01*
X14433394Y20026460D01*
X14575666Y20239385D01*
X14756735Y20420454D01*
X14969660Y20562726D01*
X15206244Y20660722D01*
X15457400Y20710680D01*
X15713480Y20710680D01*
X15964636Y20660722D01*
X15964636Y20660722D01*
G37*
G36*
X76209789Y21736083D02*
X76258529Y21721298D01*
X76303451Y21697287D01*
X76342818Y21664978D01*
X76375127Y21625611D01*
X76399138Y21580689D01*
X76413923Y21531949D01*
X76419520Y21475123D01*
X76419520Y19808237D01*
X76413923Y19751411D01*
X76399138Y19702671D01*
X76375127Y19657749D01*
X76342818Y19618382D01*
X76303451Y19586073D01*
X76258529Y19562062D01*
X76209789Y19547277D01*
X76152963Y19541680D01*
X75086077Y19541680D01*
X75029251Y19547277D01*
X74980511Y19562062D01*
X74935589Y19586073D01*
X74896222Y19618382D01*
X74863913Y19657749D01*
X74839902Y19702671D01*
X74825117Y19751411D01*
X74819520Y19808237D01*
X74819520Y21475123D01*
X74825117Y21531949D01*
X74839902Y21580689D01*
X74863913Y21625611D01*
X74896222Y21664978D01*
X74935589Y21697287D01*
X74980511Y21721298D01*
X75029251Y21736083D01*
X75086077Y21741680D01*
X76152963Y21741680D01*
X76209789Y21736083D01*
X76209789Y21736083D01*
G37*
G36*
X68609789Y21736083D02*
X68658529Y21721298D01*
X68703451Y21697287D01*
X68742818Y21664978D01*
X68775127Y21625611D01*
X68799138Y21580689D01*
X68813923Y21531949D01*
X68819520Y21475123D01*
X68819520Y19808237D01*
X68813923Y19751411D01*
X68799138Y19702671D01*
X68775127Y19657749D01*
X68742818Y19618382D01*
X68703451Y19586073D01*
X68658529Y19562062D01*
X68609789Y19547277D01*
X68552963Y19541680D01*
X67486077Y19541680D01*
X67429251Y19547277D01*
X67380511Y19562062D01*
X67335589Y19586073D01*
X67296222Y19618382D01*
X67263913Y19657749D01*
X67239902Y19702671D01*
X67225117Y19751411D01*
X67219520Y19808237D01*
X67219520Y21475123D01*
X67225117Y21531949D01*
X67239902Y21580689D01*
X67263913Y21625611D01*
X67296222Y21664978D01*
X67335589Y21697287D01*
X67380511Y21721298D01*
X67429251Y21736083D01*
X67486077Y21741680D01*
X68552963Y21741680D01*
X68609789Y21736083D01*
X68609789Y21736083D01*
G37*
G36*
X29658020Y20075180D02*
X27558020Y20075180D01*
X27558020Y22175180D01*
X29658020Y22175180D01*
X29658020Y20075180D01*
X29658020Y20075180D01*
G37*
G36*
X26196727Y22167584D02*
X26273856Y22159987D01*
X26405807Y22119960D01*
X26471783Y22099947D01*
X26654192Y22002447D01*
X26814074Y21871234D01*
X26945287Y21711352D01*
X27042787Y21528943D01*
X27042787Y21528942D01*
X27102827Y21331016D01*
X27123100Y21125180D01*
X27102827Y20919344D01*
X27062800Y20787393D01*
X27042787Y20721417D01*
X26945287Y20539008D01*
X26814074Y20379126D01*
X26654192Y20247913D01*
X26471783Y20150413D01*
X26405807Y20130400D01*
X26273856Y20090373D01*
X26196727Y20082777D01*
X26119600Y20075180D01*
X26016440Y20075180D01*
X25939313Y20082777D01*
X25862184Y20090373D01*
X25730233Y20130400D01*
X25664257Y20150413D01*
X25481848Y20247913D01*
X25321966Y20379126D01*
X25190753Y20539008D01*
X25093253Y20721417D01*
X25073240Y20787393D01*
X25033213Y20919344D01*
X25012940Y21125180D01*
X25033213Y21331016D01*
X25093253Y21528942D01*
X25093253Y21528943D01*
X25190753Y21711352D01*
X25321966Y21871234D01*
X25481848Y22002447D01*
X25664257Y22099947D01*
X25730233Y22119960D01*
X25862184Y22159987D01*
X25939313Y22167584D01*
X26016440Y22175180D01*
X26119600Y22175180D01*
X26196727Y22167584D01*
X26196727Y22167584D01*
G37*
G36*
X64998761Y23952559D02*
X65099485Y23922005D01*
X65192300Y23872395D01*
X65273662Y23805622D01*
X65340435Y23724260D01*
X65390045Y23631445D01*
X65420599Y23530721D01*
X65431520Y23419840D01*
X65431520Y22107120D01*
X65420599Y21996239D01*
X65390045Y21895515D01*
X65340435Y21802700D01*
X65273662Y21721338D01*
X65192300Y21654565D01*
X65099485Y21604955D01*
X64998761Y21574401D01*
X64887880Y21563480D01*
X63575160Y21563480D01*
X63464279Y21574401D01*
X63363555Y21604955D01*
X63270740Y21654565D01*
X63189378Y21721338D01*
X63122605Y21802700D01*
X63072995Y21895515D01*
X63042441Y21996239D01*
X63031520Y22107120D01*
X63031520Y23419840D01*
X63042441Y23530721D01*
X63072995Y23631445D01*
X63122605Y23724260D01*
X63189378Y23805622D01*
X63270740Y23872395D01*
X63363555Y23922005D01*
X63464279Y23952559D01*
X63575160Y23963480D01*
X64887880Y23963480D01*
X64998761Y23952559D01*
X64998761Y23952559D01*
G37*
G36*
X35725261Y23965259D02*
X35825985Y23934705D01*
X35918800Y23885095D01*
X36000162Y23818322D01*
X36066935Y23736960D01*
X36116545Y23644145D01*
X36147099Y23543421D01*
X36158020Y23432540D01*
X36158020Y22119820D01*
X36147099Y22008939D01*
X36116545Y21908215D01*
X36066935Y21815400D01*
X36000162Y21734038D01*
X35918800Y21667265D01*
X35825985Y21617655D01*
X35725261Y21587101D01*
X35614380Y21576180D01*
X34301660Y21576180D01*
X34190779Y21587101D01*
X34090055Y21617655D01*
X33997240Y21667265D01*
X33915878Y21734038D01*
X33849105Y21815400D01*
X33799495Y21908215D01*
X33768941Y22008939D01*
X33758020Y22119820D01*
X33758020Y23432540D01*
X33768941Y23543421D01*
X33799495Y23644145D01*
X33849105Y23736960D01*
X33915878Y23818322D01*
X33997240Y23885095D01*
X34090055Y23934705D01*
X34190779Y23965259D01*
X34301660Y23976180D01*
X35614380Y23976180D01*
X35725261Y23965259D01*
X35725261Y23965259D01*
G37*
G36*
X69668480Y25487484D02*
X69703543Y25476848D01*
X69735856Y25459576D01*
X69740222Y25455993D01*
X69760597Y25442379D01*
X69783236Y25433002D01*
X69807269Y25428222D01*
X69831774Y25428222D01*
X69855807Y25433003D01*
X69878446Y25442381D01*
X69898818Y25455993D01*
X69903184Y25459576D01*
X69935497Y25476848D01*
X69970560Y25487484D01*
X70013161Y25491680D01*
X70625879Y25491680D01*
X70668480Y25487484D01*
X70703543Y25476848D01*
X70735856Y25459576D01*
X70740222Y25455993D01*
X70760597Y25442379D01*
X70783236Y25433002D01*
X70807269Y25428222D01*
X70831774Y25428222D01*
X70855807Y25433003D01*
X70878446Y25442381D01*
X70898818Y25455993D01*
X70903184Y25459576D01*
X70935497Y25476848D01*
X70970560Y25487484D01*
X71013161Y25491680D01*
X71625879Y25491680D01*
X71668480Y25487484D01*
X71703543Y25476848D01*
X71735856Y25459576D01*
X71740222Y25455993D01*
X71760597Y25442379D01*
X71783236Y25433002D01*
X71807269Y25428222D01*
X71831774Y25428222D01*
X71855807Y25433003D01*
X71878446Y25442381D01*
X71898818Y25455993D01*
X71903184Y25459576D01*
X71935497Y25476848D01*
X71970560Y25487484D01*
X72013161Y25491680D01*
X72625879Y25491680D01*
X72668480Y25487484D01*
X72703543Y25476848D01*
X72735856Y25459576D01*
X72740222Y25455993D01*
X72760597Y25442379D01*
X72783236Y25433002D01*
X72807269Y25428222D01*
X72831774Y25428222D01*
X72855807Y25433003D01*
X72878446Y25442381D01*
X72898818Y25455993D01*
X72903184Y25459576D01*
X72935497Y25476848D01*
X72970560Y25487484D01*
X73013161Y25491680D01*
X73625879Y25491680D01*
X73668480Y25487484D01*
X73703543Y25476848D01*
X73735856Y25459576D01*
X73740222Y25455993D01*
X73760597Y25442379D01*
X73783236Y25433002D01*
X73807269Y25428222D01*
X73831774Y25428222D01*
X73855807Y25433003D01*
X73878446Y25442381D01*
X73898818Y25455993D01*
X73903184Y25459576D01*
X73935497Y25476848D01*
X73970560Y25487484D01*
X74013161Y25491680D01*
X74625879Y25491680D01*
X74668480Y25487484D01*
X74703543Y25476848D01*
X74735852Y25459578D01*
X74764175Y25436335D01*
X74787418Y25408012D01*
X74804688Y25375703D01*
X74815324Y25340640D01*
X74819520Y25298039D01*
X74819520Y23735321D01*
X74815324Y23692720D01*
X74804688Y23657657D01*
X74787418Y23625348D01*
X74764175Y23597025D01*
X74735852Y23573782D01*
X74703543Y23556512D01*
X74668480Y23545876D01*
X74625879Y23541680D01*
X74013161Y23541680D01*
X73970560Y23545876D01*
X73935497Y23556512D01*
X73903184Y23573784D01*
X73898818Y23577367D01*
X73878443Y23590981D01*
X73855804Y23600358D01*
X73831771Y23605138D01*
X73807266Y23605138D01*
X73783233Y23600357D01*
X73760594Y23590979D01*
X73740222Y23577367D01*
X73735856Y23573784D01*
X73703543Y23556512D01*
X73668480Y23545876D01*
X73625879Y23541680D01*
X73013161Y23541680D01*
X72970560Y23545876D01*
X72935497Y23556512D01*
X72903184Y23573784D01*
X72898818Y23577367D01*
X72878443Y23590981D01*
X72855804Y23600358D01*
X72831771Y23605138D01*
X72807266Y23605138D01*
X72783233Y23600357D01*
X72760594Y23590979D01*
X72740222Y23577367D01*
X72735856Y23573784D01*
X72703543Y23556512D01*
X72668480Y23545876D01*
X72625879Y23541680D01*
X72013161Y23541680D01*
X71970560Y23545876D01*
X71935497Y23556512D01*
X71903184Y23573784D01*
X71898818Y23577367D01*
X71878443Y23590981D01*
X71855804Y23600358D01*
X71831771Y23605138D01*
X71807266Y23605138D01*
X71783233Y23600357D01*
X71760594Y23590979D01*
X71740222Y23577367D01*
X71735856Y23573784D01*
X71703543Y23556512D01*
X71668480Y23545876D01*
X71625879Y23541680D01*
X71013161Y23541680D01*
X70970560Y23545876D01*
X70935497Y23556512D01*
X70903184Y23573784D01*
X70898818Y23577367D01*
X70878443Y23590981D01*
X70855804Y23600358D01*
X70831771Y23605138D01*
X70807266Y23605138D01*
X70783233Y23600357D01*
X70760594Y23590979D01*
X70740222Y23577367D01*
X70735856Y23573784D01*
X70703543Y23556512D01*
X70668480Y23545876D01*
X70625879Y23541680D01*
X70013161Y23541680D01*
X69970560Y23545876D01*
X69935497Y23556512D01*
X69903184Y23573784D01*
X69898818Y23577367D01*
X69878443Y23590981D01*
X69855804Y23600358D01*
X69831771Y23605138D01*
X69807266Y23605138D01*
X69783233Y23600357D01*
X69760594Y23590979D01*
X69740222Y23577367D01*
X69735856Y23573784D01*
X69703543Y23556512D01*
X69668480Y23545876D01*
X69625879Y23541680D01*
X69013161Y23541680D01*
X68970560Y23545876D01*
X68935497Y23556512D01*
X68903188Y23573782D01*
X68874865Y23597025D01*
X68851622Y23625348D01*
X68834352Y23657657D01*
X68823716Y23692720D01*
X68819520Y23735321D01*
X68819520Y25298039D01*
X68823716Y25340640D01*
X68834352Y25375703D01*
X68851622Y25408012D01*
X68874865Y25436335D01*
X68903188Y25459578D01*
X68935497Y25476848D01*
X68970560Y25487484D01*
X69013161Y25491680D01*
X69625879Y25491680D01*
X69668480Y25487484D01*
X69668480Y25487484D01*
G37*
G36*
X64998761Y27445059D02*
X65099485Y27414505D01*
X65192300Y27364895D01*
X65273662Y27298122D01*
X65340435Y27216760D01*
X65390045Y27123945D01*
X65420599Y27023221D01*
X65431520Y26912340D01*
X65431520Y25599620D01*
X65420599Y25488739D01*
X65390045Y25388015D01*
X65340435Y25295200D01*
X65273662Y25213838D01*
X65192300Y25147065D01*
X65099485Y25097455D01*
X64998761Y25066901D01*
X64887880Y25055980D01*
X63575160Y25055980D01*
X63464279Y25066901D01*
X63363555Y25097455D01*
X63270740Y25147065D01*
X63189378Y25213838D01*
X63122605Y25295200D01*
X63072995Y25388015D01*
X63042441Y25488739D01*
X63031520Y25599620D01*
X63031520Y26912340D01*
X63042441Y27023221D01*
X63072995Y27123945D01*
X63122605Y27216760D01*
X63189378Y27298122D01*
X63270740Y27364895D01*
X63363555Y27414505D01*
X63464279Y27445059D01*
X63575160Y27455980D01*
X64887880Y27455980D01*
X64998761Y27445059D01*
X64998761Y27445059D01*
G37*
G36*
X35687161Y27457759D02*
X35787885Y27427205D01*
X35880700Y27377595D01*
X35962062Y27310822D01*
X36028835Y27229460D01*
X36078445Y27136645D01*
X36108999Y27035921D01*
X36119920Y26925040D01*
X36119920Y25612320D01*
X36108999Y25501439D01*
X36078445Y25400715D01*
X36028835Y25307900D01*
X35962062Y25226538D01*
X35880700Y25159765D01*
X35787885Y25110155D01*
X35687161Y25079601D01*
X35576280Y25068680D01*
X34263560Y25068680D01*
X34152679Y25079601D01*
X34051955Y25110155D01*
X33959140Y25159765D01*
X33877778Y25226538D01*
X33811005Y25307900D01*
X33761395Y25400715D01*
X33730841Y25501439D01*
X33719920Y25612320D01*
X33719920Y26925040D01*
X33730841Y27035921D01*
X33761395Y27136645D01*
X33811005Y27229460D01*
X33877778Y27310822D01*
X33959140Y27377595D01*
X34051955Y27427205D01*
X34152679Y27457759D01*
X34263560Y27468680D01*
X35576280Y27468680D01*
X35687161Y27457759D01*
X35687161Y27457759D01*
G37*
G36*
X53276661Y31636759D02*
X53377385Y31606205D01*
X53470200Y31556595D01*
X53551562Y31489822D01*
X53618335Y31408460D01*
X53667945Y31315645D01*
X53698499Y31214921D01*
X53709420Y31104040D01*
X53709420Y28291320D01*
X53698499Y28180439D01*
X53667945Y28079715D01*
X53618335Y27986900D01*
X53551562Y27905538D01*
X53470200Y27838765D01*
X53377385Y27789155D01*
X53276661Y27758601D01*
X53165780Y27747680D01*
X51853060Y27747680D01*
X51742179Y27758601D01*
X51641455Y27789155D01*
X51548640Y27838765D01*
X51467278Y27905538D01*
X51400505Y27986900D01*
X51350895Y28079715D01*
X51320341Y28180439D01*
X51309420Y28291320D01*
X51309420Y31104040D01*
X51320341Y31214921D01*
X51350895Y31315645D01*
X51400505Y31408460D01*
X51467278Y31489822D01*
X51548640Y31556595D01*
X51641455Y31606205D01*
X51742179Y31636759D01*
X51853060Y31647680D01*
X53165780Y31647680D01*
X53276661Y31636759D01*
X53276661Y31636759D01*
G37*
G36*
X47790261Y31649459D02*
X47890985Y31618905D01*
X47983800Y31569295D01*
X48065162Y31502522D01*
X48131935Y31421160D01*
X48181545Y31328345D01*
X48212099Y31227621D01*
X48223020Y31116740D01*
X48223020Y28304020D01*
X48212099Y28193139D01*
X48181545Y28092415D01*
X48131935Y27999600D01*
X48065162Y27918238D01*
X47983800Y27851465D01*
X47890985Y27801855D01*
X47790261Y27771301D01*
X47679380Y27760380D01*
X46366660Y27760380D01*
X46255779Y27771301D01*
X46155055Y27801855D01*
X46062240Y27851465D01*
X45980878Y27918238D01*
X45914105Y27999600D01*
X45864495Y28092415D01*
X45833941Y28193139D01*
X45823020Y28304020D01*
X45823020Y31116740D01*
X45833941Y31227621D01*
X45864495Y31328345D01*
X45914105Y31421160D01*
X45980878Y31502522D01*
X46062240Y31569295D01*
X46155055Y31618905D01*
X46255779Y31649459D01*
X46366660Y31660380D01*
X47679380Y31660380D01*
X47790261Y31649459D01*
X47790261Y31649459D01*
G37*
G36*
X91546744Y29447752D02*
X91678695Y29407725D01*
X91800301Y29342725D01*
X91906890Y29255250D01*
X91947900Y29205279D01*
X91965221Y29187958D01*
X91985596Y29174344D01*
X92008235Y29164966D01*
X92032268Y29160186D01*
X92056772Y29160186D01*
X92080806Y29164967D01*
X92103445Y29174344D01*
X92123819Y29187958D01*
X92141140Y29205279D01*
X92182150Y29255250D01*
X92288739Y29342725D01*
X92410345Y29407725D01*
X92542296Y29447752D01*
X92645130Y29457880D01*
X92713910Y29457880D01*
X92816744Y29447752D01*
X92948695Y29407725D01*
X93070301Y29342725D01*
X93176890Y29255250D01*
X93217900Y29205279D01*
X93235221Y29187958D01*
X93255596Y29174344D01*
X93278235Y29164966D01*
X93302268Y29160186D01*
X93326772Y29160186D01*
X93350806Y29164967D01*
X93373445Y29174344D01*
X93393819Y29187958D01*
X93411140Y29205279D01*
X93452150Y29255250D01*
X93558739Y29342725D01*
X93680345Y29407725D01*
X93812296Y29447752D01*
X93915130Y29457880D01*
X93983910Y29457880D01*
X94086744Y29447752D01*
X94218695Y29407725D01*
X94340301Y29342725D01*
X94446890Y29255250D01*
X94487900Y29205279D01*
X94505221Y29187958D01*
X94525596Y29174344D01*
X94548235Y29164966D01*
X94572268Y29160186D01*
X94596772Y29160186D01*
X94620806Y29164967D01*
X94643445Y29174344D01*
X94663819Y29187958D01*
X94681140Y29205279D01*
X94722150Y29255250D01*
X94828739Y29342725D01*
X94950345Y29407725D01*
X95082296Y29447752D01*
X95185130Y29457880D01*
X95253910Y29457880D01*
X95356744Y29447752D01*
X95488695Y29407725D01*
X95547709Y29376181D01*
X95605596Y29345240D01*
X95628235Y29335862D01*
X95652268Y29331082D01*
X95676773Y29331082D01*
X95700806Y29335863D01*
X95723445Y29345240D01*
X95743820Y29358854D01*
X95761147Y29376181D01*
X95774760Y29396556D01*
X95784138Y29419195D01*
X95789520Y29455480D01*
X95789520Y29457880D01*
X97189520Y29457880D01*
X97189520Y28057880D01*
X95789520Y28057880D01*
X95789520Y28060280D01*
X95787118Y28084666D01*
X95780005Y28108115D01*
X95768454Y28129726D01*
X95752908Y28148668D01*
X95733966Y28164214D01*
X95712355Y28175765D01*
X95688906Y28182878D01*
X95664520Y28185280D01*
X95640134Y28182878D01*
X95605595Y28170520D01*
X95488695Y28108035D01*
X95356744Y28068008D01*
X95253910Y28057880D01*
X95185130Y28057880D01*
X95082296Y28068008D01*
X94950345Y28108035D01*
X94828739Y28173035D01*
X94722150Y28260510D01*
X94681140Y28310481D01*
X94663819Y28327802D01*
X94643444Y28341416D01*
X94620805Y28350794D01*
X94596772Y28355574D01*
X94572268Y28355574D01*
X94548234Y28350793D01*
X94525595Y28341416D01*
X94505221Y28327802D01*
X94487900Y28310481D01*
X94446890Y28260510D01*
X94340301Y28173035D01*
X94218695Y28108035D01*
X94086744Y28068008D01*
X93983910Y28057880D01*
X93915130Y28057880D01*
X93812296Y28068008D01*
X93680345Y28108035D01*
X93558739Y28173035D01*
X93452150Y28260510D01*
X93411140Y28310481D01*
X93393819Y28327802D01*
X93373444Y28341416D01*
X93350805Y28350794D01*
X93326772Y28355574D01*
X93302268Y28355574D01*
X93278234Y28350793D01*
X93255595Y28341416D01*
X93235221Y28327802D01*
X93217900Y28310481D01*
X93176890Y28260510D01*
X93070301Y28173035D01*
X92948695Y28108035D01*
X92816744Y28068008D01*
X92713910Y28057880D01*
X92645130Y28057880D01*
X92542296Y28068008D01*
X92410345Y28108035D01*
X92288739Y28173035D01*
X92182150Y28260510D01*
X92141140Y28310481D01*
X92123819Y28327802D01*
X92103444Y28341416D01*
X92080805Y28350794D01*
X92056772Y28355574D01*
X92032268Y28355574D01*
X92008234Y28350793D01*
X91985595Y28341416D01*
X91965221Y28327802D01*
X91947900Y28310481D01*
X91906890Y28260510D01*
X91800301Y28173035D01*
X91678695Y28108035D01*
X91546744Y28068008D01*
X91443910Y28057880D01*
X91375130Y28057880D01*
X91272296Y28068008D01*
X91140345Y28108035D01*
X91018739Y28173035D01*
X90912150Y28260510D01*
X90824675Y28367099D01*
X90759675Y28488705D01*
X90719648Y28620656D01*
X90706133Y28757880D01*
X90719648Y28895104D01*
X90759675Y29027055D01*
X90824675Y29148661D01*
X90912150Y29255250D01*
X91018739Y29342725D01*
X91140345Y29407725D01*
X91272296Y29447752D01*
X91375130Y29457880D01*
X91443910Y29457880D01*
X91546744Y29447752D01*
X91546744Y29447752D01*
G37*
G36*
X2677224Y29595072D02*
X2809175Y29555045D01*
X2930781Y29490045D01*
X3037370Y29402570D01*
X3078380Y29352599D01*
X3095701Y29335278D01*
X3116076Y29321664D01*
X3138715Y29312286D01*
X3162748Y29307506D01*
X3187252Y29307506D01*
X3211286Y29312287D01*
X3233925Y29321664D01*
X3254299Y29335278D01*
X3271620Y29352599D01*
X3312630Y29402570D01*
X3419219Y29490045D01*
X3540825Y29555045D01*
X3672776Y29595072D01*
X3775610Y29605200D01*
X3844390Y29605200D01*
X3947224Y29595072D01*
X4079175Y29555045D01*
X4200781Y29490045D01*
X4307370Y29402570D01*
X4348380Y29352599D01*
X4365701Y29335278D01*
X4386076Y29321664D01*
X4408715Y29312286D01*
X4432748Y29307506D01*
X4457252Y29307506D01*
X4481286Y29312287D01*
X4503925Y29321664D01*
X4524299Y29335278D01*
X4541620Y29352599D01*
X4582630Y29402570D01*
X4689219Y29490045D01*
X4810825Y29555045D01*
X4942776Y29595072D01*
X5045610Y29605200D01*
X5114390Y29605200D01*
X5217224Y29595072D01*
X5349175Y29555045D01*
X5470781Y29490045D01*
X5577370Y29402570D01*
X5618380Y29352599D01*
X5635701Y29335278D01*
X5656076Y29321664D01*
X5678715Y29312286D01*
X5702748Y29307506D01*
X5727252Y29307506D01*
X5751286Y29312287D01*
X5773925Y29321664D01*
X5794299Y29335278D01*
X5811620Y29352599D01*
X5852630Y29402570D01*
X5959219Y29490045D01*
X6080825Y29555045D01*
X6212776Y29595072D01*
X6315610Y29605200D01*
X6384390Y29605200D01*
X6487224Y29595072D01*
X6619175Y29555045D01*
X6678189Y29523501D01*
X6736076Y29492560D01*
X6758715Y29483182D01*
X6782748Y29478402D01*
X6807253Y29478402D01*
X6831286Y29483183D01*
X6853925Y29492560D01*
X6874300Y29506174D01*
X6891627Y29523501D01*
X6905240Y29543876D01*
X6914618Y29566515D01*
X6920000Y29602800D01*
X6920000Y29605200D01*
X8320000Y29605200D01*
X8320000Y28205200D01*
X6920000Y28205200D01*
X6920000Y28207600D01*
X6917598Y28231986D01*
X6910485Y28255435D01*
X6898934Y28277046D01*
X6883388Y28295988D01*
X6864446Y28311534D01*
X6842835Y28323085D01*
X6819386Y28330198D01*
X6795000Y28332600D01*
X6770614Y28330198D01*
X6736075Y28317840D01*
X6619175Y28255355D01*
X6487224Y28215328D01*
X6384390Y28205200D01*
X6315610Y28205200D01*
X6212776Y28215328D01*
X6080825Y28255355D01*
X5959219Y28320355D01*
X5852630Y28407830D01*
X5811620Y28457801D01*
X5794299Y28475122D01*
X5773924Y28488736D01*
X5751285Y28498114D01*
X5727252Y28502894D01*
X5702748Y28502894D01*
X5678714Y28498113D01*
X5656075Y28488736D01*
X5635701Y28475122D01*
X5618380Y28457801D01*
X5577370Y28407830D01*
X5470781Y28320355D01*
X5349175Y28255355D01*
X5217224Y28215328D01*
X5114390Y28205200D01*
X5045610Y28205200D01*
X4942776Y28215328D01*
X4810825Y28255355D01*
X4689219Y28320355D01*
X4582630Y28407830D01*
X4541620Y28457801D01*
X4524299Y28475122D01*
X4503924Y28488736D01*
X4481285Y28498114D01*
X4457252Y28502894D01*
X4432748Y28502894D01*
X4408714Y28498113D01*
X4386075Y28488736D01*
X4365701Y28475122D01*
X4348380Y28457801D01*
X4307370Y28407830D01*
X4200781Y28320355D01*
X4079175Y28255355D01*
X3947224Y28215328D01*
X3844390Y28205200D01*
X3775610Y28205200D01*
X3672776Y28215328D01*
X3540825Y28255355D01*
X3419219Y28320355D01*
X3312630Y28407830D01*
X3271620Y28457801D01*
X3254299Y28475122D01*
X3233924Y28488736D01*
X3211285Y28498114D01*
X3187252Y28502894D01*
X3162748Y28502894D01*
X3138714Y28498113D01*
X3116075Y28488736D01*
X3095701Y28475122D01*
X3078380Y28457801D01*
X3037370Y28407830D01*
X2930781Y28320355D01*
X2809175Y28255355D01*
X2677224Y28215328D01*
X2574390Y28205200D01*
X2505610Y28205200D01*
X2402776Y28215328D01*
X2270825Y28255355D01*
X2149219Y28320355D01*
X2042630Y28407830D01*
X1955155Y28514419D01*
X1890155Y28636025D01*
X1850128Y28767976D01*
X1836613Y28905200D01*
X1850128Y29042424D01*
X1890155Y29174375D01*
X1955155Y29295981D01*
X2042630Y29402570D01*
X2149219Y29490045D01*
X2270825Y29555045D01*
X2402776Y29595072D01*
X2505610Y29605200D01*
X2574390Y29605200D01*
X2677224Y29595072D01*
X2677224Y29595072D01*
G37*
G36*
X75797723Y33642687D02*
X75797726Y33642686D01*
X75797727Y33642686D01*
X75813293Y33637964D01*
X75835428Y33631250D01*
X75855376Y33620587D01*
X75870172Y33612679D01*
X75870173Y33612678D01*
X75870175Y33612677D01*
X75900626Y33587686D01*
X75925617Y33557235D01*
X75944190Y33522488D01*
X75944190Y33522487D01*
X75954852Y33487340D01*
X75955627Y33484783D01*
X75960093Y33439440D01*
X75960093Y30451720D01*
X75955627Y30406377D01*
X75944190Y30368672D01*
X75925617Y30333925D01*
X75900626Y30303474D01*
X75870175Y30278483D01*
X75870173Y30278482D01*
X75870172Y30278481D01*
X75855376Y30270573D01*
X75835428Y30259910D01*
X75813293Y30253196D01*
X75797727Y30248474D01*
X75797726Y30248474D01*
X75797723Y30248473D01*
X75752380Y30244007D01*
X72014660Y30244007D01*
X71969317Y30248473D01*
X71969314Y30248474D01*
X71969313Y30248474D01*
X71953747Y30253196D01*
X71931612Y30259910D01*
X71911664Y30270573D01*
X71896868Y30278481D01*
X71896867Y30278482D01*
X71896865Y30278483D01*
X71866414Y30303474D01*
X71841423Y30333925D01*
X71822850Y30368672D01*
X71811413Y30406377D01*
X71806947Y30451720D01*
X71806947Y33439440D01*
X71811413Y33484783D01*
X71812189Y33487340D01*
X71822850Y33522487D01*
X71822850Y33522488D01*
X71841423Y33557235D01*
X71866414Y33587686D01*
X71896865Y33612677D01*
X71896867Y33612678D01*
X71896868Y33612679D01*
X71911664Y33620587D01*
X71931612Y33631250D01*
X71953747Y33637964D01*
X71969313Y33642686D01*
X71969314Y33642686D01*
X71969317Y33642687D01*
X72014660Y33647153D01*
X75752380Y33647153D01*
X75797723Y33642687D01*
X75797723Y33642687D01*
G37*
G36*
X27283723Y33642687D02*
X27283726Y33642686D01*
X27283727Y33642686D01*
X27299293Y33637964D01*
X27321428Y33631250D01*
X27341376Y33620587D01*
X27356172Y33612679D01*
X27356173Y33612678D01*
X27356175Y33612677D01*
X27386626Y33587686D01*
X27411617Y33557235D01*
X27430190Y33522488D01*
X27430190Y33522487D01*
X27440852Y33487340D01*
X27441627Y33484783D01*
X27446093Y33439440D01*
X27446093Y30451720D01*
X27441627Y30406377D01*
X27430190Y30368672D01*
X27411617Y30333925D01*
X27386626Y30303474D01*
X27356175Y30278483D01*
X27356173Y30278482D01*
X27356172Y30278481D01*
X27341376Y30270573D01*
X27321428Y30259910D01*
X27299293Y30253196D01*
X27283727Y30248474D01*
X27283726Y30248474D01*
X27283723Y30248473D01*
X27238380Y30244007D01*
X23500660Y30244007D01*
X23455317Y30248473D01*
X23455314Y30248474D01*
X23455313Y30248474D01*
X23439747Y30253196D01*
X23417612Y30259910D01*
X23397664Y30270573D01*
X23382868Y30278481D01*
X23382867Y30278482D01*
X23382865Y30278483D01*
X23352414Y30303474D01*
X23327423Y30333925D01*
X23308850Y30368672D01*
X23297413Y30406377D01*
X23292947Y30451720D01*
X23292947Y33439440D01*
X23297413Y33484783D01*
X23298189Y33487340D01*
X23308850Y33522487D01*
X23308850Y33522488D01*
X23327423Y33557235D01*
X23352414Y33587686D01*
X23382865Y33612677D01*
X23382867Y33612678D01*
X23382868Y33612679D01*
X23397664Y33620587D01*
X23417612Y33631250D01*
X23439747Y33637964D01*
X23455313Y33642686D01*
X23455314Y33642686D01*
X23455317Y33642687D01*
X23500660Y33647153D01*
X27238380Y33647153D01*
X27283723Y33642687D01*
X27283723Y33642687D01*
G37*
G36*
X59169146Y34012657D02*
X59293321Y33974989D01*
X59407746Y33913828D01*
X59508051Y33831511D01*
X59590368Y33731206D01*
X59651529Y33616781D01*
X59689197Y33492606D01*
X59702520Y33357340D01*
X59702520Y31794620D01*
X59689197Y31659354D01*
X59651529Y31535179D01*
X59590368Y31420754D01*
X59508051Y31320449D01*
X59407746Y31238132D01*
X59293321Y31176971D01*
X59169146Y31139303D01*
X59033880Y31125980D01*
X56221160Y31125980D01*
X56085894Y31139303D01*
X55961719Y31176971D01*
X55847294Y31238132D01*
X55746989Y31320449D01*
X55664672Y31420754D01*
X55603511Y31535179D01*
X55565843Y31659354D01*
X55552520Y31794620D01*
X55552520Y33357340D01*
X55565843Y33492606D01*
X55603511Y33616781D01*
X55664672Y33731206D01*
X55746989Y33831511D01*
X55847294Y33913828D01*
X55961719Y33974989D01*
X56085894Y34012657D01*
X56221160Y34025980D01*
X59033880Y34025980D01*
X59169146Y34012657D01*
X59169146Y34012657D01*
G37*
G36*
X43167146Y34012657D02*
X43291321Y33974989D01*
X43405746Y33913828D01*
X43506051Y33831511D01*
X43588368Y33731206D01*
X43649529Y33616781D01*
X43687197Y33492606D01*
X43700520Y33357340D01*
X43700520Y31794620D01*
X43687197Y31659354D01*
X43649529Y31535179D01*
X43588368Y31420754D01*
X43506051Y31320449D01*
X43405746Y31238132D01*
X43291321Y31176971D01*
X43167146Y31139303D01*
X43031880Y31125980D01*
X40219160Y31125980D01*
X40083894Y31139303D01*
X39959719Y31176971D01*
X39845294Y31238132D01*
X39744989Y31320449D01*
X39662672Y31420754D01*
X39601511Y31535179D01*
X39563843Y31659354D01*
X39550520Y31794620D01*
X39550520Y33357340D01*
X39563843Y33492606D01*
X39601511Y33616781D01*
X39662672Y33731206D01*
X39744989Y33831511D01*
X39845294Y33913828D01*
X39959719Y33974989D01*
X40083894Y34012657D01*
X40219160Y34025980D01*
X43031880Y34025980D01*
X43167146Y34012657D01*
X43167146Y34012657D01*
G37*
G36*
X96688020Y32445380D02*
X91338020Y32445380D01*
X91338020Y34045380D01*
X96688020Y34045380D01*
X96688020Y32445380D01*
X96688020Y32445380D01*
G37*
G36*
X7788020Y32586880D02*
X2438020Y32586880D01*
X2438020Y34186880D01*
X7788020Y34186880D01*
X7788020Y32586880D01*
X7788020Y32586880D01*
G37*
G36*
X67688642Y36836365D02*
X67804561Y36813307D01*
X68132140Y36677619D01*
X68423031Y36483252D01*
X68426956Y36480629D01*
X68677669Y36229916D01*
X68677671Y36229913D01*
X68874659Y35935100D01*
X68951198Y35750320D01*
X69010347Y35607520D01*
X69069966Y35307798D01*
X69079520Y35259764D01*
X69079520Y34905196D01*
X69010347Y34557439D01*
X68874659Y34229860D01*
X68729528Y34012657D01*
X68677669Y33935044D01*
X68426956Y33684331D01*
X68426953Y33684329D01*
X68132140Y33487341D01*
X68132139Y33487340D01*
X68132138Y33487340D01*
X68036194Y33447599D01*
X67804561Y33351653D01*
X67688642Y33328595D01*
X67456806Y33282480D01*
X67102234Y33282480D01*
X66870398Y33328595D01*
X66754479Y33351653D01*
X66522846Y33447599D01*
X66426902Y33487340D01*
X66426901Y33487340D01*
X66426900Y33487341D01*
X66132087Y33684329D01*
X66132084Y33684331D01*
X65881371Y33935044D01*
X65829512Y34012657D01*
X65684381Y34229860D01*
X65548693Y34557439D01*
X65479520Y34905196D01*
X65479520Y35259764D01*
X65489075Y35307798D01*
X65548693Y35607520D01*
X65607843Y35750320D01*
X65684381Y35935100D01*
X65881369Y36229913D01*
X65881371Y36229916D01*
X66132084Y36480629D01*
X66136009Y36483252D01*
X66426900Y36677619D01*
X66754479Y36813307D01*
X66870398Y36836365D01*
X67102234Y36882480D01*
X67456806Y36882480D01*
X67688642Y36836365D01*
X67688642Y36836365D01*
G37*
G36*
X32331842Y36836365D02*
X32447761Y36813307D01*
X32775340Y36677619D01*
X33066231Y36483252D01*
X33070156Y36480629D01*
X33320869Y36229916D01*
X33320871Y36229913D01*
X33517859Y35935100D01*
X33594398Y35750320D01*
X33653547Y35607520D01*
X33713166Y35307798D01*
X33722720Y35259764D01*
X33722720Y34905196D01*
X33653547Y34557439D01*
X33517859Y34229860D01*
X33372728Y34012657D01*
X33320869Y33935044D01*
X33070156Y33684331D01*
X33070153Y33684329D01*
X32775340Y33487341D01*
X32775339Y33487340D01*
X32775338Y33487340D01*
X32679394Y33447599D01*
X32447761Y33351653D01*
X32331842Y33328595D01*
X32100006Y33282480D01*
X31745434Y33282480D01*
X31513598Y33328595D01*
X31397679Y33351653D01*
X31166046Y33447599D01*
X31070102Y33487340D01*
X31070101Y33487340D01*
X31070100Y33487341D01*
X30775287Y33684329D01*
X30775284Y33684331D01*
X30524571Y33935044D01*
X30472712Y34012657D01*
X30327581Y34229860D01*
X30191893Y34557439D01*
X30122720Y34905196D01*
X30122720Y35259764D01*
X30132275Y35307798D01*
X30191893Y35607520D01*
X30251043Y35750320D01*
X30327581Y35935100D01*
X30524569Y36229913D01*
X30524571Y36229916D01*
X30775284Y36480629D01*
X30779209Y36483252D01*
X31070100Y36677619D01*
X31397679Y36813307D01*
X31513598Y36836365D01*
X31745434Y36882480D01*
X32100006Y36882480D01*
X32331842Y36836365D01*
X32331842Y36836365D01*
G37*
G36*
X74576761Y42675759D02*
X74677485Y42645205D01*
X74770300Y42595595D01*
X74851662Y42528822D01*
X74918435Y42447460D01*
X74968045Y42354645D01*
X74998599Y42253921D01*
X75009520Y42143040D01*
X75009520Y40830320D01*
X74998599Y40719439D01*
X74968045Y40618715D01*
X74918435Y40525900D01*
X74851662Y40444538D01*
X74770300Y40377765D01*
X74675174Y40326920D01*
X74654799Y40313306D01*
X74637472Y40295979D01*
X74623858Y40275605D01*
X74614481Y40252966D01*
X74609700Y40228932D01*
X74609700Y40204428D01*
X74614480Y40180395D01*
X74623858Y40157756D01*
X74637472Y40137381D01*
X74654799Y40120054D01*
X74675174Y40106440D01*
X74770300Y40055595D01*
X74851662Y39988822D01*
X74918435Y39907460D01*
X74968045Y39814645D01*
X74998599Y39713921D01*
X75009520Y39603040D01*
X75009520Y38290320D01*
X74998599Y38179439D01*
X74968045Y38078715D01*
X74918435Y37985900D01*
X74851662Y37904538D01*
X74770300Y37837765D01*
X74675174Y37786920D01*
X74654799Y37773306D01*
X74637472Y37755979D01*
X74623858Y37735605D01*
X74614481Y37712966D01*
X74609700Y37688932D01*
X74609700Y37664428D01*
X74614480Y37640395D01*
X74623858Y37617756D01*
X74637472Y37597381D01*
X74654799Y37580054D01*
X74675174Y37566440D01*
X74770300Y37515595D01*
X74851662Y37448822D01*
X74918435Y37367460D01*
X74968045Y37274645D01*
X74998599Y37173921D01*
X75009520Y37063040D01*
X75009520Y35750320D01*
X74998599Y35639439D01*
X74968045Y35538715D01*
X74918435Y35445900D01*
X74851662Y35364538D01*
X74770300Y35297765D01*
X74677485Y35248155D01*
X74576761Y35217601D01*
X74465880Y35206680D01*
X72153160Y35206680D01*
X72042279Y35217601D01*
X71941555Y35248155D01*
X71848740Y35297765D01*
X71767378Y35364538D01*
X71700605Y35445900D01*
X71650995Y35538715D01*
X71620441Y35639439D01*
X71609520Y35750320D01*
X71609520Y37063040D01*
X71620441Y37173921D01*
X71650995Y37274645D01*
X71700605Y37367460D01*
X71767378Y37448822D01*
X71848740Y37515595D01*
X71943866Y37566440D01*
X71964241Y37580054D01*
X71981568Y37597381D01*
X71995182Y37617755D01*
X72004559Y37640394D01*
X72009340Y37664428D01*
X72009340Y37688932D01*
X72004560Y37712965D01*
X71995182Y37735604D01*
X71981568Y37755979D01*
X71964241Y37773306D01*
X71943866Y37786920D01*
X71848740Y37837765D01*
X71767378Y37904538D01*
X71700605Y37985900D01*
X71650995Y38078715D01*
X71620441Y38179439D01*
X71609520Y38290320D01*
X71609520Y39603040D01*
X71620441Y39713921D01*
X71650995Y39814645D01*
X71700605Y39907460D01*
X71767378Y39988822D01*
X71848740Y40055595D01*
X71943866Y40106440D01*
X71964241Y40120054D01*
X71981568Y40137381D01*
X71995182Y40157755D01*
X72004559Y40180394D01*
X72009340Y40204428D01*
X72009340Y40228932D01*
X72004560Y40252965D01*
X71995182Y40275604D01*
X71981568Y40295979D01*
X71964241Y40313306D01*
X71943866Y40326920D01*
X71848740Y40377765D01*
X71767378Y40444538D01*
X71700605Y40525900D01*
X71650995Y40618715D01*
X71620441Y40719439D01*
X71609520Y40830320D01*
X71609520Y42143040D01*
X71620441Y42253921D01*
X71650995Y42354645D01*
X71700605Y42447460D01*
X71767378Y42528822D01*
X71848740Y42595595D01*
X71941555Y42645205D01*
X72042279Y42675759D01*
X72153160Y42686680D01*
X74465880Y42686680D01*
X74576761Y42675759D01*
X74576761Y42675759D01*
G37*
G36*
X26719520Y35546680D02*
X24619520Y35546680D01*
X24619520Y37646680D01*
X26719520Y37646680D01*
X26719520Y35546680D01*
X26719520Y35546680D01*
G37*
G36*
X25798227Y40179083D02*
X25875356Y40171487D01*
X25995140Y40135151D01*
X26073283Y40111447D01*
X26255692Y40013947D01*
X26415574Y39882734D01*
X26546787Y39722852D01*
X26644287Y39540443D01*
X26644287Y39540442D01*
X26704327Y39342516D01*
X26724600Y39136680D01*
X26704327Y38930844D01*
X26664300Y38798893D01*
X26644287Y38732917D01*
X26546787Y38550508D01*
X26415574Y38390626D01*
X26255692Y38259413D01*
X26073283Y38161913D01*
X26007307Y38141900D01*
X25875356Y38101873D01*
X25798227Y38094276D01*
X25721100Y38086680D01*
X25617940Y38086680D01*
X25540813Y38094276D01*
X25463684Y38101873D01*
X25331733Y38141900D01*
X25265757Y38161913D01*
X25083348Y38259413D01*
X24923466Y38390626D01*
X24792253Y38550508D01*
X24694753Y38732917D01*
X24674740Y38798893D01*
X24634713Y38930844D01*
X24614440Y39136680D01*
X24634713Y39342516D01*
X24694753Y39540442D01*
X24694753Y39540443D01*
X24792253Y39722852D01*
X24923466Y39882734D01*
X25083348Y40013947D01*
X25265757Y40111447D01*
X25343900Y40135151D01*
X25463684Y40171487D01*
X25540813Y40179083D01*
X25617940Y40186680D01*
X25721100Y40186680D01*
X25798227Y40179083D01*
X25798227Y40179083D01*
G37*
G36*
X96688020Y39345380D02*
X91338020Y39345380D01*
X91338020Y40945380D01*
X96688020Y40945380D01*
X96688020Y39345380D01*
X96688020Y39345380D01*
G37*
G36*
X7788020Y39486880D02*
X2438020Y39486880D01*
X2438020Y41086880D01*
X7788020Y41086880D01*
X7788020Y39486880D01*
X7788020Y39486880D01*
G37*
G36*
X25798227Y42719083D02*
X25875356Y42711487D01*
X25993136Y42675759D01*
X26073283Y42651447D01*
X26255692Y42553947D01*
X26415574Y42422734D01*
X26546787Y42262852D01*
X26644287Y42080443D01*
X26644287Y42080442D01*
X26704327Y41882516D01*
X26724600Y41676680D01*
X26704327Y41470844D01*
X26664300Y41338893D01*
X26644287Y41272917D01*
X26546787Y41090508D01*
X26415574Y40930626D01*
X26255692Y40799413D01*
X26073283Y40701913D01*
X26007307Y40681900D01*
X25875356Y40641873D01*
X25798227Y40634277D01*
X25721100Y40626680D01*
X25617940Y40626680D01*
X25540813Y40634276D01*
X25463684Y40641873D01*
X25331733Y40681900D01*
X25265757Y40701913D01*
X25083348Y40799413D01*
X24923466Y40930626D01*
X24792253Y41090508D01*
X24694753Y41272917D01*
X24674740Y41338893D01*
X24634713Y41470844D01*
X24614440Y41676680D01*
X24634713Y41882516D01*
X24694753Y42080442D01*
X24694753Y42080443D01*
X24792253Y42262852D01*
X24923466Y42422734D01*
X25083348Y42553947D01*
X25265757Y42651447D01*
X25345904Y42675759D01*
X25463684Y42711487D01*
X25540813Y42719083D01*
X25617940Y42726680D01*
X25721100Y42726680D01*
X25798227Y42719083D01*
X25798227Y42719083D01*
G37*
G36*
X78059520Y50016180D02*
X78057120Y50016180D01*
X78032734Y50013778D01*
X78009285Y50006665D01*
X77987674Y49995114D01*
X77968732Y49979568D01*
X77953186Y49960626D01*
X77941635Y49939015D01*
X77934522Y49915566D01*
X77932120Y49891180D01*
X77934522Y49866794D01*
X77946880Y49832256D01*
X78009365Y49715355D01*
X78049392Y49583404D01*
X78062907Y49446180D01*
X78049392Y49308956D01*
X78009365Y49177005D01*
X77944365Y49055399D01*
X77856890Y48948810D01*
X77806919Y48907800D01*
X77789598Y48890479D01*
X77775984Y48870104D01*
X77766606Y48847465D01*
X77761826Y48823432D01*
X77761826Y48798928D01*
X77766607Y48774894D01*
X77775984Y48752255D01*
X77789598Y48731881D01*
X77806919Y48714560D01*
X77856890Y48673550D01*
X77944365Y48566961D01*
X78009365Y48445355D01*
X78049392Y48313404D01*
X78062907Y48176180D01*
X78049392Y48038956D01*
X78009365Y47907005D01*
X77944365Y47785399D01*
X77856890Y47678810D01*
X77806919Y47637800D01*
X77789598Y47620479D01*
X77775984Y47600104D01*
X77766606Y47577465D01*
X77761826Y47553432D01*
X77761826Y47528928D01*
X77766607Y47504894D01*
X77775984Y47482255D01*
X77789598Y47461881D01*
X77806919Y47444560D01*
X77856890Y47403550D01*
X77944365Y47296961D01*
X78009365Y47175355D01*
X78049392Y47043404D01*
X78062907Y46906180D01*
X78049392Y46768956D01*
X78009365Y46637005D01*
X77944365Y46515399D01*
X77856890Y46408810D01*
X77806919Y46367800D01*
X77789598Y46350479D01*
X77775984Y46330104D01*
X77766606Y46307465D01*
X77761826Y46283432D01*
X77761826Y46258928D01*
X77766607Y46234894D01*
X77775984Y46212255D01*
X77789598Y46191881D01*
X77806919Y46174560D01*
X77856890Y46133550D01*
X77944365Y46026961D01*
X78009365Y45905355D01*
X78049392Y45773404D01*
X78062907Y45636180D01*
X78049392Y45498956D01*
X78009365Y45367005D01*
X77944365Y45245399D01*
X77856890Y45138810D01*
X77750301Y45051335D01*
X77628695Y44986335D01*
X77496744Y44946308D01*
X77393910Y44936180D01*
X77325130Y44936180D01*
X77222296Y44946308D01*
X77090345Y44986335D01*
X76968739Y45051335D01*
X76862150Y45138810D01*
X76774675Y45245399D01*
X76709675Y45367005D01*
X76669648Y45498956D01*
X76656133Y45636180D01*
X76669648Y45773404D01*
X76709675Y45905355D01*
X76774675Y46026961D01*
X76862150Y46133550D01*
X76912121Y46174560D01*
X76929442Y46191881D01*
X76943056Y46212256D01*
X76952434Y46234895D01*
X76957214Y46258928D01*
X76957214Y46283432D01*
X76952433Y46307466D01*
X76943056Y46330105D01*
X76929442Y46350479D01*
X76912121Y46367800D01*
X76862150Y46408810D01*
X76774675Y46515399D01*
X76709675Y46637005D01*
X76669648Y46768956D01*
X76656133Y46906180D01*
X76669648Y47043404D01*
X76709675Y47175355D01*
X76774675Y47296961D01*
X76862150Y47403550D01*
X76912121Y47444560D01*
X76929442Y47461881D01*
X76943056Y47482256D01*
X76952434Y47504895D01*
X76957214Y47528928D01*
X76957214Y47553432D01*
X76952433Y47577466D01*
X76943056Y47600105D01*
X76929442Y47620479D01*
X76912121Y47637800D01*
X76862150Y47678810D01*
X76774675Y47785399D01*
X76709675Y47907005D01*
X76669648Y48038956D01*
X76656133Y48176180D01*
X76669648Y48313404D01*
X76709675Y48445355D01*
X76774675Y48566961D01*
X76862150Y48673550D01*
X76912121Y48714560D01*
X76929442Y48731881D01*
X76943056Y48752256D01*
X76952434Y48774895D01*
X76957214Y48798928D01*
X76957214Y48823432D01*
X76952433Y48847466D01*
X76943056Y48870105D01*
X76929442Y48890479D01*
X76912121Y48907800D01*
X76862150Y48948810D01*
X76774675Y49055399D01*
X76709675Y49177005D01*
X76669648Y49308956D01*
X76656133Y49446180D01*
X76669648Y49583404D01*
X76709675Y49715355D01*
X76772160Y49832256D01*
X76781538Y49854895D01*
X76786318Y49878928D01*
X76786318Y49903433D01*
X76781537Y49927466D01*
X76772160Y49950105D01*
X76758546Y49970480D01*
X76741219Y49987807D01*
X76720844Y50001420D01*
X76698205Y50010798D01*
X76661920Y50016180D01*
X76659520Y50016180D01*
X76659520Y51416180D01*
X78059520Y51416180D01*
X78059520Y50016180D01*
X78059520Y50016180D01*
G37*
G36*
X21950744Y51469552D02*
X22082695Y51429525D01*
X22204301Y51364525D01*
X22310890Y51277050D01*
X22398365Y51170461D01*
X22463365Y51048855D01*
X22503392Y50916904D01*
X22516907Y50779680D01*
X22503392Y50642456D01*
X22463365Y50510505D01*
X22398365Y50388899D01*
X22310890Y50282310D01*
X22260919Y50241300D01*
X22243598Y50223979D01*
X22229984Y50203604D01*
X22220606Y50180965D01*
X22215826Y50156932D01*
X22215826Y50132428D01*
X22220607Y50108394D01*
X22229984Y50085755D01*
X22243598Y50065381D01*
X22260919Y50048060D01*
X22310890Y50007050D01*
X22398365Y49900461D01*
X22463365Y49778855D01*
X22503392Y49646904D01*
X22516907Y49509680D01*
X22503392Y49372456D01*
X22463365Y49240505D01*
X22398365Y49118899D01*
X22310890Y49012310D01*
X22260919Y48971300D01*
X22243598Y48953979D01*
X22229984Y48933604D01*
X22220606Y48910965D01*
X22215826Y48886932D01*
X22215826Y48862428D01*
X22220607Y48838394D01*
X22229984Y48815755D01*
X22243598Y48795381D01*
X22260919Y48778060D01*
X22310890Y48737050D01*
X22398365Y48630461D01*
X22463365Y48508855D01*
X22503392Y48376904D01*
X22516907Y48239680D01*
X22503392Y48102456D01*
X22463365Y47970505D01*
X22398365Y47848899D01*
X22310890Y47742310D01*
X22260919Y47701300D01*
X22243598Y47683979D01*
X22229984Y47663604D01*
X22220606Y47640965D01*
X22215826Y47616932D01*
X22215826Y47592428D01*
X22220607Y47568394D01*
X22229984Y47545755D01*
X22243598Y47525381D01*
X22260919Y47508060D01*
X22310890Y47467050D01*
X22398365Y47360461D01*
X22463365Y47238855D01*
X22503392Y47106904D01*
X22516907Y46969680D01*
X22503392Y46832456D01*
X22463365Y46700505D01*
X22463363Y46700502D01*
X22400880Y46583604D01*
X22391502Y46560965D01*
X22386722Y46536932D01*
X22386722Y46512427D01*
X22391503Y46488394D01*
X22400880Y46465755D01*
X22414494Y46445380D01*
X22431821Y46428053D01*
X22452196Y46414440D01*
X22474835Y46405062D01*
X22511120Y46399680D01*
X22513520Y46399680D01*
X22513520Y44999680D01*
X21113520Y44999680D01*
X21113520Y46399680D01*
X21115920Y46399680D01*
X21140306Y46402082D01*
X21163755Y46409195D01*
X21185366Y46420746D01*
X21204308Y46436292D01*
X21219854Y46455234D01*
X21231405Y46476845D01*
X21238518Y46500294D01*
X21240920Y46524680D01*
X21238518Y46549066D01*
X21226160Y46583604D01*
X21163677Y46700502D01*
X21163675Y46700505D01*
X21123648Y46832456D01*
X21110133Y46969680D01*
X21123648Y47106904D01*
X21163675Y47238855D01*
X21228675Y47360461D01*
X21316150Y47467050D01*
X21366121Y47508060D01*
X21383442Y47525381D01*
X21397056Y47545756D01*
X21406434Y47568395D01*
X21411214Y47592428D01*
X21411214Y47616932D01*
X21406433Y47640966D01*
X21397056Y47663605D01*
X21383442Y47683979D01*
X21366121Y47701300D01*
X21316150Y47742310D01*
X21228675Y47848899D01*
X21163675Y47970505D01*
X21123648Y48102456D01*
X21110133Y48239680D01*
X21123648Y48376904D01*
X21163675Y48508855D01*
X21228675Y48630461D01*
X21316150Y48737050D01*
X21366121Y48778060D01*
X21383442Y48795381D01*
X21397056Y48815756D01*
X21406434Y48838395D01*
X21411214Y48862428D01*
X21411214Y48886932D01*
X21406433Y48910966D01*
X21397056Y48933605D01*
X21383442Y48953979D01*
X21366121Y48971300D01*
X21316150Y49012310D01*
X21228675Y49118899D01*
X21163675Y49240505D01*
X21123648Y49372456D01*
X21110133Y49509680D01*
X21123648Y49646904D01*
X21163675Y49778855D01*
X21228675Y49900461D01*
X21316150Y50007050D01*
X21366121Y50048060D01*
X21383442Y50065381D01*
X21397056Y50085756D01*
X21406434Y50108395D01*
X21411214Y50132428D01*
X21411214Y50156932D01*
X21406433Y50180966D01*
X21397056Y50203605D01*
X21383442Y50223979D01*
X21366121Y50241300D01*
X21316150Y50282310D01*
X21228675Y50388899D01*
X21163675Y50510505D01*
X21123648Y50642456D01*
X21110133Y50779680D01*
X21123648Y50916904D01*
X21163675Y51048855D01*
X21228675Y51170461D01*
X21316150Y51277050D01*
X21422739Y51364525D01*
X21544345Y51429525D01*
X21676296Y51469552D01*
X21779130Y51479680D01*
X21847910Y51479680D01*
X21950744Y51469552D01*
X21950744Y51469552D01*
G37*
G36*
X46779916Y50810522D02*
X47016500Y50712526D01*
X47229425Y50570254D01*
X47410494Y50389185D01*
X47552766Y50176260D01*
X47650762Y49939676D01*
X47700720Y49688520D01*
X47700720Y49432440D01*
X47650762Y49181284D01*
X47552766Y48944700D01*
X47410494Y48731775D01*
X47229425Y48550706D01*
X47016500Y48408434D01*
X46779916Y48310438D01*
X46528760Y48260480D01*
X46272680Y48260480D01*
X46021524Y48310438D01*
X45784940Y48408434D01*
X45572015Y48550706D01*
X45390946Y48731775D01*
X45248674Y48944700D01*
X45150678Y49181284D01*
X45100720Y49432440D01*
X45100720Y49688520D01*
X45150678Y49939676D01*
X45248674Y50176260D01*
X45390946Y50389185D01*
X45572015Y50570254D01*
X45784940Y50712526D01*
X46021524Y50810522D01*
X46272680Y50860480D01*
X46528760Y50860480D01*
X46779916Y50810522D01*
X46779916Y50810522D01*
G37*
G36*
X53155316Y50810522D02*
X53391900Y50712526D01*
X53604825Y50570254D01*
X53785894Y50389185D01*
X53928166Y50176260D01*
X54026162Y49939676D01*
X54076120Y49688520D01*
X54076120Y49432440D01*
X54026162Y49181284D01*
X53928166Y48944700D01*
X53785894Y48731775D01*
X53604825Y48550706D01*
X53391900Y48408434D01*
X53155316Y48310438D01*
X52904160Y48260480D01*
X52648080Y48260480D01*
X52396924Y48310438D01*
X52160340Y48408434D01*
X51947415Y48550706D01*
X51766346Y48731775D01*
X51624074Y48944700D01*
X51526078Y49181284D01*
X51476120Y49432440D01*
X51476120Y49688520D01*
X51526078Y49939676D01*
X51624074Y50176260D01*
X51766346Y50389185D01*
X51947415Y50570254D01*
X52160340Y50712526D01*
X52396924Y50810522D01*
X52648080Y50860480D01*
X52904160Y50860480D01*
X53155316Y50810522D01*
X53155316Y50810522D01*
G37*
G36*
X83983296Y51404882D02*
X84219880Y51306886D01*
X84432805Y51164614D01*
X84613874Y50983545D01*
X84756146Y50770620D01*
X84854142Y50534036D01*
X84904100Y50282880D01*
X84904100Y50026800D01*
X84854142Y49775644D01*
X84756146Y49539060D01*
X84613874Y49326135D01*
X84432805Y49145066D01*
X84219880Y49002794D01*
X83983296Y48904798D01*
X83732140Y48854840D01*
X83476060Y48854840D01*
X83224904Y48904798D01*
X82988320Y49002794D01*
X82775395Y49145066D01*
X82594326Y49326135D01*
X82452054Y49539060D01*
X82354058Y49775644D01*
X82304100Y50026800D01*
X82304100Y50282880D01*
X82354058Y50534036D01*
X82452054Y50770620D01*
X82594326Y50983545D01*
X82775395Y51164614D01*
X82988320Y51306886D01*
X83224904Y51404882D01*
X83476060Y51454840D01*
X83732140Y51454840D01*
X83983296Y51404882D01*
X83983296Y51404882D01*
G37*
G36*
X15984956Y51404882D02*
X16221540Y51306886D01*
X16434465Y51164614D01*
X16615534Y50983545D01*
X16757806Y50770620D01*
X16855802Y50534036D01*
X16905760Y50282880D01*
X16905760Y50026800D01*
X16855802Y49775644D01*
X16757806Y49539060D01*
X16615534Y49326135D01*
X16434465Y49145066D01*
X16221540Y49002794D01*
X15984956Y48904798D01*
X15733800Y48854840D01*
X15477720Y48854840D01*
X15226564Y48904798D01*
X14989980Y49002794D01*
X14777055Y49145066D01*
X14595986Y49326135D01*
X14453714Y49539060D01*
X14355718Y49775644D01*
X14305760Y50026800D01*
X14305760Y50282880D01*
X14355718Y50534036D01*
X14453714Y50770620D01*
X14595986Y50983545D01*
X14777055Y51164614D01*
X14989980Y51306886D01*
X15226564Y51404882D01*
X15477720Y51454840D01*
X15733800Y51454840D01*
X15984956Y51404882D01*
X15984956Y51404882D01*
G37*
G36*
X18144520Y58516680D02*
X18146922Y58492294D01*
X18154035Y58468845D01*
X18165586Y58447234D01*
X18181132Y58428292D01*
X18200074Y58412746D01*
X18221685Y58401195D01*
X18245134Y58394082D01*
X18269520Y58391680D01*
X18752129Y58391680D01*
X18808142Y58386163D01*
X18856105Y58371614D01*
X18900295Y58347994D01*
X18939038Y58316198D01*
X18970834Y58277455D01*
X18994454Y58233264D01*
X19000469Y58213435D01*
X19009846Y58190796D01*
X19023460Y58170421D01*
X19040786Y58153094D01*
X19061161Y58139480D01*
X19083800Y58130102D01*
X19107833Y58125321D01*
X19132337Y58125321D01*
X19156371Y58130101D01*
X19179010Y58139478D01*
X19199385Y58153092D01*
X19216712Y58170418D01*
X19230326Y58190793D01*
X19231263Y58193054D01*
X19262420Y58251345D01*
X19297324Y58293876D01*
X19339855Y58328780D01*
X19388367Y58354710D01*
X19441023Y58370683D01*
X19501910Y58376680D01*
X20302130Y58376680D01*
X20363017Y58370683D01*
X20415673Y58354710D01*
X20464185Y58328780D01*
X20506716Y58293876D01*
X20541620Y58251345D01*
X20567550Y58202833D01*
X20583523Y58150177D01*
X20589520Y58089290D01*
X20589520Y56864070D01*
X20583523Y56803183D01*
X20567550Y56750527D01*
X20541620Y56702015D01*
X20506714Y56659482D01*
X20480593Y56638045D01*
X20463266Y56620718D01*
X20449652Y56600344D01*
X20440274Y56577705D01*
X20435494Y56553671D01*
X20435494Y56529167D01*
X20440274Y56505133D01*
X20449652Y56482494D01*
X20463266Y56462120D01*
X20480593Y56444793D01*
X20500967Y56431179D01*
X20523607Y56421801D01*
X20556874Y56411710D01*
X20600856Y56388201D01*
X20639405Y56356565D01*
X20671041Y56318016D01*
X20694550Y56274034D01*
X20709027Y56226308D01*
X20714520Y56170539D01*
X20714520Y54542821D01*
X20709027Y54487052D01*
X20694550Y54439326D01*
X20671041Y54395344D01*
X20639405Y54356795D01*
X20600856Y54325159D01*
X20556874Y54301650D01*
X20509148Y54287173D01*
X20453379Y54281680D01*
X19325661Y54281680D01*
X19269892Y54287173D01*
X19222166Y54301650D01*
X19178184Y54325159D01*
X19139635Y54356795D01*
X19107999Y54395344D01*
X19084490Y54439326D01*
X19070013Y54487052D01*
X19064520Y54542821D01*
X19064520Y56170539D01*
X19070013Y56226308D01*
X19084490Y56274034D01*
X19107999Y56318016D01*
X19139635Y56356565D01*
X19178184Y56388201D01*
X19222166Y56411710D01*
X19273686Y56427338D01*
X19296325Y56436716D01*
X19316700Y56450330D01*
X19334027Y56467657D01*
X19347641Y56488031D01*
X19357018Y56510670D01*
X19361799Y56534704D01*
X19361799Y56559208D01*
X19357019Y56583241D01*
X19347641Y56605880D01*
X19334027Y56626255D01*
X19316700Y56643582D01*
X19297326Y56659482D01*
X19262420Y56702015D01*
X19236490Y56750527D01*
X19220517Y56803183D01*
X19214520Y56864070D01*
X19214520Y57112783D01*
X19212118Y57137169D01*
X19205005Y57160618D01*
X19193454Y57182229D01*
X19177908Y57201171D01*
X19158966Y57216717D01*
X19137355Y57228268D01*
X19113906Y57235381D01*
X19089520Y57237783D01*
X19065134Y57235381D01*
X19041685Y57228268D01*
X19020074Y57216717D01*
X19001132Y57201171D01*
X18985586Y57182229D01*
X18979279Y57171707D01*
X18970831Y57155901D01*
X18939038Y57117162D01*
X18900295Y57085366D01*
X18856105Y57061746D01*
X18808142Y57047197D01*
X18752129Y57041680D01*
X18001911Y57041680D01*
X17945898Y57047197D01*
X17897935Y57061746D01*
X17853745Y57085366D01*
X17815002Y57117162D01*
X17783206Y57155905D01*
X17759586Y57200095D01*
X17745037Y57248058D01*
X17739520Y57304071D01*
X17739520Y58129289D01*
X17745037Y58185302D01*
X17759586Y58233265D01*
X17783206Y58277455D01*
X17815002Y58316198D01*
X17853745Y58347994D01*
X17897935Y58371614D01*
X17945898Y58386163D01*
X18008023Y58392282D01*
X18032056Y58397063D01*
X18054695Y58406440D01*
X18075070Y58420054D01*
X18092397Y58437381D01*
X18106010Y58457756D01*
X18115388Y58480395D01*
X18120168Y58504429D01*
X18120168Y58528933D01*
X18115387Y58552966D01*
X18106010Y58575605D01*
X18092396Y58595980D01*
X18075069Y58613307D01*
X18054694Y58626920D01*
X18032055Y58636298D01*
X17995770Y58641680D01*
X17183270Y58641680D01*
X17158884Y58639278D01*
X17144520Y58634921D01*
X17144520Y60591680D01*
X18144520Y60591680D01*
X18144520Y58516680D01*
X18144520Y58516680D01*
G37*
G36*
X22238017Y58370683D02*
X22290673Y58354710D01*
X22339185Y58328780D01*
X22381716Y58293876D01*
X22416620Y58251345D01*
X22442550Y58202833D01*
X22458523Y58150177D01*
X22464520Y58089290D01*
X22464520Y56864070D01*
X22458523Y56803183D01*
X22442550Y56750527D01*
X22416620Y56702015D01*
X22381713Y56659481D01*
X22374188Y56653305D01*
X22356861Y56635978D01*
X22343247Y56615603D01*
X22333870Y56592964D01*
X22329090Y56568931D01*
X22329090Y56544426D01*
X22333871Y56520393D01*
X22343249Y56497754D01*
X22356863Y56477380D01*
X22374190Y56460053D01*
X22394565Y56446439D01*
X22417204Y56437062D01*
X22453488Y56431680D01*
X23253379Y56431680D01*
X23309148Y56426187D01*
X23356874Y56411710D01*
X23400856Y56388201D01*
X23439405Y56356565D01*
X23471041Y56318016D01*
X23494550Y56274034D01*
X23509027Y56226308D01*
X23514520Y56170539D01*
X23514520Y54542821D01*
X23509027Y54487052D01*
X23494550Y54439326D01*
X23471041Y54395344D01*
X23439405Y54356795D01*
X23400856Y54325159D01*
X23356874Y54301650D01*
X23309148Y54287173D01*
X23253379Y54281680D01*
X22125661Y54281680D01*
X22069892Y54287173D01*
X22022166Y54301650D01*
X21978184Y54325159D01*
X21939635Y54356795D01*
X21907999Y54395344D01*
X21884490Y54439326D01*
X21870013Y54487052D01*
X21864520Y54542821D01*
X21864520Y56170539D01*
X21870013Y56226308D01*
X21884490Y56274034D01*
X21907999Y56318016D01*
X21941144Y56358404D01*
X21955118Y56372377D01*
X21968733Y56392751D01*
X21978111Y56415389D01*
X21982893Y56439423D01*
X21982894Y56463927D01*
X21978114Y56487961D01*
X21968738Y56510600D01*
X21955125Y56530975D01*
X21937798Y56548303D01*
X21917424Y56561918D01*
X21894786Y56571296D01*
X21870752Y56576078D01*
X21858495Y56576680D01*
X21376910Y56576680D01*
X21316023Y56582677D01*
X21263367Y56598650D01*
X21214855Y56624580D01*
X21172324Y56659484D01*
X21137420Y56702015D01*
X21111490Y56750527D01*
X21095517Y56803183D01*
X21089520Y56864070D01*
X21089520Y58089290D01*
X21095517Y58150177D01*
X21111490Y58202833D01*
X21137420Y58251345D01*
X21172324Y58293876D01*
X21214855Y58328780D01*
X21263367Y58354710D01*
X21316023Y58370683D01*
X21376910Y58376680D01*
X22177130Y58376680D01*
X22238017Y58370683D01*
X22238017Y58370683D01*
G37*
G36*
X53155316Y57160522D02*
X53391900Y57062526D01*
X53604825Y56920254D01*
X53785894Y56739185D01*
X53928166Y56526260D01*
X54026162Y56289676D01*
X54076120Y56038520D01*
X54076120Y55782440D01*
X54026162Y55531284D01*
X53928166Y55294700D01*
X53785894Y55081775D01*
X53604825Y54900706D01*
X53391900Y54758434D01*
X53155316Y54660438D01*
X52904160Y54610480D01*
X52648080Y54610480D01*
X52396924Y54660438D01*
X52160340Y54758434D01*
X51947415Y54900706D01*
X51766346Y55081775D01*
X51624074Y55294700D01*
X51526078Y55531284D01*
X51476120Y55782440D01*
X51476120Y56038520D01*
X51526078Y56289676D01*
X51624074Y56526260D01*
X51766346Y56739185D01*
X51947415Y56920254D01*
X52160340Y57062526D01*
X52396924Y57160522D01*
X52648080Y57210480D01*
X52904160Y57210480D01*
X53155316Y57160522D01*
X53155316Y57160522D01*
G37*
G36*
X46779916Y57160522D02*
X47016500Y57062526D01*
X47229425Y56920254D01*
X47410494Y56739185D01*
X47552766Y56526260D01*
X47650762Y56289676D01*
X47700720Y56038520D01*
X47700720Y55782440D01*
X47650762Y55531284D01*
X47552766Y55294700D01*
X47410494Y55081775D01*
X47229425Y54900706D01*
X47016500Y54758434D01*
X46779916Y54660438D01*
X46528760Y54610480D01*
X46272680Y54610480D01*
X46021524Y54660438D01*
X45784940Y54758434D01*
X45572015Y54900706D01*
X45390946Y55081775D01*
X45248674Y55294700D01*
X45150678Y55531284D01*
X45100720Y55782440D01*
X45100720Y56038520D01*
X45150678Y56289676D01*
X45248674Y56526260D01*
X45390946Y56739185D01*
X45572015Y56920254D01*
X45784940Y57062526D01*
X46021524Y57160522D01*
X46272680Y57210480D01*
X46528760Y57210480D01*
X46779916Y57160522D01*
X46779916Y57160522D01*
G37*
G36*
X15214022Y58327483D02*
X15261985Y58312934D01*
X15306175Y58289314D01*
X15344918Y58257518D01*
X15376714Y58218775D01*
X15400334Y58174585D01*
X15414883Y58126622D01*
X15420400Y58070609D01*
X15420400Y57245391D01*
X15414883Y57189378D01*
X15400334Y57141415D01*
X15376714Y57097225D01*
X15344918Y57058482D01*
X15306175Y57026686D01*
X15261985Y57003066D01*
X15214022Y56988517D01*
X15158009Y56983000D01*
X14407791Y56983000D01*
X14351778Y56988517D01*
X14303815Y57003066D01*
X14259625Y57026686D01*
X14220882Y57058482D01*
X14189086Y57097225D01*
X14165466Y57141415D01*
X14150917Y57189378D01*
X14145400Y57245391D01*
X14145400Y58070609D01*
X14150917Y58126622D01*
X14165466Y58174585D01*
X14189086Y58218775D01*
X14220882Y58257518D01*
X14259625Y58289314D01*
X14303815Y58312934D01*
X14351778Y58327483D01*
X14407791Y58333000D01*
X15158009Y58333000D01*
X15214022Y58327483D01*
X15214022Y58327483D01*
G37*
G36*
X13639022Y58327483D02*
X13686985Y58312934D01*
X13731175Y58289314D01*
X13769918Y58257518D01*
X13801714Y58218775D01*
X13825334Y58174585D01*
X13839883Y58126622D01*
X13845400Y58070609D01*
X13845400Y57245391D01*
X13839883Y57189378D01*
X13825334Y57141415D01*
X13801714Y57097225D01*
X13769918Y57058482D01*
X13731175Y57026686D01*
X13686985Y57003066D01*
X13639022Y56988517D01*
X13583009Y56983000D01*
X12832791Y56983000D01*
X12776778Y56988517D01*
X12728815Y57003066D01*
X12684625Y57026686D01*
X12645882Y57058482D01*
X12614086Y57097225D01*
X12590466Y57141415D01*
X12575917Y57189378D01*
X12570400Y57245391D01*
X12570400Y58070609D01*
X12575917Y58126622D01*
X12590466Y58174585D01*
X12614086Y58218775D01*
X12645882Y58257518D01*
X12684625Y58289314D01*
X12728815Y58312934D01*
X12776778Y58327483D01*
X12832791Y58333000D01*
X13583009Y58333000D01*
X13639022Y58327483D01*
X13639022Y58327483D01*
G37*
G36*
X17113824Y58412746D02*
X17135435Y58401195D01*
X17171017Y58392282D01*
X17233142Y58386163D01*
X17281105Y58371614D01*
X17325295Y58347994D01*
X17364038Y58316198D01*
X17395834Y58277455D01*
X17419454Y58233265D01*
X17434003Y58185302D01*
X17439520Y58129289D01*
X17439520Y57304071D01*
X17434003Y57248058D01*
X17419454Y57200095D01*
X17395834Y57155905D01*
X17364038Y57117162D01*
X17325295Y57085366D01*
X17281105Y57061746D01*
X17233142Y57047197D01*
X17177129Y57041680D01*
X16426911Y57041680D01*
X16370898Y57047197D01*
X16322935Y57061746D01*
X16278745Y57085366D01*
X16240002Y57117162D01*
X16208206Y57155905D01*
X16184586Y57200095D01*
X16170037Y57248058D01*
X16164520Y57304071D01*
X16164520Y58129289D01*
X16170037Y58185302D01*
X16184586Y58233265D01*
X16208206Y58277455D01*
X16240002Y58316198D01*
X16278745Y58347994D01*
X16322935Y58371614D01*
X16370898Y58386163D01*
X16426911Y58391680D01*
X17019520Y58391680D01*
X17043906Y58394082D01*
X17067355Y58401195D01*
X17088966Y58412746D01*
X17101395Y58422947D01*
X17113824Y58412746D01*
X17113824Y58412746D01*
G37*
G36*
X90635217Y58804083D02*
X90687873Y58788110D01*
X90736385Y58762180D01*
X90778916Y58727276D01*
X90813820Y58684745D01*
X90839750Y58636233D01*
X90855723Y58583577D01*
X90861720Y58522690D01*
X90861720Y57722470D01*
X90855723Y57661583D01*
X90839750Y57608927D01*
X90813820Y57560415D01*
X90778916Y57517884D01*
X90736385Y57482980D01*
X90687873Y57457050D01*
X90635217Y57441077D01*
X90574330Y57435080D01*
X89349110Y57435080D01*
X89288223Y57441077D01*
X89235567Y57457050D01*
X89187055Y57482980D01*
X89144524Y57517884D01*
X89109620Y57560415D01*
X89083690Y57608927D01*
X89067717Y57661583D01*
X89061720Y57722470D01*
X89061720Y58522690D01*
X89067717Y58583577D01*
X89083690Y58636233D01*
X89109620Y58684745D01*
X89144524Y58727276D01*
X89187055Y58762180D01*
X89235567Y58788110D01*
X89288223Y58804083D01*
X89349110Y58810080D01*
X90574330Y58810080D01*
X90635217Y58804083D01*
X90635217Y58804083D01*
G37*
G36*
X25880242Y60991765D02*
X25996161Y60968707D01*
X26323740Y60833019D01*
X26545146Y60685080D01*
X26618556Y60636029D01*
X26869269Y60385316D01*
X26869271Y60385313D01*
X26898660Y60341330D01*
X27066260Y60090498D01*
X27201947Y59762920D01*
X27257443Y59483927D01*
X27271120Y59415164D01*
X27271120Y59060596D01*
X27201947Y58712839D01*
X27112411Y58496680D01*
X27084084Y58428292D01*
X27066259Y58385260D01*
X26899862Y58136230D01*
X26869269Y58090444D01*
X26618556Y57839731D01*
X26618553Y57839729D01*
X26323740Y57642741D01*
X25996161Y57507053D01*
X25925572Y57493012D01*
X25648406Y57437880D01*
X25293834Y57437880D01*
X25016668Y57493012D01*
X24946079Y57507053D01*
X24618500Y57642741D01*
X24323687Y57839729D01*
X24323684Y57839731D01*
X24072971Y58090444D01*
X24042378Y58136230D01*
X23875981Y58385260D01*
X23858157Y58428292D01*
X23829829Y58496680D01*
X23740293Y58712839D01*
X23671120Y59060596D01*
X23671120Y59415164D01*
X23684798Y59483927D01*
X23740293Y59762920D01*
X23875980Y60090498D01*
X24043581Y60341330D01*
X24072969Y60385313D01*
X24072971Y60385316D01*
X24323684Y60636029D01*
X24397094Y60685080D01*
X24618500Y60833019D01*
X24946079Y60968707D01*
X25061998Y60991765D01*
X25293834Y61037880D01*
X25648406Y61037880D01*
X25880242Y60991765D01*
X25880242Y60991765D01*
G37*
G36*
X74165642Y60991765D02*
X74281561Y60968707D01*
X74609140Y60833019D01*
X74830546Y60685080D01*
X74903956Y60636029D01*
X75154669Y60385316D01*
X75154671Y60385313D01*
X75184060Y60341330D01*
X75351660Y60090498D01*
X75487347Y59762920D01*
X75542843Y59483927D01*
X75556520Y59415164D01*
X75556520Y59060596D01*
X75487347Y58712839D01*
X75397811Y58496680D01*
X75369484Y58428292D01*
X75351659Y58385260D01*
X75185262Y58136230D01*
X75154669Y58090444D01*
X74903956Y57839731D01*
X74903953Y57839729D01*
X74609140Y57642741D01*
X74281561Y57507053D01*
X74210972Y57493012D01*
X73933806Y57437880D01*
X73579234Y57437880D01*
X73302068Y57493012D01*
X73231479Y57507053D01*
X72903900Y57642741D01*
X72609087Y57839729D01*
X72609084Y57839731D01*
X72358371Y58090444D01*
X72327778Y58136230D01*
X72161381Y58385260D01*
X72143557Y58428292D01*
X72115229Y58496680D01*
X72025693Y58712839D01*
X71956520Y59060596D01*
X71956520Y59415164D01*
X71970198Y59483927D01*
X72025693Y59762920D01*
X72161380Y60090498D01*
X72328981Y60341330D01*
X72358369Y60385313D01*
X72358371Y60385316D01*
X72609084Y60636029D01*
X72682494Y60685080D01*
X72903900Y60833019D01*
X73231479Y60968707D01*
X73347398Y60991765D01*
X73579234Y61037880D01*
X73933806Y61037880D01*
X74165642Y60991765D01*
X74165642Y60991765D01*
G37*
G36*
X92589520Y57546680D02*
X91289520Y57546680D01*
X91289520Y58746680D01*
X92589520Y58746680D01*
X92589520Y57546680D01*
X92589520Y57546680D01*
G37*
G36*
X94589520Y58496680D02*
X93289520Y58496680D01*
X93289520Y59696680D01*
X94589520Y59696680D01*
X94589520Y58496680D01*
X94589520Y58496680D01*
G37*
G36*
X16874520Y58641680D02*
X15874520Y58641680D01*
X15874520Y60591680D01*
X16874520Y60591680D01*
X16874520Y58641680D01*
X16874520Y58641680D01*
G37*
G36*
X14334520Y58641680D02*
X13334520Y58641680D01*
X13334520Y60591680D01*
X14334520Y60591680D01*
X14334520Y58641680D01*
X14334520Y58641680D01*
G37*
G36*
X15604520Y58641680D02*
X14604520Y58641680D01*
X14604520Y60591680D01*
X15604520Y60591680D01*
X15604520Y58641680D01*
X15604520Y58641680D01*
G37*
G36*
X7309520Y59046680D02*
X4909520Y59046680D01*
X4909520Y62546680D01*
X7309520Y62546680D01*
X7309520Y59046680D01*
X7309520Y59046680D01*
G37*
G36*
X12609520Y59046680D02*
X10209520Y59046680D01*
X10209520Y62546680D01*
X12609520Y62546680D01*
X12609520Y59046680D01*
X12609520Y59046680D01*
G37*
G36*
X90635217Y60679083D02*
X90687873Y60663110D01*
X90736385Y60637180D01*
X90778916Y60602276D01*
X90813820Y60559745D01*
X90839750Y60511233D01*
X90855723Y60458577D01*
X90861720Y60397690D01*
X90861720Y59597470D01*
X90855723Y59536583D01*
X90839750Y59483927D01*
X90813820Y59435415D01*
X90778916Y59392884D01*
X90736385Y59357980D01*
X90687873Y59332050D01*
X90635217Y59316077D01*
X90574330Y59310080D01*
X89349110Y59310080D01*
X89288223Y59316077D01*
X89235567Y59332050D01*
X89187055Y59357980D01*
X89144524Y59392884D01*
X89109620Y59435415D01*
X89083690Y59483927D01*
X89067717Y59536583D01*
X89061720Y59597470D01*
X89061720Y60397690D01*
X89067717Y60458577D01*
X89083690Y60511233D01*
X89109620Y60559745D01*
X89144524Y60602276D01*
X89187055Y60637180D01*
X89235567Y60663110D01*
X89288223Y60679083D01*
X89349110Y60685080D01*
X90574330Y60685080D01*
X90635217Y60679083D01*
X90635217Y60679083D01*
G37*
G36*
X92589520Y59446680D02*
X91289520Y59446680D01*
X91289520Y60646680D01*
X92589520Y60646680D01*
X92589520Y59446680D01*
X92589520Y59446680D01*
G37*
G36*
X17114520Y60941680D02*
X14364520Y60941680D01*
X14364520Y63691680D01*
X17114520Y63691680D01*
X17114520Y60941680D01*
X17114520Y60941680D01*
G37*
G36*
X87589520Y61586680D02*
X85489520Y61586680D01*
X85489520Y62886680D01*
X87589520Y62886680D01*
X87589520Y61586680D01*
X87589520Y61586680D01*
G37*
G36*
X22281277Y63754543D02*
X22333933Y63738570D01*
X22382445Y63712640D01*
X22424976Y63677736D01*
X22459880Y63635205D01*
X22485810Y63586693D01*
X22501783Y63534037D01*
X22507780Y63473150D01*
X22507780Y62672930D01*
X22501783Y62612043D01*
X22485810Y62559387D01*
X22459880Y62510875D01*
X22424976Y62468344D01*
X22382445Y62433440D01*
X22333933Y62407510D01*
X22281277Y62391537D01*
X22220390Y62385540D01*
X20995170Y62385540D01*
X20934283Y62391537D01*
X20881627Y62407510D01*
X20833115Y62433440D01*
X20790584Y62468344D01*
X20755680Y62510875D01*
X20729750Y62559387D01*
X20713777Y62612043D01*
X20707780Y62672930D01*
X20707780Y63473150D01*
X20713777Y63534037D01*
X20729750Y63586693D01*
X20755680Y63635205D01*
X20790584Y63677736D01*
X20833115Y63712640D01*
X20881627Y63738570D01*
X20934283Y63754543D01*
X20995170Y63760540D01*
X22220390Y63760540D01*
X22281277Y63754543D01*
X22281277Y63754543D01*
G37*
G36*
X84513017Y63940683D02*
X84565673Y63924710D01*
X84614185Y63898780D01*
X84656716Y63863876D01*
X84691620Y63821345D01*
X84717550Y63772833D01*
X84733523Y63720177D01*
X84739520Y63659290D01*
X84739520Y62859070D01*
X84733523Y62798183D01*
X84717550Y62745527D01*
X84691620Y62697015D01*
X84656716Y62654484D01*
X84614185Y62619580D01*
X84565673Y62593650D01*
X84513017Y62577677D01*
X84452130Y62571680D01*
X83226910Y62571680D01*
X83166023Y62577677D01*
X83113367Y62593650D01*
X83064855Y62619580D01*
X83022324Y62654484D01*
X82987420Y62697015D01*
X82961490Y62745527D01*
X82945517Y62798183D01*
X82939520Y62859070D01*
X82939520Y63659290D01*
X82945517Y63720177D01*
X82961490Y63772833D01*
X82987420Y63821345D01*
X83022324Y63863876D01*
X83064855Y63898780D01*
X83113367Y63924710D01*
X83166023Y63940683D01*
X83226910Y63946680D01*
X84452130Y63946680D01*
X84513017Y63940683D01*
X84513017Y63940683D01*
G37*
G36*
X18144520Y64041680D02*
X17144520Y64041680D01*
X17144520Y65991680D01*
X18144520Y65991680D01*
X18144520Y64041680D01*
X18144520Y64041680D01*
G37*
G36*
X16874520Y64041680D02*
X15874520Y64041680D01*
X15874520Y65991680D01*
X16874520Y65991680D01*
X16874520Y64041680D01*
X16874520Y64041680D01*
G37*
G36*
X16798142Y67521163D02*
X16846105Y67506614D01*
X16890295Y67482994D01*
X16929038Y67451198D01*
X16947894Y67428222D01*
X16965222Y67410895D01*
X16985596Y67397281D01*
X17008236Y67387904D01*
X17032269Y67383124D01*
X17056773Y67383124D01*
X17080807Y67387905D01*
X17103446Y67397282D01*
X17123820Y67410896D01*
X17141146Y67428222D01*
X17160002Y67451198D01*
X17198745Y67482994D01*
X17242935Y67506614D01*
X17290898Y67521163D01*
X17346911Y67526680D01*
X18172129Y67526680D01*
X18228142Y67521163D01*
X18276105Y67506614D01*
X18320295Y67482994D01*
X18359038Y67451198D01*
X18390834Y67412455D01*
X18414454Y67368265D01*
X18429003Y67320302D01*
X18434520Y67264289D01*
X18434520Y66514071D01*
X18429003Y66458058D01*
X18414454Y66410095D01*
X18390834Y66365905D01*
X18359038Y66327162D01*
X18320295Y66295366D01*
X18276105Y66271746D01*
X18228142Y66257197D01*
X18172129Y66251680D01*
X17346911Y66251680D01*
X17290898Y66257197D01*
X17242935Y66271746D01*
X17198745Y66295366D01*
X17160002Y66327162D01*
X17141146Y66350138D01*
X17123818Y66367465D01*
X17103444Y66381079D01*
X17080804Y66390456D01*
X17056771Y66395236D01*
X17032267Y66395236D01*
X17008233Y66390455D01*
X16985594Y66381078D01*
X16965220Y66367464D01*
X16947894Y66350138D01*
X16929038Y66327162D01*
X16890295Y66295366D01*
X16846105Y66271746D01*
X16798142Y66257197D01*
X16742129Y66251680D01*
X15916911Y66251680D01*
X15860898Y66257197D01*
X15812935Y66271746D01*
X15768745Y66295366D01*
X15724697Y66331516D01*
X15717028Y66339185D01*
X15696654Y66352800D01*
X15674015Y66362178D01*
X15649982Y66366959D01*
X15625478Y66366959D01*
X15601444Y66362179D01*
X15578805Y66352803D01*
X15558430Y66339189D01*
X15541101Y66321861D01*
X15529038Y66307162D01*
X15490295Y66275366D01*
X15446105Y66251746D01*
X15395178Y66236298D01*
X15372539Y66226920D01*
X15352164Y66213307D01*
X15334837Y66195980D01*
X15321223Y66175605D01*
X15311846Y66152966D01*
X15307065Y66128933D01*
X15307065Y66104429D01*
X15311845Y66080395D01*
X15321223Y66057756D01*
X15334836Y66037381D01*
X15352163Y66020054D01*
X15372538Y66006440D01*
X15395177Y65997063D01*
X15419210Y65992282D01*
X15431463Y65991680D01*
X15604520Y65991680D01*
X15604520Y64041680D01*
X14604520Y64041680D01*
X14604520Y66109758D01*
X14602118Y66134144D01*
X14595005Y66157593D01*
X14583454Y66179204D01*
X14567908Y66198146D01*
X14548966Y66213692D01*
X14527355Y66225243D01*
X14491773Y66234156D01*
X14471773Y66236126D01*
X14464343Y66236126D01*
X14463862Y66236298D01*
X14412935Y66251746D01*
X14368745Y66275366D01*
X14330000Y66307164D01*
X14325247Y66312955D01*
X14307919Y66330282D01*
X14287544Y66343895D01*
X14264905Y66353272D01*
X14240871Y66358052D01*
X14216367Y66358051D01*
X14192333Y66353269D01*
X14169695Y66343891D01*
X14149321Y66330277D01*
X14131997Y66312952D01*
X14119040Y66297164D01*
X14080295Y66265366D01*
X14036105Y66241746D01*
X14018144Y66236298D01*
X13995505Y66226921D01*
X13975131Y66213307D01*
X13957803Y66195980D01*
X13944189Y66175605D01*
X13934812Y66152966D01*
X13930031Y66128933D01*
X13930031Y66104429D01*
X13934811Y66080395D01*
X13944188Y66057756D01*
X13957802Y66037382D01*
X13975129Y66020054D01*
X13995504Y66006440D01*
X14018143Y65997063D01*
X14042176Y65992282D01*
X14054429Y65991680D01*
X14334520Y65991680D01*
X14334520Y64041680D01*
X13334520Y64041680D01*
X13334520Y66096680D01*
X13332118Y66121066D01*
X13325005Y66144515D01*
X13313454Y66166126D01*
X13297908Y66185068D01*
X13278966Y66200614D01*
X13257355Y66212165D01*
X13233906Y66219278D01*
X13209520Y66221680D01*
X13106911Y66221680D01*
X13050898Y66227197D01*
X13002935Y66241746D01*
X12958745Y66265366D01*
X12920002Y66297162D01*
X12888206Y66335905D01*
X12864586Y66380095D01*
X12850037Y66428058D01*
X12844520Y66484071D01*
X12844520Y67234289D01*
X12850037Y67290302D01*
X12864586Y67338265D01*
X12888206Y67382455D01*
X12920002Y67421198D01*
X12958745Y67452994D01*
X13002935Y67476614D01*
X13050898Y67491163D01*
X13106911Y67496680D01*
X13932129Y67496680D01*
X13988142Y67491163D01*
X14036105Y67476614D01*
X14080295Y67452994D01*
X14119040Y67421196D01*
X14123793Y67415405D01*
X14141121Y67398078D01*
X14161496Y67384465D01*
X14184135Y67375088D01*
X14208169Y67370308D01*
X14232673Y67370309D01*
X14256707Y67375091D01*
X14279345Y67384469D01*
X14299719Y67398083D01*
X14317043Y67415408D01*
X14330000Y67431196D01*
X14368745Y67462994D01*
X14412935Y67486614D01*
X14460898Y67501163D01*
X14516911Y67506680D01*
X15342129Y67506680D01*
X15398142Y67501163D01*
X15446105Y67486614D01*
X15490295Y67462994D01*
X15534343Y67426844D01*
X15542012Y67419175D01*
X15562386Y67405560D01*
X15585025Y67396182D01*
X15609058Y67391401D01*
X15633562Y67391401D01*
X15657596Y67396181D01*
X15680235Y67405557D01*
X15700610Y67419171D01*
X15717939Y67436499D01*
X15730002Y67451198D01*
X15768745Y67482994D01*
X15812935Y67506614D01*
X15860898Y67521163D01*
X15916911Y67526680D01*
X16742129Y67526680D01*
X16798142Y67521163D01*
X16798142Y67521163D01*
G37*
G36*
X22281277Y65629543D02*
X22333933Y65613570D01*
X22382445Y65587640D01*
X22424976Y65552736D01*
X22459880Y65510205D01*
X22485810Y65461693D01*
X22501783Y65409037D01*
X22507780Y65348150D01*
X22507780Y64547930D01*
X22501783Y64487043D01*
X22485810Y64434387D01*
X22459880Y64385875D01*
X22424976Y64343344D01*
X22382445Y64308440D01*
X22333933Y64282510D01*
X22281277Y64266537D01*
X22220390Y64260540D01*
X20995170Y64260540D01*
X20934283Y64266537D01*
X20881627Y64282510D01*
X20833115Y64308440D01*
X20790584Y64343344D01*
X20755680Y64385875D01*
X20729750Y64434387D01*
X20713777Y64487043D01*
X20707780Y64547930D01*
X20707780Y65348150D01*
X20713777Y65409037D01*
X20729750Y65461693D01*
X20755680Y65510205D01*
X20790584Y65552736D01*
X20833115Y65587640D01*
X20881627Y65613570D01*
X20934283Y65629543D01*
X20995170Y65635540D01*
X22220390Y65635540D01*
X22281277Y65629543D01*
X22281277Y65629543D01*
G37*
G36*
X84513017Y65815683D02*
X84565673Y65799710D01*
X84614185Y65773780D01*
X84656716Y65738876D01*
X84691620Y65696345D01*
X84717550Y65647833D01*
X84733523Y65595177D01*
X84739520Y65534290D01*
X84739520Y64734070D01*
X84733523Y64673183D01*
X84717550Y64620527D01*
X84691620Y64572015D01*
X84656716Y64529484D01*
X84614185Y64494580D01*
X84565673Y64468650D01*
X84513017Y64452677D01*
X84452130Y64446680D01*
X83226910Y64446680D01*
X83166023Y64452677D01*
X83113367Y64468650D01*
X83064855Y64494580D01*
X83022324Y64529484D01*
X82987420Y64572015D01*
X82961490Y64620527D01*
X82945517Y64673183D01*
X82939520Y64734070D01*
X82939520Y65534290D01*
X82945517Y65595177D01*
X82961490Y65647833D01*
X82987420Y65696345D01*
X83022324Y65738876D01*
X83064855Y65773780D01*
X83113367Y65799710D01*
X83166023Y65815683D01*
X83226910Y65821680D01*
X84452130Y65821680D01*
X84513017Y65815683D01*
X84513017Y65815683D01*
G37*
G36*
X87589520Y64986680D02*
X85489520Y64986680D01*
X85489520Y66286680D01*
X87589520Y66286680D01*
X87589520Y64986680D01*
X87589520Y64986680D01*
G37*
G36*
X12549520Y65176680D02*
X10149520Y65176680D01*
X10149520Y66876680D01*
X12549520Y66876680D01*
X12549520Y65176680D01*
X12549520Y65176680D01*
G37*
G36*
X8549520Y65976680D02*
X6149520Y65976680D01*
X6149520Y68376680D01*
X8549520Y68376680D01*
X8549520Y65976680D01*
X8549520Y65976680D01*
G37*
G36*
X92249520Y66916680D02*
X90149520Y66916680D01*
X90149520Y68216680D01*
X92249520Y68216680D01*
X92249520Y66916680D01*
X92249520Y66916680D01*
G37*
G36*
X12549520Y67476680D02*
X10149520Y67476680D01*
X10149520Y69176680D01*
X12549520Y69176680D01*
X12549520Y67476680D01*
X12549520Y67476680D01*
G37*
G36*
X85033017Y69020683D02*
X85085673Y69004710D01*
X85134185Y68978780D01*
X85176716Y68943876D01*
X85211620Y68901345D01*
X85237550Y68852833D01*
X85253523Y68800177D01*
X85259520Y68739290D01*
X85259520Y67939070D01*
X85253523Y67878183D01*
X85237550Y67825527D01*
X85211620Y67777015D01*
X85176716Y67734484D01*
X85134185Y67699580D01*
X85085673Y67673650D01*
X85033017Y67657677D01*
X84972130Y67651680D01*
X83746910Y67651680D01*
X83686023Y67657677D01*
X83633367Y67673650D01*
X83584855Y67699580D01*
X83542324Y67734484D01*
X83507420Y67777015D01*
X83481490Y67825527D01*
X83465517Y67878183D01*
X83459520Y67939070D01*
X83459520Y68739290D01*
X83465517Y68800177D01*
X83481490Y68852833D01*
X83507420Y68901345D01*
X83542324Y68943876D01*
X83584855Y68978780D01*
X83633367Y69004710D01*
X83686023Y69020683D01*
X83746910Y69026680D01*
X84972130Y69026680D01*
X85033017Y69020683D01*
X85033017Y69020683D01*
G37*
G36*
X89273017Y69160683D02*
X89325673Y69144710D01*
X89374185Y69118780D01*
X89416716Y69083876D01*
X89451620Y69041345D01*
X89477550Y68992833D01*
X89493523Y68940177D01*
X89499520Y68879290D01*
X89499520Y68079070D01*
X89493523Y68018183D01*
X89477550Y67965527D01*
X89451620Y67917015D01*
X89416716Y67874484D01*
X89374185Y67839580D01*
X89325673Y67813650D01*
X89273017Y67797677D01*
X89212130Y67791680D01*
X87986910Y67791680D01*
X87926023Y67797677D01*
X87873367Y67813650D01*
X87824855Y67839580D01*
X87782324Y67874484D01*
X87747420Y67917015D01*
X87721490Y67965527D01*
X87713688Y67991246D01*
X87704310Y68013885D01*
X87690696Y68034259D01*
X87673369Y68051586D01*
X87652995Y68065200D01*
X87630356Y68074578D01*
X87606322Y68079358D01*
X87581818Y68079358D01*
X87557784Y68074578D01*
X87535145Y68065200D01*
X87514771Y68051586D01*
X87497444Y68034259D01*
X87483830Y68013885D01*
X87474452Y67991245D01*
X87457551Y67935528D01*
X87431620Y67887015D01*
X87396716Y67844484D01*
X87354185Y67809580D01*
X87305673Y67783650D01*
X87253017Y67767677D01*
X87192130Y67761680D01*
X85966910Y67761680D01*
X85906023Y67767677D01*
X85853367Y67783650D01*
X85804855Y67809580D01*
X85762324Y67844484D01*
X85727420Y67887015D01*
X85701490Y67935527D01*
X85685517Y67988183D01*
X85679520Y68049070D01*
X85679520Y68849290D01*
X85685517Y68910177D01*
X85701490Y68962833D01*
X85727420Y69011345D01*
X85762324Y69053876D01*
X85804855Y69088780D01*
X85853367Y69114710D01*
X85906023Y69130683D01*
X85966910Y69136680D01*
X87192130Y69136680D01*
X87253017Y69130683D01*
X87305673Y69114710D01*
X87354185Y69088780D01*
X87396716Y69053876D01*
X87431620Y69011345D01*
X87457550Y68962833D01*
X87465352Y68937114D01*
X87474730Y68914475D01*
X87488344Y68894101D01*
X87505671Y68876774D01*
X87526045Y68863160D01*
X87548684Y68853782D01*
X87572718Y68849002D01*
X87597222Y68849002D01*
X87621256Y68853782D01*
X87643895Y68863160D01*
X87664269Y68876774D01*
X87681596Y68894101D01*
X87695210Y68914475D01*
X87704588Y68937115D01*
X87721489Y68992832D01*
X87747420Y69041345D01*
X87782324Y69083876D01*
X87824855Y69118780D01*
X87873367Y69144710D01*
X87926023Y69160683D01*
X87986910Y69166680D01*
X89212130Y69166680D01*
X89273017Y69160683D01*
X89273017Y69160683D01*
G37*
G36*
X16798142Y69096163D02*
X16846105Y69081614D01*
X16890295Y69057994D01*
X16929038Y69026198D01*
X16947894Y69003222D01*
X16965222Y68985895D01*
X16985596Y68972281D01*
X17008236Y68962904D01*
X17032269Y68958124D01*
X17056773Y68958124D01*
X17080807Y68962905D01*
X17103446Y68972282D01*
X17123820Y68985896D01*
X17141146Y69003222D01*
X17160002Y69026198D01*
X17198745Y69057994D01*
X17242935Y69081614D01*
X17290898Y69096163D01*
X17346911Y69101680D01*
X18172129Y69101680D01*
X18228142Y69096163D01*
X18276105Y69081614D01*
X18320295Y69057994D01*
X18359038Y69026198D01*
X18390834Y68987455D01*
X18414454Y68943265D01*
X18429003Y68895302D01*
X18434520Y68839289D01*
X18434520Y68089071D01*
X18429003Y68033058D01*
X18414454Y67985095D01*
X18390834Y67940905D01*
X18359038Y67902162D01*
X18320295Y67870366D01*
X18276105Y67846746D01*
X18228142Y67832197D01*
X18172129Y67826680D01*
X17346911Y67826680D01*
X17290898Y67832197D01*
X17242935Y67846746D01*
X17198745Y67870366D01*
X17160002Y67902162D01*
X17141146Y67925138D01*
X17123818Y67942465D01*
X17103444Y67956079D01*
X17080804Y67965456D01*
X17056771Y67970236D01*
X17032267Y67970236D01*
X17008233Y67965455D01*
X16985594Y67956078D01*
X16965220Y67942464D01*
X16947894Y67925138D01*
X16929038Y67902162D01*
X16890295Y67870366D01*
X16846105Y67846746D01*
X16798142Y67832197D01*
X16742129Y67826680D01*
X15916911Y67826680D01*
X15860898Y67832197D01*
X15812935Y67846746D01*
X15768745Y67870366D01*
X15724697Y67906516D01*
X15717028Y67914185D01*
X15696654Y67927800D01*
X15674015Y67937178D01*
X15649982Y67941959D01*
X15625478Y67941959D01*
X15601444Y67937179D01*
X15578805Y67927803D01*
X15558430Y67914189D01*
X15541101Y67896861D01*
X15529038Y67882162D01*
X15490295Y67850366D01*
X15446105Y67826746D01*
X15398142Y67812197D01*
X15342129Y67806680D01*
X14516911Y67806680D01*
X14460898Y67812197D01*
X14412935Y67826746D01*
X14368745Y67850366D01*
X14330000Y67882164D01*
X14325247Y67887955D01*
X14307919Y67905282D01*
X14287544Y67918895D01*
X14264905Y67928272D01*
X14240871Y67933052D01*
X14216367Y67933051D01*
X14192333Y67928269D01*
X14169695Y67918891D01*
X14149321Y67905277D01*
X14131997Y67887952D01*
X14119040Y67872164D01*
X14080295Y67840366D01*
X14036105Y67816746D01*
X13988142Y67802197D01*
X13932129Y67796680D01*
X13106911Y67796680D01*
X13050898Y67802197D01*
X13002935Y67816746D01*
X12958745Y67840366D01*
X12920002Y67872162D01*
X12888206Y67910905D01*
X12864586Y67955095D01*
X12850037Y68003058D01*
X12844520Y68059071D01*
X12844520Y68809289D01*
X12850037Y68865302D01*
X12864586Y68913265D01*
X12888206Y68957455D01*
X12920002Y68996198D01*
X12958745Y69027994D01*
X13002935Y69051614D01*
X13050898Y69066163D01*
X13106911Y69071680D01*
X13932129Y69071680D01*
X13988142Y69066163D01*
X14036105Y69051614D01*
X14080295Y69027994D01*
X14119040Y68996196D01*
X14123793Y68990405D01*
X14141121Y68973078D01*
X14161496Y68959465D01*
X14184135Y68950088D01*
X14208169Y68945308D01*
X14232673Y68945309D01*
X14256707Y68950091D01*
X14279345Y68959469D01*
X14299719Y68973083D01*
X14317043Y68990408D01*
X14330000Y69006196D01*
X14368745Y69037994D01*
X14412935Y69061614D01*
X14460898Y69076163D01*
X14516911Y69081680D01*
X15342129Y69081680D01*
X15398142Y69076163D01*
X15446105Y69061614D01*
X15490295Y69037994D01*
X15534343Y69001844D01*
X15542012Y68994175D01*
X15562386Y68980560D01*
X15585025Y68971182D01*
X15609058Y68966401D01*
X15633562Y68966401D01*
X15657596Y68971181D01*
X15680235Y68980557D01*
X15700610Y68994171D01*
X15717939Y69011499D01*
X15730002Y69026198D01*
X15768745Y69057994D01*
X15812935Y69081614D01*
X15860898Y69096163D01*
X15916911Y69101680D01*
X16742129Y69101680D01*
X16798142Y69096163D01*
X16798142Y69096163D01*
G37*
G36*
X1520627Y70135483D02*
X1597756Y70127887D01*
X1699043Y70097162D01*
X1795683Y70067847D01*
X1978092Y69970347D01*
X2137974Y69839134D01*
X2269187Y69679252D01*
X2366687Y69496843D01*
X2370033Y69485813D01*
X2426727Y69298916D01*
X2447000Y69093080D01*
X2426727Y68887244D01*
X2398117Y68792930D01*
X2366687Y68689317D01*
X2269187Y68506908D01*
X2137974Y68347026D01*
X1978092Y68215813D01*
X1795683Y68118313D01*
X1729707Y68098300D01*
X1597756Y68058273D01*
X1529861Y68051586D01*
X1443500Y68043080D01*
X1340340Y68043080D01*
X1253979Y68051586D01*
X1186084Y68058273D01*
X1054133Y68098300D01*
X988157Y68118313D01*
X805748Y68215813D01*
X645866Y68347026D01*
X514653Y68506908D01*
X417153Y68689317D01*
X385723Y68792930D01*
X357113Y68887244D01*
X336840Y69093080D01*
X357113Y69298916D01*
X413807Y69485813D01*
X417153Y69496843D01*
X514653Y69679252D01*
X645866Y69839134D01*
X805748Y69970347D01*
X988157Y70067847D01*
X1084797Y70097162D01*
X1186084Y70127887D01*
X1263213Y70135483D01*
X1340340Y70143080D01*
X1443500Y70143080D01*
X1520627Y70135483D01*
X1520627Y70135483D01*
G37*
G36*
X98248227Y70139084D02*
X98325356Y70131487D01*
X98457307Y70091460D01*
X98523283Y70071447D01*
X98705692Y69973947D01*
X98865574Y69842734D01*
X98996787Y69682852D01*
X99094287Y69500443D01*
X99098725Y69485813D01*
X99154327Y69302516D01*
X99174600Y69096680D01*
X99154327Y68890844D01*
X99124625Y68792930D01*
X99094287Y68692917D01*
X98996787Y68510508D01*
X98865574Y68350626D01*
X98705692Y68219413D01*
X98523283Y68121913D01*
X98468945Y68105430D01*
X98325356Y68061873D01*
X98248227Y68054277D01*
X98171100Y68046680D01*
X98067940Y68046680D01*
X97990813Y68054277D01*
X97913684Y68061873D01*
X97770095Y68105430D01*
X97715757Y68121913D01*
X97533348Y68219413D01*
X97373466Y68350626D01*
X97242253Y68510508D01*
X97144753Y68692917D01*
X97114415Y68792930D01*
X97084713Y68890844D01*
X97064440Y69096680D01*
X97084713Y69302516D01*
X97140315Y69485813D01*
X97144753Y69500443D01*
X97242253Y69682852D01*
X97373466Y69842734D01*
X97533348Y69973947D01*
X97715757Y70071447D01*
X97781733Y70091460D01*
X97913684Y70131487D01*
X97990813Y70139084D01*
X98067940Y70146680D01*
X98171100Y70146680D01*
X98248227Y70139084D01*
X98248227Y70139084D01*
G37*
G36*
X32843217Y71790483D02*
X32895873Y71774510D01*
X32944385Y71748580D01*
X32986916Y71713676D01*
X33021820Y71671145D01*
X33047750Y71622633D01*
X33063723Y71569977D01*
X33069720Y71509090D01*
X33069720Y70283870D01*
X33063723Y70222983D01*
X33047750Y70170327D01*
X33021820Y70121815D01*
X32986916Y70079284D01*
X32955262Y70053306D01*
X32937935Y70035978D01*
X32924321Y70015604D01*
X32914944Y69992964D01*
X32910164Y69968931D01*
X32910164Y69944427D01*
X32914945Y69920393D01*
X32924322Y69897754D01*
X32937936Y69877380D01*
X32955262Y69860054D01*
X32986916Y69834076D01*
X33021820Y69791545D01*
X33047750Y69743033D01*
X33063723Y69690377D01*
X33069720Y69629490D01*
X33069720Y68404270D01*
X33063723Y68343383D01*
X33047750Y68290727D01*
X33021820Y68242215D01*
X32986916Y68199684D01*
X32944385Y68164780D01*
X32895873Y68138850D01*
X32843217Y68122877D01*
X32782330Y68116880D01*
X31982110Y68116880D01*
X31921223Y68122877D01*
X31868567Y68138850D01*
X31820055Y68164780D01*
X31777524Y68199684D01*
X31742620Y68242215D01*
X31716690Y68290727D01*
X31700717Y68343383D01*
X31694720Y68404270D01*
X31694720Y69629490D01*
X31700717Y69690377D01*
X31716690Y69743033D01*
X31742620Y69791545D01*
X31777524Y69834076D01*
X31809178Y69860054D01*
X31826505Y69877382D01*
X31840119Y69897756D01*
X31849496Y69920396D01*
X31854276Y69944429D01*
X31854276Y69968933D01*
X31849495Y69992967D01*
X31840118Y70015606D01*
X31826504Y70035980D01*
X31809178Y70053306D01*
X31777524Y70079284D01*
X31742620Y70121815D01*
X31716690Y70170327D01*
X31700717Y70222983D01*
X31694720Y70283870D01*
X31694720Y71509090D01*
X31700717Y71569977D01*
X31716690Y71622633D01*
X31742620Y71671145D01*
X31777524Y71713676D01*
X31820055Y71748580D01*
X31868567Y71774510D01*
X31921223Y71790483D01*
X31982110Y71796480D01*
X32782330Y71796480D01*
X32843217Y71790483D01*
X32843217Y71790483D01*
G37*
G36*
X34718217Y71790483D02*
X34770873Y71774510D01*
X34819385Y71748580D01*
X34861916Y71713676D01*
X34896820Y71671145D01*
X34922750Y71622633D01*
X34938723Y71569977D01*
X34944720Y71509090D01*
X34944720Y70283870D01*
X34938723Y70222983D01*
X34922750Y70170327D01*
X34896820Y70121815D01*
X34861916Y70079284D01*
X34830262Y70053306D01*
X34812935Y70035978D01*
X34799321Y70015604D01*
X34789944Y69992964D01*
X34785164Y69968931D01*
X34785164Y69944427D01*
X34789945Y69920393D01*
X34799322Y69897754D01*
X34812936Y69877380D01*
X34830262Y69860054D01*
X34861916Y69834076D01*
X34896820Y69791545D01*
X34922750Y69743033D01*
X34938723Y69690377D01*
X34944720Y69629490D01*
X34944720Y68404270D01*
X34938723Y68343383D01*
X34922750Y68290727D01*
X34896820Y68242215D01*
X34861916Y68199684D01*
X34819385Y68164780D01*
X34770873Y68138850D01*
X34718217Y68122877D01*
X34657330Y68116880D01*
X33857110Y68116880D01*
X33796223Y68122877D01*
X33743567Y68138850D01*
X33695055Y68164780D01*
X33652524Y68199684D01*
X33617620Y68242215D01*
X33591690Y68290727D01*
X33575717Y68343383D01*
X33569720Y68404270D01*
X33569720Y69629490D01*
X33575717Y69690377D01*
X33591690Y69743033D01*
X33617620Y69791545D01*
X33652524Y69834076D01*
X33684178Y69860054D01*
X33701505Y69877382D01*
X33715119Y69897756D01*
X33724496Y69920396D01*
X33729276Y69944429D01*
X33729276Y69968933D01*
X33724495Y69992967D01*
X33715118Y70015606D01*
X33701504Y70035980D01*
X33684178Y70053306D01*
X33652524Y70079284D01*
X33617620Y70121815D01*
X33591690Y70170327D01*
X33575717Y70222983D01*
X33569720Y70283870D01*
X33569720Y71509090D01*
X33575717Y71569977D01*
X33591690Y71622633D01*
X33617620Y71671145D01*
X33652524Y71713676D01*
X33695055Y71748580D01*
X33743567Y71774510D01*
X33796223Y71790483D01*
X33857110Y71796480D01*
X34657330Y71796480D01*
X34718217Y71790483D01*
X34718217Y71790483D01*
G37*
G36*
X4158227Y71399083D02*
X4235356Y71391487D01*
X4323486Y71364753D01*
X4433283Y71331447D01*
X4615692Y71233947D01*
X4775574Y71102734D01*
X4906787Y70942852D01*
X5004287Y70760443D01*
X5015341Y70724002D01*
X5064327Y70562516D01*
X5084600Y70356680D01*
X5064327Y70150844D01*
X5029483Y70035978D01*
X5004287Y69952917D01*
X4906787Y69770508D01*
X4775574Y69610626D01*
X4615692Y69479413D01*
X4433283Y69381913D01*
X4367307Y69361900D01*
X4235356Y69321873D01*
X4158227Y69314276D01*
X4081100Y69306680D01*
X3977940Y69306680D01*
X3900813Y69314276D01*
X3823684Y69321873D01*
X3691733Y69361900D01*
X3625757Y69381913D01*
X3443348Y69479413D01*
X3283466Y69610626D01*
X3152253Y69770508D01*
X3054753Y69952917D01*
X3029557Y70035978D01*
X2994713Y70150844D01*
X2974440Y70356680D01*
X2994713Y70562516D01*
X3043699Y70724002D01*
X3054753Y70760443D01*
X3152253Y70942852D01*
X3283466Y71102734D01*
X3443348Y71233947D01*
X3625757Y71331447D01*
X3735554Y71364753D01*
X3823684Y71391487D01*
X3900813Y71399083D01*
X3977940Y71406680D01*
X4081100Y71406680D01*
X4158227Y71399083D01*
X4158227Y71399083D01*
G37*
G36*
X95580616Y71407612D02*
X95679356Y71397887D01*
X95811307Y71357860D01*
X95877283Y71337847D01*
X96059692Y71240347D01*
X96219574Y71109134D01*
X96350787Y70949252D01*
X96448287Y70766843D01*
X96457949Y70734992D01*
X96508327Y70568916D01*
X96528600Y70363080D01*
X96508327Y70157244D01*
X96496673Y70118826D01*
X96448287Y69959317D01*
X96350787Y69776908D01*
X96219574Y69617026D01*
X96059692Y69485813D01*
X95877283Y69388313D01*
X95811307Y69368300D01*
X95679356Y69328273D01*
X95614375Y69321873D01*
X95525100Y69313080D01*
X95421940Y69313080D01*
X95332665Y69321873D01*
X95267684Y69328273D01*
X95135733Y69368300D01*
X95069757Y69388313D01*
X94887348Y69485813D01*
X94727466Y69617026D01*
X94596253Y69776908D01*
X94498753Y69959317D01*
X94450367Y70118826D01*
X94438713Y70157244D01*
X94418440Y70363080D01*
X94438713Y70568916D01*
X94489091Y70734992D01*
X94498753Y70766843D01*
X94596253Y70949252D01*
X94727466Y71109134D01*
X94887348Y71240347D01*
X95069757Y71337847D01*
X95135733Y71357860D01*
X95267684Y71397887D01*
X95366424Y71407612D01*
X95421940Y71413080D01*
X95525100Y71413080D01*
X95580616Y71407612D01*
X95580616Y71407612D01*
G37*
G36*
X14549517Y70843683D02*
X14602173Y70827710D01*
X14650685Y70801780D01*
X14693216Y70766876D01*
X14731894Y70719747D01*
X14749222Y70702420D01*
X14769596Y70688806D01*
X14792235Y70679429D01*
X14816269Y70674649D01*
X14840773Y70674649D01*
X14864806Y70679430D01*
X14887445Y70688807D01*
X14907820Y70702421D01*
X14925146Y70719747D01*
X14963824Y70766876D01*
X15006355Y70801780D01*
X15054867Y70827710D01*
X15107523Y70843683D01*
X15168410Y70849680D01*
X16393630Y70849680D01*
X16454517Y70843683D01*
X16507173Y70827710D01*
X16555685Y70801780D01*
X16598216Y70766876D01*
X16636894Y70719747D01*
X16654222Y70702420D01*
X16674596Y70688806D01*
X16697235Y70679429D01*
X16721269Y70674649D01*
X16745773Y70674649D01*
X16769806Y70679430D01*
X16792445Y70688807D01*
X16812820Y70702421D01*
X16830146Y70719747D01*
X16868824Y70766876D01*
X16911355Y70801780D01*
X16959867Y70827710D01*
X17012523Y70843683D01*
X17073410Y70849680D01*
X18298630Y70849680D01*
X18359517Y70843683D01*
X18412173Y70827710D01*
X18460685Y70801780D01*
X18503216Y70766876D01*
X18538120Y70724345D01*
X18564050Y70675833D01*
X18580023Y70623177D01*
X18586020Y70562290D01*
X18586020Y69762070D01*
X18580023Y69701183D01*
X18564050Y69648527D01*
X18538120Y69600015D01*
X18503216Y69557484D01*
X18460685Y69522580D01*
X18412173Y69496650D01*
X18359517Y69480677D01*
X18298630Y69474680D01*
X17073410Y69474680D01*
X17012523Y69480677D01*
X16959867Y69496650D01*
X16911355Y69522580D01*
X16868824Y69557484D01*
X16830146Y69604613D01*
X16812818Y69621940D01*
X16792444Y69635554D01*
X16769805Y69644931D01*
X16745771Y69649711D01*
X16721267Y69649711D01*
X16697234Y69644930D01*
X16674595Y69635553D01*
X16654220Y69621939D01*
X16636894Y69604613D01*
X16598216Y69557484D01*
X16555685Y69522580D01*
X16507173Y69496650D01*
X16454517Y69480677D01*
X16393630Y69474680D01*
X15168410Y69474680D01*
X15107523Y69480677D01*
X15054867Y69496650D01*
X15006355Y69522580D01*
X14963824Y69557484D01*
X14925146Y69604613D01*
X14907818Y69621940D01*
X14887444Y69635554D01*
X14864805Y69644931D01*
X14840771Y69649711D01*
X14816267Y69649711D01*
X14792234Y69644930D01*
X14769595Y69635553D01*
X14749220Y69621939D01*
X14731894Y69604613D01*
X14693216Y69557484D01*
X14650685Y69522580D01*
X14602173Y69496650D01*
X14549517Y69480677D01*
X14488630Y69474680D01*
X13263410Y69474680D01*
X13202523Y69480677D01*
X13149867Y69496650D01*
X13101355Y69522580D01*
X13058824Y69557484D01*
X13023920Y69600015D01*
X12997990Y69648527D01*
X12982017Y69701183D01*
X12976020Y69762070D01*
X12976020Y70562290D01*
X12982017Y70623177D01*
X12997990Y70675833D01*
X13023920Y70724345D01*
X13058824Y70766876D01*
X13101355Y70801780D01*
X13149867Y70827710D01*
X13202523Y70843683D01*
X13263410Y70849680D01*
X14488630Y70849680D01*
X14549517Y70843683D01*
X14549517Y70843683D01*
G37*
G36*
X85033017Y70895683D02*
X85085673Y70879710D01*
X85134185Y70853780D01*
X85176716Y70818876D01*
X85211620Y70776345D01*
X85237550Y70727833D01*
X85253523Y70675177D01*
X85259520Y70614290D01*
X85259520Y69814070D01*
X85253523Y69753183D01*
X85237550Y69700527D01*
X85211620Y69652015D01*
X85176716Y69609484D01*
X85134185Y69574580D01*
X85085673Y69548650D01*
X85033017Y69532677D01*
X84972130Y69526680D01*
X83746910Y69526680D01*
X83686023Y69532677D01*
X83633367Y69548650D01*
X83584855Y69574580D01*
X83542324Y69609484D01*
X83507420Y69652015D01*
X83481490Y69700527D01*
X83465517Y69753183D01*
X83459520Y69814070D01*
X83459520Y70614290D01*
X83465517Y70675177D01*
X83481490Y70727833D01*
X83507420Y70776345D01*
X83542324Y70818876D01*
X83584855Y70853780D01*
X83633367Y70879710D01*
X83686023Y70895683D01*
X83746910Y70901680D01*
X84972130Y70901680D01*
X85033017Y70895683D01*
X85033017Y70895683D01*
G37*
G36*
X30555297Y73190787D02*
X30607878Y73174586D01*
X30661705Y73145513D01*
X30708433Y73113994D01*
X30708434Y73113994D01*
X31278398Y72729549D01*
X31278402Y72729546D01*
X31325126Y72698030D01*
X31372249Y72659012D01*
X31406965Y72616331D01*
X31432689Y72567697D01*
X31448429Y72514979D01*
X31453583Y72460207D01*
X31447951Y72405482D01*
X31431750Y72352901D01*
X31402677Y72299074D01*
X31371158Y72252346D01*
X31371158Y72252345D01*
X30749056Y71330040D01*
X30749053Y71330036D01*
X30717537Y71283312D01*
X30678519Y71236189D01*
X30635838Y71201473D01*
X30587204Y71175749D01*
X30534486Y71160009D01*
X30479717Y71154856D01*
X30472280Y71155621D01*
X30447776Y71155729D01*
X30423722Y71151054D01*
X30401042Y71141776D01*
X30380608Y71128252D01*
X30363205Y71111001D01*
X30349502Y71090686D01*
X30340025Y71068088D01*
X30335139Y71044076D01*
X30335031Y71019572D01*
X30339707Y70995515D01*
X30356229Y70940179D01*
X30361383Y70885407D01*
X30355751Y70830682D01*
X30339550Y70778101D01*
X30310477Y70724274D01*
X30278958Y70677546D01*
X30278958Y70677545D01*
X29656856Y69755240D01*
X29656853Y69755236D01*
X29625337Y69708512D01*
X29586319Y69661389D01*
X29543638Y69626673D01*
X29495004Y69600949D01*
X29442286Y69585209D01*
X29387514Y69580055D01*
X29332789Y69585687D01*
X29280208Y69601888D01*
X29226381Y69630961D01*
X29179652Y69662480D01*
X28609688Y70046925D01*
X28609684Y70046928D01*
X28562960Y70078444D01*
X28515837Y70117462D01*
X28481121Y70160143D01*
X28455397Y70208777D01*
X28439657Y70261495D01*
X28434503Y70316267D01*
X28440135Y70370992D01*
X28456336Y70423573D01*
X28485409Y70477400D01*
X28547137Y70568916D01*
X29139030Y71446434D01*
X29139033Y71446438D01*
X29170549Y71493162D01*
X29209567Y71540285D01*
X29252248Y71575001D01*
X29300882Y71600725D01*
X29353600Y71616465D01*
X29408369Y71621618D01*
X29415806Y71620853D01*
X29440310Y71620745D01*
X29464364Y71625420D01*
X29487044Y71634698D01*
X29507478Y71648222D01*
X29524881Y71665473D01*
X29538584Y71685788D01*
X29548061Y71708386D01*
X29552947Y71732398D01*
X29553055Y71756902D01*
X29548379Y71780959D01*
X29531857Y71836295D01*
X29526703Y71891067D01*
X29532335Y71945792D01*
X29548536Y71998373D01*
X29577609Y72052200D01*
X29615234Y72107982D01*
X30231230Y73021234D01*
X30231233Y73021238D01*
X30262749Y73067962D01*
X30301767Y73115085D01*
X30344448Y73149801D01*
X30393082Y73175525D01*
X30445800Y73191265D01*
X30500572Y73196419D01*
X30555297Y73190787D01*
X30555297Y73190787D01*
G37*
G36*
X89273017Y71035683D02*
X89325673Y71019710D01*
X89374185Y70993780D01*
X89416716Y70958876D01*
X89451620Y70916345D01*
X89477550Y70867833D01*
X89493523Y70815177D01*
X89499520Y70754290D01*
X89499520Y69954070D01*
X89493523Y69893183D01*
X89477550Y69840527D01*
X89451620Y69792015D01*
X89416716Y69749484D01*
X89374185Y69714580D01*
X89325673Y69688650D01*
X89273017Y69672677D01*
X89212130Y69666680D01*
X87986910Y69666680D01*
X87926023Y69672677D01*
X87873367Y69688650D01*
X87824855Y69714580D01*
X87782324Y69749484D01*
X87747420Y69792015D01*
X87721490Y69840527D01*
X87713688Y69866246D01*
X87704310Y69888885D01*
X87690696Y69909259D01*
X87673369Y69926586D01*
X87652995Y69940200D01*
X87630356Y69949578D01*
X87606322Y69954358D01*
X87581818Y69954358D01*
X87557784Y69949578D01*
X87535145Y69940200D01*
X87514771Y69926586D01*
X87497444Y69909259D01*
X87483830Y69888885D01*
X87474452Y69866245D01*
X87457551Y69810528D01*
X87431620Y69762015D01*
X87396716Y69719484D01*
X87354185Y69684580D01*
X87305673Y69658650D01*
X87253017Y69642677D01*
X87192130Y69636680D01*
X85966910Y69636680D01*
X85906023Y69642677D01*
X85853367Y69658650D01*
X85804855Y69684580D01*
X85762324Y69719484D01*
X85727420Y69762015D01*
X85701490Y69810527D01*
X85685517Y69863183D01*
X85679520Y69924070D01*
X85679520Y70724290D01*
X85685517Y70785177D01*
X85701490Y70837833D01*
X85727420Y70886345D01*
X85762324Y70928876D01*
X85804855Y70963780D01*
X85853367Y70989710D01*
X85906023Y71005683D01*
X85966910Y71011680D01*
X87192130Y71011680D01*
X87253017Y71005683D01*
X87305673Y70989710D01*
X87354185Y70963780D01*
X87396716Y70928876D01*
X87431620Y70886345D01*
X87457550Y70837833D01*
X87465352Y70812114D01*
X87474730Y70789475D01*
X87488344Y70769101D01*
X87505671Y70751774D01*
X87526045Y70738160D01*
X87548684Y70728782D01*
X87572718Y70724002D01*
X87597222Y70724002D01*
X87621256Y70728782D01*
X87643895Y70738160D01*
X87664269Y70751774D01*
X87681596Y70769101D01*
X87695210Y70789475D01*
X87704588Y70812115D01*
X87721489Y70867832D01*
X87747420Y70916345D01*
X87782324Y70958876D01*
X87824855Y70993780D01*
X87873367Y71019710D01*
X87926023Y71035683D01*
X87986910Y71041680D01*
X89212130Y71041680D01*
X89273017Y71035683D01*
X89273017Y71035683D01*
G37*
G36*
X9158648Y72105687D02*
X9206374Y72091210D01*
X9250356Y72067701D01*
X9288905Y72036065D01*
X9320541Y71997516D01*
X9344050Y71953534D01*
X9358527Y71905808D01*
X9364020Y71850039D01*
X9364020Y70222321D01*
X9358527Y70166552D01*
X9344050Y70118826D01*
X9320541Y70074844D01*
X9288905Y70036295D01*
X9250356Y70004659D01*
X9206374Y69981150D01*
X9158648Y69966673D01*
X9102879Y69961180D01*
X7975161Y69961180D01*
X7919392Y69966673D01*
X7871666Y69981150D01*
X7827684Y70004659D01*
X7789135Y70036295D01*
X7757499Y70074844D01*
X7733990Y70118826D01*
X7719513Y70166552D01*
X7714020Y70222321D01*
X7714020Y71850039D01*
X7719513Y71905808D01*
X7733990Y71953534D01*
X7757499Y71997516D01*
X7789135Y72036065D01*
X7827684Y72067701D01*
X7871666Y72091210D01*
X7919392Y72105687D01*
X7975161Y72111180D01*
X9102879Y72111180D01*
X9158648Y72105687D01*
X9158648Y72105687D01*
G37*
G36*
X11958648Y72105687D02*
X12006374Y72091210D01*
X12050356Y72067701D01*
X12088905Y72036065D01*
X12120541Y71997516D01*
X12144050Y71953534D01*
X12158527Y71905808D01*
X12164020Y71850039D01*
X12164020Y70222321D01*
X12158527Y70166552D01*
X12144050Y70118826D01*
X12120541Y70074844D01*
X12088905Y70036295D01*
X12050356Y70004659D01*
X12006374Y69981150D01*
X11958648Y69966673D01*
X11902879Y69961180D01*
X10775161Y69961180D01*
X10719392Y69966673D01*
X10671666Y69981150D01*
X10627684Y70004659D01*
X10589135Y70036295D01*
X10557499Y70074844D01*
X10533990Y70118826D01*
X10519513Y70166552D01*
X10514020Y70222321D01*
X10514020Y71850039D01*
X10519513Y71905808D01*
X10533990Y71953534D01*
X10557499Y71997516D01*
X10589135Y72036065D01*
X10627684Y72067701D01*
X10671666Y72091210D01*
X10719392Y72105687D01*
X10775161Y72111180D01*
X11902879Y72111180D01*
X11958648Y72105687D01*
X11958648Y72105687D01*
G37*
G36*
X92249520Y70316680D02*
X90149520Y70316680D01*
X90149520Y71616680D01*
X92249520Y71616680D01*
X92249520Y70316680D01*
X92249520Y70316680D01*
G37*
G36*
X2441920Y70583080D02*
X341920Y70583080D01*
X341920Y72683080D01*
X2441920Y72683080D01*
X2441920Y70583080D01*
X2441920Y70583080D01*
G37*
G36*
X99169520Y70586680D02*
X97069520Y70586680D01*
X97069520Y72686680D01*
X99169520Y72686680D01*
X99169520Y70586680D01*
X99169520Y70586680D01*
G37*
G36*
X29000851Y74239273D02*
X29053432Y74223072D01*
X29107259Y74193999D01*
X29153987Y74162480D01*
X29153988Y74162480D01*
X29723952Y73778035D01*
X29723956Y73778032D01*
X29770680Y73746516D01*
X29817803Y73707498D01*
X29852519Y73664817D01*
X29878243Y73616183D01*
X29893983Y73563465D01*
X29899137Y73508693D01*
X29893505Y73453968D01*
X29877304Y73401387D01*
X29848231Y73347560D01*
X29816712Y73300832D01*
X29816712Y73300831D01*
X29194610Y72378526D01*
X29194607Y72378522D01*
X29163091Y72331798D01*
X29124073Y72284675D01*
X29081392Y72249959D01*
X29032758Y72224235D01*
X28980040Y72208495D01*
X28925271Y72203342D01*
X28917834Y72204107D01*
X28893330Y72204215D01*
X28869276Y72199540D01*
X28846596Y72190262D01*
X28826162Y72176738D01*
X28808759Y72159487D01*
X28795056Y72139172D01*
X28785579Y72116574D01*
X28780693Y72092562D01*
X28780585Y72068058D01*
X28785261Y72044001D01*
X28801783Y71988665D01*
X28806937Y71933893D01*
X28801305Y71879168D01*
X28785104Y71826587D01*
X28756031Y71772760D01*
X28724512Y71726032D01*
X28724512Y71726031D01*
X28102410Y70803726D01*
X28102407Y70803722D01*
X28070891Y70756998D01*
X28031873Y70709875D01*
X27989192Y70675159D01*
X27940558Y70649435D01*
X27887840Y70633695D01*
X27833068Y70628541D01*
X27778343Y70634173D01*
X27725762Y70650374D01*
X27671935Y70679447D01*
X27605476Y70724274D01*
X27055242Y71095411D01*
X27055238Y71095414D01*
X27008514Y71126930D01*
X26961391Y71165948D01*
X26926675Y71208629D01*
X26900951Y71257263D01*
X26885211Y71309981D01*
X26880057Y71364753D01*
X26885689Y71419478D01*
X26901890Y71472059D01*
X26930963Y71525886D01*
X26979577Y71597959D01*
X27584584Y72494920D01*
X27584587Y72494924D01*
X27616103Y72541648D01*
X27655121Y72588771D01*
X27697802Y72623487D01*
X27746436Y72649211D01*
X27799154Y72664951D01*
X27853923Y72670104D01*
X27861360Y72669339D01*
X27885864Y72669231D01*
X27909918Y72673906D01*
X27932598Y72683184D01*
X27953032Y72696708D01*
X27970435Y72713959D01*
X27984138Y72734274D01*
X27993615Y72756872D01*
X27998501Y72780884D01*
X27998609Y72805388D01*
X27993933Y72829445D01*
X27977411Y72884781D01*
X27972257Y72939553D01*
X27977889Y72994278D01*
X27994090Y73046859D01*
X28023163Y73100686D01*
X28073009Y73174586D01*
X28676784Y74069720D01*
X28676787Y74069724D01*
X28708303Y74116448D01*
X28747321Y74163571D01*
X28790002Y74198287D01*
X28838636Y74224011D01*
X28891354Y74239751D01*
X28946126Y74244905D01*
X29000851Y74239273D01*
X29000851Y74239273D01*
G37*
G36*
X38813919Y78581712D02*
X38866500Y78565511D01*
X38920327Y78536438D01*
X38967055Y78504919D01*
X38967056Y78504919D01*
X39889361Y77882817D01*
X39889365Y77882814D01*
X39936089Y77851298D01*
X39983212Y77812280D01*
X40017928Y77769599D01*
X40043652Y77720965D01*
X40059392Y77668247D01*
X40063948Y77619830D01*
X40068623Y77595776D01*
X40077902Y77573097D01*
X40091427Y77552663D01*
X40108678Y77535260D01*
X40128993Y77521558D01*
X40151591Y77512082D01*
X40175603Y77507197D01*
X40200108Y77507090D01*
X40205099Y77508060D01*
X40240006Y77484515D01*
X42298993Y76095711D01*
X42561311Y75918775D01*
X41219248Y73929085D01*
X38860906Y75519806D01*
X38839346Y75531451D01*
X38815928Y75538667D01*
X38791552Y75541175D01*
X38767156Y75538879D01*
X38743676Y75531869D01*
X38722015Y75520412D01*
X38703005Y75504949D01*
X38687377Y75486075D01*
X38549188Y75281201D01*
X38549185Y75281198D01*
X38517669Y75234473D01*
X38478651Y75187350D01*
X38435970Y75152634D01*
X38387336Y75126910D01*
X38334618Y75111169D01*
X38318779Y75109679D01*
X38294725Y75105003D01*
X38272045Y75095724D01*
X38251612Y75082199D01*
X38234209Y75064948D01*
X38220507Y75044632D01*
X38211031Y75022034D01*
X38206146Y74998022D01*
X38206040Y74973518D01*
X38210715Y74949468D01*
X38212392Y74943851D01*
X38217546Y74889075D01*
X38211914Y74834350D01*
X38195713Y74781769D01*
X38166640Y74727942D01*
X38093784Y74619929D01*
X38082139Y74598369D01*
X38074923Y74574951D01*
X38072415Y74550576D01*
X38074711Y74526179D01*
X38081721Y74502699D01*
X38093178Y74481038D01*
X38108641Y74462028D01*
X38127515Y74446400D01*
X38170992Y74417075D01*
X40171134Y73067962D01*
X40492297Y72851335D01*
X39150234Y70861645D01*
X36828929Y72427385D01*
X36774036Y72464411D01*
X36752476Y72476056D01*
X36729058Y72483272D01*
X36704682Y72485780D01*
X36680286Y72483484D01*
X36656806Y72476474D01*
X36625260Y72457752D01*
X36588971Y72428234D01*
X36540336Y72402510D01*
X36487618Y72386770D01*
X36432846Y72381616D01*
X36378121Y72387248D01*
X36325540Y72403449D01*
X36271713Y72432522D01*
X36224984Y72464041D01*
X35302679Y73086143D01*
X35302675Y73086146D01*
X35255951Y73117662D01*
X35208828Y73156680D01*
X35174112Y73199361D01*
X35148388Y73247995D01*
X35132648Y73300713D01*
X35127494Y73355485D01*
X35133126Y73410210D01*
X35149327Y73462791D01*
X35178400Y73516618D01*
X35307150Y73707498D01*
X35594364Y74133311D01*
X35594367Y74133315D01*
X35625883Y74180039D01*
X35664901Y74227162D01*
X35707582Y74261878D01*
X35756216Y74287602D01*
X35808934Y74303342D01*
X35863706Y74308496D01*
X35918431Y74302864D01*
X35971012Y74286663D01*
X36024839Y74257590D01*
X36071567Y74226071D01*
X36071568Y74226071D01*
X36993873Y73603969D01*
X36993877Y73603966D01*
X37040601Y73572450D01*
X37087724Y73533432D01*
X37122440Y73490751D01*
X37148164Y73442117D01*
X37163904Y73389399D01*
X37169607Y73328792D01*
X37174282Y73304738D01*
X37183561Y73282059D01*
X37197086Y73261625D01*
X37214337Y73244222D01*
X37234652Y73230520D01*
X37257250Y73221044D01*
X37281263Y73216159D01*
X37305767Y73216052D01*
X37329821Y73220727D01*
X37352500Y73230006D01*
X37372934Y73243531D01*
X37397687Y73270603D01*
X37421248Y73305534D01*
X37733836Y73768964D01*
X37745479Y73790521D01*
X37752695Y73813939D01*
X37755203Y73838315D01*
X37752907Y73862711D01*
X37745897Y73886191D01*
X37734440Y73907852D01*
X37718977Y73926862D01*
X37700103Y73942490D01*
X37678543Y73954135D01*
X37655125Y73961351D01*
X37630749Y73963859D01*
X37594442Y73958635D01*
X37536108Y73941218D01*
X37481334Y73936064D01*
X37426609Y73941696D01*
X37374028Y73957897D01*
X37320201Y73986970D01*
X37226493Y74050177D01*
X36351167Y74640591D01*
X36351163Y74640594D01*
X36304439Y74672110D01*
X36257316Y74711128D01*
X36222600Y74753809D01*
X36196876Y74802443D01*
X36181136Y74855161D01*
X36175982Y74909933D01*
X36181614Y74964658D01*
X36197815Y75017239D01*
X36226888Y75071066D01*
X36281906Y75152634D01*
X36642852Y75687759D01*
X36642855Y75687763D01*
X36674371Y75734487D01*
X36713389Y75781610D01*
X36756070Y75816326D01*
X36804704Y75842050D01*
X36857422Y75857791D01*
X36873261Y75859281D01*
X36897315Y75863957D01*
X36919995Y75873236D01*
X36940428Y75886761D01*
X36957831Y75904012D01*
X36971533Y75924328D01*
X36981009Y75946926D01*
X36985894Y75970938D01*
X36986000Y75995442D01*
X36981325Y76019492D01*
X36979648Y76025109D01*
X36974494Y76079885D01*
X36980126Y76134610D01*
X36996327Y76187191D01*
X37025400Y76241018D01*
X37160279Y76440984D01*
X37441364Y76857711D01*
X37441367Y76857715D01*
X37472883Y76904439D01*
X37511901Y76951562D01*
X37554582Y76986278D01*
X37603216Y77012002D01*
X37655934Y77027742D01*
X37710706Y77032896D01*
X37765431Y77027264D01*
X37818012Y77011063D01*
X37871839Y76981990D01*
X37918567Y76950471D01*
X37918568Y76950471D01*
X38840873Y76328369D01*
X38840877Y76328366D01*
X38887601Y76296850D01*
X38934724Y76257832D01*
X38969440Y76215151D01*
X38995164Y76166517D01*
X39010904Y76113799D01*
X39015460Y76065382D01*
X39020135Y76041328D01*
X39029414Y76018649D01*
X39042939Y75998215D01*
X39060190Y75980812D01*
X39080505Y75967110D01*
X39103103Y75957634D01*
X39127115Y75952749D01*
X39151620Y75952642D01*
X39175674Y75957317D01*
X39198353Y75966596D01*
X39218787Y75980121D01*
X39243540Y76007193D01*
X39569105Y76489863D01*
X39580747Y76511418D01*
X39587963Y76534836D01*
X39590471Y76559212D01*
X39588175Y76583608D01*
X39581165Y76607088D01*
X39569708Y76628749D01*
X39554245Y76647759D01*
X39535371Y76663387D01*
X39513811Y76675032D01*
X39490393Y76682248D01*
X39466017Y76684756D01*
X39429710Y76679532D01*
X39383108Y76665618D01*
X39328334Y76660464D01*
X39273609Y76666096D01*
X39221028Y76682297D01*
X39167201Y76711370D01*
X39117944Y76744594D01*
X38198167Y77364991D01*
X38198163Y77364994D01*
X38151439Y77396510D01*
X38104316Y77435528D01*
X38069600Y77478209D01*
X38043876Y77526843D01*
X38028136Y77579561D01*
X38022982Y77634333D01*
X38028614Y77689058D01*
X38044815Y77741639D01*
X38073888Y77795466D01*
X38108455Y77846714D01*
X38489852Y78412159D01*
X38489855Y78412163D01*
X38521371Y78458887D01*
X38560389Y78506010D01*
X38603070Y78540726D01*
X38651704Y78566450D01*
X38704422Y78582190D01*
X38759194Y78587344D01*
X38813919Y78581712D01*
X38813919Y78581712D01*
G37*
G36*
X14549517Y72718683D02*
X14602173Y72702710D01*
X14650685Y72676780D01*
X14693216Y72641876D01*
X14731894Y72594747D01*
X14749222Y72577420D01*
X14769596Y72563806D01*
X14792235Y72554429D01*
X14816269Y72549649D01*
X14840773Y72549649D01*
X14864806Y72554430D01*
X14887445Y72563807D01*
X14907820Y72577421D01*
X14925146Y72594747D01*
X14963824Y72641876D01*
X15006355Y72676780D01*
X15054867Y72702710D01*
X15107523Y72718683D01*
X15168410Y72724680D01*
X16393630Y72724680D01*
X16454517Y72718683D01*
X16507173Y72702710D01*
X16555685Y72676780D01*
X16598216Y72641876D01*
X16636894Y72594747D01*
X16654222Y72577420D01*
X16674596Y72563806D01*
X16697235Y72554429D01*
X16721269Y72549649D01*
X16745773Y72549649D01*
X16769806Y72554430D01*
X16792445Y72563807D01*
X16812820Y72577421D01*
X16830146Y72594747D01*
X16868824Y72641876D01*
X16911355Y72676780D01*
X16959867Y72702710D01*
X17012523Y72718683D01*
X17073410Y72724680D01*
X18298630Y72724680D01*
X18359517Y72718683D01*
X18412173Y72702710D01*
X18460685Y72676780D01*
X18503216Y72641876D01*
X18538120Y72599345D01*
X18564050Y72550833D01*
X18580023Y72498177D01*
X18586020Y72437290D01*
X18586020Y71637070D01*
X18580023Y71576183D01*
X18564050Y71523527D01*
X18538120Y71475015D01*
X18503216Y71432484D01*
X18460685Y71397580D01*
X18412173Y71371650D01*
X18359517Y71355677D01*
X18298630Y71349680D01*
X17073410Y71349680D01*
X17012523Y71355677D01*
X16959867Y71371650D01*
X16911355Y71397580D01*
X16868824Y71432484D01*
X16830146Y71479613D01*
X16812818Y71496940D01*
X16792444Y71510554D01*
X16769805Y71519931D01*
X16745771Y71524711D01*
X16721267Y71524711D01*
X16697234Y71519930D01*
X16674595Y71510553D01*
X16654220Y71496939D01*
X16636894Y71479613D01*
X16598216Y71432484D01*
X16555685Y71397580D01*
X16507173Y71371650D01*
X16454517Y71355677D01*
X16393630Y71349680D01*
X15168410Y71349680D01*
X15107523Y71355677D01*
X15054867Y71371650D01*
X15006355Y71397580D01*
X14963824Y71432484D01*
X14925146Y71479613D01*
X14907818Y71496940D01*
X14887444Y71510554D01*
X14864805Y71519931D01*
X14840771Y71524711D01*
X14816267Y71524711D01*
X14792234Y71519930D01*
X14769595Y71510553D01*
X14749220Y71496939D01*
X14731894Y71479613D01*
X14693216Y71432484D01*
X14650685Y71397580D01*
X14602173Y71371650D01*
X14549517Y71355677D01*
X14488630Y71349680D01*
X13263410Y71349680D01*
X13202523Y71355677D01*
X13149867Y71371650D01*
X13101355Y71397580D01*
X13058824Y71432484D01*
X13023920Y71475015D01*
X12997990Y71523527D01*
X12982017Y71576183D01*
X12976020Y71637070D01*
X12976020Y72437290D01*
X12982017Y72498177D01*
X12997990Y72550833D01*
X13023920Y72599345D01*
X13058824Y72641876D01*
X13101355Y72676780D01*
X13149867Y72702710D01*
X13202523Y72718683D01*
X13263410Y72724680D01*
X14488630Y72724680D01*
X14549517Y72718683D01*
X14549517Y72718683D01*
G37*
G36*
X5079520Y71846680D02*
X2979520Y71846680D01*
X2979520Y73946680D01*
X5079520Y73946680D01*
X5079520Y71846680D01*
X5079520Y71846680D01*
G37*
G36*
X96523520Y71853080D02*
X94423520Y71853080D01*
X94423520Y73953080D01*
X96523520Y73953080D01*
X96523520Y71853080D01*
X96523520Y71853080D01*
G37*
G36*
X87609520Y72086680D02*
X85509520Y72086680D01*
X85509520Y73386680D01*
X87609520Y73386680D01*
X87609520Y72086680D01*
X87609520Y72086680D01*
G37*
G36*
X84593017Y74270683D02*
X84645673Y74254710D01*
X84694185Y74228780D01*
X84736716Y74193876D01*
X84771620Y74151345D01*
X84797550Y74102833D01*
X84813523Y74050177D01*
X84819520Y73989290D01*
X84819520Y73189070D01*
X84813523Y73128183D01*
X84797550Y73075527D01*
X84771620Y73027015D01*
X84736716Y72984484D01*
X84694185Y72949580D01*
X84645673Y72923650D01*
X84593017Y72907677D01*
X84532130Y72901680D01*
X83306910Y72901680D01*
X83246023Y72907677D01*
X83193367Y72923650D01*
X83144855Y72949580D01*
X83102324Y72984484D01*
X83067420Y73027015D01*
X83041490Y73075527D01*
X83025517Y73128183D01*
X83019520Y73189070D01*
X83019520Y73989290D01*
X83025517Y74050177D01*
X83041490Y74102833D01*
X83067420Y74151345D01*
X83102324Y74193876D01*
X83144855Y74228780D01*
X83193367Y74254710D01*
X83246023Y74270683D01*
X83306910Y74276680D01*
X84532130Y74276680D01*
X84593017Y74270683D01*
X84593017Y74270683D01*
G37*
G36*
X26338102Y78750328D02*
X26701935Y78504919D01*
X27042784Y78275014D01*
X27581658Y77911539D01*
X27949500Y77663426D01*
X28286340Y77436225D01*
X28825214Y77072750D01*
X29115378Y76877032D01*
X29529896Y76597436D01*
X29529897Y76597436D01*
X30068771Y76233961D01*
X30172394Y76164066D01*
X30172398Y76164063D01*
X30483289Y75954364D01*
X30773453Y75758646D01*
X31312327Y75395171D01*
X31602491Y75199453D01*
X32141365Y74835978D01*
X32244988Y74766083D01*
X32244992Y74766080D01*
X32555883Y74556381D01*
X32555883Y74556380D01*
X31773013Y73395728D01*
X31234139Y73759203D01*
X31130516Y73829098D01*
X31130512Y73829101D01*
X30943976Y73954921D01*
X30405102Y74318396D01*
X30114938Y74514114D01*
X29576064Y74877589D01*
X29161545Y75157186D01*
X29057922Y75227081D01*
X29057918Y75227084D01*
X28871382Y75352904D01*
X28456863Y75632500D01*
X27917989Y75995975D01*
X27627825Y76191693D01*
X27088951Y76555168D01*
X26674433Y76834764D01*
X26384269Y77030482D01*
X25845395Y77393957D01*
X25430877Y77673553D01*
X25016358Y77953150D01*
X25016358Y77953151D01*
X25799228Y79113803D01*
X26338102Y78750328D01*
X26338102Y78750328D01*
G37*
G36*
X39325283Y80936791D02*
X39558072Y80779773D01*
X39194597Y80240899D01*
X39124702Y80137276D01*
X39124699Y80137272D01*
X38998879Y79950736D01*
X38635404Y79411862D01*
X38439686Y79121698D01*
X38076211Y78582824D01*
X37796614Y78168305D01*
X37726719Y78064682D01*
X37726716Y78064678D01*
X37600896Y77878142D01*
X37321300Y77463623D01*
X36957825Y76924749D01*
X36762107Y76634585D01*
X36398632Y76095711D01*
X36119036Y75681193D01*
X35923318Y75391029D01*
X35559843Y74852155D01*
X35280247Y74437637D01*
X35000650Y74023118D01*
X35000649Y74023118D01*
X33839997Y74805988D01*
X33873165Y74855161D01*
X34203472Y75344862D01*
X34483069Y75759381D01*
X34678786Y76049544D01*
X35042261Y76588418D01*
X35321858Y77002937D01*
X35517575Y77293100D01*
X35881050Y77831974D01*
X36076768Y78122138D01*
X36356364Y78536657D01*
X36719839Y79075531D01*
X36789734Y79179154D01*
X36789737Y79179158D01*
X36999436Y79490049D01*
X37195154Y79780213D01*
X37558629Y80319087D01*
X37754347Y80609251D01*
X38117822Y81148125D01*
X38187717Y81251748D01*
X38187720Y81251752D01*
X38397419Y81562643D01*
X38397420Y81562643D01*
X39325283Y80936791D01*
X39325283Y80936791D01*
G37*
G36*
X17244148Y76765745D02*
X17297838Y76753718D01*
X17348145Y76731452D01*
X17393144Y76699797D01*
X17435359Y76655506D01*
X18189676Y75690024D01*
X18222440Y75638346D01*
X18242269Y75587026D01*
X18251704Y75532827D01*
X18250384Y75477829D01*
X18238357Y75424139D01*
X18216091Y75373832D01*
X18184437Y75328834D01*
X18140144Y75286618D01*
X17856419Y75064948D01*
X17553977Y74828654D01*
X17553973Y74828651D01*
X17509566Y74793957D01*
X17457886Y74761191D01*
X17406572Y74741365D01*
X17352370Y74731929D01*
X17297372Y74733249D01*
X17243682Y74745276D01*
X17193375Y74767542D01*
X17148376Y74799197D01*
X17106161Y74843488D01*
X17070545Y74889075D01*
X16610560Y75477829D01*
X16351844Y75808970D01*
X16319080Y75860648D01*
X16299251Y75911968D01*
X16289816Y75966167D01*
X16291136Y76021165D01*
X16303163Y76074855D01*
X16325429Y76125162D01*
X16357083Y76170160D01*
X16401376Y76212376D01*
X16784133Y76511418D01*
X16987543Y76670340D01*
X16987547Y76670343D01*
X17031954Y76705037D01*
X17083634Y76737803D01*
X17134948Y76757629D01*
X17189150Y76767065D01*
X17244148Y76765745D01*
X17244148Y76765745D01*
G37*
G36*
X84593017Y76145683D02*
X84645673Y76129710D01*
X84694185Y76103780D01*
X84736716Y76068876D01*
X84771620Y76026345D01*
X84797550Y75977833D01*
X84813523Y75925177D01*
X84819520Y75864290D01*
X84819520Y75064070D01*
X84813523Y75003183D01*
X84797550Y74950527D01*
X84771620Y74902015D01*
X84736716Y74859484D01*
X84694185Y74824580D01*
X84645673Y74798650D01*
X84593017Y74782677D01*
X84532130Y74776680D01*
X83306910Y74776680D01*
X83246023Y74782677D01*
X83193367Y74798650D01*
X83144855Y74824580D01*
X83102324Y74859484D01*
X83067420Y74902015D01*
X83041490Y74950527D01*
X83025517Y75003183D01*
X83019520Y75064070D01*
X83019520Y75864290D01*
X83025517Y75925177D01*
X83041490Y75977833D01*
X83067420Y76026345D01*
X83102324Y76068876D01*
X83144855Y76103780D01*
X83193367Y76129710D01*
X83246023Y76145683D01*
X83306910Y76151680D01*
X84532130Y76151680D01*
X84593017Y76145683D01*
X84593017Y76145683D01*
G37*
G36*
X87609520Y75486680D02*
X85509520Y75486680D01*
X85509520Y76786680D01*
X87609520Y76786680D01*
X87609520Y75486680D01*
X87609520Y75486680D01*
G37*
G36*
X18721668Y77920111D02*
X18775358Y77908084D01*
X18825665Y77885818D01*
X18870664Y77854163D01*
X18912879Y77809872D01*
X18947575Y77765463D01*
X18947576Y77765462D01*
X19198463Y77444341D01*
X19667196Y76844390D01*
X19699960Y76792712D01*
X19719789Y76741392D01*
X19729224Y76687193D01*
X19727904Y76632195D01*
X19715877Y76578505D01*
X19693611Y76528198D01*
X19661957Y76483200D01*
X19617664Y76440984D01*
X19298586Y76191693D01*
X19031497Y75983020D01*
X19031493Y75983017D01*
X18987086Y75948323D01*
X18935406Y75915557D01*
X18884092Y75895731D01*
X18829890Y75886295D01*
X18774892Y75887615D01*
X18721202Y75899642D01*
X18670895Y75921908D01*
X18625896Y75953563D01*
X18583681Y75997854D01*
X18528193Y76068876D01*
X18066454Y76659875D01*
X17829364Y76963336D01*
X17796600Y77015014D01*
X17776771Y77066334D01*
X17767336Y77120533D01*
X17768656Y77175531D01*
X17780683Y77229221D01*
X17802949Y77279528D01*
X17834603Y77324526D01*
X17878896Y77366742D01*
X18264805Y77668247D01*
X18465063Y77824706D01*
X18465067Y77824709D01*
X18509474Y77859403D01*
X18561154Y77892169D01*
X18612468Y77911995D01*
X18666670Y77921431D01*
X18721668Y77920111D01*
X18721668Y77920111D01*
G37*
G36*
X16098554Y77032824D02*
X15074140Y76232464D01*
X13781250Y77887286D01*
X14805664Y78687646D01*
X16098554Y77032824D01*
X16098554Y77032824D01*
G37*
G36*
X81340879Y78725911D02*
X81393163Y78708796D01*
X81446482Y78678783D01*
X82101981Y78219797D01*
X82148424Y78179955D01*
X82182390Y78136678D01*
X82207259Y78087604D01*
X82222077Y78034619D01*
X82226274Y77979763D01*
X82219689Y77925143D01*
X82202575Y77872860D01*
X82172559Y77819536D01*
X82140234Y77773372D01*
X82140234Y77773371D01*
X81502131Y76862065D01*
X81502128Y76862061D01*
X81469806Y76815901D01*
X81429964Y76769458D01*
X81386686Y76735492D01*
X81337612Y76710623D01*
X81284627Y76695805D01*
X81229771Y76691608D01*
X81175151Y76698193D01*
X81122867Y76715308D01*
X81069548Y76745321D01*
X80414049Y77204307D01*
X80367606Y77244149D01*
X80333640Y77287426D01*
X80308771Y77336500D01*
X80293953Y77389485D01*
X80289756Y77444341D01*
X80296341Y77498961D01*
X80313455Y77551244D01*
X80343471Y77604568D01*
X80384684Y77663426D01*
X81013899Y78562039D01*
X81013902Y78562043D01*
X81046224Y78608203D01*
X81086066Y78654646D01*
X81129344Y78688612D01*
X81178418Y78713481D01*
X81231403Y78728299D01*
X81286259Y78732496D01*
X81340879Y78725911D01*
X81340879Y78725911D01*
G37*
G36*
X40605431Y80037264D02*
X40658012Y80021063D01*
X40711839Y79991990D01*
X40758567Y79960471D01*
X40758568Y79960471D01*
X41680873Y79338369D01*
X41680877Y79338366D01*
X41727601Y79306850D01*
X41774724Y79267832D01*
X41809440Y79225151D01*
X41835164Y79176517D01*
X41850904Y79123799D01*
X41855023Y79080023D01*
X41859698Y79055969D01*
X41868976Y79033290D01*
X41882501Y79012856D01*
X41899752Y78995453D01*
X41920067Y78981750D01*
X41942665Y78972274D01*
X41966678Y78967389D01*
X41991182Y78967282D01*
X42015235Y78971957D01*
X42031932Y78976942D01*
X42086706Y78982096D01*
X42141431Y78976464D01*
X42194012Y78960263D01*
X42247839Y78931190D01*
X42294567Y78899671D01*
X42294568Y78899671D01*
X43216873Y78277569D01*
X43216877Y78277566D01*
X43263601Y78246050D01*
X43310724Y78207032D01*
X43345440Y78164351D01*
X43371164Y78115717D01*
X43386904Y78062999D01*
X43392058Y78008227D01*
X43386426Y77953502D01*
X43370225Y77900921D01*
X43341152Y77847094D01*
X43309633Y77800366D01*
X43309633Y77800365D01*
X42925188Y77230401D01*
X42925185Y77230397D01*
X42893669Y77183673D01*
X42854651Y77136550D01*
X42811970Y77101834D01*
X42763336Y77076110D01*
X42710618Y77060370D01*
X42655846Y77055216D01*
X42601121Y77060848D01*
X42548540Y77077049D01*
X42494713Y77106122D01*
X42391810Y77175531D01*
X41525679Y77759743D01*
X41525675Y77759746D01*
X41478951Y77791262D01*
X41431828Y77830280D01*
X41397112Y77872961D01*
X41371388Y77921595D01*
X41355648Y77974313D01*
X41351529Y78018089D01*
X41346854Y78042143D01*
X41337576Y78064822D01*
X41324051Y78085256D01*
X41306800Y78102659D01*
X41286485Y78116362D01*
X41263887Y78125838D01*
X41239874Y78130723D01*
X41215370Y78130830D01*
X41191317Y78126155D01*
X41174620Y78121170D01*
X41119846Y78116016D01*
X41065121Y78121648D01*
X41012540Y78137849D01*
X40958713Y78166922D01*
X40899247Y78207032D01*
X39989679Y78820543D01*
X39989675Y78820546D01*
X39942951Y78852062D01*
X39895828Y78891080D01*
X39861112Y78933761D01*
X39835388Y78982395D01*
X39819648Y79035113D01*
X39814494Y79089885D01*
X39820126Y79144610D01*
X39836327Y79197191D01*
X39865400Y79251018D01*
X39928518Y79344595D01*
X40281364Y79867711D01*
X40281367Y79867715D01*
X40312883Y79914439D01*
X40351901Y79961562D01*
X40394582Y79996278D01*
X40443216Y80022002D01*
X40495934Y80037742D01*
X40550706Y80042896D01*
X40605431Y80037264D01*
X40605431Y80037264D01*
G37*
G36*
X78508779Y80676631D02*
X78561063Y80659516D01*
X78614382Y80629503D01*
X79269881Y80170517D01*
X79316324Y80130675D01*
X79350290Y80087398D01*
X79375159Y80038324D01*
X79389977Y79985339D01*
X79394174Y79930482D01*
X79387311Y79873556D01*
X79386776Y79849057D01*
X79391032Y79824926D01*
X79399913Y79802087D01*
X79413079Y79781421D01*
X79430025Y79763720D01*
X79450097Y79749665D01*
X79472527Y79739796D01*
X79496450Y79734493D01*
X79520949Y79733958D01*
X79545080Y79738214D01*
X79567919Y79747095D01*
X79588588Y79760264D01*
X79593434Y79764067D01*
X79642508Y79788937D01*
X79695493Y79803755D01*
X79750349Y79807952D01*
X79804969Y79801367D01*
X79857253Y79784252D01*
X79910572Y79754239D01*
X80566071Y79295253D01*
X80612514Y79255411D01*
X80646480Y79212134D01*
X80671349Y79163060D01*
X80686167Y79110075D01*
X80690364Y79055219D01*
X80683779Y79000599D01*
X80666665Y78948316D01*
X80636649Y78894992D01*
X80604324Y78848828D01*
X80604324Y78848827D01*
X79966221Y77937521D01*
X79966218Y77937517D01*
X79933896Y77891357D01*
X79894054Y77844914D01*
X79850776Y77810948D01*
X79801702Y77786079D01*
X79748717Y77771261D01*
X79693861Y77767064D01*
X79639241Y77773649D01*
X79586957Y77790764D01*
X79533638Y77820777D01*
X78878139Y78279763D01*
X78831696Y78319605D01*
X78797730Y78362882D01*
X78772861Y78411956D01*
X78758043Y78464941D01*
X78753846Y78519798D01*
X78760709Y78576724D01*
X78761244Y78601223D01*
X78756988Y78625354D01*
X78748107Y78648193D01*
X78734941Y78668859D01*
X78717995Y78686560D01*
X78697923Y78700615D01*
X78675493Y78710484D01*
X78651570Y78715787D01*
X78627071Y78716322D01*
X78602940Y78712066D01*
X78580101Y78703185D01*
X78559432Y78690016D01*
X78554586Y78686213D01*
X78505512Y78661343D01*
X78452527Y78646525D01*
X78397671Y78642328D01*
X78343051Y78648913D01*
X78290767Y78666028D01*
X78237448Y78696041D01*
X77581949Y79155027D01*
X77535506Y79194869D01*
X77501540Y79238146D01*
X77476671Y79287220D01*
X77461853Y79340205D01*
X77457656Y79395061D01*
X77464241Y79449681D01*
X77481355Y79501964D01*
X77511371Y79555288D01*
X77543696Y79601453D01*
X78181799Y80512759D01*
X78181802Y80512763D01*
X78214124Y80558923D01*
X78253966Y80605366D01*
X78297244Y80639332D01*
X78346318Y80664201D01*
X78399303Y80679019D01*
X78454159Y80683216D01*
X78508779Y80676631D01*
X78508779Y80676631D01*
G37*
G36*
X18777790Y79126074D02*
X17753376Y78325714D01*
X16460486Y79980536D01*
X17484900Y80780896D01*
X18777790Y79126074D01*
X18777790Y79126074D01*
G37*
G36*
X41653919Y81591712D02*
X41706500Y81575511D01*
X41760327Y81546438D01*
X41807055Y81514919D01*
X41807056Y81514919D01*
X42729361Y80892817D01*
X42729365Y80892814D01*
X42776089Y80861298D01*
X42823212Y80822280D01*
X42857928Y80779599D01*
X42883652Y80730965D01*
X42899392Y80678247D01*
X42903511Y80634471D01*
X42908186Y80610417D01*
X42917464Y80587738D01*
X42930989Y80567304D01*
X42948240Y80549901D01*
X42968555Y80536198D01*
X42991153Y80526722D01*
X43015166Y80521837D01*
X43039670Y80521730D01*
X43063723Y80526405D01*
X43080420Y80531390D01*
X43135194Y80536544D01*
X43189919Y80530912D01*
X43242500Y80514711D01*
X43296327Y80485638D01*
X43343055Y80454119D01*
X43343056Y80454119D01*
X44265361Y79832017D01*
X44265365Y79832014D01*
X44312089Y79800498D01*
X44359212Y79761480D01*
X44393928Y79718799D01*
X44419652Y79670165D01*
X44435392Y79617447D01*
X44440546Y79562675D01*
X44434914Y79507950D01*
X44418713Y79455369D01*
X44389640Y79401542D01*
X44358121Y79354814D01*
X44358121Y79354813D01*
X43973676Y78784849D01*
X43973673Y78784845D01*
X43942157Y78738121D01*
X43903139Y78690998D01*
X43860458Y78656282D01*
X43811824Y78630558D01*
X43759106Y78614818D01*
X43704334Y78609664D01*
X43649609Y78615296D01*
X43597028Y78631497D01*
X43543201Y78660570D01*
X43483832Y78700615D01*
X42574167Y79314191D01*
X42574163Y79314194D01*
X42527439Y79345710D01*
X42480316Y79384728D01*
X42445600Y79427409D01*
X42419876Y79476043D01*
X42404136Y79528761D01*
X42400017Y79572537D01*
X42395342Y79596591D01*
X42386064Y79619270D01*
X42372539Y79639704D01*
X42355288Y79657107D01*
X42334973Y79670810D01*
X42312375Y79680286D01*
X42288362Y79685171D01*
X42263858Y79685278D01*
X42239805Y79680603D01*
X42223108Y79675618D01*
X42168334Y79670464D01*
X42113609Y79676096D01*
X42061028Y79692297D01*
X42007201Y79721370D01*
X41947457Y79761668D01*
X41038167Y80374991D01*
X41038163Y80374994D01*
X40991439Y80406510D01*
X40944316Y80445528D01*
X40909600Y80488209D01*
X40883876Y80536843D01*
X40868136Y80589561D01*
X40862982Y80644333D01*
X40868614Y80699058D01*
X40884815Y80751639D01*
X40913888Y80805466D01*
X41037828Y80989215D01*
X41329852Y81422159D01*
X41329855Y81422163D01*
X41361371Y81468887D01*
X41400389Y81516010D01*
X41443070Y81550726D01*
X41491704Y81576450D01*
X41544422Y81592190D01*
X41599194Y81597344D01*
X41653919Y81591712D01*
X41653919Y81591712D01*
G37*
G36*
X82803962Y80726165D02*
X81599452Y79005946D01*
X80534554Y79751595D01*
X81739064Y81471814D01*
X82803962Y80726165D01*
X82803962Y80726165D01*
G37*
G36*
X21591017Y83144283D02*
X21643673Y83128310D01*
X21692185Y83102380D01*
X21734716Y83067476D01*
X21769620Y83024945D01*
X21795550Y82976433D01*
X21811523Y82923777D01*
X21817520Y82862890D01*
X21817520Y81637670D01*
X21811523Y81576783D01*
X21795550Y81524127D01*
X21769620Y81475615D01*
X21734714Y81433082D01*
X21705837Y81409383D01*
X21688509Y81392056D01*
X21674896Y81371681D01*
X21665518Y81349042D01*
X21660738Y81325009D01*
X21660738Y81300504D01*
X21665519Y81276471D01*
X21674896Y81253832D01*
X21688510Y81233458D01*
X21705839Y81216129D01*
X21709316Y81213276D01*
X21744220Y81170745D01*
X21770150Y81122233D01*
X21786123Y81069577D01*
X21792120Y81008690D01*
X21792120Y79783470D01*
X21786123Y79722583D01*
X21770150Y79669927D01*
X21744220Y79621415D01*
X21709316Y79578884D01*
X21666785Y79543980D01*
X21618273Y79518050D01*
X21565617Y79502077D01*
X21504730Y79496080D01*
X20704510Y79496080D01*
X20643623Y79502077D01*
X20590967Y79518050D01*
X20542455Y79543980D01*
X20499924Y79578884D01*
X20465020Y79621415D01*
X20439090Y79669927D01*
X20423117Y79722583D01*
X20417120Y79783470D01*
X20417120Y81008690D01*
X20423117Y81069577D01*
X20439090Y81122233D01*
X20465020Y81170745D01*
X20499926Y81213278D01*
X20528803Y81236977D01*
X20546131Y81254304D01*
X20559744Y81274679D01*
X20569122Y81297318D01*
X20573902Y81321351D01*
X20573902Y81345856D01*
X20569121Y81369889D01*
X20559744Y81392528D01*
X20546130Y81412902D01*
X20528801Y81430231D01*
X20525324Y81433084D01*
X20490420Y81475615D01*
X20464490Y81524127D01*
X20448517Y81576783D01*
X20442520Y81637670D01*
X20442520Y82862890D01*
X20448517Y82923777D01*
X20464490Y82976433D01*
X20490420Y83024945D01*
X20525324Y83067476D01*
X20567855Y83102380D01*
X20616367Y83128310D01*
X20669023Y83144283D01*
X20729910Y83150280D01*
X21530130Y83150280D01*
X21591017Y83144283D01*
X21591017Y83144283D01*
G37*
G36*
X23466017Y83144283D02*
X23518673Y83128310D01*
X23567185Y83102380D01*
X23609716Y83067476D01*
X23644620Y83024945D01*
X23670550Y82976433D01*
X23686523Y82923777D01*
X23692520Y82862890D01*
X23692520Y81637670D01*
X23686523Y81576783D01*
X23670550Y81524127D01*
X23644620Y81475615D01*
X23609714Y81433082D01*
X23580837Y81409383D01*
X23563509Y81392056D01*
X23549896Y81371681D01*
X23540518Y81349042D01*
X23535738Y81325009D01*
X23535738Y81300504D01*
X23540519Y81276471D01*
X23549896Y81253832D01*
X23563510Y81233458D01*
X23580839Y81216129D01*
X23584316Y81213276D01*
X23619220Y81170745D01*
X23645150Y81122233D01*
X23661123Y81069577D01*
X23667120Y81008690D01*
X23667120Y79783470D01*
X23661123Y79722583D01*
X23645150Y79669927D01*
X23619220Y79621415D01*
X23584316Y79578884D01*
X23541785Y79543980D01*
X23493273Y79518050D01*
X23440617Y79502077D01*
X23379730Y79496080D01*
X22579510Y79496080D01*
X22518623Y79502077D01*
X22465967Y79518050D01*
X22417455Y79543980D01*
X22374924Y79578884D01*
X22340020Y79621415D01*
X22314090Y79669927D01*
X22298117Y79722583D01*
X22292120Y79783470D01*
X22292120Y81008690D01*
X22298117Y81069577D01*
X22314090Y81122233D01*
X22340020Y81170745D01*
X22374926Y81213278D01*
X22403803Y81236977D01*
X22421131Y81254304D01*
X22434744Y81274679D01*
X22444122Y81297318D01*
X22448902Y81321351D01*
X22448902Y81345856D01*
X22444121Y81369889D01*
X22434744Y81392528D01*
X22421130Y81412902D01*
X22403801Y81430231D01*
X22400324Y81433084D01*
X22365420Y81475615D01*
X22339490Y81524127D01*
X22323517Y81576783D01*
X22317520Y81637670D01*
X22317520Y82862890D01*
X22323517Y82923777D01*
X22339490Y82976433D01*
X22365420Y83024945D01*
X22400324Y83067476D01*
X22442855Y83102380D01*
X22491367Y83128310D01*
X22544023Y83144283D01*
X22604910Y83150280D01*
X23405130Y83150280D01*
X23466017Y83144283D01*
X23466017Y83144283D01*
G37*
G36*
X76972869Y81752087D02*
X77025153Y81734972D01*
X77078472Y81704959D01*
X77733971Y81245973D01*
X77780414Y81206131D01*
X77814380Y81162854D01*
X77839249Y81113780D01*
X77854067Y81060795D01*
X77858264Y81005939D01*
X77851679Y80951319D01*
X77834565Y80899036D01*
X77804549Y80845712D01*
X77772224Y80799548D01*
X77772224Y80799547D01*
X77134121Y79888241D01*
X77134118Y79888237D01*
X77101796Y79842077D01*
X77061954Y79795634D01*
X77018676Y79761668D01*
X76969602Y79736799D01*
X76916617Y79721981D01*
X76861761Y79717784D01*
X76807141Y79724369D01*
X76754857Y79741484D01*
X76701538Y79771497D01*
X76046039Y80230483D01*
X75999596Y80270325D01*
X75965630Y80313602D01*
X75940761Y80362676D01*
X75925943Y80415661D01*
X75921746Y80470517D01*
X75928331Y80525137D01*
X75945445Y80577420D01*
X75975461Y80630744D01*
X76008723Y80678247D01*
X76645889Y81588215D01*
X76645892Y81588219D01*
X76678214Y81634379D01*
X76718056Y81680822D01*
X76761334Y81714788D01*
X76810408Y81739657D01*
X76863393Y81754475D01*
X76918249Y81758672D01*
X76972869Y81752087D01*
X76972869Y81752087D01*
G37*
G36*
X30047881Y87194477D02*
X30107043Y87154572D01*
X29743568Y86615698D01*
X29463971Y86201179D01*
X29268254Y85911016D01*
X28904779Y85372142D01*
X28625182Y84957623D01*
X28429465Y84667460D01*
X28065990Y84128586D01*
X27870272Y83838422D01*
X27590676Y83423903D01*
X27227201Y82885029D01*
X27157306Y82781406D01*
X27157303Y82781402D01*
X26947604Y82470511D01*
X26751886Y82180347D01*
X26388411Y81641473D01*
X26192693Y81351309D01*
X25829218Y80812435D01*
X25759323Y80708812D01*
X25759320Y80708808D01*
X25549621Y80397917D01*
X25549620Y80397917D01*
X24388968Y81180787D01*
X24426869Y81236977D01*
X24752443Y81719661D01*
X24822338Y81823284D01*
X24822341Y81823288D01*
X24948161Y82009824D01*
X25311636Y82548698D01*
X25507354Y82838862D01*
X25870829Y83377736D01*
X26150426Y83792255D01*
X26220321Y83895878D01*
X26220324Y83895882D01*
X26346144Y84082418D01*
X26625740Y84496937D01*
X26989215Y85035811D01*
X27184933Y85325975D01*
X27548408Y85864849D01*
X27828004Y86279367D01*
X28022620Y86567896D01*
X28036314Y86588198D01*
X28387197Y87108405D01*
X28666793Y87522923D01*
X28946390Y87937442D01*
X28946391Y87937442D01*
X30047881Y87194477D01*
X30047881Y87194477D01*
G37*
G36*
X80018846Y82676325D02*
X78814336Y80956106D01*
X77749438Y81701755D01*
X78953948Y83421974D01*
X80018846Y82676325D01*
X80018846Y82676325D01*
G37*
G36*
X32712901Y88201357D02*
X32816524Y88131462D01*
X32816528Y88131459D01*
X33003064Y88005639D01*
X33541938Y87642164D01*
X33832102Y87446446D01*
X34370976Y87082971D01*
X34785495Y86803374D01*
X34889118Y86733479D01*
X34889122Y86733476D01*
X35075658Y86607656D01*
X35490177Y86328060D01*
X36029051Y85964585D01*
X36319214Y85768867D01*
X36319215Y85768867D01*
X36796398Y85447003D01*
X37272607Y85125796D01*
X37459149Y84999972D01*
X37459148Y84999972D01*
X37562771Y84930078D01*
X37977289Y84650482D01*
X38516163Y84287007D01*
X38930682Y84007410D01*
X38930682Y84007409D01*
X38147812Y82846757D01*
X37608938Y83210232D01*
X37505308Y83280132D01*
X37194419Y83489829D01*
X36904256Y83685546D01*
X36365382Y84049021D01*
X35950863Y84328618D01*
X35660700Y84524335D01*
X35121826Y84887810D01*
X34831662Y85083528D01*
X34417143Y85363124D01*
X33878269Y85726599D01*
X33774646Y85796494D01*
X33774642Y85796497D01*
X33463751Y86006196D01*
X33173587Y86201914D01*
X32634713Y86565389D01*
X32344549Y86761107D01*
X31805675Y87124582D01*
X31702052Y87194477D01*
X31702048Y87194480D01*
X31391157Y87404179D01*
X31391157Y87404180D01*
X32174027Y88564832D01*
X32712901Y88201357D01*
X32712901Y88201357D01*
G37*
G36*
X72624317Y87075907D02*
X69159493Y83611083D01*
X67462436Y85308140D01*
X68576130Y86421833D01*
X68576139Y86421844D01*
X69813556Y87659261D01*
X69813567Y87659270D01*
X70927260Y88772964D01*
X72624317Y87075907D01*
X72624317Y87075907D01*
G37*
G36*
X42634089Y88287630D02*
X42685410Y88267801D01*
X42737084Y88235039D01*
X42781495Y88200341D01*
X42781497Y88200340D01*
X42857326Y88141096D01*
X43367664Y87742376D01*
X43411957Y87700160D01*
X43443611Y87655162D01*
X43465877Y87604855D01*
X43477904Y87551165D01*
X43479224Y87496167D01*
X43469788Y87441965D01*
X43449961Y87390648D01*
X43417199Y87338974D01*
X43382499Y87294560D01*
X42795473Y86543200D01*
X42662879Y86373488D01*
X42620664Y86329197D01*
X42575665Y86297542D01*
X42525358Y86275276D01*
X42471668Y86263249D01*
X42408365Y86261730D01*
X42400413Y86262321D01*
X42376091Y86259334D01*
X42352820Y86251660D01*
X42331493Y86239593D01*
X42312929Y86223597D01*
X42297843Y86204287D01*
X42286814Y86182405D01*
X42280267Y86158792D01*
X42278451Y86134355D01*
X42281437Y86110036D01*
X42287903Y86081166D01*
X42289224Y86026167D01*
X42279788Y85971965D01*
X42259961Y85920648D01*
X42227199Y85868974D01*
X42192499Y85824560D01*
X41558935Y85013634D01*
X41472879Y84903488D01*
X41430664Y84859197D01*
X41385665Y84827542D01*
X41335358Y84805276D01*
X41281668Y84793249D01*
X41226670Y84791929D01*
X41172471Y84801364D01*
X41121150Y84821193D01*
X41069476Y84853955D01*
X41011669Y84899119D01*
X40775636Y85083528D01*
X40438896Y85346618D01*
X40394603Y85388834D01*
X40362949Y85433832D01*
X40340683Y85484139D01*
X40328656Y85537829D01*
X40327336Y85592827D01*
X40336772Y85647029D01*
X40356599Y85698346D01*
X40389361Y85750020D01*
X40486089Y85873826D01*
X41108984Y86671096D01*
X41108985Y86671097D01*
X41143681Y86715506D01*
X41185896Y86759797D01*
X41230895Y86791452D01*
X41281202Y86813718D01*
X41334892Y86825745D01*
X41398195Y86827264D01*
X41406147Y86826673D01*
X41430469Y86829660D01*
X41453740Y86837334D01*
X41475067Y86849401D01*
X41493631Y86865397D01*
X41508717Y86884707D01*
X41519746Y86906589D01*
X41526293Y86930202D01*
X41528109Y86954639D01*
X41525123Y86978958D01*
X41518657Y87007828D01*
X41517336Y87062827D01*
X41526772Y87117029D01*
X41546599Y87168346D01*
X41579361Y87220020D01*
X41672298Y87338974D01*
X42298984Y88141096D01*
X42298985Y88141097D01*
X42333681Y88185506D01*
X42375896Y88229797D01*
X42420895Y88261452D01*
X42471202Y88283718D01*
X42524892Y88295745D01*
X42579890Y88297065D01*
X42634089Y88287630D01*
X42634089Y88287630D01*
G37*
G36*
X41156569Y89441996D02*
X41207890Y89422167D01*
X41259564Y89389405D01*
X41303975Y89354707D01*
X41303977Y89354706D01*
X41338681Y89327592D01*
X41890144Y88896742D01*
X41934437Y88854526D01*
X41966091Y88809528D01*
X41988357Y88759221D01*
X42000384Y88705531D01*
X42001704Y88650533D01*
X41992268Y88596331D01*
X41972441Y88545014D01*
X41939679Y88493340D01*
X41904979Y88448926D01*
X41504463Y87936288D01*
X41185359Y87527854D01*
X41143144Y87483563D01*
X41098145Y87451908D01*
X41047838Y87429642D01*
X40994148Y87417615D01*
X40930845Y87416096D01*
X40922893Y87416687D01*
X40898571Y87413700D01*
X40875300Y87406026D01*
X40853973Y87393959D01*
X40835409Y87377963D01*
X40820323Y87358653D01*
X40809294Y87336771D01*
X40802747Y87313158D01*
X40800931Y87288721D01*
X40803917Y87264402D01*
X40810383Y87235532D01*
X40811704Y87180533D01*
X40802268Y87126331D01*
X40782441Y87075014D01*
X40749679Y87023340D01*
X40714979Y86978926D01*
X40175438Y86288344D01*
X39995359Y86057854D01*
X39953144Y86013563D01*
X39908145Y85981908D01*
X39857838Y85959642D01*
X39804148Y85947615D01*
X39749150Y85946295D01*
X39694951Y85955730D01*
X39643630Y85975559D01*
X39591956Y86008321D01*
X39540577Y86048463D01*
X39341131Y86204287D01*
X38961376Y86500984D01*
X38917083Y86543200D01*
X38885429Y86588198D01*
X38863163Y86638505D01*
X38851136Y86692195D01*
X38849816Y86747193D01*
X38859252Y86801395D01*
X38879079Y86852712D01*
X38911841Y86904386D01*
X39004778Y87023340D01*
X39631464Y87825462D01*
X39631465Y87825463D01*
X39666161Y87869872D01*
X39708376Y87914163D01*
X39753375Y87945818D01*
X39803682Y87968084D01*
X39857372Y87980111D01*
X39920675Y87981630D01*
X39928627Y87981039D01*
X39952949Y87984026D01*
X39976220Y87991700D01*
X39997547Y88003767D01*
X40016111Y88019763D01*
X40031197Y88039073D01*
X40042226Y88060955D01*
X40048773Y88084568D01*
X40050589Y88109005D01*
X40047603Y88133324D01*
X40041137Y88162194D01*
X40039816Y88217193D01*
X40049252Y88271395D01*
X40069079Y88322712D01*
X40101841Y88374386D01*
X40194778Y88493340D01*
X40821464Y89295462D01*
X40821465Y89295463D01*
X40856161Y89339872D01*
X40898376Y89384163D01*
X40943375Y89415818D01*
X40993682Y89438084D01*
X41047372Y89450111D01*
X41102370Y89451431D01*
X41156569Y89441996D01*
X41156569Y89441996D01*
G37*
G36*
X66697440Y93393804D02*
X66750096Y93377831D01*
X66798608Y93351901D01*
X66845915Y93313077D01*
X67411743Y92747249D01*
X67450567Y92699942D01*
X67476497Y92651430D01*
X67492470Y92598774D01*
X67497862Y92544027D01*
X67492470Y92489280D01*
X67476498Y92436628D01*
X67446040Y92379643D01*
X67436663Y92357003D01*
X67431883Y92332970D01*
X67431883Y92308466D01*
X67436664Y92284432D01*
X67446041Y92261793D01*
X67467893Y92232331D01*
X69230204Y90470020D01*
X68116511Y89356326D01*
X66879074Y88118889D01*
X65765380Y87005196D01*
X63989145Y88781431D01*
X63970203Y88796977D01*
X63948592Y88808528D01*
X63925143Y88815641D01*
X63900757Y88818043D01*
X63876371Y88815641D01*
X63852922Y88808528D01*
X63831311Y88796977D01*
X63812369Y88781431D01*
X63745395Y88714457D01*
X63698088Y88675633D01*
X63649576Y88649703D01*
X63596920Y88633730D01*
X63542173Y88628338D01*
X63487426Y88633730D01*
X63434770Y88649703D01*
X63386258Y88675633D01*
X63338951Y88714457D01*
X62773123Y89280285D01*
X62734299Y89327592D01*
X62708369Y89376104D01*
X62692396Y89428761D01*
X62687004Y89483507D01*
X62692396Y89538254D01*
X62707011Y89586435D01*
X64639079Y89586435D01*
X64639079Y89561931D01*
X64643860Y89537897D01*
X64653237Y89515258D01*
X64666851Y89494884D01*
X64684178Y89477556D01*
X64704553Y89463943D01*
X64727192Y89454565D01*
X64751225Y89449785D01*
X64775729Y89449785D01*
X64799763Y89454566D01*
X64822402Y89463943D01*
X64851865Y89485795D01*
X65217358Y89851288D01*
X65217375Y89851302D01*
X65250874Y89884802D01*
X65266419Y89903744D01*
X65277970Y89925355D01*
X65285083Y89948805D01*
X65287484Y89973191D01*
X65285082Y89997577D01*
X65277968Y90021026D01*
X65266417Y90042637D01*
X65250871Y90061579D01*
X65231929Y90077124D01*
X65210318Y90088675D01*
X65186868Y90095788D01*
X65162482Y90098189D01*
X65138096Y90095787D01*
X65114647Y90088673D01*
X65083185Y90069815D01*
X65078091Y90065634D01*
X65029576Y90039703D01*
X64976920Y90023730D01*
X64922173Y90018338D01*
X64867421Y90023730D01*
X64836738Y90033038D01*
X64812704Y90037819D01*
X64788200Y90037819D01*
X64764167Y90033039D01*
X64741528Y90023661D01*
X64721153Y90010047D01*
X64703826Y89992720D01*
X64690212Y89972346D01*
X64680835Y89949707D01*
X64676054Y89925673D01*
X64676054Y89901169D01*
X64680834Y89877137D01*
X64692470Y89838778D01*
X64697862Y89784027D01*
X64692470Y89729280D01*
X64676497Y89676624D01*
X64653237Y89633107D01*
X64643859Y89610468D01*
X64639079Y89586435D01*
X62707011Y89586435D01*
X62708369Y89590910D01*
X62734299Y89639422D01*
X62773123Y89686729D01*
X63639471Y90553077D01*
X63686778Y90591901D01*
X63735290Y90617831D01*
X63787946Y90633804D01*
X63842693Y90639196D01*
X63897445Y90633804D01*
X63928128Y90624496D01*
X63952162Y90619715D01*
X63976666Y90619715D01*
X64000699Y90624495D01*
X64023338Y90633873D01*
X64043713Y90647487D01*
X64061040Y90664814D01*
X64074654Y90685188D01*
X64084031Y90707827D01*
X64088812Y90731861D01*
X64088812Y90756365D01*
X64084032Y90780397D01*
X64072396Y90818756D01*
X64067004Y90873507D01*
X64072396Y90928254D01*
X64077769Y90945968D01*
X65998613Y90945968D01*
X65998613Y90921464D01*
X66003393Y90897431D01*
X66012771Y90874792D01*
X66026384Y90854417D01*
X66043712Y90837090D01*
X66064086Y90823476D01*
X66086725Y90814099D01*
X66110759Y90809318D01*
X66135263Y90809318D01*
X66159296Y90814098D01*
X66181935Y90823476D01*
X66211399Y90845327D01*
X66331066Y90964994D01*
X66384099Y91018026D01*
X66384113Y91018043D01*
X66564944Y91198874D01*
X66580490Y91217816D01*
X66592041Y91239427D01*
X66599154Y91262876D01*
X66601556Y91287262D01*
X66599154Y91311648D01*
X66592041Y91335097D01*
X66580490Y91356708D01*
X66564944Y91375650D01*
X66546002Y91391196D01*
X66524391Y91402747D01*
X66500942Y91409860D01*
X66476556Y91412262D01*
X66452170Y91409860D01*
X66440270Y91406879D01*
X66396925Y91393730D01*
X66342173Y91388338D01*
X66287426Y91393730D01*
X66227259Y91411981D01*
X66219069Y91415374D01*
X66195036Y91420156D01*
X66170531Y91420158D01*
X66146498Y91415379D01*
X66123858Y91406003D01*
X66103483Y91392390D01*
X66086154Y91375064D01*
X66072539Y91354690D01*
X66063161Y91332052D01*
X66058379Y91308019D01*
X66058377Y91283514D01*
X66063158Y91259474D01*
X66072470Y91228776D01*
X66077862Y91174027D01*
X66072470Y91119280D01*
X66056497Y91066624D01*
X66030566Y91018109D01*
X66026385Y91013015D01*
X66012771Y90992641D01*
X66003394Y90970002D01*
X65998613Y90945968D01*
X64077769Y90945968D01*
X64088369Y90980910D01*
X64114299Y91029422D01*
X64153123Y91076729D01*
X65019471Y91943077D01*
X65066778Y91981901D01*
X65115290Y92007831D01*
X65167946Y92023804D01*
X65222693Y92029196D01*
X65277440Y92023804D01*
X65337607Y92005553D01*
X65345797Y92002160D01*
X65369830Y91997378D01*
X65394335Y91997376D01*
X65418368Y92002155D01*
X65441008Y92011531D01*
X65461383Y92025144D01*
X65478712Y92042470D01*
X65492327Y92062844D01*
X65501705Y92085482D01*
X65506487Y92109515D01*
X65506489Y92134020D01*
X65501708Y92158060D01*
X65492396Y92188758D01*
X65487004Y92243507D01*
X65492396Y92298254D01*
X65508369Y92350910D01*
X65534299Y92399422D01*
X65573123Y92446729D01*
X66439471Y93313077D01*
X66486778Y93351901D01*
X66535290Y93377831D01*
X66587946Y93393804D01*
X66642693Y93399196D01*
X66697440Y93393804D01*
X66697440Y93393804D01*
G37*
G36*
X33123017Y91180683D02*
X33175673Y91164710D01*
X33224185Y91138780D01*
X33266719Y91103873D01*
X33272895Y91096348D01*
X33290222Y91079021D01*
X33310597Y91065407D01*
X33333236Y91056030D01*
X33357269Y91051250D01*
X33381774Y91051250D01*
X33405807Y91056031D01*
X33428446Y91065409D01*
X33448820Y91079023D01*
X33466145Y91096348D01*
X33472321Y91103873D01*
X33514855Y91138780D01*
X33563367Y91164710D01*
X33616023Y91180683D01*
X33676910Y91186680D01*
X34902130Y91186680D01*
X34963017Y91180683D01*
X35015673Y91164710D01*
X35064185Y91138780D01*
X35108815Y91102153D01*
X35122322Y91088646D01*
X35142697Y91075033D01*
X35165336Y91065656D01*
X35189370Y91060876D01*
X35213874Y91060876D01*
X35237908Y91065657D01*
X35260546Y91075035D01*
X35280921Y91088649D01*
X35294425Y91102153D01*
X35339055Y91138780D01*
X35387567Y91164710D01*
X35440223Y91180683D01*
X35501110Y91186680D01*
X36726330Y91186680D01*
X36787217Y91180683D01*
X36839873Y91164710D01*
X36888385Y91138780D01*
X36930916Y91103876D01*
X36965820Y91061345D01*
X36991750Y91012833D01*
X37007723Y90960177D01*
X37013720Y90899290D01*
X37013720Y90099070D01*
X37007723Y90038183D01*
X36991750Y89985527D01*
X36965820Y89937015D01*
X36930916Y89894484D01*
X36888385Y89859580D01*
X36839873Y89833650D01*
X36787217Y89817677D01*
X36726330Y89811680D01*
X35501110Y89811680D01*
X35440223Y89817677D01*
X35387567Y89833650D01*
X35339055Y89859580D01*
X35294425Y89896207D01*
X35280918Y89909714D01*
X35260543Y89923327D01*
X35237904Y89932704D01*
X35213870Y89937484D01*
X35189366Y89937484D01*
X35165332Y89932703D01*
X35142694Y89923325D01*
X35122319Y89909711D01*
X35108815Y89896207D01*
X35064185Y89859580D01*
X35015673Y89833650D01*
X34963017Y89817677D01*
X34902130Y89811680D01*
X33676910Y89811680D01*
X33616023Y89817677D01*
X33563367Y89833650D01*
X33514855Y89859580D01*
X33472321Y89894487D01*
X33466145Y89902012D01*
X33448818Y89919339D01*
X33428443Y89932953D01*
X33405804Y89942330D01*
X33381771Y89947110D01*
X33357266Y89947110D01*
X33333233Y89942329D01*
X33310594Y89932951D01*
X33290220Y89919337D01*
X33272895Y89902012D01*
X33266719Y89894487D01*
X33224185Y89859580D01*
X33175673Y89833650D01*
X33123017Y89817677D01*
X33062130Y89811680D01*
X31836910Y89811680D01*
X31776023Y89817677D01*
X31723367Y89833650D01*
X31674855Y89859580D01*
X31632324Y89894484D01*
X31597420Y89937015D01*
X31571490Y89985527D01*
X31555517Y90038183D01*
X31549520Y90099070D01*
X31549520Y90899290D01*
X31555517Y90960177D01*
X31571490Y91012833D01*
X31597420Y91061345D01*
X31632324Y91103876D01*
X31674855Y91138780D01*
X31723367Y91164710D01*
X31776023Y91180683D01*
X31836910Y91186680D01*
X33062130Y91186680D01*
X33123017Y91180683D01*
X33123017Y91180683D01*
G37*
G36*
X65371614Y94719630D02*
X65424270Y94703657D01*
X65472782Y94677727D01*
X65520089Y94638903D01*
X66085917Y94073075D01*
X66124741Y94025768D01*
X66150671Y93977256D01*
X66166644Y93924600D01*
X66172036Y93869853D01*
X66166644Y93815106D01*
X66150671Y93762450D01*
X66124741Y93713938D01*
X66085917Y93666631D01*
X65219569Y92800283D01*
X65172262Y92761459D01*
X65123750Y92735529D01*
X65071094Y92719556D01*
X65016347Y92714164D01*
X64961600Y92719556D01*
X64901433Y92737807D01*
X64893243Y92741200D01*
X64869210Y92745982D01*
X64844705Y92745984D01*
X64820672Y92741205D01*
X64798032Y92731829D01*
X64777657Y92718216D01*
X64760328Y92700890D01*
X64746713Y92680516D01*
X64737335Y92657878D01*
X64732553Y92633845D01*
X64732551Y92609340D01*
X64737332Y92585300D01*
X64746644Y92554602D01*
X64752036Y92499853D01*
X64746644Y92445106D01*
X64730671Y92392450D01*
X64704741Y92343938D01*
X64665917Y92296631D01*
X63799569Y91430283D01*
X63752262Y91391459D01*
X63703750Y91365529D01*
X63651094Y91349556D01*
X63596347Y91344164D01*
X63541595Y91349556D01*
X63510912Y91358864D01*
X63486878Y91363645D01*
X63462374Y91363645D01*
X63438341Y91358865D01*
X63415702Y91349487D01*
X63395327Y91335873D01*
X63378000Y91318546D01*
X63364386Y91298172D01*
X63355009Y91275533D01*
X63350228Y91251499D01*
X63350228Y91226995D01*
X63355008Y91202963D01*
X63366644Y91164604D01*
X63372036Y91109853D01*
X63366644Y91055106D01*
X63350671Y91002450D01*
X63324741Y90953938D01*
X63285917Y90906631D01*
X62419569Y90040283D01*
X62372262Y90001459D01*
X62323750Y89975529D01*
X62271094Y89959556D01*
X62216347Y89954164D01*
X62161600Y89959556D01*
X62108944Y89975529D01*
X62060432Y90001459D01*
X62013125Y90040283D01*
X61447297Y90606111D01*
X61408473Y90653418D01*
X61382543Y90701930D01*
X61366570Y90754586D01*
X61361178Y90809333D01*
X61366570Y90864080D01*
X61382543Y90916736D01*
X61408473Y90965248D01*
X61447297Y91012555D01*
X62313645Y91878903D01*
X62360952Y91917727D01*
X62409464Y91943657D01*
X62462120Y91959630D01*
X62516867Y91965022D01*
X62571619Y91959630D01*
X62602302Y91950322D01*
X62626336Y91945541D01*
X62650840Y91945541D01*
X62674873Y91950321D01*
X62697512Y91959699D01*
X62717887Y91973313D01*
X62735214Y91990640D01*
X62748828Y92011014D01*
X62758205Y92033653D01*
X62762986Y92057687D01*
X62762986Y92082191D01*
X62758206Y92106223D01*
X62746570Y92144582D01*
X62741178Y92199333D01*
X62746570Y92254080D01*
X62762543Y92306736D01*
X62788473Y92355248D01*
X62827297Y92402555D01*
X63693645Y93268903D01*
X63740952Y93307727D01*
X63789464Y93333657D01*
X63842120Y93349630D01*
X63896867Y93355022D01*
X63951614Y93349630D01*
X64011781Y93331379D01*
X64019971Y93327986D01*
X64044004Y93323204D01*
X64068509Y93323202D01*
X64092542Y93327981D01*
X64115182Y93337357D01*
X64135557Y93350970D01*
X64152886Y93368296D01*
X64166501Y93388670D01*
X64175879Y93411308D01*
X64180661Y93435341D01*
X64180663Y93459846D01*
X64175882Y93483886D01*
X64166570Y93514584D01*
X64161178Y93569333D01*
X64166570Y93624080D01*
X64182543Y93676736D01*
X64208473Y93725248D01*
X64247297Y93772555D01*
X65113645Y94638903D01*
X65160952Y94677727D01*
X65209464Y94703657D01*
X65262120Y94719630D01*
X65316867Y94725022D01*
X65371614Y94719630D01*
X65371614Y94719630D01*
G37*
G36*
X33123017Y93055683D02*
X33175673Y93039710D01*
X33224185Y93013780D01*
X33266719Y92978873D01*
X33272895Y92971348D01*
X33290222Y92954021D01*
X33310597Y92940407D01*
X33333236Y92931030D01*
X33357269Y92926250D01*
X33381774Y92926250D01*
X33405807Y92931031D01*
X33428446Y92940409D01*
X33448820Y92954023D01*
X33466145Y92971348D01*
X33472321Y92978873D01*
X33514855Y93013780D01*
X33563367Y93039710D01*
X33616023Y93055683D01*
X33676910Y93061680D01*
X34902130Y93061680D01*
X34963017Y93055683D01*
X35015673Y93039710D01*
X35064185Y93013780D01*
X35108815Y92977153D01*
X35122322Y92963646D01*
X35142697Y92950033D01*
X35165336Y92940656D01*
X35189370Y92935876D01*
X35213874Y92935876D01*
X35237908Y92940657D01*
X35260546Y92950035D01*
X35280921Y92963649D01*
X35294425Y92977153D01*
X35339055Y93013780D01*
X35387567Y93039710D01*
X35440223Y93055683D01*
X35501110Y93061680D01*
X36726330Y93061680D01*
X36787217Y93055683D01*
X36839873Y93039710D01*
X36888385Y93013780D01*
X36930916Y92978876D01*
X36965820Y92936345D01*
X36991750Y92887833D01*
X37007723Y92835177D01*
X37013720Y92774290D01*
X37013720Y91974070D01*
X37007723Y91913183D01*
X36991750Y91860527D01*
X36965820Y91812015D01*
X36930916Y91769484D01*
X36888385Y91734580D01*
X36839873Y91708650D01*
X36787217Y91692677D01*
X36726330Y91686680D01*
X35501110Y91686680D01*
X35440223Y91692677D01*
X35387567Y91708650D01*
X35339055Y91734580D01*
X35294425Y91771207D01*
X35280918Y91784714D01*
X35260543Y91798327D01*
X35237904Y91807704D01*
X35213870Y91812484D01*
X35189366Y91812484D01*
X35165332Y91807703D01*
X35142694Y91798325D01*
X35122319Y91784711D01*
X35108815Y91771207D01*
X35064185Y91734580D01*
X35015673Y91708650D01*
X34963017Y91692677D01*
X34902130Y91686680D01*
X33676910Y91686680D01*
X33616023Y91692677D01*
X33563367Y91708650D01*
X33514855Y91734580D01*
X33472321Y91769487D01*
X33466145Y91777012D01*
X33448818Y91794339D01*
X33428443Y91807953D01*
X33405804Y91817330D01*
X33381771Y91822110D01*
X33357266Y91822110D01*
X33333233Y91817329D01*
X33310594Y91807951D01*
X33290220Y91794337D01*
X33272895Y91777012D01*
X33266719Y91769487D01*
X33224185Y91734580D01*
X33175673Y91708650D01*
X33123017Y91692677D01*
X33062130Y91686680D01*
X31836910Y91686680D01*
X31776023Y91692677D01*
X31723367Y91708650D01*
X31674855Y91734580D01*
X31632324Y91769484D01*
X31597420Y91812015D01*
X31571490Y91860527D01*
X31555517Y91913183D01*
X31549520Y91974070D01*
X31549520Y92774290D01*
X31555517Y92835177D01*
X31571490Y92887833D01*
X31597420Y92936345D01*
X31632324Y92978876D01*
X31674855Y93013780D01*
X31723367Y93039710D01*
X31776023Y93055683D01*
X31836910Y93061680D01*
X33062130Y93061680D01*
X33123017Y93055683D01*
X33123017Y93055683D01*
G37*
G36*
X38956716Y96530522D02*
X39193300Y96432526D01*
X39406225Y96290254D01*
X39587294Y96109185D01*
X39729566Y95896260D01*
X39827562Y95659676D01*
X39877520Y95408520D01*
X39877520Y95152440D01*
X39827562Y94901284D01*
X39729566Y94664700D01*
X39587294Y94451775D01*
X39406225Y94270706D01*
X39193300Y94128434D01*
X38956716Y94030438D01*
X38705560Y93980480D01*
X38449480Y93980480D01*
X38198324Y94030438D01*
X37961740Y94128434D01*
X37748815Y94270706D01*
X37567746Y94451775D01*
X37425474Y94664700D01*
X37327478Y94901284D01*
X37277520Y95152440D01*
X37277520Y95408520D01*
X37327478Y95659676D01*
X37425474Y95896260D01*
X37567746Y96109185D01*
X37748815Y96290254D01*
X37961740Y96432526D01*
X38198324Y96530522D01*
X38449480Y96580480D01*
X38705560Y96580480D01*
X38956716Y96530522D01*
X38956716Y96530522D01*
G37*
G36*
X60978516Y96530522D02*
X61215100Y96432526D01*
X61428025Y96290254D01*
X61609094Y96109185D01*
X61751366Y95896260D01*
X61849362Y95659676D01*
X61899320Y95408520D01*
X61899320Y95152440D01*
X61849362Y94901284D01*
X61751366Y94664700D01*
X61609094Y94451775D01*
X61428025Y94270706D01*
X61215100Y94128434D01*
X60978516Y94030438D01*
X60727360Y93980480D01*
X60471280Y93980480D01*
X60220124Y94030438D01*
X59983540Y94128434D01*
X59770615Y94270706D01*
X59589546Y94451775D01*
X59447274Y94664700D01*
X59349278Y94901284D01*
X59299320Y95152440D01*
X59299320Y95408520D01*
X59349278Y95659676D01*
X59447274Y95896260D01*
X59589546Y96109185D01*
X59770615Y96290254D01*
X59983540Y96432526D01*
X60220124Y96530522D01*
X60471280Y96580480D01*
X60727360Y96580480D01*
X60978516Y96530522D01*
X60978516Y96530522D01*
G37*
M02*
