M48
;DRILL file {KiCad (5.0.2)-1} date 28/06/2019 15:12:09
;FORMAT={-:-/ absolute / inch / decimal}
FMAT,2
INCH,TZ
T1C0.0157
T2C0.0236
T3C0.0256
T4C0.0276
T5C0.0394
T6C0.0500
%
G90
G05
T1
X0.1669Y1.4919
X0.2123Y2.0486
X0.2131Y0.8962
X0.2145Y0.5318
X0.2405Y2.3936
X0.2407Y1.4192
X0.3419Y0.5436
X0.3916Y2.7923
X0.4342Y0.1784
X0.4468Y2.69
X0.4561Y2.5341
X0.4896Y2.7537
X0.52Y2.27
X0.5853Y0.457
X0.6368Y3.1161
X0.6447Y2.3471
X0.6771Y3.0577
X0.6947Y2.3471
X0.6963Y2.8361
X0.6992Y2.6334
X0.7558Y2.9041
X0.7662Y2.6845
X0.7679Y2.7693
X0.7755Y3.0809
X0.7793Y3.1643
X0.7794Y2.9277
X0.8308Y0.1061
X0.8504Y3.0952
X0.8574Y2.2629
X0.8864Y2.9512
X0.913Y2.976
X0.9398Y2.9944
X0.9584Y3.2436
X0.9809Y3.2689
X1.0043Y2.7856
X1.0062Y2.9949
X1.0079Y2.9587
X1.013Y3.0291
X1.0283Y1.052
X1.0759Y2.8825
X1.0794Y3.4092
X1.1406Y3.1994
X1.1574Y3.2573
X1.1732Y3.0998
X1.1748Y2.9223
X1.1824Y3.3092
X1.184Y3.3564
X1.1992Y3.5218
X1.2013Y3.5581
X1.2064Y2.7366
X1.2097Y3.3328
X1.2106Y3.2852
X1.2146Y3.596
X1.2213Y1.8942
X1.2229Y3.021
X1.2286Y3.6284
X1.2321Y3.1541
X1.2392Y3.1234
X1.2566Y3.0208
X1.2634Y3.1957
X1.2682Y2.9638
X1.2928Y3.1314
X1.2938Y2.0292
X1.3032Y2.1742
X1.3216Y3.1078
X1.322Y3.4936
X1.337Y3.0799
X1.34Y3.3432
X1.3466Y3.4733
X1.3552Y2.8811
X1.3609Y3.3196
X1.3836Y3.273
X1.3921Y3.3053
X1.4196Y3.2588
X1.4308Y3.1982
X1.433Y2.7987
X1.4548Y3.5126
X1.4588Y3.179
X1.4632Y3.2102
X1.4676Y3.4016
X1.4944Y3.216
X1.5138Y3.4562
X1.548Y3.2892
X1.593Y3.5622
X1.6167Y2.8694
X1.6593Y2.9209
X1.7244Y3.1964
X1.7274Y2.866
X1.8136Y3.1708
X1.867Y3.2822
X1.89Y3.2419
X2.0673Y1.2385
X2.0673Y1.1692
X2.3045Y3.0682
X2.339Y3.0446
X2.3729Y3.021
X2.3876Y2.9563
X2.435Y3.6392
X2.4816Y2.8971
X2.4856Y2.9293
X2.4924Y3.081
X2.5097Y3.6358
X2.5318Y3.0389
X2.5323Y2.8216
X2.556Y2.7866
X2.5656Y3.6897
X2.5712Y2.6882
X2.5796Y2.7497
X2.6813Y2.6864
X2.6917Y3.4589
X2.8043Y3.3481
X2.8079Y0.9652
X2.8472Y0.9652
X2.8506Y2.7937
X2.8518Y3.3311
X2.8866Y0.9652
X2.926Y0.9652
X2.9556Y3.1954
X2.9642Y2.7933
X3.0813Y2.4927
X3.1497Y2.9883
X3.1813Y2.4513
X3.2499Y0.3902
X3.265Y3.118
X3.3125Y2.9796
X3.3413Y0.4706
X3.3424Y0.4175
X3.3751Y0.2341
X3.3796Y0.369
X3.4307Y0.4306
X3.4514Y2.2794
X3.4559Y2.5203
X3.4661Y0.2377
X3.4685Y2.3356
X3.484Y2.624
X3.4944Y2.8821
X3.4958Y0.441
X3.4983Y2.4177
X3.5022Y2.9613
X3.5374Y0.3779
X3.5427Y2.2039
X3.5439Y0.5405
X3.5764Y2.4977
X3.6147Y2.1563
X3.6366Y2.4121
X3.6694Y1.4875
X3.6913Y0.4686
X3.6914Y2.0608
X3.6933Y0.8861
X3.7432Y1.4147
T3
X3.5988Y1.1322
X3.6488Y1.1322
X3.6988Y1.1322
X3.7488Y1.1322
X3.7988Y1.1322
X0.1Y1.138
X0.15Y1.138
X0.2Y1.138
X0.25Y1.138
X0.3Y1.138
X3.0457Y1.9967
X3.0457Y1.9467
X3.0457Y1.8967
X3.0457Y1.8467
X3.0457Y1.7967
X0.8588Y1.9992
X0.8588Y1.9492
X0.8588Y1.8992
X0.8588Y1.8492
X0.8588Y1.7992
T4
X0.6834Y2.1686
X1.8498Y1.2902
X1.8498Y1.1712
T5
X0.0548Y2.8202
X0.0548Y2.7202
X0.1586Y2.8699
X0.1586Y2.7699
X1.0263Y0.8317
X1.1263Y0.8317
X3.863Y2.8203
X3.863Y2.7203
X3.7588Y2.8702
X3.7588Y2.7702
X1.0106Y1.6408
X1.0106Y1.5408
X1.0106Y1.4408
T2
X3.2307Y0.2938G85X3.2307Y0.2505
G05
X3.2307Y0.1194G85X3.2307Y0.0958
G05
X3.5709Y0.2938G85X3.5709Y0.2505
G05
X3.5709Y0.1194G85X3.5709Y0.0958
G05
T6
X0.9647Y1.2577G85X1.0329Y1.2577
G05
X1.6047Y1.2628G85X1.6729Y1.2628
G05
X2.2347Y1.2628G85X2.3029Y1.2628
G05
X2.8747Y1.2577G85X2.9429Y1.2577
G05
T0
M30
